G04*
G04 #@! TF.GenerationSoftware,Altium Limited,Altium Designer,20.2.3 (150)*
G04*
G04 Layer_Color=65535*
%FSLAX25Y25*%
%MOIN*%
G70*
G04*
G04 #@! TF.SameCoordinates,AD3CAEB3-68CD-4C21-B43D-F576F7D38AEF*
G04*
G04*
G04 #@! TF.FilePolarity,Positive*
G04*
G01*
G75*
%ADD57C,0.01000*%
%ADD69C,0.02000*%
D57*
X86676Y288402D02*
Y294400D01*
X83677Y291401D01*
X87676D01*
X89675Y288402D02*
Y292400D01*
X90675D01*
X91675Y291401D01*
Y288402D01*
Y291401D01*
X92674Y292400D01*
X93674Y291401D01*
Y288402D01*
X95673D02*
Y292400D01*
X96673D01*
X97673Y291401D01*
Y288402D01*
Y291401D01*
X98672Y292400D01*
X99672Y291401D01*
Y288402D01*
X180102Y275653D02*
X174104D01*
X177103Y272654D01*
Y276652D01*
X180102Y278652D02*
X176104D01*
Y279651D01*
X177103Y280651D01*
X180102D01*
X177103D01*
X176104Y281651D01*
X177103Y282650D01*
X180102D01*
Y284650D02*
X176104D01*
Y285649D01*
X177103Y286649D01*
X180102D01*
X177103D01*
X176104Y287649D01*
X177103Y288648D01*
X180102D01*
X182071Y332406D02*
Y329740D01*
X179405Y332406D01*
X178739D01*
X178072Y331739D01*
Y330407D01*
X178739Y329740D01*
X182071Y333739D02*
X181404D01*
Y334405D01*
X182071D01*
Y333739D01*
X178072Y339737D02*
Y337071D01*
X180071D01*
X179405Y338404D01*
Y339071D01*
X180071Y339737D01*
X181404D01*
X182071Y339071D01*
Y337738D01*
X181404Y337071D01*
X182071Y341070D02*
X179405D01*
Y341736D01*
X180071Y342403D01*
X182071D01*
X180071D01*
X179405Y343069D01*
X180071Y343736D01*
X182071D01*
Y345069D02*
X179405D01*
Y345735D01*
X180071Y346402D01*
X182071D01*
X180071D01*
X179405Y347068D01*
X180071Y347734D01*
X182071D01*
X310024Y332406D02*
Y329740D01*
X307358Y332406D01*
X306691D01*
X306025Y331739D01*
Y330407D01*
X306691Y329740D01*
X310024Y333739D02*
X309357D01*
Y334405D01*
X310024D01*
Y333739D01*
X306025Y339737D02*
Y337071D01*
X308024D01*
X307358Y338404D01*
Y339071D01*
X308024Y339737D01*
X309357D01*
X310024Y339071D01*
Y337738D01*
X309357Y337071D01*
X310024Y341070D02*
X307358D01*
Y341736D01*
X308024Y342403D01*
X310024D01*
X308024D01*
X307358Y343069D01*
X308024Y343736D01*
X310024D01*
Y345069D02*
X307358D01*
Y345735D01*
X308024Y346402D01*
X310024D01*
X308024D01*
X307358Y347068D01*
X308024Y347734D01*
X310024D01*
X318960Y288402D02*
Y294400D01*
X315961Y291401D01*
X319959D01*
X321959Y288402D02*
Y292400D01*
X322958D01*
X323958Y291401D01*
Y288402D01*
Y291401D01*
X324958Y292400D01*
X325957Y291401D01*
Y288402D01*
X327957D02*
Y292400D01*
X328956D01*
X329956Y291401D01*
Y288402D01*
Y291401D01*
X330956Y292400D01*
X331956Y291401D01*
Y288402D01*
X313961Y263842D02*
X307963D01*
X310962Y260842D01*
Y264841D01*
X313961Y266841D02*
X309962D01*
Y267840D01*
X310962Y268840D01*
X313961D01*
X310962D01*
X309962Y269840D01*
X310962Y270839D01*
X313961D01*
Y272839D02*
X309962D01*
Y273838D01*
X310962Y274838D01*
X313961D01*
X310962D01*
X309962Y275838D01*
X310962Y276837D01*
X313961D01*
D69*
X169291Y248031D02*
Y283465D01*
X318898Y248031D02*
Y283465D01*
X169291Y248031D02*
X318898D01*
Y283465D02*
X392520D01*
X1181Y283465D02*
X169291Y283465D01*
X312992Y299213D02*
X392520D01*
X312992D02*
Y392520D01*
X303150Y263779D02*
X303150Y392520D01*
X185039Y263779D02*
X303150Y263779D01*
X185039Y263779D02*
X185039Y392520D01*
X1181Y299213D02*
X175197Y299213D01*
Y392520D01*
M02*
