G04*
G04 #@! TF.GenerationSoftware,Altium Limited,Altium Designer,24.2.2 (26)*
G04*
G04 Layer_Color=16711935*
%FSLAX25Y25*%
%MOIN*%
G70*
G04*
G04 #@! TF.SameCoordinates,93052230-0714-41EE-B623-C252674C3430*
G04*
G04*
G04 #@! TF.FilePolarity,Negative*
G04*
G01*
G75*
%ADD42C,0.06591*%
%ADD43R,0.07087X0.07087*%
%ADD44C,0.00591*%
%ADD45C,0.06693*%
%ADD46R,0.06890X0.06890*%
%ADD47C,0.06890*%
%ADD48R,0.06693X0.06693*%
%ADD49C,0.02953*%
%ADD50C,0.05591*%
D42*
X344142Y127134D02*
D03*
Y183827D02*
D03*
X308315D02*
D03*
D43*
Y127134D02*
D03*
D44*
X574803Y261811D02*
D03*
X31496D02*
D03*
X574803Y61024D02*
D03*
X31496D02*
D03*
D45*
X94016Y163228D02*
D03*
X104016D02*
D03*
X124016D02*
D03*
X134016D02*
D03*
X144016D02*
D03*
X54016Y173228D02*
D03*
Y163228D02*
D03*
X94016Y173228D02*
D03*
X134016D02*
D03*
X174016D02*
D03*
Y163228D02*
D03*
X214016Y173228D02*
D03*
Y163228D02*
D03*
X44016Y173228D02*
D03*
X34016D02*
D03*
X44016Y163228D02*
D03*
X84016Y173228D02*
D03*
X74016D02*
D03*
X84016Y163228D02*
D03*
X74016D02*
D03*
X114016Y173228D02*
D03*
X104016D02*
D03*
X114016Y163228D02*
D03*
X154016Y173228D02*
D03*
X144016D02*
D03*
X154016Y163228D02*
D03*
X184016Y173228D02*
D03*
X164016D02*
D03*
X184016Y163228D02*
D03*
X164016D02*
D03*
X204016Y173228D02*
D03*
X194016D02*
D03*
X204016Y163228D02*
D03*
X194016D02*
D03*
X124016Y173228D02*
D03*
X64016D02*
D03*
Y163228D02*
D03*
X224016Y173228D02*
D03*
Y163228D02*
D03*
D46*
X321772Y210630D02*
D03*
X291339Y17717D02*
D03*
X251969D02*
D03*
X173228D02*
D03*
X212598D02*
D03*
X232283Y305118D02*
D03*
X423228Y17717D02*
D03*
X383858D02*
D03*
X462598D02*
D03*
X501968Y17717D02*
D03*
X541339D02*
D03*
X330709Y17717D02*
D03*
X80709Y17717D02*
D03*
X192913Y305118D02*
D03*
X153543D02*
D03*
X114173Y305118D02*
D03*
X59055Y305118D02*
D03*
X120079Y17717D02*
D03*
D47*
X331772Y210630D02*
D03*
X271654Y17717D02*
D03*
X232283D02*
D03*
X153543D02*
D03*
X192913D02*
D03*
X251969Y305118D02*
D03*
X403543Y17717D02*
D03*
X364173D02*
D03*
X442913D02*
D03*
X482283Y17717D02*
D03*
X521654D02*
D03*
X311024Y17717D02*
D03*
X61024Y17717D02*
D03*
X212598Y305118D02*
D03*
X173228D02*
D03*
X133858Y305118D02*
D03*
X78740Y305118D02*
D03*
X100394Y17717D02*
D03*
D48*
X34016Y163228D02*
D03*
D49*
X525591Y311024D02*
D03*
Y291339D02*
D03*
X381890Y207630D02*
D03*
X33465Y210630D02*
D03*
X277559Y259842D02*
D03*
X43307Y151575D02*
D03*
X387795Y210630D02*
D03*
X224410Y116142D02*
D03*
X263779Y127953D02*
D03*
X271654Y226378D02*
D03*
X226378D02*
D03*
X183071D02*
D03*
X139764D02*
D03*
X94488D02*
D03*
X51181Y122047D02*
D03*
X66929D02*
D03*
X21654Y114173D02*
D03*
X547244Y291339D02*
D03*
X74852Y205469D02*
D03*
X64961Y200891D02*
D03*
X112205Y208661D02*
D03*
X122047D02*
D03*
X149606Y51181D02*
D03*
X169291D02*
D03*
X188976D02*
D03*
X206693D02*
D03*
X226378D02*
D03*
X246063D02*
D03*
X267717D02*
D03*
X287402D02*
D03*
X307087D02*
D03*
X326772D02*
D03*
X377953Y49213D02*
D03*
X415354D02*
D03*
X452756D02*
D03*
X494095D02*
D03*
X533465D02*
D03*
X283465Y246063D02*
D03*
X251969Y208661D02*
D03*
X242126D02*
D03*
X208661D02*
D03*
X198819D02*
D03*
X165354D02*
D03*
X155512D02*
D03*
X578740Y295276D02*
D03*
X566929Y307087D02*
D03*
X586614D02*
D03*
D50*
X301181Y210630D02*
D03*
X452756Y291339D02*
D03*
X391732D02*
D03*
X334646D02*
D03*
X316929Y226378D02*
D03*
X389764Y33465D02*
D03*
X576772Y218504D02*
D03*
X456693Y163508D02*
D03*
X488189Y159449D02*
D03*
X519685D02*
D03*
X551181D02*
D03*
M02*
