G04*
G04 #@! TF.GenerationSoftware,Altium Limited,Altium Designer,24.2.2 (26)*
G04*
G04 Layer_Physical_Order=2*
G04 Layer_Color=16711680*
%FSLAX25Y25*%
%MOIN*%
G70*
G04*
G04 #@! TF.SameCoordinates,93052230-0714-41EE-B623-C252674C3430*
G04*
G04*
G04 #@! TF.FilePolarity,Positive*
G04*
G01*
G75*
%ADD51C,0.02500*%
%ADD52C,0.01500*%
%ADD53C,0.06000*%
%ADD54C,0.06000*%
%ADD55R,0.06496X0.06496*%
%ADD56C,0.06102*%
%ADD57R,0.06299X0.06299*%
%ADD58C,0.06299*%
%ADD59R,0.06102X0.06102*%
%ADD60C,0.02362*%
%ADD61C,0.05000*%
G36*
X605280Y182122D02*
X586614D01*
X586224Y182044D01*
X585893Y181823D01*
X585672Y181492D01*
X585595Y181102D01*
Y141732D01*
X585672Y141342D01*
X585893Y141011D01*
X586224Y140790D01*
X586614Y140713D01*
X605280D01*
Y1020D01*
X1020D01*
Y140713D01*
X18671D01*
X18862Y140251D01*
X17392Y138780D01*
X17005Y138202D01*
X16869Y137519D01*
Y99457D01*
X17005Y98774D01*
X17392Y98195D01*
X96881Y18706D01*
X96744Y18197D01*
Y17236D01*
X96993Y16308D01*
X97473Y15476D01*
X98153Y14796D01*
X98985Y14316D01*
X99913Y14067D01*
X100874D01*
X101802Y14316D01*
X102635Y14796D01*
X103314Y15476D01*
X103545Y15875D01*
X117604Y29934D01*
X387980D01*
Y21435D01*
X387508Y21366D01*
X387479Y21366D01*
X380209D01*
Y14067D01*
X387508D01*
Y19493D01*
X388008Y19542D01*
X388115Y19002D01*
X388502Y18423D01*
X398345Y8581D01*
X398923Y8194D01*
X399606Y8058D01*
X399606Y8058D01*
X523622D01*
X524305Y8194D01*
X524884Y8581D01*
X534726Y18423D01*
X534726Y18423D01*
X535113Y19002D01*
X535249Y19685D01*
X535249Y19685D01*
Y49213D01*
X535113Y49895D01*
X534726Y50474D01*
X534147Y50861D01*
X533465Y50997D01*
X532782Y50861D01*
X532203Y50474D01*
X531816Y49895D01*
X531680Y49213D01*
Y20424D01*
X522883Y11627D01*
X496030D01*
X495879Y11811D01*
Y49213D01*
X495743Y49895D01*
X495356Y50474D01*
X494777Y50861D01*
X494095Y50997D01*
X493412Y50861D01*
X492833Y50474D01*
X492446Y49895D01*
X492310Y49213D01*
Y12550D01*
X491387Y11627D01*
X454691D01*
X454540Y11811D01*
Y49213D01*
X454404Y49895D01*
X454018Y50474D01*
X453439Y50861D01*
X452756Y50997D01*
X452073Y50861D01*
X451494Y50474D01*
X451107Y49895D01*
X450972Y49213D01*
Y12550D01*
X450048Y11627D01*
X417290D01*
X417139Y11811D01*
X417139Y11811D01*
Y49213D01*
X417003Y49895D01*
X416616Y50474D01*
X416037Y50861D01*
X415354Y50997D01*
X414672Y50861D01*
X414093Y50474D01*
X413706Y49895D01*
X413570Y49213D01*
Y12550D01*
X412647Y11627D01*
X400345D01*
X391548Y20424D01*
Y30422D01*
X392260Y30968D01*
X392821Y31699D01*
X393174Y32551D01*
X393294Y33465D01*
X393174Y34378D01*
X392821Y35230D01*
X392260Y35961D01*
X391529Y36522D01*
X390677Y36874D01*
X389764Y36995D01*
X379737D01*
Y49213D01*
X379601Y49895D01*
X379214Y50474D01*
X378636Y50861D01*
X377953Y50997D01*
X377270Y50861D01*
X376691Y50474D01*
X376304Y49895D01*
X376168Y49213D01*
Y36995D01*
X347588D01*
X347297Y37495D01*
X347552Y38110D01*
X347672Y39024D01*
Y127134D01*
X347642Y127363D01*
Y127595D01*
X347582Y127818D01*
X347552Y128048D01*
X347463Y128261D01*
X347403Y128485D01*
X347288Y128685D01*
X347199Y128899D01*
X347058Y129083D01*
X346942Y129283D01*
X346779Y129446D01*
X346638Y129630D01*
X346454Y129771D01*
X346291Y129935D01*
X346090Y130050D01*
X345907Y130191D01*
X345693Y130280D01*
X345493Y130395D01*
X345269Y130455D01*
X345055Y130544D01*
X344826Y130574D01*
X344602Y130634D01*
X344371D01*
X344142Y130664D01*
X343912Y130634D01*
X343681D01*
X343457Y130574D01*
X343228Y130544D01*
X343014Y130455D01*
X342791Y130395D01*
X342590Y130280D01*
X342377Y130191D01*
X342193Y130050D01*
X341993Y129935D01*
X341829Y129771D01*
X341646Y129630D01*
X341505Y129446D01*
X341341Y129283D01*
X341225Y129083D01*
X341085Y128899D01*
X340996Y128685D01*
X340880Y128485D01*
X340820Y128261D01*
X340732Y128048D01*
X340702Y127818D01*
X340642Y127595D01*
Y127363D01*
X340612Y127134D01*
Y40486D01*
X337120Y36995D01*
X328869D01*
X328552Y37381D01*
X328556Y37402D01*
X328556Y37402D01*
Y51181D01*
X328420Y51864D01*
X328033Y52443D01*
X327454Y52830D01*
X326772Y52965D01*
X326089Y52830D01*
X325510Y52443D01*
X325123Y51864D01*
X324987Y51181D01*
Y38141D01*
X323842Y36995D01*
X309184D01*
X308867Y37381D01*
X308871Y37402D01*
X308871Y37402D01*
Y51181D01*
X308735Y51864D01*
X308348Y52443D01*
X307769Y52830D01*
X307087Y52965D01*
X306404Y52830D01*
X305825Y52443D01*
X305438Y51864D01*
X305302Y51181D01*
Y38141D01*
X304156Y36995D01*
X289499D01*
X289182Y37381D01*
X289186Y37402D01*
X289186Y37402D01*
Y51181D01*
X289050Y51864D01*
X288663Y52443D01*
X288084Y52830D01*
X287402Y52965D01*
X286719Y52830D01*
X286140Y52443D01*
X285753Y51864D01*
X285617Y51181D01*
Y38141D01*
X284471Y36995D01*
X269814D01*
X269497Y37381D01*
X269501Y37402D01*
Y51181D01*
X269365Y51864D01*
X268978Y52443D01*
X268399Y52830D01*
X267717Y52965D01*
X267034Y52830D01*
X266455Y52443D01*
X266068Y51864D01*
X265932Y51181D01*
Y38141D01*
X264786Y36995D01*
X248160D01*
X247843Y37381D01*
X247847Y37402D01*
Y51181D01*
X247711Y51864D01*
X247325Y52443D01*
X246746Y52830D01*
X246063Y52965D01*
X245380Y52830D01*
X244801Y52443D01*
X244414Y51864D01*
X244279Y51181D01*
Y38141D01*
X243133Y36995D01*
X228475D01*
X228158Y37381D01*
X228162Y37402D01*
Y51181D01*
X228026Y51864D01*
X227640Y52443D01*
X227061Y52830D01*
X226378Y52965D01*
X225695Y52830D01*
X225116Y52443D01*
X224729Y51864D01*
X224594Y51181D01*
Y38141D01*
X223448Y36995D01*
X208790D01*
X208473Y37381D01*
X208477Y37402D01*
X208477Y37402D01*
Y51181D01*
X208341Y51864D01*
X207955Y52443D01*
X207376Y52830D01*
X206693Y52965D01*
X206010Y52830D01*
X205431Y52443D01*
X205045Y51864D01*
X204909Y51181D01*
Y38141D01*
X203763Y36995D01*
X191074D01*
X190757Y37381D01*
X190761Y37402D01*
Y51181D01*
X190625Y51864D01*
X190238Y52443D01*
X189659Y52830D01*
X188976Y52965D01*
X188294Y52830D01*
X187715Y52443D01*
X187328Y51864D01*
X187192Y51181D01*
Y38141D01*
X186046Y36995D01*
X171389D01*
X171072Y37381D01*
X171076Y37402D01*
Y51181D01*
X170940Y51864D01*
X170553Y52443D01*
X169974Y52830D01*
X169291Y52965D01*
X168608Y52830D01*
X168030Y52443D01*
X167643Y51864D01*
X167507Y51181D01*
Y38141D01*
X166361Y36995D01*
X151704D01*
X151386Y37381D01*
X151391Y37402D01*
Y51181D01*
X151255Y51864D01*
X150868Y52443D01*
X150289Y52830D01*
X149606Y52965D01*
X148924Y52830D01*
X148345Y52443D01*
X147958Y51864D01*
X147822Y51181D01*
Y38141D01*
X146676Y36995D01*
X116142D01*
X115228Y36874D01*
X114377Y36522D01*
X113646Y35961D01*
X99159Y21474D01*
X20438Y100196D01*
Y112350D01*
X20879Y112586D01*
X20971Y112525D01*
X21654Y112389D01*
X22336Y112525D01*
X22915Y112912D01*
X35277Y125274D01*
X35277Y125274D01*
X35664Y125853D01*
X35800Y126535D01*
X35800Y126535D01*
Y146719D01*
X36262Y146910D01*
X38843Y144329D01*
X39575Y143768D01*
X40426Y143415D01*
X41340Y143295D01*
X41340Y143295D01*
X43158D01*
X49397Y137056D01*
Y122047D01*
X49533Y121364D01*
X49919Y120786D01*
X50498Y120399D01*
X51181Y120263D01*
X51864Y120399D01*
X52443Y120786D01*
X52830Y121364D01*
X52965Y122047D01*
Y132834D01*
X53427Y133026D01*
X59762Y126691D01*
X65667Y120786D01*
X66246Y120399D01*
X66929Y120263D01*
X67612Y120399D01*
X68191Y120786D01*
X68578Y121364D01*
X68713Y122047D01*
X68578Y122730D01*
X68191Y123309D01*
X65283Y126216D01*
X65475Y126678D01*
X212070D01*
X222728Y116020D01*
Y115807D01*
X222984Y115190D01*
X223457Y114717D01*
X224075Y114461D01*
X224744D01*
X225362Y114717D01*
X225835Y115190D01*
X226091Y115807D01*
Y116476D01*
X225835Y117094D01*
X225362Y117567D01*
X224744Y117823D01*
X224531D01*
X216137Y126216D01*
X216329Y126678D01*
X262677D01*
X262827Y126528D01*
X263445Y126272D01*
X264114D01*
X264732Y126528D01*
X265205Y127000D01*
X265461Y127618D01*
Y128287D01*
X265205Y128905D01*
X264732Y129378D01*
X264114Y129634D01*
X263445D01*
X262827Y129378D01*
X262677Y129227D01*
X62273D01*
X52443Y139057D01*
X52443Y139057D01*
X48667Y142833D01*
X48858Y143295D01*
X97612D01*
X98526Y143415D01*
X99377Y143768D01*
X100108Y144329D01*
X116126Y160346D01*
X116196Y160387D01*
X116857Y161048D01*
X117325Y161858D01*
X117567Y162761D01*
Y163696D01*
X117325Y164599D01*
X116857Y165409D01*
X116196Y166070D01*
X115386Y166537D01*
X114483Y166779D01*
X113548D01*
X112645Y166537D01*
X111835Y166070D01*
X111174Y165409D01*
X111134Y165339D01*
X107912Y162117D01*
X107464Y162376D01*
X107567Y162761D01*
Y163696D01*
X107325Y164599D01*
X106857Y165409D01*
X106196Y166070D01*
X105386Y166537D01*
X104483Y166779D01*
X103548D01*
X102645Y166537D01*
X101835Y166070D01*
X101174Y165409D01*
X100707Y164599D01*
X100465Y163696D01*
Y162761D01*
X100707Y161858D01*
X101174Y161048D01*
X101835Y160387D01*
X102645Y159919D01*
X103548Y159677D01*
X104483D01*
X104868Y159780D01*
X105127Y159332D01*
X96150Y150355D01*
X45264D01*
X45073Y150817D01*
X53933Y159677D01*
X54483D01*
X55387Y159919D01*
X56196Y160387D01*
X56857Y161048D01*
X57325Y161858D01*
X57567Y162761D01*
Y163696D01*
X57325Y164599D01*
X56857Y165409D01*
X56196Y166070D01*
X55387Y166537D01*
X54483Y166779D01*
X53548D01*
X52645Y166537D01*
X51835Y166070D01*
X51174Y165409D01*
X50707Y164599D01*
X50465Y163696D01*
Y162761D01*
X50707Y161858D01*
X50838Y161629D01*
X42045Y152837D01*
X41659Y152258D01*
X41636Y152144D01*
X41158Y151999D01*
X37597Y155560D01*
Y163177D01*
X37567Y163407D01*
Y166779D01*
X35457D01*
X32905Y169332D01*
X33163Y169780D01*
X33548Y169677D01*
X34483D01*
X34562Y169698D01*
X43470D01*
X43548Y169677D01*
X44483D01*
X45386Y169919D01*
X46196Y170387D01*
X46857Y171048D01*
X46898Y171118D01*
X50119Y174339D01*
X50312Y174228D01*
X53016D01*
Y176932D01*
X52905Y177125D01*
X67132Y191352D01*
X285433D01*
X286347Y191472D01*
X287198Y191825D01*
X287929Y192386D01*
X296738Y201194D01*
X315866D01*
X316780Y201314D01*
X317631Y201667D01*
X318362Y202228D01*
X323114Y206980D01*
X325421D01*
Y214280D01*
X318122D01*
Y211973D01*
X314404Y208255D01*
X304335D01*
X304114Y208703D01*
X304238Y208865D01*
X304591Y209716D01*
X304711Y210630D01*
X304591Y211544D01*
X304238Y212395D01*
X303677Y213126D01*
X302946Y213687D01*
X302095Y214040D01*
X301181Y214160D01*
X300267Y214040D01*
X299416Y213687D01*
X298685Y213126D01*
X292779Y207221D01*
X283971Y198412D01*
X65669D01*
X64756Y198292D01*
X63904Y197939D01*
X63173Y197378D01*
X42553Y176759D01*
X34562D01*
X34483Y176779D01*
X33548D01*
X32645Y176538D01*
X31835Y176070D01*
X31495Y175730D01*
X30995Y175937D01*
Y179384D01*
X62795Y211185D01*
X63257Y210993D01*
Y201297D01*
X63176Y200891D01*
X63312Y200208D01*
X63699Y199629D01*
X64278Y199242D01*
X64961Y199107D01*
X65643Y199242D01*
X66222Y199629D01*
X66303Y199710D01*
X66690Y200289D01*
X66826Y200972D01*
Y214974D01*
X73068D01*
Y205469D01*
X73203Y204786D01*
X73590Y204207D01*
X74169Y203820D01*
X74852Y203684D01*
X75535Y203820D01*
X76113Y204207D01*
X76500Y204786D01*
X76636Y205469D01*
Y214974D01*
X110420D01*
Y208661D01*
X110556Y207979D01*
X110943Y207400D01*
X111522Y207013D01*
X112205Y206877D01*
X112888Y207013D01*
X113466Y207400D01*
X113853Y207979D01*
X113989Y208661D01*
Y214974D01*
X120263D01*
Y208661D01*
X120399Y207979D01*
X120786Y207400D01*
X121364Y207013D01*
X122047Y206877D01*
X122730Y207013D01*
X123309Y207400D01*
X123696Y207979D01*
X123831Y208661D01*
Y214974D01*
X153727D01*
Y208661D01*
X153863Y207979D01*
X154250Y207400D01*
X154829Y207013D01*
X155512Y206877D01*
X156195Y207013D01*
X156773Y207400D01*
X157160Y207979D01*
X157296Y208661D01*
Y214974D01*
X163570D01*
Y208661D01*
X163706Y207979D01*
X164093Y207400D01*
X164672Y207013D01*
X165354Y206877D01*
X166037Y207013D01*
X166616Y207400D01*
X167003Y207979D01*
X167139Y208661D01*
Y214974D01*
X197035D01*
Y208661D01*
X197170Y207979D01*
X197557Y207400D01*
X198136Y207013D01*
X198819Y206877D01*
X199502Y207013D01*
X200081Y207400D01*
X200467Y207979D01*
X200603Y208661D01*
Y214974D01*
X206877D01*
Y208661D01*
X207013Y207979D01*
X207400Y207400D01*
X207979Y207013D01*
X208661Y206877D01*
X209344Y207013D01*
X209923Y207400D01*
X210310Y207979D01*
X210446Y208661D01*
Y214974D01*
X240342D01*
Y208661D01*
X240477Y207979D01*
X240864Y207400D01*
X241443Y207013D01*
X242126Y206877D01*
X242809Y207013D01*
X243388Y207400D01*
X243774Y207979D01*
X243910Y208661D01*
Y214974D01*
X250184D01*
Y208661D01*
X250320Y207979D01*
X250707Y207400D01*
X251286Y207013D01*
X251969Y206877D01*
X252651Y207013D01*
X253230Y207400D01*
X253617Y207979D01*
X253753Y208661D01*
Y214974D01*
X576772D01*
X577685Y215094D01*
X578537Y215447D01*
X579268Y216008D01*
X579829Y216739D01*
X580182Y217590D01*
X580302Y218504D01*
X580185Y219394D01*
X587876Y227085D01*
X587876Y227085D01*
X588263Y227664D01*
X588399Y228346D01*
X588398Y228346D01*
Y287402D01*
Y307087D01*
X588263Y307769D01*
X587876Y308348D01*
X587297Y308735D01*
X586614Y308871D01*
X585931Y308735D01*
X585353Y308348D01*
X584966Y307769D01*
X584830Y307087D01*
Y292362D01*
X584368Y292171D01*
X583939Y292600D01*
X583939Y292600D01*
X568191Y308348D01*
X567612Y308735D01*
X566929Y308871D01*
X566246Y308735D01*
X565667Y308348D01*
X565281Y307769D01*
X565145Y307087D01*
X565281Y306404D01*
X565667Y305825D01*
X577908Y293585D01*
X577716Y293123D01*
X547244D01*
X546561Y292987D01*
X545982Y292600D01*
X545596Y292021D01*
X545460Y291339D01*
X545596Y290656D01*
X545982Y290077D01*
X546561Y289690D01*
X547244Y289554D01*
X581938D01*
X584830Y286663D01*
Y229085D01*
X577661Y221917D01*
X576772Y222034D01*
X285249D01*
Y246063D01*
X285113Y246746D01*
X284726Y247325D01*
X284147Y247711D01*
X283465Y247847D01*
X282782Y247711D01*
X282203Y247325D01*
X281816Y246746D01*
X281680Y246063D01*
Y222034D01*
X65122D01*
X64209Y221914D01*
X63357Y221561D01*
X62626Y221000D01*
X24999Y183373D01*
X24837Y183387D01*
X24499Y183502D01*
Y185361D01*
X63731Y224594D01*
X271654D01*
X272336Y224729D01*
X272915Y225116D01*
X273302Y225695D01*
X273438Y226378D01*
X273302Y227061D01*
X272915Y227640D01*
X272336Y228026D01*
X271654Y228162D01*
X62992D01*
X62309Y228026D01*
X61730Y227640D01*
X21453Y187362D01*
X21066Y186783D01*
X20930Y186100D01*
Y181939D01*
X20430Y181787D01*
X20406Y181823D01*
X20075Y182044D01*
X19685Y182122D01*
X1020D01*
Y321815D01*
X605280D01*
Y182122D01*
D02*
G37*
%LPC*%
G36*
X252449Y308768D02*
X251488D01*
X250560Y308519D01*
X249728Y308038D01*
X249048Y307359D01*
X248568Y306527D01*
X248319Y305599D01*
Y304638D01*
X248568Y303709D01*
X249048Y302877D01*
X249728Y302198D01*
X250560Y301717D01*
X251488Y301468D01*
X252449D01*
X253377Y301717D01*
X254209Y302198D01*
X254889Y302877D01*
X255369Y303709D01*
X255618Y304638D01*
Y305599D01*
X255369Y306527D01*
X254889Y307359D01*
X254209Y308038D01*
X253377Y308519D01*
X252449Y308768D01*
D02*
G37*
G36*
X235933D02*
X228634D01*
Y301468D01*
X235933D01*
Y308768D01*
D02*
G37*
G36*
X213079D02*
X212118D01*
X211190Y308519D01*
X210357Y308038D01*
X209678Y307359D01*
X209198Y306527D01*
X208949Y305599D01*
Y304638D01*
X209198Y303709D01*
X209678Y302877D01*
X210357Y302198D01*
X211190Y301717D01*
X212118Y301468D01*
X213079D01*
X214007Y301717D01*
X214839Y302198D01*
X215519Y302877D01*
X215999Y303709D01*
X216248Y304638D01*
Y305599D01*
X215999Y306527D01*
X215519Y307359D01*
X214839Y308038D01*
X214007Y308519D01*
X213079Y308768D01*
D02*
G37*
G36*
X196563D02*
X189264D01*
Y301468D01*
X196563D01*
Y308768D01*
D02*
G37*
G36*
X173709D02*
X172748D01*
X171820Y308519D01*
X170987Y308038D01*
X170308Y307359D01*
X169827Y306527D01*
X169579Y305599D01*
Y304638D01*
X169827Y303709D01*
X170308Y302877D01*
X170987Y302198D01*
X171820Y301717D01*
X172748Y301468D01*
X173709D01*
X174637Y301717D01*
X175469Y302198D01*
X176149Y302877D01*
X176629Y303709D01*
X176878Y304638D01*
Y305599D01*
X176629Y306527D01*
X176149Y307359D01*
X175469Y308038D01*
X174637Y308519D01*
X173709Y308768D01*
D02*
G37*
G36*
X157193D02*
X149894D01*
Y301468D01*
X157193D01*
Y308768D01*
D02*
G37*
G36*
X79221D02*
X78260D01*
X77332Y308519D01*
X76499Y308038D01*
X75820Y307359D01*
X75339Y306527D01*
X75091Y305599D01*
Y304638D01*
X75339Y303709D01*
X75820Y302877D01*
X76499Y302198D01*
X77332Y301717D01*
X78260Y301468D01*
X79221D01*
X80149Y301717D01*
X80981Y302198D01*
X81661Y302877D01*
X82141Y303709D01*
X82390Y304638D01*
Y305599D01*
X82141Y306527D01*
X81661Y307359D01*
X80981Y308038D01*
X80149Y308519D01*
X79221Y308768D01*
D02*
G37*
G36*
X62705D02*
X55405D01*
Y301468D01*
X62705D01*
Y308768D01*
D02*
G37*
G36*
X134339Y308768D02*
X133378D01*
X132450Y308519D01*
X131617Y308038D01*
X130938Y307359D01*
X130457Y306527D01*
X130209Y305599D01*
Y304638D01*
X130457Y303709D01*
X130938Y302877D01*
X131617Y302198D01*
X132450Y301717D01*
X133378Y301468D01*
X134339D01*
X135267Y301717D01*
X136099Y302198D01*
X136779Y302877D01*
X137259Y303709D01*
X137508Y304638D01*
Y305599D01*
X137259Y306527D01*
X136779Y307359D01*
X136099Y308038D01*
X135267Y308519D01*
X134339Y308768D01*
D02*
G37*
G36*
X117823D02*
X110524D01*
Y301468D01*
X117823D01*
Y308768D01*
D02*
G37*
G36*
X525591Y312808D02*
X524908Y312672D01*
X524329Y312285D01*
X523942Y311706D01*
X523806Y311024D01*
Y291339D01*
X523942Y290656D01*
X524329Y290077D01*
X524908Y289690D01*
X525591Y289554D01*
X526273Y289690D01*
X526852Y290077D01*
X527239Y290656D01*
X527375Y291339D01*
Y311024D01*
X527239Y311706D01*
X526852Y312285D01*
X526273Y312672D01*
X525591Y312808D01*
D02*
G37*
G36*
X574803Y270971D02*
X573016Y270795D01*
X571298Y270274D01*
X569714Y269428D01*
X568326Y268288D01*
X567186Y266900D01*
X566340Y265317D01*
X565819Y263598D01*
X565643Y261811D01*
X565819Y260024D01*
X566340Y258306D01*
X567186Y256722D01*
X568326Y255334D01*
X569714Y254194D01*
X571298Y253348D01*
X573016Y252827D01*
X574803Y252651D01*
X576590Y252827D01*
X578309Y253348D01*
X579892Y254194D01*
X581281Y255334D01*
X582420Y256722D01*
X583266Y258306D01*
X583788Y260024D01*
X583964Y261811D01*
X583788Y263598D01*
X583266Y265317D01*
X582420Y266900D01*
X581281Y268288D01*
X579892Y269428D01*
X578309Y270274D01*
X576590Y270795D01*
X574803Y270971D01*
D02*
G37*
G36*
X31496D02*
X29709Y270795D01*
X27990Y270274D01*
X26407Y269428D01*
X25019Y268288D01*
X23879Y266900D01*
X23033Y265317D01*
X22512Y263598D01*
X22336Y261811D01*
X22512Y260024D01*
X23033Y258306D01*
X23879Y256722D01*
X25019Y255334D01*
X26407Y254194D01*
X27990Y253348D01*
X29709Y252827D01*
X31496Y252651D01*
X33283Y252827D01*
X35002Y253348D01*
X36585Y254194D01*
X37973Y255334D01*
X39113Y256722D01*
X39959Y258306D01*
X40481Y260024D01*
X40657Y261811D01*
X40481Y263598D01*
X39959Y265317D01*
X39113Y266900D01*
X37973Y268288D01*
X36585Y269428D01*
X35002Y270274D01*
X33283Y270795D01*
X31496Y270971D01*
D02*
G37*
G36*
X452756Y294869D02*
X328740D01*
X327826Y294748D01*
X326975Y294396D01*
X326244Y293835D01*
X314433Y282024D01*
X313872Y281293D01*
X313519Y280441D01*
X313399Y279528D01*
Y226378D01*
X313519Y225464D01*
X313872Y224613D01*
X314433Y223882D01*
X315164Y223321D01*
X316016Y222968D01*
X316929Y222848D01*
X317843Y222968D01*
X318694Y223321D01*
X319425Y223882D01*
X319986Y224613D01*
X320339Y225464D01*
X320459Y226378D01*
Y278065D01*
X330202Y287808D01*
X452756D01*
X453670Y287929D01*
X454521Y288281D01*
X455252Y288842D01*
X455813Y289574D01*
X456166Y290425D01*
X456286Y291339D01*
X456166Y292252D01*
X455813Y293104D01*
X455252Y293835D01*
X454521Y294396D01*
X453670Y294748D01*
X452756Y294869D01*
D02*
G37*
G36*
X277559Y261627D02*
X59055D01*
X58372Y261491D01*
X57793Y261104D01*
X57793Y261104D01*
X32203Y235514D01*
X31816Y234935D01*
X31680Y234252D01*
Y210630D01*
X31816Y209947D01*
X32203Y209368D01*
X32782Y208981D01*
X33465Y208846D01*
X34147Y208981D01*
X34726Y209368D01*
X35113Y209947D01*
X35249Y210630D01*
Y233513D01*
X59794Y258058D01*
X277559D01*
X278242Y258194D01*
X278821Y258581D01*
X279207Y259160D01*
X279343Y259842D01*
X279207Y260525D01*
X278821Y261104D01*
X278242Y261491D01*
X277559Y261627D01*
D02*
G37*
G36*
X309315Y187182D02*
Y184827D01*
X311670D01*
X311576Y185178D01*
X311116Y185976D01*
X310464Y186627D01*
X309666Y187088D01*
X309315Y187182D01*
D02*
G37*
G36*
X307315Y187182D02*
X306964Y187088D01*
X306166Y186627D01*
X305514Y185976D01*
X305053Y185178D01*
X304959Y184827D01*
X307315D01*
Y187182D01*
D02*
G37*
G36*
Y182827D02*
X304960D01*
X305053Y182476D01*
X305514Y181678D01*
X306166Y181026D01*
X306964Y180565D01*
X307315Y180471D01*
Y182827D01*
D02*
G37*
G36*
X311670D02*
X309315D01*
Y180471D01*
X309666Y180565D01*
X310464Y181026D01*
X311116Y181678D01*
X311576Y182476D01*
X311670Y182827D01*
D02*
G37*
G36*
X332252Y214280D02*
X331291D01*
X330363Y214031D01*
X329531Y213550D01*
X328851Y212871D01*
X328371Y212039D01*
X328122Y211110D01*
Y210149D01*
X328371Y209221D01*
X328851Y208389D01*
X329531Y207710D01*
X329930Y207479D01*
X340612Y196798D01*
Y183827D01*
X340642Y183597D01*
Y183366D01*
X340702Y183142D01*
X340732Y182913D01*
X340820Y182699D01*
X340880Y182476D01*
X340996Y182275D01*
X341085Y182062D01*
X341225Y181878D01*
X341341Y181678D01*
X341505Y181514D01*
X341646Y181331D01*
X341829Y181190D01*
X341993Y181026D01*
X342193Y180910D01*
X342377Y180770D01*
X342590Y180681D01*
X342791Y180565D01*
X343014Y180505D01*
X343228Y180417D01*
X343457Y180387D01*
X343681Y180327D01*
X343912D01*
X344142Y180297D01*
X344371Y180327D01*
X344602D01*
X344826Y180387D01*
X345055Y180417D01*
X345269Y180505D01*
X345493Y180565D01*
X345693Y180681D01*
X345907Y180770D01*
X346090Y180910D01*
X346291Y181026D01*
X346454Y181190D01*
X346638Y181331D01*
X346779Y181514D01*
X346942Y181678D01*
X347058Y181878D01*
X347199Y182062D01*
X347288Y182275D01*
X347403Y182476D01*
X347463Y182699D01*
X347552Y182913D01*
X347582Y183142D01*
X347642Y183366D01*
Y183597D01*
X347672Y183827D01*
Y198260D01*
X347552Y199173D01*
X347199Y200025D01*
X346638Y200756D01*
X346638Y200756D01*
X334923Y212471D01*
X334692Y212871D01*
X334013Y213550D01*
X333180Y214031D01*
X332252Y214280D01*
D02*
G37*
G36*
X195016Y176637D02*
Y174228D01*
X197424D01*
X197325Y174599D01*
X196857Y175409D01*
X196196Y176070D01*
X195386Y176538D01*
X195016Y176637D01*
D02*
G37*
G36*
X193016D02*
X192645Y176538D01*
X191835Y176070D01*
X191174Y175409D01*
X190707Y174599D01*
X190607Y174228D01*
X193016D01*
Y176637D01*
D02*
G37*
G36*
X175016D02*
Y174228D01*
X177424D01*
X177325Y174599D01*
X176857Y175409D01*
X176196Y176070D01*
X175386Y176538D01*
X175016Y176637D01*
D02*
G37*
G36*
X173016D02*
X172645Y176538D01*
X171835Y176070D01*
X171174Y175409D01*
X170707Y174599D01*
X170607Y174228D01*
X173016D01*
Y176637D01*
D02*
G37*
G36*
X125016D02*
Y174228D01*
X127424D01*
X127325Y174599D01*
X126857Y175409D01*
X126196Y176070D01*
X125386Y176538D01*
X125016Y176637D01*
D02*
G37*
G36*
X123016D02*
X122645Y176538D01*
X121835Y176070D01*
X121174Y175409D01*
X120707Y174599D01*
X120607Y174228D01*
X123016D01*
Y176637D01*
D02*
G37*
G36*
X95016D02*
Y174228D01*
X97424D01*
X97325Y174599D01*
X96857Y175409D01*
X96196Y176070D01*
X95386Y176538D01*
X95016Y176637D01*
D02*
G37*
G36*
X93016D02*
X92645Y176538D01*
X91835Y176070D01*
X91174Y175409D01*
X90707Y174599D01*
X90607Y174228D01*
X93016D01*
Y176637D01*
D02*
G37*
G36*
X55016D02*
Y174228D01*
X57424D01*
X57325Y174599D01*
X56857Y175409D01*
X56196Y176070D01*
X55387Y176538D01*
X55016Y176637D01*
D02*
G37*
G36*
X197424Y172228D02*
X195016D01*
Y169820D01*
X195386Y169919D01*
X196196Y170387D01*
X196857Y171048D01*
X197325Y171858D01*
X197424Y172228D01*
D02*
G37*
G36*
X193016D02*
X190607D01*
X190707Y171858D01*
X191174Y171048D01*
X191835Y170387D01*
X192645Y169919D01*
X193016Y169820D01*
Y172228D01*
D02*
G37*
G36*
X177424D02*
X175016D01*
Y169820D01*
X175386Y169919D01*
X176196Y170387D01*
X176857Y171048D01*
X177325Y171858D01*
X177424Y172228D01*
D02*
G37*
G36*
X173016D02*
X170607D01*
X170707Y171858D01*
X171174Y171048D01*
X171835Y170387D01*
X172645Y169919D01*
X173016Y169820D01*
Y172228D01*
D02*
G37*
G36*
X127424D02*
X125016D01*
Y169820D01*
X125386Y169919D01*
X126196Y170387D01*
X126857Y171048D01*
X127325Y171858D01*
X127424Y172228D01*
D02*
G37*
G36*
X123016D02*
X120607D01*
X120707Y171858D01*
X121174Y171048D01*
X121835Y170387D01*
X122645Y169919D01*
X123016Y169820D01*
Y172228D01*
D02*
G37*
G36*
X97424D02*
X95016D01*
Y169820D01*
X95386Y169919D01*
X96196Y170387D01*
X96857Y171048D01*
X97325Y171858D01*
X97424Y172228D01*
D02*
G37*
G36*
X93016D02*
X90607D01*
X90707Y171858D01*
X91174Y171048D01*
X91835Y170387D01*
X92645Y169919D01*
X93016Y169820D01*
Y172228D01*
D02*
G37*
G36*
X57424D02*
X55016D01*
Y169820D01*
X55387Y169919D01*
X56196Y170387D01*
X56857Y171048D01*
X57325Y171858D01*
X57424Y172228D01*
D02*
G37*
G36*
X53016D02*
X50607D01*
X50707Y171858D01*
X51174Y171048D01*
X51835Y170387D01*
X52645Y169919D01*
X53016Y169820D01*
Y172228D01*
D02*
G37*
G36*
X224483Y176779D02*
X223548D01*
X222645Y176538D01*
X221835Y176070D01*
X221174Y175409D01*
X220707Y174599D01*
X220465Y173696D01*
Y172761D01*
X220707Y171858D01*
X221174Y171048D01*
X221835Y170387D01*
X222645Y169919D01*
X223548Y169677D01*
X224483D01*
X225387Y169919D01*
X226196Y170387D01*
X226857Y171048D01*
X227325Y171858D01*
X227567Y172761D01*
Y173696D01*
X227325Y174599D01*
X226857Y175409D01*
X226196Y176070D01*
X225387Y176538D01*
X224483Y176779D01*
D02*
G37*
G36*
X214483D02*
X213548D01*
X212645Y176538D01*
X211835Y176070D01*
X211174Y175409D01*
X210707Y174599D01*
X210465Y173696D01*
Y172761D01*
X210707Y171858D01*
X211174Y171048D01*
X211835Y170387D01*
X212645Y169919D01*
X213548Y169677D01*
X214483D01*
X215387Y169919D01*
X216196Y170387D01*
X216857Y171048D01*
X217325Y171858D01*
X217567Y172761D01*
Y173696D01*
X217325Y174599D01*
X216857Y175409D01*
X216196Y176070D01*
X215387Y176538D01*
X214483Y176779D01*
D02*
G37*
G36*
X204483D02*
X203548D01*
X202645Y176538D01*
X201835Y176070D01*
X201174Y175409D01*
X200707Y174599D01*
X200465Y173696D01*
Y172761D01*
X200707Y171858D01*
X201174Y171048D01*
X201835Y170387D01*
X202645Y169919D01*
X203548Y169677D01*
X204483D01*
X205386Y169919D01*
X206196Y170387D01*
X206857Y171048D01*
X207325Y171858D01*
X207567Y172761D01*
Y173696D01*
X207325Y174599D01*
X206857Y175409D01*
X206196Y176070D01*
X205386Y176538D01*
X204483Y176779D01*
D02*
G37*
G36*
X184483D02*
X183548D01*
X182645Y176538D01*
X181835Y176070D01*
X181174Y175409D01*
X180707Y174599D01*
X180465Y173696D01*
Y172761D01*
X180707Y171858D01*
X181174Y171048D01*
X181835Y170387D01*
X182645Y169919D01*
X183548Y169677D01*
X184483D01*
X185386Y169919D01*
X186196Y170387D01*
X186857Y171048D01*
X187325Y171858D01*
X187567Y172761D01*
Y173696D01*
X187325Y174599D01*
X186857Y175409D01*
X186196Y176070D01*
X185386Y176538D01*
X184483Y176779D01*
D02*
G37*
G36*
X164483D02*
X163548D01*
X162645Y176538D01*
X161835Y176070D01*
X161174Y175409D01*
X160707Y174599D01*
X160465Y173696D01*
Y172761D01*
X160707Y171858D01*
X161174Y171048D01*
X161835Y170387D01*
X162645Y169919D01*
X163548Y169677D01*
X164483D01*
X165386Y169919D01*
X166196Y170387D01*
X166857Y171048D01*
X167325Y171858D01*
X167567Y172761D01*
Y173696D01*
X167325Y174599D01*
X166857Y175409D01*
X166196Y176070D01*
X165386Y176538D01*
X164483Y176779D01*
D02*
G37*
G36*
X154483D02*
X153548D01*
X152645Y176538D01*
X151835Y176070D01*
X151174Y175409D01*
X150707Y174599D01*
X150465Y173696D01*
Y172761D01*
X150707Y171858D01*
X151174Y171048D01*
X151835Y170387D01*
X152645Y169919D01*
X153548Y169677D01*
X154483D01*
X155386Y169919D01*
X156196Y170387D01*
X156857Y171048D01*
X157325Y171858D01*
X157567Y172761D01*
Y173696D01*
X157325Y174599D01*
X156857Y175409D01*
X156196Y176070D01*
X155386Y176538D01*
X154483Y176779D01*
D02*
G37*
G36*
X144483D02*
X143548D01*
X142645Y176538D01*
X141835Y176070D01*
X141174Y175409D01*
X140707Y174599D01*
X140465Y173696D01*
Y172761D01*
X140707Y171858D01*
X141174Y171048D01*
X141835Y170387D01*
X142645Y169919D01*
X143548Y169677D01*
X144483D01*
X145386Y169919D01*
X146196Y170387D01*
X146857Y171048D01*
X147325Y171858D01*
X147567Y172761D01*
Y173696D01*
X147325Y174599D01*
X146857Y175409D01*
X146196Y176070D01*
X145386Y176538D01*
X144483Y176779D01*
D02*
G37*
G36*
X134483D02*
X133548D01*
X132645Y176538D01*
X131835Y176070D01*
X131174Y175409D01*
X130707Y174599D01*
X130465Y173696D01*
Y172761D01*
X130707Y171858D01*
X131174Y171048D01*
X131835Y170387D01*
X132645Y169919D01*
X133548Y169677D01*
X134483D01*
X135386Y169919D01*
X136196Y170387D01*
X136857Y171048D01*
X137325Y171858D01*
X137567Y172761D01*
Y173696D01*
X137325Y174599D01*
X136857Y175409D01*
X136196Y176070D01*
X135386Y176538D01*
X134483Y176779D01*
D02*
G37*
G36*
X114483D02*
X113548D01*
X112645Y176538D01*
X111835Y176070D01*
X111174Y175409D01*
X110707Y174599D01*
X110465Y173696D01*
Y172761D01*
X110707Y171858D01*
X111174Y171048D01*
X111835Y170387D01*
X112645Y169919D01*
X113548Y169677D01*
X114483D01*
X115386Y169919D01*
X116196Y170387D01*
X116857Y171048D01*
X117325Y171858D01*
X117567Y172761D01*
Y173696D01*
X117325Y174599D01*
X116857Y175409D01*
X116196Y176070D01*
X115386Y176538D01*
X114483Y176779D01*
D02*
G37*
G36*
X104483D02*
X103548D01*
X102645Y176538D01*
X101835Y176070D01*
X101174Y175409D01*
X100707Y174599D01*
X100465Y173696D01*
Y172761D01*
X100707Y171858D01*
X101174Y171048D01*
X101835Y170387D01*
X102645Y169919D01*
X103548Y169677D01*
X104483D01*
X105386Y169919D01*
X106196Y170387D01*
X106857Y171048D01*
X107325Y171858D01*
X107567Y172761D01*
Y173696D01*
X107325Y174599D01*
X106857Y175409D01*
X106196Y176070D01*
X105386Y176538D01*
X104483Y176779D01*
D02*
G37*
G36*
X84483D02*
X83548D01*
X82645Y176538D01*
X81835Y176070D01*
X81174Y175409D01*
X80707Y174599D01*
X80465Y173696D01*
Y172761D01*
X80707Y171858D01*
X81174Y171048D01*
X81835Y170387D01*
X82645Y169919D01*
X83548Y169677D01*
X84483D01*
X85387Y169919D01*
X86196Y170387D01*
X86857Y171048D01*
X87325Y171858D01*
X87567Y172761D01*
Y173696D01*
X87325Y174599D01*
X86857Y175409D01*
X86196Y176070D01*
X85387Y176538D01*
X84483Y176779D01*
D02*
G37*
G36*
X387795Y212414D02*
X379417D01*
X378734Y212278D01*
X378155Y211892D01*
X378155Y211892D01*
X376691Y210427D01*
X376304Y209848D01*
X376168Y209166D01*
Y188053D01*
X357223Y169107D01*
X296320D01*
X280063Y185364D01*
X279485Y185751D01*
X278802Y185887D01*
X74890D01*
X74207Y185751D01*
X73628Y185364D01*
X73628Y185364D01*
X64925Y176661D01*
X64483Y176779D01*
X63548D01*
X62645Y176538D01*
X61835Y176070D01*
X61174Y175409D01*
X60707Y174599D01*
X60465Y173696D01*
Y172761D01*
X60707Y171858D01*
X61174Y171048D01*
X61835Y170387D01*
X62645Y169919D01*
X63548Y169677D01*
X64483D01*
X65386Y169919D01*
X66196Y170387D01*
X66857Y171048D01*
X67325Y171858D01*
X67567Y172761D01*
Y173696D01*
X67449Y174138D01*
X75629Y182318D01*
X79945D01*
X80136Y181856D01*
X74938Y176658D01*
X74483Y176779D01*
X73548D01*
X72645Y176538D01*
X71835Y176070D01*
X71174Y175409D01*
X70707Y174599D01*
X70465Y173696D01*
Y172761D01*
X70707Y171858D01*
X71174Y171048D01*
X71835Y170387D01*
X72645Y169919D01*
X73548Y169677D01*
X74483D01*
X75387Y169919D01*
X76196Y170387D01*
X76857Y171048D01*
X77325Y171858D01*
X77567Y172761D01*
Y173696D01*
X77452Y174125D01*
X82645Y179318D01*
X276820D01*
X285203Y170935D01*
X285203Y170935D01*
X293077Y163061D01*
X293077Y163061D01*
X293656Y162674D01*
X294339Y162539D01*
X294339Y162539D01*
X359205D01*
X359888Y162674D01*
X360466Y163061D01*
X368340Y170935D01*
X368340Y170935D01*
X383151Y185746D01*
X383151Y185746D01*
X383538Y186325D01*
X383674Y187008D01*
X383674Y187008D01*
Y207630D01*
X383538Y208313D01*
X383477Y208405D01*
X383713Y208846D01*
X387795D01*
X388478Y208981D01*
X389057Y209368D01*
X389444Y209947D01*
X389580Y210630D01*
X389444Y211313D01*
X389057Y211892D01*
X388478Y212278D01*
X387795Y212414D01*
D02*
G37*
G36*
X225016Y166637D02*
Y164228D01*
X227424D01*
X227325Y164599D01*
X226857Y165409D01*
X226196Y166070D01*
X225387Y166537D01*
X225016Y166637D01*
D02*
G37*
G36*
X223016D02*
X222645Y166537D01*
X221835Y166070D01*
X221174Y165409D01*
X220707Y164599D01*
X220607Y164228D01*
X223016D01*
Y166637D01*
D02*
G37*
G36*
X155016D02*
Y164228D01*
X157424D01*
X157325Y164599D01*
X156857Y165409D01*
X156196Y166070D01*
X155386Y166537D01*
X155016Y166637D01*
D02*
G37*
G36*
X153016D02*
X152645Y166537D01*
X151835Y166070D01*
X151174Y165409D01*
X150707Y164599D01*
X150607Y164228D01*
X153016D01*
Y166637D01*
D02*
G37*
G36*
X75016D02*
Y164228D01*
X77424D01*
X77325Y164599D01*
X76857Y165409D01*
X76196Y166070D01*
X75387Y166537D01*
X75016Y166637D01*
D02*
G37*
G36*
X73016D02*
X72645Y166537D01*
X71835Y166070D01*
X71174Y165409D01*
X70707Y164599D01*
X70607Y164228D01*
X73016D01*
Y166637D01*
D02*
G37*
G36*
X227424Y162228D02*
X225016D01*
Y159820D01*
X225387Y159919D01*
X226196Y160387D01*
X226857Y161048D01*
X227325Y161858D01*
X227424Y162228D01*
D02*
G37*
G36*
X223016D02*
X220607D01*
X220707Y161858D01*
X221174Y161048D01*
X221835Y160387D01*
X222645Y159919D01*
X223016Y159820D01*
Y162228D01*
D02*
G37*
G36*
X157424D02*
X155016D01*
Y159820D01*
X155386Y159919D01*
X156196Y160387D01*
X156857Y161048D01*
X157325Y161858D01*
X157424Y162228D01*
D02*
G37*
G36*
X153016D02*
X150607D01*
X150707Y161858D01*
X151174Y161048D01*
X151835Y160387D01*
X152645Y159919D01*
X153016Y159820D01*
Y162228D01*
D02*
G37*
G36*
X77424D02*
X75016D01*
Y159820D01*
X75387Y159919D01*
X76196Y160387D01*
X76857Y161048D01*
X77325Y161858D01*
X77424Y162228D01*
D02*
G37*
G36*
X73016D02*
X70607D01*
X70707Y161858D01*
X71174Y161048D01*
X71835Y160387D01*
X72645Y159919D01*
X73016Y159820D01*
Y162228D01*
D02*
G37*
G36*
X214483Y166779D02*
X213548D01*
X212645Y166537D01*
X211835Y166070D01*
X211174Y165409D01*
X210707Y164599D01*
X210465Y163696D01*
Y162761D01*
X210707Y161858D01*
X211174Y161048D01*
X211835Y160387D01*
X212645Y159919D01*
X213548Y159677D01*
X214483D01*
X215387Y159919D01*
X216196Y160387D01*
X216857Y161048D01*
X217325Y161858D01*
X217567Y162761D01*
Y163696D01*
X217325Y164599D01*
X216857Y165409D01*
X216196Y166070D01*
X215387Y166537D01*
X214483Y166779D01*
D02*
G37*
G36*
X204483D02*
X203548D01*
X202645Y166537D01*
X201835Y166070D01*
X201174Y165409D01*
X200707Y164599D01*
X200465Y163696D01*
Y162761D01*
X200707Y161858D01*
X201174Y161048D01*
X201835Y160387D01*
X202645Y159919D01*
X203548Y159677D01*
X204483D01*
X205386Y159919D01*
X206196Y160387D01*
X206857Y161048D01*
X207325Y161858D01*
X207567Y162761D01*
Y163696D01*
X207325Y164599D01*
X206857Y165409D01*
X206196Y166070D01*
X205386Y166537D01*
X204483Y166779D01*
D02*
G37*
G36*
X194483D02*
X193548D01*
X192645Y166537D01*
X191835Y166070D01*
X191174Y165409D01*
X190707Y164599D01*
X190465Y163696D01*
Y162761D01*
X190707Y161858D01*
X191174Y161048D01*
X191835Y160387D01*
X192645Y159919D01*
X193548Y159677D01*
X194483D01*
X195386Y159919D01*
X196196Y160387D01*
X196857Y161048D01*
X197325Y161858D01*
X197567Y162761D01*
Y163696D01*
X197325Y164599D01*
X196857Y165409D01*
X196196Y166070D01*
X195386Y166537D01*
X194483Y166779D01*
D02*
G37*
G36*
X184483D02*
X183548D01*
X182645Y166537D01*
X181835Y166070D01*
X181174Y165409D01*
X180707Y164599D01*
X180465Y163696D01*
Y162761D01*
X180707Y161858D01*
X181174Y161048D01*
X181835Y160387D01*
X182645Y159919D01*
X183548Y159677D01*
X184483D01*
X185386Y159919D01*
X186196Y160387D01*
X186857Y161048D01*
X187325Y161858D01*
X187567Y162761D01*
Y163696D01*
X187325Y164599D01*
X186857Y165409D01*
X186196Y166070D01*
X185386Y166537D01*
X184483Y166779D01*
D02*
G37*
G36*
X174483D02*
X173548D01*
X172645Y166537D01*
X171835Y166070D01*
X171174Y165409D01*
X170707Y164599D01*
X170465Y163696D01*
Y162761D01*
X170707Y161858D01*
X171174Y161048D01*
X171835Y160387D01*
X172645Y159919D01*
X173548Y159677D01*
X174483D01*
X175386Y159919D01*
X176196Y160387D01*
X176857Y161048D01*
X177325Y161858D01*
X177567Y162761D01*
Y163696D01*
X177325Y164599D01*
X176857Y165409D01*
X176196Y166070D01*
X175386Y166537D01*
X174483Y166779D01*
D02*
G37*
G36*
X164483D02*
X163548D01*
X162645Y166537D01*
X161835Y166070D01*
X161174Y165409D01*
X160707Y164599D01*
X160465Y163696D01*
Y162761D01*
X160707Y161858D01*
X161174Y161048D01*
X161835Y160387D01*
X162645Y159919D01*
X163548Y159677D01*
X164483D01*
X165386Y159919D01*
X166196Y160387D01*
X166857Y161048D01*
X167325Y161858D01*
X167567Y162761D01*
Y163696D01*
X167325Y164599D01*
X166857Y165409D01*
X166196Y166070D01*
X165386Y166537D01*
X164483Y166779D01*
D02*
G37*
G36*
X144483D02*
X143548D01*
X142645Y166537D01*
X141835Y166070D01*
X141174Y165409D01*
X140707Y164599D01*
X140465Y163696D01*
Y162761D01*
X140707Y161858D01*
X141174Y161048D01*
X141835Y160387D01*
X142645Y159919D01*
X143548Y159677D01*
X144483D01*
X145386Y159919D01*
X146196Y160387D01*
X146857Y161048D01*
X147325Y161858D01*
X147567Y162761D01*
Y163696D01*
X147325Y164599D01*
X146857Y165409D01*
X146196Y166070D01*
X145386Y166537D01*
X144483Y166779D01*
D02*
G37*
G36*
X134483D02*
X133548D01*
X132645Y166537D01*
X131835Y166070D01*
X131174Y165409D01*
X130707Y164599D01*
X130465Y163696D01*
Y162761D01*
X130707Y161858D01*
X131174Y161048D01*
X131835Y160387D01*
X132645Y159919D01*
X133548Y159677D01*
X134483D01*
X135386Y159919D01*
X136196Y160387D01*
X136857Y161048D01*
X137325Y161858D01*
X137567Y162761D01*
Y163696D01*
X137325Y164599D01*
X136857Y165409D01*
X136196Y166070D01*
X135386Y166537D01*
X134483Y166779D01*
D02*
G37*
G36*
X124483D02*
X123548D01*
X122645Y166537D01*
X121835Y166070D01*
X121174Y165409D01*
X120707Y164599D01*
X120465Y163696D01*
Y162761D01*
X120707Y161858D01*
X121174Y161048D01*
X121835Y160387D01*
X122645Y159919D01*
X123548Y159677D01*
X124483D01*
X125386Y159919D01*
X126196Y160387D01*
X126857Y161048D01*
X127325Y161858D01*
X127567Y162761D01*
Y163696D01*
X127325Y164599D01*
X126857Y165409D01*
X126196Y166070D01*
X125386Y166537D01*
X124483Y166779D01*
D02*
G37*
G36*
X94483D02*
X93548D01*
X92645Y166537D01*
X91835Y166070D01*
X91174Y165409D01*
X90707Y164599D01*
X90465Y163696D01*
Y162761D01*
X90707Y161858D01*
X91174Y161048D01*
X91835Y160387D01*
X92645Y159919D01*
X93548Y159677D01*
X94483D01*
X95386Y159919D01*
X96196Y160387D01*
X96857Y161048D01*
X97325Y161858D01*
X97567Y162761D01*
Y163696D01*
X97325Y164599D01*
X96857Y165409D01*
X96196Y166070D01*
X95386Y166537D01*
X94483Y166779D01*
D02*
G37*
G36*
X84483D02*
X83548D01*
X82645Y166537D01*
X81835Y166070D01*
X81174Y165409D01*
X80707Y164599D01*
X80465Y163696D01*
Y162761D01*
X80707Y161858D01*
X81174Y161048D01*
X81835Y160387D01*
X82645Y159919D01*
X83548Y159677D01*
X84483D01*
X85387Y159919D01*
X86196Y160387D01*
X86857Y161048D01*
X87325Y161858D01*
X87567Y162761D01*
Y163696D01*
X87325Y164599D01*
X86857Y165409D01*
X86196Y166070D01*
X85387Y166537D01*
X84483Y166779D01*
D02*
G37*
G36*
X64483D02*
X63548D01*
X62645Y166537D01*
X61835Y166070D01*
X61174Y165409D01*
X60707Y164599D01*
X60465Y163696D01*
Y162761D01*
X60707Y161858D01*
X61174Y161048D01*
X61835Y160387D01*
X62645Y159919D01*
X63548Y159677D01*
X64483D01*
X65386Y159919D01*
X66196Y160387D01*
X66857Y161048D01*
X67325Y161858D01*
X67567Y162761D01*
Y163696D01*
X67325Y164599D01*
X66857Y165409D01*
X66196Y166070D01*
X65386Y166537D01*
X64483Y166779D01*
D02*
G37*
G36*
X44483D02*
X43548D01*
X42645Y166537D01*
X41835Y166070D01*
X41174Y165409D01*
X40707Y164599D01*
X40465Y163696D01*
Y162761D01*
X40707Y161858D01*
X41174Y161048D01*
X41835Y160387D01*
X42645Y159919D01*
X43548Y159677D01*
X44483D01*
X45386Y159919D01*
X46196Y160387D01*
X46857Y161048D01*
X47325Y161858D01*
X47567Y162761D01*
Y163696D01*
X47325Y164599D01*
X46857Y165409D01*
X46196Y166070D01*
X45386Y166537D01*
X44483Y166779D01*
D02*
G37*
G36*
X312063Y130882D02*
X309315D01*
Y128134D01*
X312063D01*
Y130882D01*
D02*
G37*
G36*
X307315D02*
X304567D01*
Y128134D01*
X307315D01*
Y130882D01*
D02*
G37*
G36*
X312063Y126134D02*
X309315D01*
Y123386D01*
X312063D01*
Y126134D01*
D02*
G37*
G36*
X307315D02*
X304567D01*
Y123386D01*
X307315D01*
Y126134D01*
D02*
G37*
G36*
X574803Y70184D02*
X573016Y70008D01*
X571298Y69487D01*
X569714Y68640D01*
X568326Y67501D01*
X567186Y66113D01*
X566340Y64529D01*
X565819Y62811D01*
X565643Y61024D01*
X565819Y59237D01*
X566340Y57518D01*
X567186Y55934D01*
X568326Y54546D01*
X569714Y53407D01*
X571298Y52561D01*
X573016Y52039D01*
X574803Y51863D01*
X576590Y52039D01*
X578309Y52561D01*
X579892Y53407D01*
X581281Y54546D01*
X582420Y55934D01*
X583266Y57518D01*
X583788Y59237D01*
X583964Y61024D01*
X583788Y62811D01*
X583266Y64529D01*
X582420Y66113D01*
X581281Y67501D01*
X579892Y68640D01*
X578309Y69487D01*
X576590Y70008D01*
X574803Y70184D01*
D02*
G37*
G36*
X31496D02*
X29709Y70008D01*
X27990Y69487D01*
X26407Y68640D01*
X25019Y67501D01*
X23879Y66113D01*
X23033Y64529D01*
X22512Y62811D01*
X22336Y61024D01*
X22512Y59237D01*
X23033Y57518D01*
X23879Y55934D01*
X25019Y54546D01*
X26407Y53407D01*
X27990Y52561D01*
X29709Y52039D01*
X31496Y51863D01*
X33283Y52039D01*
X35002Y52561D01*
X36585Y53407D01*
X37973Y54546D01*
X39113Y55934D01*
X39959Y57518D01*
X40481Y59237D01*
X40657Y61024D01*
X40481Y62811D01*
X39959Y64529D01*
X39113Y66113D01*
X37973Y67501D01*
X36585Y68640D01*
X35002Y69487D01*
X33283Y70008D01*
X31496Y70184D01*
D02*
G37*
G36*
X62024Y21227D02*
Y18717D01*
X64534D01*
X64425Y19125D01*
X63944Y19957D01*
X63265Y20637D01*
X62432Y21117D01*
X62024Y21227D01*
D02*
G37*
G36*
X123728Y21366D02*
X121079D01*
Y18717D01*
X123728D01*
Y21366D01*
D02*
G37*
G36*
X60024Y21227D02*
X59615Y21117D01*
X58783Y20637D01*
X58103Y19957D01*
X57623Y19125D01*
X57513Y18717D01*
X60024D01*
Y21227D01*
D02*
G37*
G36*
X119079Y21366D02*
X116429D01*
Y18717D01*
X119079D01*
Y21366D01*
D02*
G37*
G36*
X64534Y16717D02*
X62024D01*
Y14206D01*
X62432Y14316D01*
X63265Y14796D01*
X63944Y15476D01*
X64425Y16308D01*
X64534Y16717D01*
D02*
G37*
G36*
X60024D02*
X57513D01*
X57623Y16308D01*
X58103Y15476D01*
X58783Y14796D01*
X59615Y14316D01*
X60024Y14206D01*
Y16717D01*
D02*
G37*
G36*
X466248Y21366D02*
X458949D01*
Y14067D01*
X466248D01*
Y21366D01*
D02*
G37*
G36*
X443394D02*
X442433D01*
X441505Y21117D01*
X440672Y20637D01*
X439993Y19958D01*
X439512Y19125D01*
X439264Y18197D01*
Y17236D01*
X439512Y16308D01*
X439993Y15476D01*
X440672Y14796D01*
X441505Y14316D01*
X442433Y14067D01*
X443394D01*
X444322Y14316D01*
X445154Y14796D01*
X445834Y15476D01*
X446314Y16308D01*
X446563Y17236D01*
Y18197D01*
X446314Y19125D01*
X445834Y19958D01*
X445154Y20637D01*
X444322Y21117D01*
X443394Y21366D01*
D02*
G37*
G36*
X488189Y162979D02*
X487275Y162859D01*
X486424Y162506D01*
X485693Y161945D01*
X420732Y96984D01*
X420171Y96253D01*
X419818Y95402D01*
X419698Y94488D01*
Y21366D01*
X419579D01*
Y14067D01*
X426878D01*
Y21366D01*
X426759D01*
Y93026D01*
X490685Y156953D01*
X491246Y157684D01*
X491599Y158535D01*
X491719Y159449D01*
X491599Y160363D01*
X491246Y161214D01*
X490685Y161945D01*
X489954Y162506D01*
X489103Y162859D01*
X488189Y162979D01*
D02*
G37*
G36*
X456693Y167038D02*
X455779Y166918D01*
X454928Y166565D01*
X454197Y166004D01*
X453636Y165273D01*
X453283Y164421D01*
X453163Y163508D01*
Y162880D01*
X401047Y110764D01*
X400486Y110033D01*
X400133Y109181D01*
X400013Y108268D01*
Y18643D01*
X399894Y18197D01*
Y17236D01*
X400142Y16308D01*
X400623Y15476D01*
X401302Y14796D01*
X402135Y14316D01*
X403063Y14067D01*
X404024D01*
X404952Y14316D01*
X405784Y14796D01*
X406464Y15476D01*
X406944Y16308D01*
X407193Y17236D01*
Y18197D01*
X407073Y18643D01*
Y106806D01*
X459189Y158921D01*
X459189Y158921D01*
X459750Y159652D01*
X460103Y160504D01*
X460223Y161417D01*
X460223Y161417D01*
Y163508D01*
X460103Y164421D01*
X459750Y165273D01*
X459189Y166004D01*
X458458Y166565D01*
X457607Y166918D01*
X456693Y167038D01*
D02*
G37*
G36*
X364654Y21366D02*
X363693D01*
X362765Y21117D01*
X361932Y20637D01*
X361253Y19958D01*
X360772Y19125D01*
X360524Y18197D01*
Y17236D01*
X360772Y16308D01*
X361253Y15476D01*
X361932Y14796D01*
X362765Y14316D01*
X363693Y14067D01*
X364654D01*
X365582Y14316D01*
X366414Y14796D01*
X367094Y15476D01*
X367574Y16308D01*
X367823Y17236D01*
Y18197D01*
X367574Y19125D01*
X367094Y19958D01*
X366414Y20637D01*
X365582Y21117D01*
X364654Y21366D01*
D02*
G37*
G36*
X334358D02*
X327059D01*
Y14067D01*
X334358D01*
Y21366D01*
D02*
G37*
G36*
X311504D02*
X310543D01*
X309615Y21117D01*
X308783Y20637D01*
X308103Y19958D01*
X307623Y19125D01*
X307374Y18197D01*
Y17236D01*
X307623Y16308D01*
X308103Y15476D01*
X308783Y14796D01*
X309615Y14316D01*
X310543Y14067D01*
X311504D01*
X312432Y14316D01*
X313264Y14796D01*
X313944Y15476D01*
X314424Y16308D01*
X314673Y17236D01*
Y18197D01*
X314424Y19125D01*
X313944Y19958D01*
X313264Y20637D01*
X312432Y21117D01*
X311504Y21366D01*
D02*
G37*
G36*
X294988D02*
X287689D01*
Y14067D01*
X294988D01*
Y21366D01*
D02*
G37*
G36*
X272134D02*
X271173D01*
X270245Y21117D01*
X269413Y20637D01*
X268733Y19958D01*
X268253Y19125D01*
X268004Y18197D01*
Y17236D01*
X268253Y16308D01*
X268733Y15476D01*
X269413Y14796D01*
X270245Y14316D01*
X271173Y14067D01*
X272134D01*
X273062Y14316D01*
X273895Y14796D01*
X274574Y15476D01*
X275054Y16308D01*
X275303Y17236D01*
Y18197D01*
X275054Y19125D01*
X274574Y19958D01*
X273895Y20637D01*
X273062Y21117D01*
X272134Y21366D01*
D02*
G37*
G36*
X255618D02*
X248319D01*
Y14067D01*
X255618D01*
Y21366D01*
D02*
G37*
G36*
X232764D02*
X231803D01*
X230875Y21117D01*
X230043Y20637D01*
X229363Y19958D01*
X228883Y19125D01*
X228634Y18197D01*
Y17236D01*
X228883Y16308D01*
X229363Y15476D01*
X230043Y14796D01*
X230875Y14316D01*
X231803Y14067D01*
X232764D01*
X233692Y14316D01*
X234524Y14796D01*
X235204Y15476D01*
X235684Y16308D01*
X235933Y17236D01*
Y18197D01*
X235684Y19125D01*
X235204Y19958D01*
X234524Y20637D01*
X233692Y21117D01*
X232764Y21366D01*
D02*
G37*
G36*
X216248D02*
X208949D01*
Y14067D01*
X216248D01*
Y21366D01*
D02*
G37*
G36*
X193394D02*
X192433D01*
X191505Y21117D01*
X190673Y20637D01*
X189993Y19958D01*
X189513Y19125D01*
X189264Y18197D01*
Y17236D01*
X189513Y16308D01*
X189993Y15476D01*
X190673Y14796D01*
X191505Y14316D01*
X192433Y14067D01*
X193394D01*
X194322Y14316D01*
X195154Y14796D01*
X195834Y15476D01*
X196314Y16308D01*
X196563Y17236D01*
Y18197D01*
X196314Y19125D01*
X195834Y19958D01*
X195154Y20637D01*
X194322Y21117D01*
X193394Y21366D01*
D02*
G37*
G36*
X176878D02*
X169579D01*
Y14067D01*
X176878D01*
Y21366D01*
D02*
G37*
G36*
X154024D02*
X153063D01*
X152135Y21117D01*
X151302Y20637D01*
X150623Y19958D01*
X150142Y19125D01*
X149894Y18197D01*
Y17236D01*
X150142Y16308D01*
X150623Y15476D01*
X151302Y14796D01*
X152135Y14316D01*
X153063Y14067D01*
X154024D01*
X154952Y14316D01*
X155784Y14796D01*
X156464Y15476D01*
X156944Y16308D01*
X157193Y17236D01*
Y18197D01*
X156944Y19125D01*
X156464Y19958D01*
X155784Y20637D01*
X154952Y21117D01*
X154024Y21366D01*
D02*
G37*
G36*
X544988Y21366D02*
X537689D01*
Y14067D01*
X544988D01*
Y21366D01*
D02*
G37*
G36*
X522134D02*
X521173D01*
X520245Y21117D01*
X519413Y20637D01*
X518733Y19957D01*
X518253Y19125D01*
X518004Y18197D01*
Y17236D01*
X518253Y16308D01*
X518733Y15476D01*
X519413Y14796D01*
X520245Y14316D01*
X521173Y14067D01*
X522134D01*
X523062Y14316D01*
X523895Y14796D01*
X524574Y15476D01*
X525054Y16308D01*
X525303Y17236D01*
Y18197D01*
X525054Y19125D01*
X524574Y19957D01*
X523895Y20637D01*
X523062Y21117D01*
X522134Y21366D01*
D02*
G37*
G36*
X551181Y162979D02*
X550267Y162859D01*
X549416Y162506D01*
X548685Y161945D01*
X499472Y112733D01*
X498911Y112001D01*
X498559Y111150D01*
X498438Y110236D01*
Y21366D01*
X498319D01*
Y14067D01*
X505618D01*
Y21366D01*
X505499D01*
Y108774D01*
X553677Y156953D01*
X554238Y157684D01*
X554591Y158535D01*
X554711Y159449D01*
X554591Y160363D01*
X554238Y161214D01*
X553677Y161945D01*
X552946Y162506D01*
X552095Y162859D01*
X551181Y162979D01*
D02*
G37*
G36*
X519685D02*
X518771Y162859D01*
X517920Y162506D01*
X517189Y161945D01*
X479787Y124543D01*
X479226Y123812D01*
X478874Y122961D01*
X478753Y122047D01*
Y18643D01*
X478634Y18197D01*
Y17236D01*
X478883Y16308D01*
X479363Y15476D01*
X480043Y14796D01*
X480875Y14316D01*
X481803Y14067D01*
X482764D01*
X483692Y14316D01*
X484524Y14796D01*
X485204Y15476D01*
X485684Y16308D01*
X485933Y17236D01*
Y18197D01*
X485814Y18643D01*
Y120585D01*
X522181Y156953D01*
X522742Y157684D01*
X523095Y158535D01*
X523215Y159449D01*
X523095Y160363D01*
X522742Y161214D01*
X522181Y161945D01*
X521450Y162506D01*
X520599Y162859D01*
X519685Y162979D01*
D02*
G37*
G36*
X123728Y16717D02*
X121079D01*
Y14067D01*
X123728D01*
Y16717D01*
D02*
G37*
G36*
X119079D02*
X116429D01*
Y14067D01*
X119079D01*
Y16717D01*
D02*
G37*
G36*
X84358Y21366D02*
X77059D01*
Y14067D01*
X84358D01*
Y21366D01*
D02*
G37*
%LPD*%
D51*
X525591Y291339D02*
Y311024D01*
X379417Y210630D02*
X387795D01*
X377953Y209166D02*
X379417Y210630D01*
X381890Y187008D02*
Y207630D01*
X33465Y234252D02*
X59055Y259842D01*
X33465Y210630D02*
Y234252D01*
X59055Y259842D02*
X277559D01*
X62992Y226378D02*
X94488D01*
X22715Y186100D02*
X62992Y226378D01*
X18654Y99457D02*
X100394Y17717D01*
X22715Y141580D02*
Y186100D01*
X65041Y200972D02*
Y218423D01*
X42152Y146825D02*
X51181Y137795D01*
X34016Y154961D02*
X34067Y154909D01*
X43307Y151575D02*
X54016Y162284D01*
X294339Y164323D02*
X359205D01*
X286465Y172197D02*
X294339Y164323D01*
X357962Y167323D02*
X377953Y187313D01*
X359205Y164323D02*
X367079Y172197D01*
X295581Y167323D02*
X357962D01*
X278802Y184102D02*
X295581Y167323D01*
X377953Y187313D02*
Y209166D01*
X367079Y172197D02*
X381890Y187008D01*
X277559Y181102D02*
X286465Y172197D01*
X81906Y181102D02*
X277559D01*
X74890Y184102D02*
X278802D01*
X64016Y173228D02*
X74890Y184102D01*
X74032Y173228D02*
X81906Y181102D01*
X74016Y173228D02*
X74032D01*
X61024Y127953D02*
X66929Y122047D01*
X51181Y137795D02*
X61024Y127953D01*
X226378Y226378D02*
X271654D01*
X183071D02*
X226378D01*
X139764D02*
X183071D01*
X94488D02*
X139764D01*
X18654Y137519D02*
X22715Y141580D01*
X18654Y99457D02*
Y137519D01*
X64961Y200891D02*
X65041Y200972D01*
X51181Y122047D02*
Y137795D01*
X34016Y126535D02*
Y154961D01*
X21654Y114173D02*
X34016Y126535D01*
X54016Y162284D02*
Y163228D01*
X547244Y291339D02*
X582677D01*
X566929Y307087D02*
X582677Y291339D01*
X283465Y218504D02*
Y246063D01*
X74852Y205469D02*
Y218455D01*
X122047Y208661D02*
Y218504D01*
X112205Y208661D02*
Y218504D01*
X145669Y33465D02*
X149606Y37402D01*
Y51181D01*
X169291Y37402D02*
Y51181D01*
X165354Y33465D02*
X169291Y37402D01*
X185039Y33465D02*
X188976Y37402D01*
Y51181D01*
X202756Y33465D02*
X206693Y37402D01*
Y51181D01*
X222441Y33465D02*
X226378Y37402D01*
Y51181D01*
X242126Y33465D02*
X246063Y37402D01*
Y51181D01*
X267717Y37402D02*
Y51181D01*
X263779Y33465D02*
X267717Y37402D01*
X287402Y37402D02*
Y51181D01*
X283465Y33465D02*
X287402Y37402D01*
X307087D02*
Y51181D01*
X303150Y33465D02*
X307087Y37402D01*
X322835Y33465D02*
X326772Y37402D01*
Y51181D01*
X377953Y33465D02*
Y49213D01*
X413386Y9843D02*
X450787D01*
X399606D02*
X413386D01*
X415354Y11811D01*
Y49213D01*
X450787Y9843D02*
X492126D01*
X452756Y11811D02*
Y49213D01*
X450787Y9843D02*
X452756Y11811D01*
X492126Y9843D02*
X523622D01*
X492126D02*
X494095Y11811D01*
Y49213D01*
X533465Y19685D02*
Y49213D01*
X523622Y9843D02*
X533465Y19685D01*
X389764Y19685D02*
X399606Y9843D01*
X389764Y19685D02*
Y33465D01*
X251969Y208661D02*
Y218504D01*
X242126Y208661D02*
Y218504D01*
X208661Y208661D02*
Y218504D01*
X198819Y208661D02*
Y218504D01*
X165354Y208661D02*
Y218504D01*
X155512Y208661D02*
Y218504D01*
X74803D02*
X74852Y218455D01*
X582677Y291339D02*
X586614Y287402D01*
Y307087D01*
Y228346D02*
Y287402D01*
X576772Y218504D02*
X586614Y228346D01*
D52*
X212598Y127953D02*
X263779D01*
X212598D02*
X224410Y116142D01*
X61024Y127953D02*
X212598D01*
D53*
X315866Y204724D02*
X321772Y210630D01*
X344142Y183827D02*
Y198260D01*
X331772Y210630D02*
X344142Y198260D01*
X295276Y204724D02*
X315866D01*
X27465Y169780D02*
Y180846D01*
X65122Y218504D01*
X74803D01*
X34016Y163228D02*
X34067Y163177D01*
X27465Y169780D02*
X34016Y163228D01*
X42152Y146825D02*
X97612D01*
X41340D02*
X42152D01*
X34067Y154909D02*
Y163177D01*
Y154097D02*
Y154909D01*
X97612Y146825D02*
X114016Y163228D01*
X34067Y154097D02*
X41340Y146825D01*
X283465Y218504D02*
X576772D01*
X295276Y204724D02*
X301181Y210630D01*
X285433Y194882D02*
X295276Y204724D01*
X338583Y33465D02*
X377953D01*
X322835D02*
X338583D01*
X344142Y39024D01*
Y127134D01*
X65669Y194882D02*
X285433D01*
X44016Y173228D02*
X65669Y194882D01*
X391732Y291339D02*
X452756D01*
X334646D02*
X391732D01*
X328740D02*
X334646D01*
X316929Y226378D02*
Y279528D01*
X328740Y291339D01*
X251969Y218504D02*
X283465D01*
X34016Y173228D02*
X44016D01*
X145669Y33465D02*
X165354D01*
X116142D02*
X145669D01*
X165354D02*
X185039D01*
X202756D01*
X222441D01*
X242126D01*
X263779D01*
X283465D01*
X303150D01*
X322835D01*
X377953D02*
X389764D01*
X100394Y17717D02*
X116142Y33465D01*
X242126Y218504D02*
X251969D01*
X208661D02*
X242126D01*
X198819D02*
X208661D01*
X165354D02*
X198819D01*
X155512D02*
X165354D01*
X122047D02*
X155512D01*
X112205D02*
X122047D01*
X74803D02*
X112205D01*
X456693Y161417D02*
Y163508D01*
X403543Y108268D02*
X456693Y161417D01*
X403543Y17717D02*
Y108268D01*
X423228Y17717D02*
Y94488D01*
X488189Y159449D01*
X482283Y17717D02*
Y122047D01*
X519685Y159449D01*
X501968Y110236D02*
X551181Y159449D01*
X501968Y17717D02*
Y110236D01*
D54*
X344142Y127134D02*
D03*
Y183827D02*
D03*
X308315D02*
D03*
D55*
Y127134D02*
D03*
D56*
X94016Y163228D02*
D03*
X104016D02*
D03*
X124016D02*
D03*
X134016D02*
D03*
X144016D02*
D03*
X54016Y173228D02*
D03*
Y163228D02*
D03*
X94016Y173228D02*
D03*
X134016D02*
D03*
X174016D02*
D03*
Y163228D02*
D03*
X214016Y173228D02*
D03*
Y163228D02*
D03*
X44016Y173228D02*
D03*
X34016D02*
D03*
X44016Y163228D02*
D03*
X84016Y173228D02*
D03*
X74016D02*
D03*
X84016Y163228D02*
D03*
X74016D02*
D03*
X114016Y173228D02*
D03*
X104016D02*
D03*
X114016Y163228D02*
D03*
X154016Y173228D02*
D03*
X144016D02*
D03*
X154016Y163228D02*
D03*
X184016Y173228D02*
D03*
X164016D02*
D03*
X184016Y163228D02*
D03*
X164016D02*
D03*
X204016Y173228D02*
D03*
X194016D02*
D03*
X204016Y163228D02*
D03*
X194016D02*
D03*
X124016Y173228D02*
D03*
X64016D02*
D03*
Y163228D02*
D03*
X224016Y173228D02*
D03*
Y163228D02*
D03*
D57*
X321772Y210630D02*
D03*
X291339Y17717D02*
D03*
X251969D02*
D03*
X173228D02*
D03*
X212598D02*
D03*
X232283Y305118D02*
D03*
X423228Y17717D02*
D03*
X383858D02*
D03*
X462598D02*
D03*
X501968Y17717D02*
D03*
X541339D02*
D03*
X330709Y17717D02*
D03*
X80709Y17717D02*
D03*
X192913Y305118D02*
D03*
X153543D02*
D03*
X114173Y305118D02*
D03*
X59055Y305118D02*
D03*
X120079Y17717D02*
D03*
D58*
X331772Y210630D02*
D03*
X271654Y17717D02*
D03*
X232283D02*
D03*
X153543D02*
D03*
X192913D02*
D03*
X251969Y305118D02*
D03*
X403543Y17717D02*
D03*
X364173D02*
D03*
X442913D02*
D03*
X482283Y17717D02*
D03*
X521654D02*
D03*
X311024Y17717D02*
D03*
X61024Y17717D02*
D03*
X212598Y305118D02*
D03*
X173228D02*
D03*
X133858Y305118D02*
D03*
X78740Y305118D02*
D03*
X100394Y17717D02*
D03*
D59*
X34016Y163228D02*
D03*
D60*
X525591Y311024D02*
D03*
Y291339D02*
D03*
X381890Y207630D02*
D03*
X33465Y210630D02*
D03*
X277559Y259842D02*
D03*
X43307Y151575D02*
D03*
X387795Y210630D02*
D03*
X224410Y116142D02*
D03*
X263779Y127953D02*
D03*
X271654Y226378D02*
D03*
X226378D02*
D03*
X183071D02*
D03*
X139764D02*
D03*
X94488D02*
D03*
X51181Y122047D02*
D03*
X66929D02*
D03*
X21654Y114173D02*
D03*
X547244Y291339D02*
D03*
X74852Y205469D02*
D03*
X64961Y200891D02*
D03*
X112205Y208661D02*
D03*
X122047D02*
D03*
X149606Y51181D02*
D03*
X169291D02*
D03*
X188976D02*
D03*
X206693D02*
D03*
X226378D02*
D03*
X246063D02*
D03*
X267717D02*
D03*
X287402D02*
D03*
X307087D02*
D03*
X326772D02*
D03*
X377953Y49213D02*
D03*
X415354D02*
D03*
X452756D02*
D03*
X494095D02*
D03*
X533465D02*
D03*
X283465Y246063D02*
D03*
X251969Y208661D02*
D03*
X242126D02*
D03*
X208661D02*
D03*
X198819D02*
D03*
X165354D02*
D03*
X155512D02*
D03*
X578740Y295276D02*
D03*
X566929Y307087D02*
D03*
X586614D02*
D03*
D61*
X301181Y210630D02*
D03*
X452756Y291339D02*
D03*
X391732D02*
D03*
X334646D02*
D03*
X316929Y226378D02*
D03*
X389764Y33465D02*
D03*
X576772Y218504D02*
D03*
X456693Y163508D02*
D03*
X488189Y159449D02*
D03*
X519685D02*
D03*
X551181D02*
D03*
M02*
