G04*
G04 #@! TF.GenerationSoftware,Altium Limited,Altium Designer,24.2.2 (26)*
G04*
G04 Layer_Color=65535*
%FSLAX25Y25*%
%MOIN*%
G70*
G04*
G04 #@! TF.SameCoordinates,93052230-0714-41EE-B623-C252674C3430*
G04*
G04*
G04 #@! TF.FilePolarity,Positive*
G04*
G01*
G75*
%ADD10C,0.02575*%
%ADD11C,0.00984*%
%ADD12C,0.01575*%
%ADD13C,0.00787*%
%ADD14C,0.01000*%
%ADD15C,0.00800*%
G36*
X324936Y187215D02*
X328329D01*
Y186706D01*
X324936D01*
Y185443D01*
X324486D01*
Y188479D01*
X324936D01*
Y187215D01*
D02*
G37*
G36*
X326855Y184875D02*
X326908D01*
X326972Y184869D01*
X327042Y184863D01*
X327189Y184846D01*
X327341Y184822D01*
X327493Y184793D01*
X327627Y184747D01*
X327633D01*
X327645Y184741D01*
X327662Y184735D01*
X327686Y184723D01*
X327744Y184688D01*
X327826Y184641D01*
X327914Y184577D01*
X328008Y184495D01*
X328095Y184390D01*
X328183Y184273D01*
Y184267D01*
X328195Y184255D01*
X328201Y184238D01*
X328218Y184208D01*
X328230Y184179D01*
X328247Y184138D01*
X328271Y184085D01*
X328288Y184033D01*
X328306Y183974D01*
X328329Y183904D01*
X328347Y183834D01*
X328359Y183752D01*
X328382Y183577D01*
X328394Y183378D01*
Y183325D01*
X328388Y183290D01*
Y183243D01*
X328382Y183190D01*
X328376Y183132D01*
X328370Y183068D01*
X328347Y182927D01*
X328318Y182781D01*
X328271Y182629D01*
X328212Y182494D01*
Y182488D01*
X328201Y182477D01*
X328195Y182465D01*
X328177Y182442D01*
X328136Y182377D01*
X328072Y182307D01*
X327996Y182225D01*
X327908Y182149D01*
X327797Y182073D01*
X327674Y182009D01*
X327668D01*
X327657Y182003D01*
X327639Y181997D01*
X327610Y181985D01*
X327575Y181974D01*
X327528Y181962D01*
X327475Y181950D01*
X327417Y181939D01*
X327352Y181921D01*
X327282Y181909D01*
X327200Y181897D01*
X327118Y181886D01*
X327025Y181874D01*
X326925Y181868D01*
X326820Y181862D01*
X326709D01*
X324486D01*
Y182371D01*
X326709D01*
X326715D01*
X326732D01*
X326756D01*
X326791D01*
X326832D01*
X326878Y182377D01*
X326990Y182383D01*
X327107Y182395D01*
X327230Y182406D01*
X327346Y182430D01*
X327399Y182442D01*
X327446Y182459D01*
X327458Y182465D01*
X327487Y182477D01*
X327528Y182500D01*
X327580Y182535D01*
X327639Y182576D01*
X327703Y182635D01*
X327762Y182699D01*
X327815Y182781D01*
X327820Y182793D01*
X327832Y182822D01*
X327855Y182869D01*
X327873Y182933D01*
X327896Y183015D01*
X327920Y183108D01*
X327932Y183214D01*
X327937Y183331D01*
Y183383D01*
X327932Y183424D01*
Y183471D01*
X327926Y183524D01*
X327908Y183641D01*
X327873Y183775D01*
X327832Y183904D01*
X327768Y184027D01*
X327733Y184085D01*
X327686Y184132D01*
X327680D01*
X327674Y184144D01*
X327657Y184156D01*
X327633Y184167D01*
X327604Y184191D01*
X327569Y184208D01*
X327522Y184232D01*
X327469Y184255D01*
X327405Y184273D01*
X327335Y184296D01*
X327259Y184319D01*
X327165Y184337D01*
X327066Y184349D01*
X326960Y184360D01*
X326838Y184372D01*
X326709D01*
X324486D01*
Y184881D01*
X326709D01*
X326715D01*
X326732D01*
X326762D01*
X326802D01*
X326855Y184875D01*
D02*
G37*
G36*
X326516Y181195D02*
X326569D01*
X326627Y181190D01*
X326691Y181184D01*
X326767Y181172D01*
X326931Y181143D01*
X327107Y181102D01*
X327288Y181043D01*
X327464Y180962D01*
X327469D01*
X327481Y180950D01*
X327504Y180938D01*
X327540Y180921D01*
X327575Y180891D01*
X327622Y180862D01*
X327721Y180792D01*
X327832Y180698D01*
X327949Y180581D01*
X328060Y180447D01*
X328160Y180295D01*
Y180289D01*
X328171Y180277D01*
X328183Y180254D01*
X328195Y180219D01*
X328212Y180178D01*
X328236Y180131D01*
X328253Y180078D01*
X328277Y180014D01*
X328318Y179879D01*
X328359Y179721D01*
X328382Y179546D01*
X328394Y179365D01*
Y179312D01*
X328388Y179271D01*
Y179224D01*
X328382Y179171D01*
X328370Y179107D01*
X328359Y179037D01*
X328329Y178891D01*
X328282Y178727D01*
X328218Y178557D01*
X328183Y178475D01*
X328136Y178393D01*
X328131Y178387D01*
X328125Y178376D01*
X328107Y178352D01*
X328089Y178323D01*
X328060Y178288D01*
X328031Y178247D01*
X327949Y178154D01*
X327844Y178048D01*
X327727Y177937D01*
X327580Y177838D01*
X327423Y177744D01*
X327417D01*
X327399Y177732D01*
X327376Y177726D01*
X327341Y177709D01*
X327300Y177691D01*
X327253Y177674D01*
X327194Y177656D01*
X327130Y177639D01*
X327060Y177615D01*
X326990Y177598D01*
X326826Y177563D01*
X326650Y177539D01*
X326463Y177528D01*
X326451D01*
X326422D01*
X326370Y177533D01*
X326305D01*
X326223Y177545D01*
X326130Y177557D01*
X326030Y177568D01*
X325913Y177592D01*
X325796Y177621D01*
X325674Y177650D01*
X325551Y177691D01*
X325428Y177744D01*
X325305Y177803D01*
X325182Y177867D01*
X325071Y177949D01*
X324966Y178036D01*
X324960Y178042D01*
X324942Y178060D01*
X324913Y178089D01*
X324878Y178130D01*
X324837Y178183D01*
X324796Y178241D01*
X324743Y178312D01*
X324691Y178393D01*
X324644Y178487D01*
X324591Y178586D01*
X324550Y178698D01*
X324503Y178815D01*
X324474Y178937D01*
X324445Y179072D01*
X324427Y179218D01*
X324422Y179365D01*
Y179417D01*
X324427Y179452D01*
Y179499D01*
X324433Y179558D01*
X324445Y179616D01*
X324451Y179686D01*
X324486Y179832D01*
X324533Y179996D01*
X324591Y180160D01*
X324632Y180242D01*
X324679Y180324D01*
Y180330D01*
X324691Y180341D01*
X324702Y180365D01*
X324726Y180394D01*
X324749Y180429D01*
X324784Y180470D01*
X324860Y180564D01*
X324960Y180669D01*
X325083Y180780D01*
X325223Y180880D01*
X325387Y180973D01*
X325393D01*
X325410Y180985D01*
X325434Y180997D01*
X325469Y181008D01*
X325510Y181026D01*
X325562Y181043D01*
X325621Y181067D01*
X325685Y181090D01*
X325761Y181108D01*
X325837Y181131D01*
X326013Y181166D01*
X326206Y181190D01*
X326416Y181201D01*
X326422D01*
X326440D01*
X326475D01*
X326516Y181195D01*
D02*
G37*
G36*
X328394Y128674D02*
X325375Y126655D01*
X328394D01*
Y126170D01*
X324550D01*
Y126685D01*
X327569Y128709D01*
X324550D01*
Y129194D01*
X328394D01*
Y128674D01*
D02*
G37*
G36*
Y124772D02*
X324550D01*
Y125281D01*
X328394D01*
Y124772D01*
D02*
G37*
G36*
X328329Y164928D02*
Y164483D01*
X325545Y163424D01*
Y163921D01*
X327218Y164518D01*
X327230Y164524D01*
X327265Y164536D01*
X327317Y164553D01*
X327387Y164577D01*
X327469Y164606D01*
X327563Y164635D01*
X327668Y164670D01*
X327774Y164699D01*
X327762Y164705D01*
X327733Y164711D01*
X327686Y164729D01*
X327627Y164746D01*
X327551Y164770D01*
X327458Y164799D01*
X327358Y164834D01*
X327247Y164875D01*
X325545Y165495D01*
Y165981D01*
X328329Y164928D01*
D02*
G37*
G36*
X327118Y163137D02*
X327165Y163132D01*
X327218Y163126D01*
X327276Y163120D01*
X327341Y163108D01*
X327481Y163067D01*
X327627Y163015D01*
X327709Y162979D01*
X327785Y162939D01*
X327861Y162892D01*
X327932Y162839D01*
X327937Y162833D01*
X327949Y162822D01*
X327973Y162798D01*
X328002Y162769D01*
X328037Y162734D01*
X328078Y162687D01*
X328119Y162634D01*
X328160Y162570D01*
X328206Y162506D01*
X328247Y162430D01*
X328288Y162342D01*
X328324Y162254D01*
X328353Y162155D01*
X328376Y162055D01*
X328388Y161944D01*
X328394Y161827D01*
Y161774D01*
X328388Y161739D01*
X328382Y161698D01*
X328376Y161646D01*
X328370Y161587D01*
X328359Y161523D01*
X328324Y161388D01*
X328271Y161248D01*
X328236Y161178D01*
X328195Y161108D01*
X328154Y161037D01*
X328101Y160973D01*
X328095Y160967D01*
X328089Y160961D01*
X328072Y160944D01*
X328048Y160920D01*
X328019Y160897D01*
X327984Y160868D01*
X327943Y160838D01*
X327896Y160803D01*
X327785Y160739D01*
X327651Y160675D01*
X327499Y160628D01*
X327411Y160610D01*
X327323Y160599D01*
X327288Y161096D01*
X327294D01*
X327306D01*
X327323Y161102D01*
X327346Y161108D01*
X327411Y161125D01*
X327493Y161149D01*
X327580Y161178D01*
X327668Y161224D01*
X327756Y161277D01*
X327832Y161347D01*
X327838Y161359D01*
X327861Y161382D01*
X327885Y161423D01*
X327920Y161482D01*
X327949Y161552D01*
X327978Y161634D01*
X328002Y161728D01*
X328008Y161827D01*
Y161862D01*
X328002Y161886D01*
X327996Y161950D01*
X327978Y162032D01*
X327943Y162120D01*
X327902Y162219D01*
X327838Y162313D01*
X327803Y162359D01*
X327756Y162406D01*
X327750D01*
X327744Y162418D01*
X327709Y162441D01*
X327651Y162482D01*
X327575Y162523D01*
X327475Y162564D01*
X327358Y162605D01*
X327224Y162628D01*
X327072Y162640D01*
X327066D01*
X327054D01*
X327031D01*
X327007Y162634D01*
X326972D01*
X326931Y162628D01*
X326838Y162611D01*
X326738Y162588D01*
X326633Y162547D01*
X326528Y162488D01*
X326434Y162412D01*
X326422Y162400D01*
X326399Y162371D01*
X326358Y162324D01*
X326317Y162254D01*
X326276Y162172D01*
X326235Y162067D01*
X326212Y161950D01*
X326200Y161821D01*
Y161780D01*
X326206Y161739D01*
X326212Y161681D01*
X326229Y161617D01*
X326247Y161546D01*
X326276Y161476D01*
X326311Y161406D01*
X326317Y161400D01*
X326329Y161377D01*
X326352Y161342D01*
X326381Y161301D01*
X326422Y161260D01*
X326469Y161213D01*
X326522Y161166D01*
X326580Y161125D01*
X326516Y160680D01*
X324544Y161055D01*
Y162962D01*
X324995D01*
Y161429D01*
X326030Y161219D01*
X326024Y161224D01*
X326019Y161236D01*
X326007Y161254D01*
X325989Y161277D01*
X325972Y161312D01*
X325954Y161347D01*
X325907Y161441D01*
X325861Y161546D01*
X325826Y161669D01*
X325796Y161804D01*
X325785Y161944D01*
Y161991D01*
X325791Y162026D01*
X325796Y162073D01*
X325802Y162120D01*
X325814Y162178D01*
X325826Y162237D01*
X325872Y162371D01*
X325896Y162441D01*
X325931Y162512D01*
X325972Y162588D01*
X326019Y162658D01*
X326071Y162728D01*
X326136Y162792D01*
X326141Y162798D01*
X326153Y162810D01*
X326171Y162827D01*
X326200Y162845D01*
X326235Y162874D01*
X326276Y162903D01*
X326323Y162933D01*
X326376Y162968D01*
X326440Y163003D01*
X326504Y163032D01*
X326580Y163061D01*
X326656Y163091D01*
X326744Y163108D01*
X326832Y163126D01*
X326931Y163137D01*
X327031Y163143D01*
X327036D01*
X327054D01*
X327083D01*
X327118Y163137D01*
D02*
G37*
G36*
X327036Y158680D02*
X327089D01*
X327148Y158674D01*
X327212Y158668D01*
X327346Y158645D01*
X327487Y158615D01*
X327627Y158574D01*
X327750Y158522D01*
X327756D01*
X327762Y158516D01*
X327803Y158493D01*
X327855Y158452D01*
X327926Y158399D01*
X328002Y158335D01*
X328078Y158253D01*
X328154Y158159D01*
X328224Y158048D01*
Y158042D01*
X328230Y158036D01*
X328242Y158019D01*
X328247Y157995D01*
X328277Y157931D01*
X328306Y157849D01*
X328341Y157750D01*
X328364Y157639D01*
X328388Y157516D01*
X328394Y157381D01*
Y157323D01*
X328388Y157282D01*
X328382Y157235D01*
X328376Y157176D01*
X328364Y157112D01*
X328347Y157042D01*
X328300Y156895D01*
X328271Y156814D01*
X328236Y156738D01*
X328195Y156656D01*
X328142Y156580D01*
X328084Y156504D01*
X328019Y156433D01*
X328013Y156428D01*
X328002Y156416D01*
X327978Y156398D01*
X327949Y156381D01*
X327908Y156351D01*
X327861Y156322D01*
X327809Y156287D01*
X327744Y156258D01*
X327668Y156223D01*
X327592Y156188D01*
X327499Y156158D01*
X327405Y156135D01*
X327300Y156112D01*
X327189Y156094D01*
X327066Y156082D01*
X326937Y156077D01*
X326925D01*
X326902D01*
X326861Y156082D01*
X326808D01*
X326744Y156088D01*
X326674Y156100D01*
X326592Y156112D01*
X326504Y156129D01*
X326411Y156153D01*
X326317Y156182D01*
X326223Y156217D01*
X326130Y156258D01*
X326036Y156305D01*
X325948Y156363D01*
X325867Y156428D01*
X325791Y156504D01*
X325785Y156509D01*
X325779Y156521D01*
X325761Y156539D01*
X325744Y156568D01*
X325720Y156603D01*
X325691Y156644D01*
X325662Y156691D01*
X325633Y156749D01*
X325609Y156808D01*
X325580Y156872D01*
X325527Y157024D01*
X325492Y157194D01*
X325486Y157288D01*
X325480Y157381D01*
Y157434D01*
X325486Y157475D01*
X325492Y157527D01*
X325498Y157580D01*
X325510Y157644D01*
X325527Y157714D01*
X325574Y157861D01*
X325603Y157937D01*
X325638Y158019D01*
X325685Y158095D01*
X325738Y158171D01*
X325796Y158247D01*
X325861Y158317D01*
X325867Y158323D01*
X325878Y158335D01*
X325902Y158352D01*
X325931Y158376D01*
X325966Y158405D01*
X326013Y158434D01*
X326071Y158469D01*
X326130Y158504D01*
X326200Y158534D01*
X326282Y158569D01*
X326364Y158598D01*
X326457Y158627D01*
X326557Y158651D01*
X326668Y158668D01*
X326779Y158680D01*
X326902Y158686D01*
X326908D01*
X326925D01*
X326955D01*
X326990D01*
X327036Y158680D01*
D02*
G37*
G36*
X328324Y155842D02*
X328329Y155819D01*
X328335Y155784D01*
X328341Y155731D01*
X328353Y155679D01*
X328359Y155620D01*
X328364Y155497D01*
Y155456D01*
X328359Y155410D01*
X328353Y155351D01*
X328347Y155287D01*
X328329Y155217D01*
X328312Y155152D01*
X328288Y155094D01*
X328282Y155088D01*
X328271Y155070D01*
X328253Y155047D01*
X328230Y155018D01*
X328201Y154983D01*
X328166Y154953D01*
X328125Y154918D01*
X328078Y154895D01*
X328072D01*
X328048Y154889D01*
X328013Y154877D01*
X327955Y154871D01*
X327879Y154860D01*
X327838Y154854D01*
X327785Y154848D01*
X327727D01*
X327662Y154842D01*
X327592D01*
X327516D01*
X325913D01*
Y154491D01*
X325545D01*
Y154842D01*
X324860D01*
X324574Y155316D01*
X325545D01*
Y155790D01*
X325913D01*
Y155316D01*
X327545D01*
X327551D01*
X327575D01*
X327610D01*
X327651Y155322D01*
X327738Y155328D01*
X327774Y155334D01*
X327803Y155339D01*
X327815Y155345D01*
X327838Y155357D01*
X327867Y155380D01*
X327896Y155415D01*
X327902Y155427D01*
X327908Y155456D01*
X327920Y155509D01*
X327926Y155579D01*
Y155638D01*
X327920Y155667D01*
Y155702D01*
X327908Y155790D01*
X328324Y155854D01*
Y155842D01*
D02*
G37*
G36*
X328329Y151800D02*
Y151356D01*
X325545Y150297D01*
Y150794D01*
X327218Y151391D01*
X327230Y151397D01*
X327265Y151408D01*
X327317Y151426D01*
X327387Y151449D01*
X327469Y151478D01*
X327563Y151508D01*
X327668Y151543D01*
X327774Y151572D01*
X327762Y151578D01*
X327733Y151584D01*
X327686Y151601D01*
X327627Y151619D01*
X327551Y151642D01*
X327458Y151672D01*
X327358Y151707D01*
X327247Y151748D01*
X325545Y152368D01*
Y152853D01*
X328329Y151800D01*
D02*
G37*
G36*
Y147407D02*
X328324D01*
X328300D01*
X328265D01*
X328224Y147413D01*
X328177Y147418D01*
X328125Y147424D01*
X328066Y147442D01*
X328008Y147459D01*
X328002D01*
X327996Y147465D01*
X327961Y147477D01*
X327914Y147500D01*
X327844Y147536D01*
X327768Y147576D01*
X327680Y147635D01*
X327592Y147694D01*
X327499Y147769D01*
X327493D01*
X327487Y147781D01*
X327452Y147810D01*
X327399Y147857D01*
X327329Y147927D01*
X327247Y148015D01*
X327148Y148120D01*
X327036Y148249D01*
X326914Y148390D01*
X326908Y148396D01*
X326890Y148419D01*
X326867Y148448D01*
X326826Y148489D01*
X326785Y148542D01*
X326732Y148600D01*
X326621Y148729D01*
X326487Y148869D01*
X326352Y149010D01*
X326288Y149080D01*
X326223Y149138D01*
X326159Y149191D01*
X326100Y149238D01*
X326095D01*
X326089Y149250D01*
X326071Y149261D01*
X326048Y149273D01*
X325989Y149308D01*
X325913Y149349D01*
X325826Y149390D01*
X325732Y149425D01*
X325627Y149449D01*
X325527Y149460D01*
X325521D01*
X325516D01*
X325480Y149454D01*
X325428Y149449D01*
X325363Y149437D01*
X325287Y149407D01*
X325211Y149372D01*
X325129Y149326D01*
X325053Y149255D01*
X325047Y149244D01*
X325024Y149220D01*
X324995Y149173D01*
X324954Y149115D01*
X324919Y149039D01*
X324890Y148951D01*
X324866Y148846D01*
X324860Y148729D01*
Y148694D01*
X324866Y148670D01*
X324872Y148612D01*
X324884Y148536D01*
X324913Y148448D01*
X324948Y148354D01*
X325001Y148267D01*
X325071Y148185D01*
X325083Y148179D01*
X325106Y148156D01*
X325153Y148120D01*
X325217Y148085D01*
X325299Y148045D01*
X325393Y148015D01*
X325504Y147992D01*
X325633Y147980D01*
X325580Y147495D01*
X325574D01*
X325556D01*
X325527Y147500D01*
X325492Y147506D01*
X325445Y147518D01*
X325393Y147524D01*
X325276Y147559D01*
X325141Y147606D01*
X325007Y147670D01*
X324872Y147758D01*
X324814Y147805D01*
X324755Y147863D01*
X324749Y147869D01*
X324743Y147881D01*
X324726Y147898D01*
X324708Y147922D01*
X324691Y147957D01*
X324661Y147998D01*
X324638Y148045D01*
X324609Y148097D01*
X324585Y148156D01*
X324556Y148220D01*
X324533Y148296D01*
X324515Y148372D01*
X324480Y148548D01*
X324474Y148641D01*
X324468Y148741D01*
Y148793D01*
X324474Y148834D01*
X324480Y148881D01*
X324486Y148934D01*
X324492Y148992D01*
X324509Y149056D01*
X324544Y149197D01*
X324597Y149343D01*
X324632Y149419D01*
X324673Y149489D01*
X324726Y149554D01*
X324778Y149618D01*
X324784Y149624D01*
X324790Y149630D01*
X324808Y149647D01*
X324831Y149671D01*
X324866Y149694D01*
X324901Y149723D01*
X324989Y149782D01*
X325100Y149840D01*
X325229Y149893D01*
X325375Y149934D01*
X325457Y149940D01*
X325539Y149946D01*
X325551D01*
X325580D01*
X325627Y149940D01*
X325685Y149934D01*
X325755Y149922D01*
X325831Y149905D01*
X325913Y149881D01*
X325995Y149846D01*
X326007Y149840D01*
X326036Y149829D01*
X326077Y149805D01*
X326136Y149770D01*
X326206Y149729D01*
X326288Y149677D01*
X326370Y149606D01*
X326463Y149530D01*
X326475Y149519D01*
X326510Y149489D01*
X326563Y149437D01*
X326598Y149402D01*
X326639Y149361D01*
X326686Y149314D01*
X326738Y149255D01*
X326791Y149197D01*
X326855Y149133D01*
X326920Y149062D01*
X326990Y148980D01*
X327060Y148899D01*
X327142Y148805D01*
X327148Y148799D01*
X327159Y148787D01*
X327177Y148764D01*
X327200Y148735D01*
X327259Y148665D01*
X327335Y148577D01*
X327417Y148489D01*
X327499Y148396D01*
X327569Y148319D01*
X327598Y148290D01*
X327627Y148261D01*
X327633Y148255D01*
X327651Y148243D01*
X327674Y148220D01*
X327709Y148191D01*
X327785Y148126D01*
X327879Y148062D01*
Y149952D01*
X328329D01*
Y147407D01*
D02*
G37*
G36*
Y145792D02*
X325322D01*
X325328Y145786D01*
X325352Y145763D01*
X325381Y145722D01*
X325422Y145669D01*
X325475Y145605D01*
X325527Y145529D01*
X325592Y145441D01*
X325650Y145342D01*
Y145336D01*
X325656Y145330D01*
X325679Y145295D01*
X325709Y145242D01*
X325744Y145178D01*
X325785Y145102D01*
X325820Y145020D01*
X325861Y144932D01*
X325896Y144850D01*
X325434D01*
Y144856D01*
X325428Y144868D01*
X325416Y144891D01*
X325398Y144915D01*
X325381Y144950D01*
X325363Y144991D01*
X325311Y145084D01*
X325246Y145190D01*
X325170Y145307D01*
X325083Y145424D01*
X324989Y145535D01*
X324983Y145541D01*
X324977Y145546D01*
X324942Y145582D01*
X324890Y145634D01*
X324825Y145699D01*
X324743Y145769D01*
X324656Y145839D01*
X324562Y145903D01*
X324468Y145956D01*
Y146266D01*
X328329D01*
Y145792D01*
D02*
G37*
%LPC*%
G36*
X326416Y180675D02*
X326411D01*
X326393D01*
X326370D01*
X326340D01*
X326299Y180669D01*
X326247D01*
X326136Y180657D01*
X326013Y180634D01*
X325872Y180605D01*
X325732Y180564D01*
X325597Y180511D01*
X325592D01*
X325580Y180505D01*
X325562Y180493D01*
X325539Y180482D01*
X325475Y180447D01*
X325398Y180394D01*
X325311Y180330D01*
X325217Y180248D01*
X325129Y180154D01*
X325053Y180049D01*
Y180043D01*
X325047Y180037D01*
X325036Y180020D01*
X325024Y179996D01*
X324995Y179932D01*
X324954Y179850D01*
X324919Y179751D01*
X324890Y179634D01*
X324866Y179505D01*
X324860Y179365D01*
Y179312D01*
X324866Y179277D01*
X324872Y179230D01*
X324878Y179171D01*
X324890Y179113D01*
X324907Y179049D01*
X324954Y178902D01*
X324983Y178826D01*
X325018Y178750D01*
X325059Y178668D01*
X325112Y178592D01*
X325170Y178516D01*
X325235Y178440D01*
X325240Y178434D01*
X325252Y178423D01*
X325276Y178405D01*
X325305Y178382D01*
X325346Y178352D01*
X325398Y178317D01*
X325457Y178282D01*
X325527Y178247D01*
X325609Y178212D01*
X325697Y178177D01*
X325796Y178142D01*
X325913Y178113D01*
X326036Y178089D01*
X326165Y178072D01*
X326311Y178060D01*
X326469Y178054D01*
X326475D01*
X326498D01*
X326533D01*
X326586Y178060D01*
X326644Y178066D01*
X326709Y178072D01*
X326785Y178083D01*
X326867Y178101D01*
X327042Y178142D01*
X327130Y178177D01*
X327224Y178212D01*
X327311Y178253D01*
X327399Y178300D01*
X327487Y178358D01*
X327563Y178423D01*
X327569Y178428D01*
X327580Y178440D01*
X327598Y178464D01*
X327627Y178493D01*
X327657Y178528D01*
X327686Y178569D01*
X327727Y178621D01*
X327762Y178680D01*
X327797Y178744D01*
X327832Y178815D01*
X327867Y178891D01*
X327896Y178978D01*
X327926Y179066D01*
X327943Y179160D01*
X327955Y179253D01*
X327961Y179359D01*
Y179411D01*
X327955Y179452D01*
X327949Y179505D01*
X327937Y179558D01*
X327926Y179622D01*
X327908Y179692D01*
X327861Y179838D01*
X327832Y179920D01*
X327791Y179996D01*
X327744Y180078D01*
X327692Y180154D01*
X327633Y180230D01*
X327563Y180300D01*
X327557Y180306D01*
X327545Y180318D01*
X327522Y180336D01*
X327487Y180359D01*
X327446Y180388D01*
X327393Y180418D01*
X327335Y180453D01*
X327271Y180488D01*
X327189Y180523D01*
X327107Y180558D01*
X327013Y180587D01*
X326908Y180616D01*
X326797Y180640D01*
X326680Y180657D01*
X326551Y180669D01*
X326416Y180675D01*
D02*
G37*
G36*
X327025Y158200D02*
X326925D01*
X326920D01*
X326902D01*
X326878D01*
X326838Y158194D01*
X326797D01*
X326750Y158188D01*
X326633Y158171D01*
X326510Y158142D01*
X326376Y158101D01*
X326253Y158042D01*
X326141Y157960D01*
X326136D01*
X326130Y157949D01*
X326100Y157919D01*
X326054Y157867D01*
X326007Y157802D01*
X325960Y157714D01*
X325913Y157615D01*
X325884Y157504D01*
X325872Y157445D01*
Y157346D01*
X325878Y157323D01*
X325884Y157258D01*
X325907Y157176D01*
X325937Y157083D01*
X325984Y156983D01*
X326054Y156884D01*
X326095Y156837D01*
X326141Y156790D01*
X326153Y156779D01*
X326171Y156767D01*
X326188Y156755D01*
X326218Y156738D01*
X326253Y156720D01*
X326294Y156697D01*
X326340Y156679D01*
X326393Y156656D01*
X326451Y156632D01*
X326516Y156615D01*
X326592Y156597D01*
X326668Y156586D01*
X326756Y156574D01*
X326843Y156562D01*
X326943D01*
X326949D01*
X326966D01*
X326996D01*
X327031Y156568D01*
X327072D01*
X327124Y156574D01*
X327241Y156591D01*
X327370Y156621D01*
X327504Y156656D01*
X327633Y156714D01*
X327692Y156749D01*
X327744Y156790D01*
X327756Y156802D01*
X327785Y156831D01*
X327826Y156884D01*
X327873Y156954D01*
X327926Y157036D01*
X327967Y157141D01*
X327996Y157252D01*
X328002Y157317D01*
X328008Y157381D01*
Y157416D01*
X328002Y157440D01*
X327996Y157504D01*
X327973Y157586D01*
X327943Y157679D01*
X327896Y157779D01*
X327832Y157872D01*
X327791Y157919D01*
X327744Y157966D01*
X327738D01*
X327733Y157978D01*
X327715Y157990D01*
X327692Y158001D01*
X327662Y158019D01*
X327627Y158042D01*
X327586Y158060D01*
X327540Y158083D01*
X327487Y158107D01*
X327429Y158124D01*
X327358Y158147D01*
X327282Y158165D01*
X327206Y158177D01*
X327118Y158188D01*
X327025Y158200D01*
D02*
G37*
%LPD*%
D10*
X294142Y117685D02*
G03*
X294142Y117685I-1181J0D01*
G01*
D11*
X148778Y59828D02*
G03*
X148778Y59828I-492J0D01*
G01*
X168463D02*
G03*
X168463Y59828I-492J0D01*
G01*
X188148D02*
G03*
X188148Y59828I-492J0D01*
G01*
X291831Y-984D02*
G03*
X291831Y-984I-492J0D01*
G01*
X252461D02*
G03*
X252461Y-984I-492J0D01*
G01*
X173721D02*
G03*
X173721Y-984I-492J0D01*
G01*
X226859Y59907D02*
G03*
X226859Y59907I-492J0D01*
G01*
X246544D02*
G03*
X246544Y59907I-492J0D01*
G01*
X325942Y59828D02*
G03*
X325942Y59828I-492J0D01*
G01*
X306258D02*
G03*
X306258Y59828I-492J0D01*
G01*
X213091Y-984D02*
G03*
X213091Y-984I-492J0D01*
G01*
X266888Y59828D02*
G03*
X266888Y59828I-492J0D01*
G01*
X286573D02*
G03*
X286573Y59828I-492J0D01*
G01*
X84390Y262795D02*
G03*
X84390Y262795I-492J0D01*
G01*
X232776Y323819D02*
G03*
X232776Y323819I-492J0D01*
G01*
X482244Y152205D02*
G03*
X482244Y152205I-492J0D01*
G01*
Y242756D02*
G03*
X482244Y242756I-492J0D01*
G01*
X450748Y240787D02*
G03*
X450748Y240787I-492J0D01*
G01*
Y152205D02*
G03*
X450748Y152205I-492J0D01*
G01*
X387756D02*
G03*
X387756Y152205I-492J0D01*
G01*
X421220D02*
G03*
X421220Y152205I-492J0D01*
G01*
X545236Y242756D02*
G03*
X545236Y242756I-492J0D01*
G01*
X513740D02*
G03*
X513740Y242756I-492J0D01*
G01*
Y152205D02*
G03*
X513740Y152205I-492J0D01*
G01*
X545236D02*
G03*
X545236Y152205I-492J0D01*
G01*
X423721Y-984D02*
G03*
X423721Y-984I-492J0D01*
G01*
X384350D02*
G03*
X384350Y-984I-492J0D01*
G01*
X463091D02*
G03*
X463091Y-984I-492J0D01*
G01*
X502461Y-984D02*
G03*
X502461Y-984I-492J0D01*
G01*
X541831D02*
G03*
X541831Y-984I-492J0D01*
G01*
X331201Y-984D02*
G03*
X331201Y-984I-492J0D01*
G01*
X207833Y59828D02*
G03*
X207833Y59828I-492J0D01*
G01*
X226181Y92815D02*
G03*
X226181Y92815I-492J0D01*
G01*
X66890Y108898D02*
G03*
X66890Y108898I-492J0D01*
G01*
X56988Y79705D02*
G03*
X56988Y79705I-492J0D01*
G01*
X81201Y-984D02*
G03*
X81201Y-984I-492J0D01*
G01*
X27905Y99764D02*
G03*
X27905Y99764I-492J0D01*
G01*
X313484Y282776D02*
G03*
X313484Y282776I-492J0D01*
G01*
X376476D02*
G03*
X376476Y282776I-492J0D01*
G01*
X510335D02*
G03*
X510335Y282776I-492J0D01*
G01*
X439468D02*
G03*
X439468Y282776I-492J0D01*
G01*
X174941Y272638D02*
G03*
X174941Y272638I-492J0D01*
G01*
X131634D02*
G03*
X131634Y272638I-492J0D01*
G01*
X193405Y323819D02*
G03*
X193405Y323819I-492J0D01*
G01*
X261555Y272638D02*
G03*
X261555Y272638I-492J0D01*
G01*
X154035Y323819D02*
G03*
X154035Y323819I-492J0D01*
G01*
X218248Y272638D02*
G03*
X218248Y272638I-492J0D01*
G01*
X114665Y323819D02*
G03*
X114665Y323819I-492J0D01*
G01*
X59547Y323819D02*
G03*
X59547Y323819I-492J0D01*
G01*
X120571Y-984D02*
G03*
X120571Y-984I-492J0D01*
G01*
D12*
X48819Y83858D02*
G03*
X48819Y83858I-787J0D01*
G01*
D13*
X316181Y205335D02*
X337362D01*
X316181D02*
Y215925D01*
X337362D01*
Y205335D02*
Y215925D01*
X150197Y54527D02*
Y54783D01*
Y54527D02*
X156890D01*
Y54783D01*
X150197Y59390D02*
Y59646D01*
X156890D01*
Y59390D02*
Y59646D01*
X169882Y54527D02*
Y54783D01*
Y54527D02*
X176575D01*
Y54783D01*
X169882Y59390D02*
Y59646D01*
X176575D01*
Y59390D02*
Y59646D01*
X189567Y54527D02*
Y54783D01*
Y54527D02*
X196260D01*
Y54783D01*
X189567Y59390D02*
Y59646D01*
X196260D01*
Y59390D02*
Y59646D01*
X152854Y72441D02*
X154232D01*
X147441Y65354D02*
Y70571D01*
X156595Y65354D02*
X159646D01*
X147441D02*
X150492D01*
X159646D02*
Y70571D01*
X192224Y72441D02*
X193602D01*
X186811Y65354D02*
Y70571D01*
X195965Y65354D02*
X199016D01*
X186811D02*
X189862D01*
X199016D02*
Y70571D01*
X172539Y72441D02*
X173917D01*
X167126Y65354D02*
Y70571D01*
X176279Y65354D02*
X179331D01*
X167126D02*
X170177D01*
X179331D02*
Y70571D01*
X303543Y1575D02*
Y33858D01*
X261811Y1575D02*
X303543D01*
X261811D02*
Y33858D01*
X303543D01*
X222441D02*
X264173D01*
X222441Y1575D02*
Y33858D01*
Y1575D02*
X264173D01*
Y33858D01*
X143701D02*
X185433D01*
X143701Y1575D02*
Y33858D01*
Y1575D02*
X185433D01*
Y33858D01*
X237727Y65434D02*
Y70651D01*
X225522Y65434D02*
X228573D01*
X234676D02*
X237727D01*
X225522D02*
Y70651D01*
X230936Y72521D02*
X232314D01*
X228278Y54607D02*
Y54863D01*
Y54607D02*
X234971D01*
Y54863D01*
X228278Y59469D02*
Y59725D01*
X234971D01*
Y59469D02*
Y59725D01*
X337008Y65354D02*
Y70571D01*
X324803Y65354D02*
X327854D01*
X333957D02*
X337008D01*
X324803D02*
Y70571D01*
X330217Y72441D02*
X331594D01*
X257412Y65434D02*
Y70651D01*
X245207Y65434D02*
X248259D01*
X254361D02*
X257412D01*
X245207D02*
Y70651D01*
X250621Y72521D02*
X251999D01*
X247963Y54607D02*
Y54863D01*
Y54607D02*
X254656D01*
Y54863D01*
X247963Y59469D02*
Y59725D01*
X254656D01*
Y59469D02*
Y59725D01*
X317126Y65354D02*
Y70571D01*
X304921Y65354D02*
X307972D01*
X314075D02*
X317126D01*
X304921D02*
Y70571D01*
X310335Y72441D02*
X311713D01*
X327361Y54527D02*
Y54783D01*
Y54527D02*
X334054D01*
Y54783D01*
X327361Y59390D02*
Y59646D01*
X334054D01*
Y59390D02*
Y59646D01*
X307677Y54527D02*
Y54783D01*
Y54527D02*
X314370D01*
Y54783D01*
X307677Y59390D02*
Y59646D01*
X314370D01*
Y59390D02*
Y59646D01*
X183071Y33858D02*
X224803D01*
X183071Y1575D02*
Y33858D01*
Y1575D02*
X224803D01*
Y33858D01*
X277953Y65354D02*
Y70571D01*
X265748Y65354D02*
X268799D01*
X274902D02*
X277953D01*
X265748D02*
Y70571D01*
X271161Y72441D02*
X272539D01*
X268307Y54527D02*
Y54783D01*
Y54527D02*
X275000D01*
Y54783D01*
X268307Y59390D02*
Y59646D01*
X275000D01*
Y59390D02*
Y59646D01*
X297638Y65354D02*
Y70571D01*
X285433Y65354D02*
X288484D01*
X294587D02*
X297638D01*
X285433D02*
Y70571D01*
X290846Y72441D02*
X292224D01*
X287992Y54527D02*
Y54783D01*
Y54527D02*
X294685D01*
Y54783D01*
X287992Y59390D02*
Y59646D01*
X294685D01*
Y59390D02*
Y59646D01*
X218701Y65354D02*
Y70571D01*
X206496Y65354D02*
X209547D01*
X215650D02*
X218701D01*
X206496D02*
Y70571D01*
X211909Y72441D02*
X213287D01*
X77461Y208268D02*
Y209055D01*
X72146Y208268D02*
Y209055D01*
X88327Y253937D02*
X88937D01*
X78327D02*
X79469D01*
X68327D02*
X69468D01*
X58327D02*
X59469D01*
X48858D02*
X49468D01*
X48858Y226378D02*
Y253937D01*
X88327Y226378D02*
X88937D01*
X78327D02*
X79469D01*
X68327D02*
X69468D01*
X58327D02*
X59469D01*
X48858D02*
X49468D01*
X88937D02*
Y253937D01*
X81988Y208268D02*
Y209055D01*
X87303Y208268D02*
Y209055D01*
X52461Y208268D02*
Y209055D01*
X57776Y208268D02*
Y209055D01*
X67618Y208268D02*
Y209055D01*
X62303Y208268D02*
Y209055D01*
X220079Y288976D02*
X261811D01*
Y321260D01*
X220079D02*
X261811D01*
X220079Y288976D02*
Y321260D01*
X556693Y280807D02*
X557480D01*
X556693Y286122D02*
X557480D01*
X556398Y291732D02*
X557776D01*
X563189Y293602D02*
Y298819D01*
X550984D02*
X554035D01*
X560138D02*
X563189D01*
X550984Y293602D02*
Y298819D01*
X556791Y309744D02*
X557579D01*
X556791Y304429D02*
X557579D01*
X491260Y144488D02*
Y150787D01*
X485118Y144488D02*
X491260D01*
X485118Y150787D02*
X491260D01*
X485118Y144488D02*
Y150787D01*
X426772Y135138D02*
X427559D01*
X426772Y140453D02*
X427559D01*
X393307Y135138D02*
X394094D01*
X393307Y140453D02*
X394094D01*
X491260Y235039D02*
Y241339D01*
X485118Y235039D02*
X491260D01*
X485118Y241339D02*
X491260D01*
X485118Y235039D02*
Y241339D01*
X487795Y225689D02*
X488583D01*
X487795Y231004D02*
X488583D01*
X459764Y233071D02*
Y239370D01*
X453622Y233071D02*
X459764D01*
X453622Y239370D02*
X459764D01*
X453622Y233071D02*
Y239370D01*
X532933Y174764D02*
Y199252D01*
X506437D02*
X532933D01*
X506437Y174764D02*
Y199252D01*
Y174764D02*
X507283D01*
X532087D02*
X532933D01*
X487795Y135138D02*
X488583D01*
X487795Y140453D02*
X488583D01*
X487795Y215846D02*
X488583D01*
X487795Y221161D02*
X488583D01*
X501437Y174764D02*
Y199252D01*
X474941D02*
X501437D01*
X474941Y174764D02*
Y199252D01*
Y174764D02*
X475787D01*
X500591D02*
X501437D01*
X456299Y135138D02*
X457087D01*
X456299Y140453D02*
X457087D01*
X459764Y144488D02*
Y150787D01*
X453622Y144488D02*
X459764D01*
X453622Y150787D02*
X459764D01*
X453622Y144488D02*
Y150787D01*
X393307Y125295D02*
X394094D01*
X393307Y130610D02*
X394094D01*
X396772Y144488D02*
Y150787D01*
X390630Y144488D02*
X396772D01*
X390630Y150787D02*
X396772D01*
X390630Y144488D02*
Y150787D01*
X426772Y125295D02*
X427559D01*
X426772Y130610D02*
X427559D01*
X430236Y144488D02*
Y150787D01*
X424094Y144488D02*
X430236D01*
X424094Y150787D02*
X430236D01*
X424094Y144488D02*
Y150787D01*
X469941Y174764D02*
Y199252D01*
X443445D02*
X469941D01*
X443445Y174764D02*
Y199252D01*
Y174764D02*
X444291D01*
X469095D02*
X469941D01*
X456299Y225689D02*
X457087D01*
X456299Y231004D02*
X457087D01*
X487795Y125295D02*
X488583D01*
X487795Y130610D02*
X488583D01*
X456299Y125295D02*
X457087D01*
X456299Y130610D02*
X457087D01*
X456299Y215846D02*
X457087D01*
X456299Y221161D02*
X457087D01*
X554252Y235039D02*
Y241339D01*
X548110Y235039D02*
X554252D01*
X548110Y241339D02*
X554252D01*
X548110Y235039D02*
Y241339D01*
X522756Y235039D02*
Y241339D01*
X516614Y235039D02*
X522756D01*
X516614Y241339D02*
X522756D01*
X516614Y235039D02*
Y241339D01*
X550787Y225689D02*
X551575D01*
X550787Y231004D02*
X551575D01*
X519291Y225689D02*
X520079D01*
X519291Y231004D02*
X520079D01*
X519291Y135138D02*
X520079D01*
X519291Y140453D02*
X520079D01*
X522756Y144488D02*
Y150787D01*
X516614Y144488D02*
X522756D01*
X516614Y150787D02*
X522756D01*
X516614Y144488D02*
Y150787D01*
X519291Y125295D02*
X520079D01*
X519291Y130610D02*
X520079D01*
X554252Y144488D02*
Y150787D01*
X548110Y144488D02*
X554252D01*
X548110Y150787D02*
X554252D01*
X548110Y144488D02*
Y150787D01*
X550787Y135138D02*
X551575D01*
X550787Y140453D02*
X551575D01*
X550787Y125295D02*
X551575D01*
X550787Y130610D02*
X551575D01*
X564429Y174616D02*
Y199104D01*
X537933D02*
X564429D01*
X537933Y174616D02*
Y199104D01*
Y174616D02*
X538779D01*
X563583D02*
X564429D01*
X532776Y62598D02*
X534154D01*
X527362Y55512D02*
Y60728D01*
X536516Y55512D02*
X539567D01*
X527362D02*
X530413D01*
X539567D02*
Y60728D01*
X564429Y84065D02*
Y108553D01*
X537933D02*
X564429D01*
X537933Y84065D02*
Y108553D01*
Y84065D02*
X538779D01*
X563583D02*
X564429D01*
X550787Y215846D02*
X551575D01*
X550787Y221161D02*
X551575D01*
X519291Y215846D02*
X520079D01*
X519291Y221161D02*
X520079D01*
X532933Y84213D02*
Y108701D01*
X506437D02*
X532933D01*
X506437Y84213D02*
Y108701D01*
Y84213D02*
X507283D01*
X532087D02*
X532933D01*
X377264Y62598D02*
X378642D01*
X371850Y55512D02*
Y60728D01*
X381004Y55512D02*
X384055D01*
X371850D02*
X374902D01*
X384055D02*
Y60728D01*
X438445Y84213D02*
Y108701D01*
X411949D02*
X438445D01*
X411949Y84213D02*
Y108701D01*
Y84213D02*
X412795D01*
X437598D02*
X438445D01*
X406949D02*
Y108701D01*
X380453D02*
X406949D01*
X380453Y84213D02*
Y108701D01*
Y84213D02*
X381299D01*
X406102D02*
X406949D01*
X414468Y62598D02*
X415846D01*
X409055Y55512D02*
Y60728D01*
X418209Y55512D02*
X421260D01*
X409055D02*
X412106D01*
X421260D02*
Y60728D01*
X493405Y62598D02*
X494783D01*
X487992Y55512D02*
Y60728D01*
X497146Y55512D02*
X500197D01*
X487992D02*
X491043D01*
X500197D02*
Y60728D01*
X501437Y84213D02*
Y108701D01*
X474941D02*
X501437D01*
X474941Y84213D02*
Y108701D01*
Y84213D02*
X475787D01*
X500591D02*
X501437D01*
X452067Y62598D02*
X453445D01*
X446654Y55512D02*
Y60728D01*
X455807Y55512D02*
X458858D01*
X446654D02*
X449705D01*
X458858D02*
Y60728D01*
X469941Y84213D02*
Y108701D01*
X443445D02*
X469941D01*
X443445Y84213D02*
Y108701D01*
Y84213D02*
X444291D01*
X469095D02*
X469941D01*
X28268Y158228D02*
Y178228D01*
X229764Y158228D02*
Y178228D01*
X28268D02*
X229764D01*
X28268Y158228D02*
X229764D01*
X435433Y1575D02*
Y33858D01*
X393701Y1575D02*
X435433D01*
X393701D02*
Y33858D01*
X435433D01*
X396063Y1575D02*
Y33858D01*
X354331Y1575D02*
X396063D01*
X354331D02*
Y33858D01*
X396063D01*
X474803Y1575D02*
Y33858D01*
X433071Y1575D02*
X474803D01*
X433071D02*
Y33858D01*
X474803D01*
X514173Y1575D02*
Y33858D01*
X472441Y1575D02*
X514173D01*
X472441D02*
Y33858D01*
X514173D01*
X553543Y1575D02*
Y33858D01*
X511811Y1575D02*
X553543D01*
X511811D02*
Y33858D01*
X553543D01*
X342913Y1575D02*
Y33858D01*
X301181Y1575D02*
X342913D01*
X301181D02*
Y33858D01*
X342913D01*
X215945Y59390D02*
Y59646D01*
X209252D02*
X215945D01*
X209252Y59390D02*
Y59646D01*
X215945Y54527D02*
Y54783D01*
X209252Y54527D02*
X215945D01*
X209252D02*
Y54783D01*
X251575Y125295D02*
X252362D01*
X251575Y130610D02*
X252362D01*
X265354Y96616D02*
Y112045D01*
X226772Y96616D02*
Y112045D01*
X72441Y97146D02*
X73228D01*
X72441Y91831D02*
X73228D01*
X62598Y111516D02*
X63386D01*
X62598Y116831D02*
X63386D01*
X31357Y116457D02*
X32144D01*
X31357Y111142D02*
X32144D01*
X75906Y101181D02*
Y107480D01*
X69764Y101181D02*
X75906D01*
X69764Y107480D02*
X75906D01*
X69764Y101181D02*
Y107480D01*
X72342Y87303D02*
X73130D01*
X72342Y81988D02*
X73130D01*
X43307Y100394D02*
X51181D01*
X43307Y80709D02*
X51181D01*
X43307D02*
Y100394D01*
X51181Y80709D02*
Y100394D01*
X20583Y91831D02*
X21370D01*
X20583Y97146D02*
X21370D01*
X92913Y1575D02*
Y33858D01*
X51181Y1575D02*
X92913D01*
X51181D02*
Y33858D01*
X92913D01*
X17906Y101181D02*
Y107480D01*
X24047D01*
X17906Y101181D02*
X24047D01*
Y107480D01*
X20583Y81988D02*
X21370D01*
X20583Y87303D02*
X21370D01*
X292520Y320374D02*
X317717D01*
X285630Y290453D02*
Y306201D01*
Y290453D02*
X293701D01*
X316535D02*
X324606D01*
Y306201D01*
X576378Y309744D02*
X577165D01*
X576378Y304429D02*
X577165D01*
X576378Y280807D02*
X577165D01*
X576378Y286122D02*
X577165D01*
X280807Y255512D02*
Y256299D01*
X286122Y255512D02*
Y256299D01*
X576083Y291732D02*
X577461D01*
X582874Y293602D02*
Y298819D01*
X570669D02*
X573721D01*
X579823D02*
X582874D01*
X570669Y293602D02*
Y298819D01*
X355512Y320374D02*
X380709D01*
X348622Y290453D02*
Y306201D01*
Y290453D02*
X356693D01*
X379528D02*
X387598D01*
Y306201D01*
X521457Y290453D02*
Y306201D01*
X513386Y290453D02*
X521457D01*
X474606D02*
X482677D01*
X474606D02*
Y306201D01*
X481496Y320374D02*
X514567D01*
X418504D02*
X443701D01*
X411614Y290453D02*
Y306201D01*
Y290453D02*
X419685D01*
X442520D02*
X450591D01*
Y306201D01*
X177854Y218110D02*
Y218898D01*
X172539Y218110D02*
Y218898D01*
X148327Y218110D02*
Y218898D01*
X143012Y218110D02*
Y218898D01*
X168012Y218110D02*
Y218898D01*
X162697Y218110D02*
Y218898D01*
X178878Y263779D02*
X179488D01*
X168878D02*
X170020D01*
X158878D02*
X160020D01*
X148878D02*
X150020D01*
X139409D02*
X140020D01*
X139409Y236221D02*
Y263779D01*
X178878Y236221D02*
X179488D01*
X168878D02*
X170020D01*
X158878D02*
X160020D01*
X148878D02*
X150020D01*
X139409D02*
X140020D01*
X179488D02*
Y263779D01*
X158169Y218110D02*
Y218898D01*
X152854Y218110D02*
Y218898D01*
X124705Y218110D02*
Y218898D01*
X119390Y218110D02*
Y218898D01*
X134547Y218110D02*
Y218898D01*
X129232Y218110D02*
Y218898D01*
X105020Y218110D02*
Y218898D01*
X99705Y218110D02*
Y218898D01*
X135571Y263779D02*
X136181D01*
X125571D02*
X126713D01*
X115571D02*
X116713D01*
X105571D02*
X106713D01*
X96102D02*
X96713D01*
X96102Y236221D02*
Y263779D01*
X135571Y236221D02*
X136181D01*
X125571D02*
X126713D01*
X115571D02*
X116713D01*
X105571D02*
X106713D01*
X96102D02*
X96713D01*
X136181D02*
Y263779D01*
X114862Y218110D02*
Y218898D01*
X109547Y218110D02*
Y218898D01*
X180709Y288976D02*
Y321260D01*
X222441D01*
Y288976D02*
Y321260D01*
X180709Y288976D02*
X222441D01*
X254626Y218110D02*
Y218898D01*
X249311Y218110D02*
Y218898D01*
X264469Y218110D02*
Y218898D01*
X259154Y218110D02*
Y218898D01*
X234941Y218110D02*
Y218898D01*
X229626Y218110D02*
Y218898D01*
X265492Y263779D02*
X266102D01*
X255492D02*
X256634D01*
X245492D02*
X246634D01*
X235492D02*
X236634D01*
X226024D02*
X226634D01*
X226024Y236221D02*
Y263779D01*
X265492Y236221D02*
X266102D01*
X255492D02*
X256634D01*
X245492D02*
X246634D01*
X235492D02*
X236634D01*
X226024D02*
X226634D01*
X266102D02*
Y263779D01*
X244783Y218110D02*
Y218898D01*
X239469Y218110D02*
Y218898D01*
X141339Y288976D02*
Y321260D01*
X183071D01*
Y288976D02*
Y321260D01*
X141339Y288976D02*
X183071D01*
X211319Y218110D02*
Y218898D01*
X206004Y218110D02*
Y218898D01*
X221161Y218110D02*
Y218898D01*
X215846Y218110D02*
Y218898D01*
X191634Y218012D02*
Y218799D01*
X186319Y218012D02*
Y218799D01*
X222185Y263779D02*
X222795D01*
X212185D02*
X213327D01*
X202185D02*
X203327D01*
X192185D02*
X193327D01*
X182717D02*
X183327D01*
X182717Y236221D02*
Y263779D01*
X222185Y236221D02*
X222795D01*
X212185D02*
X213327D01*
X202185D02*
X203327D01*
X192185D02*
X193327D01*
X182717D02*
X183327D01*
X222795D02*
Y263779D01*
X201476Y218110D02*
Y218898D01*
X196161Y218110D02*
Y218898D01*
X101969Y288976D02*
Y321260D01*
X143701D01*
Y288976D02*
Y321260D01*
X101969Y288976D02*
X143701D01*
X46850Y288976D02*
Y321260D01*
X88583D01*
Y288976D02*
Y321260D01*
X46850Y288976D02*
X88583D01*
X132283Y1575D02*
Y33858D01*
X90551Y1575D02*
X132283D01*
X90551D02*
Y33858D01*
X132283D01*
D14*
X106676Y63502D02*
X108675D01*
X107675D01*
Y69500D01*
X106676Y68501D01*
X115673Y63502D02*
X111674D01*
X115673Y67501D01*
Y68501D01*
X114673Y69500D01*
X112674D01*
X111674Y68501D01*
X117672Y67501D02*
X119671Y63502D01*
X121671Y67501D01*
X106176Y53905D02*
Y57903D01*
X108175Y59903D01*
X110175Y57903D01*
Y53905D01*
Y56904D01*
X106176D01*
X112174Y59903D02*
Y53905D01*
X115173D01*
X116173Y54904D01*
Y58903D01*
X115173Y59903D01*
X112174D01*
X122171Y58903D02*
X121171Y59903D01*
X119172D01*
X118172Y58903D01*
Y54904D01*
X119172Y53905D01*
X121171D01*
X122171Y54904D01*
X109675Y50305D02*
X111674D01*
X110674D01*
Y44307D01*
X109675D01*
X111674D01*
X114673D02*
Y50305D01*
X118672Y44307D01*
Y50305D01*
X65337Y63502D02*
X67336D01*
X66337D01*
Y69500D01*
X65337Y68501D01*
X74334Y63502D02*
X70336D01*
X74334Y67501D01*
Y68501D01*
X73334Y69500D01*
X71335D01*
X70336Y68501D01*
X76333Y67501D02*
X78333Y63502D01*
X80332Y67501D01*
X59339Y53905D02*
Y59903D01*
X62338D01*
X63338Y58903D01*
Y56904D01*
X62338Y55904D01*
X59339D01*
X66337Y53905D02*
X68336D01*
X69336Y54904D01*
Y56904D01*
X68336Y57903D01*
X66337D01*
X65337Y56904D01*
Y54904D01*
X66337Y53905D01*
X71335Y57903D02*
Y54904D01*
X72335Y53905D01*
X73334Y54904D01*
X74334Y53905D01*
X75334Y54904D01*
Y57903D01*
X80332Y53905D02*
X78333D01*
X77333Y54904D01*
Y56904D01*
X78333Y57903D01*
X80332D01*
X81332Y56904D01*
Y55904D01*
X77333D01*
X83331Y57903D02*
Y53905D01*
Y55904D01*
X84331Y56904D01*
X85331Y57903D01*
X86330D01*
X68336Y50305D02*
X70336D01*
X69336D01*
Y44307D01*
X68336D01*
X70336D01*
X73334D02*
Y50305D01*
X77333Y44307D01*
Y50305D01*
X56432Y282375D02*
Y276377D01*
Y279376D01*
X60431D01*
Y282375D01*
Y276377D01*
X62431D02*
X64430D01*
X63430D01*
Y280375D01*
X62431D01*
X69428Y274377D02*
X70428D01*
X71428Y275377D01*
Y280375D01*
X68429D01*
X67429Y279376D01*
Y277376D01*
X68429Y276377D01*
X71428D01*
X73427Y282375D02*
Y276377D01*
Y279376D01*
X74427Y280375D01*
X76426D01*
X77426Y279376D01*
Y276377D01*
X51934Y268778D02*
X53933D01*
X54933Y267779D01*
Y264779D01*
X51934D01*
X50934Y265779D01*
X51934Y266779D01*
X54933D01*
X60931Y268778D02*
X57932D01*
X56932Y267779D01*
Y265779D01*
X57932Y264779D01*
X60931D01*
X63930Y269778D02*
Y268778D01*
X62930D01*
X64930D01*
X63930D01*
Y265779D01*
X64930Y264779D01*
X67929D02*
X69928D01*
X68928D01*
Y268778D01*
X67929D01*
X72927D02*
X74927Y264779D01*
X76926Y268778D01*
X81924Y264779D02*
X79925D01*
X78925Y265779D01*
Y267779D01*
X79925Y268778D01*
X81924D01*
X82924Y267779D01*
Y266779D01*
X78925D01*
X473441Y278652D02*
Y274653D01*
X475440Y272654D01*
X477440Y274653D01*
Y278652D01*
X483438D02*
X479439D01*
Y272654D01*
X483438D01*
X479439Y275653D02*
X481438D01*
X485437Y272654D02*
Y273653D01*
X486437D01*
Y272654D01*
X485437D01*
X490435Y278652D02*
Y272654D01*
X493434D01*
X494434Y273653D01*
Y277652D01*
X493434Y278652D01*
X490435D01*
X496433Y272654D02*
X498433D01*
X497433D01*
Y276652D01*
X496433D01*
X501432D02*
Y272654D01*
Y274653D01*
X502432Y275653D01*
X503431Y276652D01*
X504431D01*
X510429Y272654D02*
X508430D01*
X507430Y273653D01*
Y275653D01*
X508430Y276652D01*
X510429D01*
X511429Y275653D01*
Y274653D01*
X507430D01*
X517427Y276652D02*
X514428D01*
X513428Y275653D01*
Y273653D01*
X514428Y272654D01*
X517427D01*
X520426Y277652D02*
Y276652D01*
X519426D01*
X521425D01*
X520426D01*
Y273653D01*
X521425Y272654D01*
X323835D02*
X325834D01*
X324834D01*
Y278652D01*
X323835Y277652D01*
X328833Y275653D02*
X332832D01*
X334831Y278652D02*
Y272654D01*
X336830Y274653D01*
X338830Y272654D01*
Y278652D01*
X340829Y272654D02*
X342828D01*
X341829D01*
Y276652D01*
X340829D01*
X345828D02*
Y272654D01*
Y274653D01*
X346827Y275653D01*
X347827Y276652D01*
X348827D01*
X354825Y272654D02*
X352825D01*
X351826Y273653D01*
Y275653D01*
X352825Y276652D01*
X354825D01*
X355824Y275653D01*
Y274653D01*
X351826D01*
X363822Y272654D02*
X365821D01*
X364821D01*
Y276652D01*
X363822D01*
X368820Y272654D02*
Y276652D01*
X371819D01*
X372819Y275653D01*
Y272654D01*
X375818Y277652D02*
Y276652D01*
X374818D01*
X376817D01*
X375818D01*
Y273653D01*
X376817Y272654D01*
X382816D02*
X380816D01*
X379817Y273653D01*
Y275653D01*
X380816Y276652D01*
X382816D01*
X383815Y275653D01*
Y274653D01*
X379817D01*
X385815Y276652D02*
Y272654D01*
Y274653D01*
X386814Y275653D01*
X387814Y276652D01*
X388814D01*
X392812Y272654D02*
Y277652D01*
Y275653D01*
X391813D01*
X393812D01*
X392812D01*
Y277652D01*
X393812Y278652D01*
X397811Y276652D02*
X399810D01*
X400810Y275653D01*
Y272654D01*
X397811D01*
X396811Y273653D01*
X397811Y274653D01*
X400810D01*
X406808Y276652D02*
X403809D01*
X402809Y275653D01*
Y273653D01*
X403809Y272654D01*
X406808D01*
X411806D02*
X409807D01*
X408807Y273653D01*
Y275653D01*
X409807Y276652D01*
X411806D01*
X412806Y275653D01*
Y274653D01*
X408807D01*
X144701Y282620D02*
Y276621D01*
X147700D01*
X148699Y277621D01*
Y281620D01*
X147700Y282620D01*
X144701D01*
X150699Y276621D02*
X152698D01*
X151699D01*
Y280620D01*
X150699D01*
X157697Y274622D02*
X158696D01*
X159696Y275622D01*
Y280620D01*
X156697D01*
X155697Y279620D01*
Y277621D01*
X156697Y276621D01*
X159696D01*
X161695D02*
X163695D01*
X162695D01*
Y280620D01*
X161695D01*
X167693Y281620D02*
Y280620D01*
X166694D01*
X168693D01*
X167693D01*
Y277621D01*
X168693Y276621D01*
X172692Y280620D02*
X174691D01*
X175691Y279620D01*
Y276621D01*
X172692D01*
X171692Y277621D01*
X172692Y278621D01*
X175691D01*
X177690Y276621D02*
X179690D01*
X178690D01*
Y282620D01*
X177690D01*
X188687Y276621D02*
X190686D01*
X189686D01*
Y280620D01*
X188687D01*
X193685Y276621D02*
Y280620D01*
X196684D01*
X197684Y279620D01*
Y276621D01*
X199683Y274622D02*
Y280620D01*
X202682D01*
X203682Y279620D01*
Y277621D01*
X202682Y276621D01*
X199683D01*
X205681Y280620D02*
Y277621D01*
X206681Y276621D01*
X209680D01*
Y280620D01*
X212679Y281620D02*
Y280620D01*
X211679D01*
X213679D01*
X212679D01*
Y277621D01*
X213679Y276621D01*
X216677D02*
X219676D01*
X220676Y277621D01*
X219676Y278621D01*
X217677D01*
X216677Y279620D01*
X217677Y280620D01*
X220676D01*
X215567Y44338D02*
Y50336D01*
X218566D01*
X219566Y49336D01*
Y47337D01*
X218566Y46337D01*
X215567D01*
X221565Y50336D02*
Y44338D01*
X223564Y46337D01*
X225564Y44338D01*
Y50336D01*
X227563Y44338D02*
Y50336D01*
X229562Y48337D01*
X231562Y50336D01*
Y44338D01*
X242558Y50336D02*
X240559D01*
X239559Y49336D01*
Y45338D01*
X240559Y44338D01*
X242558D01*
X243558Y45338D01*
Y49336D01*
X242558Y50336D01*
X245557Y48337D02*
Y45338D01*
X246557Y44338D01*
X249556D01*
Y48337D01*
X252555Y49336D02*
Y48337D01*
X251555D01*
X253555D01*
X252555D01*
Y45338D01*
X253555Y44338D01*
X256554Y42339D02*
Y48337D01*
X259553D01*
X260552Y47337D01*
Y45338D01*
X259553Y44338D01*
X256554D01*
X262552Y48337D02*
Y45338D01*
X263551Y44338D01*
X266550D01*
Y48337D01*
X269549Y49336D02*
Y48337D01*
X268550D01*
X270549D01*
X269549D01*
Y45338D01*
X270549Y44338D01*
X273548D02*
X276547D01*
X277547Y45338D01*
X276547Y46337D01*
X274548D01*
X273548Y47337D01*
X274548Y48337D01*
X277547D01*
X412417Y50336D02*
Y44338D01*
X415416D01*
X416416Y45338D01*
Y49336D01*
X415416Y50336D01*
X412417D01*
X418415Y44338D02*
X420415D01*
X419415D01*
Y48337D01*
X418415D01*
X425413Y42339D02*
X426413D01*
X427413Y43338D01*
Y48337D01*
X424413D01*
X423414Y47337D01*
Y45338D01*
X424413Y44338D01*
X427413D01*
X429412D02*
X431411D01*
X430411D01*
Y48337D01*
X429412D01*
X435410Y49336D02*
Y48337D01*
X434410D01*
X436410D01*
X435410D01*
Y45338D01*
X436410Y44338D01*
X440408Y48337D02*
X442408D01*
X443407Y47337D01*
Y44338D01*
X440408D01*
X439409Y45338D01*
X440408Y46337D01*
X443407D01*
X445407Y44338D02*
X447406D01*
X446406D01*
Y50336D01*
X445407D01*
X457403Y44338D02*
X459402D01*
X460402Y45338D01*
Y47337D01*
X459402Y48337D01*
X457403D01*
X456403Y47337D01*
Y45338D01*
X457403Y44338D01*
X462401Y48337D02*
Y45338D01*
X463401Y44338D01*
X466400D01*
Y48337D01*
X469399Y49336D02*
Y48337D01*
X468399D01*
X470399D01*
X469399D01*
Y45338D01*
X470399Y44338D01*
X473398Y42339D02*
Y48337D01*
X476397D01*
X477396Y47337D01*
Y45338D01*
X476397Y44338D01*
X473398D01*
X479396Y48337D02*
Y45338D01*
X480395Y44338D01*
X483394D01*
Y48337D01*
X486393Y49336D02*
Y48337D01*
X485394D01*
X487393D01*
X486393D01*
Y45338D01*
X487393Y44338D01*
X490392D02*
X493391D01*
X494391Y45338D01*
X493391Y46337D01*
X491392D01*
X490392Y47337D01*
X491392Y48337D01*
X494391D01*
X225682Y127977D02*
Y122978D01*
X226682Y121979D01*
X228681D01*
X229681Y122978D01*
Y127977D01*
X231680Y122978D02*
X232680Y121979D01*
X234679D01*
X235679Y122978D01*
Y126977D01*
X234679Y127977D01*
X232680D01*
X231680Y126977D01*
Y125977D01*
X232680Y124978D01*
X235679D01*
D15*
X323635Y224854D02*
Y227853D01*
X325634Y224854D01*
Y227853D01*
X328633Y227353D02*
X328133Y227853D01*
X327133D01*
X326634Y227353D01*
Y225354D01*
X327133Y224854D01*
X328133D01*
X328633Y225354D01*
X332632Y225853D02*
X334631D01*
X332632Y226853D02*
X334631D01*
X338630Y227853D02*
Y225354D01*
X339130Y224854D01*
X340129D01*
X340629Y225354D01*
Y227853D01*
X343628Y227353D02*
X343128Y227853D01*
X342129D01*
X341629Y227353D01*
Y226853D01*
X342129Y226353D01*
X343128D01*
X343628Y225853D01*
Y225354D01*
X343128Y224854D01*
X342129D01*
X341629Y225354D01*
X344628Y227853D02*
Y224854D01*
X346127D01*
X346627Y225354D01*
Y225853D01*
X346127Y226353D01*
X344628D01*
X346127D01*
X346627Y226853D01*
Y227353D01*
X346127Y227853D01*
X344628D01*
X350626Y223854D02*
Y226853D01*
X352125D01*
X352625Y226353D01*
Y225354D01*
X352125Y224854D01*
X350626D01*
X354125D02*
X355124D01*
X355624Y225354D01*
Y226353D01*
X355124Y226853D01*
X354125D01*
X353625Y226353D01*
Y225354D01*
X354125Y224854D01*
X356624Y226853D02*
Y225354D01*
X357124Y224854D01*
X357624Y225354D01*
X358123Y224854D01*
X358623Y225354D01*
Y226853D01*
X361122Y224854D02*
X360123D01*
X359623Y225354D01*
Y226353D01*
X360123Y226853D01*
X361122D01*
X361622Y226353D01*
Y225853D01*
X359623D01*
X362622Y226853D02*
Y224854D01*
Y225853D01*
X363122Y226353D01*
X363622Y226853D01*
X364122D01*
X325634Y221334D02*
X324634D01*
X325134D01*
Y218835D01*
X324634Y218335D01*
X324134D01*
X323635Y218835D01*
X326634Y218335D02*
Y221334D01*
X327633Y220335D01*
X328633Y221334D01*
Y218335D01*
X329633D02*
Y221334D01*
X331132D01*
X331632Y220834D01*
Y219835D01*
X331132Y219335D01*
X329633D01*
X335631D02*
X337630D01*
X335631Y220335D02*
X337630D01*
X341629Y218335D02*
X342629D01*
X342129D01*
Y221334D01*
X341629Y220834D01*
X346127Y218335D02*
X344128D01*
X346127Y220335D01*
Y220834D01*
X345627Y221334D01*
X344628D01*
X344128Y220834D01*
X347127Y220335D02*
X348127Y218335D01*
X349126Y220335D01*
X353125Y217335D02*
Y220335D01*
X354625D01*
X355124Y219835D01*
Y218835D01*
X354625Y218335D01*
X353125D01*
X356624D02*
X357624D01*
X358123Y218835D01*
Y219835D01*
X357624Y220335D01*
X356624D01*
X356124Y219835D01*
Y218835D01*
X356624Y218335D01*
X359123Y220335D02*
Y218835D01*
X359623Y218335D01*
X360123Y218835D01*
X360623Y218335D01*
X361122Y218835D01*
Y220335D01*
X363622Y218335D02*
X362622D01*
X362122Y218835D01*
Y219835D01*
X362622Y220335D01*
X363622D01*
X364122Y219835D01*
Y219335D01*
X362122D01*
X365121Y220335D02*
Y218335D01*
Y219335D01*
X365621Y219835D01*
X366121Y220335D01*
X366621D01*
M02*
