G04*
G04 #@! TF.GenerationSoftware,Altium Limited,Altium Designer,24.2.2 (26)*
G04*
G04 Layer_Color=8388736*
%FSLAX25Y25*%
%MOIN*%
G70*
G04*
G04 #@! TF.SameCoordinates,93052230-0714-41EE-B623-C252674C3430*
G04*
G04*
G04 #@! TF.FilePolarity,Negative*
G04*
G01*
G75*
%ADD19R,0.03959X0.01545*%
G04:AMPARAMS|DCode=20|XSize=39.59mil|YSize=15.45mil|CornerRadius=7.73mil|HoleSize=0mil|Usage=FLASHONLY|Rotation=0.000|XOffset=0mil|YOffset=0mil|HoleType=Round|Shape=RoundedRectangle|*
%AMROUNDEDRECTD20*
21,1,0.03959,0.00000,0,0,0.0*
21,1,0.02414,0.01545,0,0,0.0*
1,1,0.01545,0.01207,0.00000*
1,1,0.01545,-0.01207,0.00000*
1,1,0.01545,-0.01207,0.00000*
1,1,0.01545,0.01207,0.00000*
%
%ADD20ROUNDEDRECTD20*%
%ADD21R,0.03150X0.03150*%
%ADD23R,0.05906X0.05118*%
%ADD24R,0.21850X0.25591*%
%ADD25R,0.04921X0.11221*%
%ADD32R,0.20276X0.20276*%
%ADD33R,0.04173X0.05394*%
%ADD34R,0.05512X0.06693*%
%ADD35R,0.06693X0.05512*%
%ADD36R,0.02165X0.05906*%
%ADD37R,0.02953X0.05906*%
%ADD38O,0.08071X0.02953*%
%ADD39R,0.06496X0.06693*%
%ADD40R,0.04528X0.14370*%
%ADD41R,0.06496X0.13976*%
%ADD42C,0.06591*%
%ADD43R,0.07087X0.07087*%
%ADD44C,0.00591*%
%ADD45C,0.06693*%
%ADD46R,0.06890X0.06890*%
%ADD47C,0.06890*%
%ADD48R,0.06693X0.06693*%
%ADD49C,0.02953*%
%ADD50C,0.05591*%
D19*
X149605Y57087D02*
D03*
X169290D02*
D03*
X188975D02*
D03*
X227687Y57166D02*
D03*
X247372D02*
D03*
X326769Y57087D02*
D03*
X307085D02*
D03*
X267715D02*
D03*
X287401D02*
D03*
X208660Y57087D02*
D03*
D20*
X157481D02*
D03*
X177166D02*
D03*
X196852D02*
D03*
X235563Y57166D02*
D03*
X255248D02*
D03*
X334646Y57087D02*
D03*
X314962D02*
D03*
X275592D02*
D03*
X295277D02*
D03*
X216536Y57087D02*
D03*
D21*
X153543Y64173D02*
D03*
X149803Y73622D02*
D03*
X157283D02*
D03*
X192913Y64173D02*
D03*
X189173Y73622D02*
D03*
X196654D02*
D03*
X173228Y64173D02*
D03*
X169488Y73622D02*
D03*
X176969D02*
D03*
X235365Y73702D02*
D03*
X227885D02*
D03*
X231625Y64253D02*
D03*
X334646Y73622D02*
D03*
X327165D02*
D03*
X330906Y64173D02*
D03*
X255050Y73702D02*
D03*
X247570D02*
D03*
X251310Y64253D02*
D03*
X314764Y73622D02*
D03*
X307283D02*
D03*
X311024Y64173D02*
D03*
X275590Y73622D02*
D03*
X268110D02*
D03*
X271850Y64173D02*
D03*
X295276Y73622D02*
D03*
X287795D02*
D03*
X291535Y64173D02*
D03*
X216339Y73622D02*
D03*
X208858D02*
D03*
X212598Y64173D02*
D03*
X557087Y300000D02*
D03*
X560827Y290551D02*
D03*
X553346D02*
D03*
X533465Y54331D02*
D03*
X529724Y63779D02*
D03*
X537205D02*
D03*
X377953Y54331D02*
D03*
X374213Y63779D02*
D03*
X381693D02*
D03*
X415158Y54331D02*
D03*
X411417Y63779D02*
D03*
X418898D02*
D03*
X494095Y54331D02*
D03*
X490354Y63779D02*
D03*
X497835D02*
D03*
X452756Y54331D02*
D03*
X449016Y63779D02*
D03*
X456496D02*
D03*
X576772Y300000D02*
D03*
X580512Y290551D02*
D03*
X573032D02*
D03*
D23*
X83898Y222441D02*
D03*
X73898D02*
D03*
X63898D02*
D03*
X53898D02*
D03*
Y257874D02*
D03*
X63898D02*
D03*
X73898D02*
D03*
X83898D02*
D03*
X164449Y267717D02*
D03*
X144449D02*
D03*
X174449Y232283D02*
D03*
X164449D02*
D03*
X154449D02*
D03*
X144449D02*
D03*
X154449Y267717D02*
D03*
X174449D02*
D03*
X131142Y232283D02*
D03*
X121142D02*
D03*
X111142D02*
D03*
X101142D02*
D03*
Y267717D02*
D03*
X111142D02*
D03*
X121142D02*
D03*
X131142D02*
D03*
X261063Y232283D02*
D03*
X251063D02*
D03*
X241063D02*
D03*
X231063D02*
D03*
Y267717D02*
D03*
X241063D02*
D03*
X251063D02*
D03*
X261063D02*
D03*
X217756Y232283D02*
D03*
X207756D02*
D03*
X197756D02*
D03*
X187756D02*
D03*
Y267717D02*
D03*
X197756D02*
D03*
X207756D02*
D03*
X217756D02*
D03*
D24*
X519685Y181250D02*
D03*
X488189D02*
D03*
X456693D02*
D03*
X551181Y181102D02*
D03*
Y90551D02*
D03*
X519685Y90699D02*
D03*
X425197D02*
D03*
X393701D02*
D03*
X488189D02*
D03*
X456693D02*
D03*
D25*
X510709Y206447D02*
D03*
X528661D02*
D03*
X479213D02*
D03*
X497165D02*
D03*
X447717D02*
D03*
X465669D02*
D03*
X542205Y206299D02*
D03*
X560157D02*
D03*
X542205Y115748D02*
D03*
X560157D02*
D03*
X510709Y115896D02*
D03*
X528661D02*
D03*
X416221D02*
D03*
X434173D02*
D03*
X384724D02*
D03*
X402677D02*
D03*
X479213D02*
D03*
X497165D02*
D03*
X447717D02*
D03*
X465669D02*
D03*
D32*
X343055Y181102D02*
D03*
X309055D02*
D03*
Y129102D02*
D03*
X343055D02*
D03*
D33*
X420728Y147638D02*
D03*
X387264D02*
D03*
X481752D02*
D03*
X450256D02*
D03*
X544744D02*
D03*
X513248D02*
D03*
X494626D02*
D03*
Y238189D02*
D03*
X481752D02*
D03*
X463130Y236221D02*
D03*
X450256D02*
D03*
X463130Y147638D02*
D03*
X400138D02*
D03*
X433602D02*
D03*
X557618Y238189D02*
D03*
X544744D02*
D03*
X526122D02*
D03*
X513248D02*
D03*
X526122Y147638D02*
D03*
X557618D02*
D03*
X79272Y104331D02*
D03*
X66398D02*
D03*
X14539D02*
D03*
X27413D02*
D03*
D34*
X423130Y137795D02*
D03*
X389665D02*
D03*
X484154D02*
D03*
X452658D02*
D03*
X547146D02*
D03*
X515650D02*
D03*
X561122Y283465D02*
D03*
X553051D02*
D03*
X553150Y307087D02*
D03*
X561221D02*
D03*
X431201Y137795D02*
D03*
X397736D02*
D03*
X492224Y228346D02*
D03*
X484154D02*
D03*
X492224Y137795D02*
D03*
Y218504D02*
D03*
X484154D02*
D03*
X460728Y137795D02*
D03*
X397736Y127953D02*
D03*
X389665D02*
D03*
X431201D02*
D03*
X423130D02*
D03*
X460728Y228346D02*
D03*
X452658D02*
D03*
X492224Y127953D02*
D03*
X484154D02*
D03*
X460728D02*
D03*
X452658D02*
D03*
X460728Y218504D02*
D03*
X452658D02*
D03*
X555217Y228346D02*
D03*
X547146D02*
D03*
X523721D02*
D03*
X515650D02*
D03*
X523721Y137795D02*
D03*
Y127953D02*
D03*
X515650D02*
D03*
X555217Y137795D02*
D03*
Y127953D02*
D03*
X547146D02*
D03*
X555217Y218504D02*
D03*
X547146D02*
D03*
X523721D02*
D03*
X515650D02*
D03*
X256004Y127953D02*
D03*
X247933D02*
D03*
X68799Y94488D02*
D03*
X76870D02*
D03*
X67028Y114173D02*
D03*
X58957D02*
D03*
X27715Y113799D02*
D03*
X35786D02*
D03*
X68701Y84646D02*
D03*
X76772D02*
D03*
X25012Y94488D02*
D03*
X16941D02*
D03*
X25012Y84646D02*
D03*
X16941D02*
D03*
X572736Y307087D02*
D03*
X580807D02*
D03*
X580807Y283465D02*
D03*
X572736D02*
D03*
D35*
X74803Y212697D02*
D03*
Y204626D02*
D03*
X84646Y204626D02*
D03*
Y212697D02*
D03*
X55118Y204626D02*
D03*
Y212697D02*
D03*
X64961Y212697D02*
D03*
Y204626D02*
D03*
X283465Y251870D02*
D03*
Y259941D02*
D03*
X175197Y222539D02*
D03*
Y214469D02*
D03*
X145669Y222539D02*
D03*
Y214469D02*
D03*
X165354Y222539D02*
D03*
Y214469D02*
D03*
X155512Y222539D02*
D03*
Y214469D02*
D03*
X122047Y222539D02*
D03*
Y214469D02*
D03*
X131890Y222539D02*
D03*
Y214469D02*
D03*
X102362Y222539D02*
D03*
Y214469D02*
D03*
X112205Y222539D02*
D03*
Y214469D02*
D03*
X251969Y222539D02*
D03*
Y214469D02*
D03*
X261811Y222539D02*
D03*
Y214469D02*
D03*
X232283Y222539D02*
D03*
Y214469D02*
D03*
X242126Y222539D02*
D03*
Y214469D02*
D03*
X208661Y222539D02*
D03*
Y214469D02*
D03*
X218504Y222539D02*
D03*
Y214469D02*
D03*
X188976Y222441D02*
D03*
Y214370D02*
D03*
X198819Y222539D02*
D03*
Y214469D02*
D03*
D36*
X237106Y115847D02*
D03*
X234547D02*
D03*
X231988D02*
D03*
X239665D02*
D03*
X242224D02*
D03*
Y92815D02*
D03*
X239665D02*
D03*
X231988D02*
D03*
X234547D02*
D03*
X237106D02*
D03*
X244783D02*
D03*
X247342D02*
D03*
X249902D02*
D03*
X252461D02*
D03*
X260138D02*
D03*
X257579D02*
D03*
X255020D02*
D03*
Y115847D02*
D03*
X257579D02*
D03*
X260138D02*
D03*
X252461D02*
D03*
X249902D02*
D03*
X247342D02*
D03*
X244783D02*
D03*
D37*
X229035Y92815D02*
D03*
X263091D02*
D03*
Y115847D02*
D03*
X229035D02*
D03*
D38*
X37992Y98051D02*
D03*
Y93051D02*
D03*
Y88051D02*
D03*
Y83051D02*
D03*
X56496Y98051D02*
D03*
Y93051D02*
D03*
Y88051D02*
D03*
Y83051D02*
D03*
D39*
X50787Y116142D02*
D03*
X43701D02*
D03*
X50787Y106299D02*
D03*
X43701D02*
D03*
D40*
X297244Y291831D02*
D03*
X305118D02*
D03*
X312992D02*
D03*
X360236D02*
D03*
X368110D02*
D03*
X375984D02*
D03*
X509842D02*
D03*
X501968D02*
D03*
X494095D02*
D03*
X486221Y291831D02*
D03*
X423228Y291831D02*
D03*
X431102D02*
D03*
X438976D02*
D03*
D41*
X322244Y314469D02*
D03*
X287992D02*
D03*
X385236D02*
D03*
X350984D02*
D03*
X476968D02*
D03*
X519095D02*
D03*
X448228D02*
D03*
X413976D02*
D03*
D42*
X344142Y127134D02*
D03*
Y183827D02*
D03*
X308315D02*
D03*
D43*
Y127134D02*
D03*
D44*
X574803Y261811D02*
D03*
X31496D02*
D03*
X574803Y61024D02*
D03*
X31496D02*
D03*
D45*
X94016Y163228D02*
D03*
X104016D02*
D03*
X124016D02*
D03*
X134016D02*
D03*
X144016D02*
D03*
X54016Y173228D02*
D03*
Y163228D02*
D03*
X94016Y173228D02*
D03*
X134016D02*
D03*
X174016D02*
D03*
Y163228D02*
D03*
X214016Y173228D02*
D03*
Y163228D02*
D03*
X44016Y173228D02*
D03*
X34016D02*
D03*
X44016Y163228D02*
D03*
X84016Y173228D02*
D03*
X74016D02*
D03*
X84016Y163228D02*
D03*
X74016D02*
D03*
X114016Y173228D02*
D03*
X104016D02*
D03*
X114016Y163228D02*
D03*
X154016Y173228D02*
D03*
X144016D02*
D03*
X154016Y163228D02*
D03*
X184016Y173228D02*
D03*
X164016D02*
D03*
X184016Y163228D02*
D03*
X164016D02*
D03*
X204016Y173228D02*
D03*
X194016D02*
D03*
X204016Y163228D02*
D03*
X194016D02*
D03*
X124016Y173228D02*
D03*
X64016D02*
D03*
Y163228D02*
D03*
X224016Y173228D02*
D03*
Y163228D02*
D03*
D46*
X321772Y210630D02*
D03*
X291339Y17717D02*
D03*
X251969D02*
D03*
X173228D02*
D03*
X212598D02*
D03*
X232283Y305118D02*
D03*
X423228Y17717D02*
D03*
X383858D02*
D03*
X462598D02*
D03*
X501968Y17717D02*
D03*
X541339D02*
D03*
X330709Y17717D02*
D03*
X80709Y17717D02*
D03*
X192913Y305118D02*
D03*
X153543D02*
D03*
X114173Y305118D02*
D03*
X59055Y305118D02*
D03*
X120079Y17717D02*
D03*
D47*
X331772Y210630D02*
D03*
X271654Y17717D02*
D03*
X232283D02*
D03*
X153543D02*
D03*
X192913D02*
D03*
X251969Y305118D02*
D03*
X403543Y17717D02*
D03*
X364173D02*
D03*
X442913D02*
D03*
X482283Y17717D02*
D03*
X521654D02*
D03*
X311024Y17717D02*
D03*
X61024Y17717D02*
D03*
X212598Y305118D02*
D03*
X173228D02*
D03*
X133858Y305118D02*
D03*
X78740Y305118D02*
D03*
X100394Y17717D02*
D03*
D48*
X34016Y163228D02*
D03*
D49*
X525591Y311024D02*
D03*
Y291339D02*
D03*
X381890Y207630D02*
D03*
X33465Y210630D02*
D03*
X277559Y259842D02*
D03*
X43307Y151575D02*
D03*
X387795Y210630D02*
D03*
X224410Y116142D02*
D03*
X263779Y127953D02*
D03*
X271654Y226378D02*
D03*
X226378D02*
D03*
X183071D02*
D03*
X139764D02*
D03*
X94488D02*
D03*
X51181Y122047D02*
D03*
X66929D02*
D03*
X21654Y114173D02*
D03*
X547244Y291339D02*
D03*
X74852Y205469D02*
D03*
X64961Y200891D02*
D03*
X112205Y208661D02*
D03*
X122047D02*
D03*
X149606Y51181D02*
D03*
X169291D02*
D03*
X188976D02*
D03*
X206693D02*
D03*
X226378D02*
D03*
X246063D02*
D03*
X267717D02*
D03*
X287402D02*
D03*
X307087D02*
D03*
X326772D02*
D03*
X377953Y49213D02*
D03*
X415354D02*
D03*
X452756D02*
D03*
X494095D02*
D03*
X533465D02*
D03*
X283465Y246063D02*
D03*
X251969Y208661D02*
D03*
X242126D02*
D03*
X208661D02*
D03*
X198819D02*
D03*
X165354D02*
D03*
X155512D02*
D03*
X578740Y295276D02*
D03*
X566929Y307087D02*
D03*
X586614D02*
D03*
D50*
X301181Y210630D02*
D03*
X452756Y291339D02*
D03*
X391732D02*
D03*
X334646D02*
D03*
X316929Y226378D02*
D03*
X389764Y33465D02*
D03*
X576772Y218504D02*
D03*
X456693Y163508D02*
D03*
X488189Y159449D02*
D03*
X519685D02*
D03*
X551181D02*
D03*
M02*
