G04*
G04 #@! TF.GenerationSoftware,Altium Limited,Altium Designer,20.2.3 (150)*
G04*
G04 Layer_Physical_Order=2*
G04 Layer_Color=16711680*
%FSLAX25Y25*%
%MOIN*%
G70*
G04*
G04 #@! TF.SameCoordinates,905A4ADE-4B76-40EE-A630-EEB48A76D6D9*
G04*
G04*
G04 #@! TF.FilePolarity,Positive*
G04*
G01*
G75*
%ADD55C,0.02500*%
%ADD56C,0.05000*%
%ADD57C,0.01000*%
%ADD58C,0.13200*%
%ADD59C,0.08268*%
%ADD60C,0.06299*%
%ADD61R,0.06299X0.06299*%
%ADD62R,0.06299X0.06299*%
%ADD63C,0.06496*%
%ADD64R,0.06496X0.06496*%
%ADD65C,0.06102*%
%ADD66R,0.06102X0.06102*%
%ADD67C,0.05000*%
%ADD68C,0.02362*%
G36*
X250000Y338583D02*
X259842Y328740D01*
Y307090D01*
X259381Y306899D01*
X259218Y307061D01*
X258592Y307542D01*
X257862Y307844D01*
X257079Y307947D01*
X247630D01*
X247129Y308885D01*
X246242Y309966D01*
X245161Y310853D01*
X243927Y311512D01*
X242589Y311918D01*
X241197Y312056D01*
X239805Y311918D01*
X238467Y311512D01*
X237233Y310853D01*
X236152Y309966D01*
X235265Y308885D01*
X234606Y307651D01*
X234200Y306313D01*
X234063Y304921D01*
X234200Y303529D01*
X234606Y302191D01*
X235265Y300958D01*
X236152Y299876D01*
X237233Y298989D01*
X238467Y298330D01*
X239805Y297924D01*
X241197Y297787D01*
X242589Y297924D01*
X243927Y298330D01*
X245161Y298989D01*
X246242Y299876D01*
X247129Y300958D01*
X247630Y301895D01*
X255825D01*
X259842Y297878D01*
Y279528D01*
X222441D01*
X222441Y324803D01*
X236220Y338583D01*
X236221Y392898D01*
X250000D01*
Y338583D01*
D02*
G37*
G36*
X228346Y340816D02*
X214567Y327037D01*
Y302270D01*
X214270Y302231D01*
X213025Y301715D01*
X211956Y300894D01*
X211136Y299825D01*
X210620Y298580D01*
X210444Y297244D01*
X210620Y295908D01*
X211136Y294663D01*
X211956Y293594D01*
X213025Y292773D01*
X214270Y292258D01*
X214567Y292219D01*
Y279528D01*
X185039D01*
Y392898D01*
X228346D01*
X228346Y340816D01*
D02*
G37*
G36*
X303150Y279528D02*
X267717Y279528D01*
X267717Y330709D01*
X257874Y340551D01*
X257874Y392898D01*
X303150D01*
Y279528D01*
D02*
G37*
G36*
X392898Y803D02*
X803D01*
Y283465D01*
X40012D01*
X58738Y264738D01*
X58738Y264738D01*
X59317Y264352D01*
X60000Y264216D01*
X60683Y264352D01*
X61262Y264738D01*
X61648Y265317D01*
X61784Y266000D01*
X61648Y266683D01*
X61262Y267262D01*
X61262Y267262D01*
X45521Y283003D01*
X45712Y283465D01*
X58974D01*
Y283000D01*
X59077Y282217D01*
X59380Y281487D01*
X59860Y280860D01*
X67860Y272860D01*
X70860Y269860D01*
X71487Y269379D01*
X72217Y269077D01*
X73000Y268974D01*
X118747D01*
X149860Y237860D01*
X169860Y217860D01*
X169860Y217860D01*
X170487Y217379D01*
X171217Y217077D01*
X172000Y216974D01*
X172000Y216974D01*
X298000D01*
X298783Y217077D01*
X299513Y217379D01*
X300140Y217860D01*
X343253Y260974D01*
X380974D01*
Y186434D01*
X373386Y178847D01*
X370366D01*
Y171547D01*
X377665D01*
Y174567D01*
X386140Y183042D01*
X386620Y183668D01*
X386923Y184398D01*
X387026Y185181D01*
Y264000D01*
Y276000D01*
Y283465D01*
X392898D01*
Y803D01*
D02*
G37*
%LPC*%
G36*
X198819Y383176D02*
X197032Y383000D01*
X195313Y382479D01*
X193730Y381632D01*
X192341Y380493D01*
X191202Y379105D01*
X190356Y377521D01*
X189834Y375803D01*
X189658Y374016D01*
X189834Y372229D01*
X190356Y370510D01*
X191202Y368927D01*
X192341Y367538D01*
X193730Y366399D01*
X195313Y365553D01*
X197032Y365031D01*
X198819Y364855D01*
X200606Y365031D01*
X202325Y365553D01*
X203908Y366399D01*
X205296Y367538D01*
X206435Y368927D01*
X207282Y370510D01*
X207803Y372229D01*
X207979Y374016D01*
X207803Y375803D01*
X207282Y377521D01*
X206435Y379105D01*
X205296Y380493D01*
X203908Y381632D01*
X202325Y382479D01*
X200606Y383000D01*
X198819Y383176D01*
D02*
G37*
G36*
X290000D02*
X288213Y383000D01*
X286494Y382479D01*
X284911Y381632D01*
X283523Y380493D01*
X282383Y379105D01*
X281537Y377521D01*
X281016Y375803D01*
X280839Y374016D01*
X281016Y372229D01*
X281537Y370510D01*
X282383Y368927D01*
X283523Y367538D01*
X284911Y366399D01*
X286494Y365553D01*
X288213Y365031D01*
X290000Y364855D01*
X291787Y365031D01*
X293506Y365553D01*
X295089Y366399D01*
X296477Y367538D01*
X297617Y368927D01*
X298463Y370510D01*
X298984Y372229D01*
X299161Y374016D01*
X298984Y375803D01*
X298463Y377521D01*
X297617Y379105D01*
X296477Y380493D01*
X295089Y381632D01*
X293506Y382479D01*
X291787Y383000D01*
X290000Y383176D01*
D02*
G37*
G36*
X11811Y269003D02*
X10024Y268827D01*
X8305Y268306D01*
X6722Y267459D01*
X5334Y266320D01*
X4194Y264932D01*
X3348Y263348D01*
X2827Y261630D01*
X2651Y259842D01*
X2827Y258055D01*
X3348Y256337D01*
X4194Y254753D01*
X5334Y253365D01*
X6722Y252226D01*
X8305Y251379D01*
X10024Y250858D01*
X11811Y250682D01*
X13598Y250858D01*
X15317Y251379D01*
X16900Y252226D01*
X18288Y253365D01*
X19428Y254753D01*
X20274Y256337D01*
X20796Y258055D01*
X20971Y259842D01*
X20796Y261630D01*
X20274Y263348D01*
X19428Y264932D01*
X18288Y266320D01*
X16900Y267459D01*
X15317Y268306D01*
X13598Y268827D01*
X11811Y269003D01*
D02*
G37*
G36*
X340000Y251784D02*
X339317Y251648D01*
X338738Y251262D01*
X338351Y250683D01*
X338216Y250000D01*
Y238739D01*
X326738Y227262D01*
X326738Y227262D01*
X311243Y211767D01*
X81784D01*
Y216552D01*
X82140Y216825D01*
X82621Y217452D01*
X82923Y218181D01*
X83026Y218965D01*
X82923Y219748D01*
X82621Y220478D01*
X82140Y221104D01*
X81513Y221585D01*
X80783Y221887D01*
X80000Y221990D01*
X79556Y221932D01*
X60226Y241262D01*
X59647Y241649D01*
X58965Y241784D01*
X28412D01*
X28140Y242140D01*
X27513Y242620D01*
X26783Y242923D01*
X26000Y243026D01*
X25217Y242923D01*
X24487Y242620D01*
X23860Y242140D01*
X23380Y241513D01*
X23077Y240783D01*
X22974Y240000D01*
X23077Y239217D01*
X23380Y238487D01*
X23860Y237860D01*
X24487Y237380D01*
X25217Y237077D01*
X26000Y236974D01*
X26783Y237077D01*
X27513Y237380D01*
X28140Y237860D01*
X28412Y238216D01*
X58226D01*
X77033Y219409D01*
X76974Y218965D01*
X77077Y218181D01*
X77380Y217452D01*
X77860Y216825D01*
X78216Y216552D01*
Y209982D01*
Y201377D01*
X77860Y201104D01*
X77380Y200478D01*
X77077Y199748D01*
X76974Y198965D01*
X77077Y198181D01*
X77380Y197452D01*
X77860Y196825D01*
X78216Y196552D01*
Y144412D01*
X77860Y144140D01*
X77380Y143513D01*
X77077Y142783D01*
X76974Y142000D01*
X77077Y141217D01*
X77380Y140487D01*
X77860Y139860D01*
X78216Y139588D01*
Y121412D01*
X77860Y121140D01*
X77380Y120513D01*
X77077Y119783D01*
X76974Y119000D01*
X77077Y118217D01*
X77380Y117487D01*
X77860Y116860D01*
X78487Y116379D01*
X79217Y116077D01*
X80000Y115974D01*
X80444Y116033D01*
X98139Y98338D01*
Y59919D01*
X98275Y59237D01*
X98662Y58658D01*
X101173Y56146D01*
Y51567D01*
X103996D01*
X110703Y44860D01*
X111329Y44379D01*
X112059Y44077D01*
X112843Y43974D01*
X176606D01*
X177389Y44077D01*
X178119Y44379D01*
X178746Y44860D01*
X185528Y51642D01*
X185651Y51658D01*
X186515Y52016D01*
X187257Y52585D01*
X187826Y53327D01*
X188184Y54191D01*
X188306Y55118D01*
X188184Y56045D01*
X187826Y56909D01*
X187257Y57651D01*
X186515Y58220D01*
X185651Y58578D01*
X184724Y58700D01*
X183797Y58578D01*
X182933Y58220D01*
X182192Y57651D01*
X181622Y56909D01*
X181265Y56045D01*
X181248Y55921D01*
X177805Y52478D01*
X177428Y52808D01*
X177826Y53327D01*
X178184Y54191D01*
X178306Y55118D01*
X178184Y56045D01*
X177826Y56909D01*
X177257Y57651D01*
X176515Y58220D01*
X175651Y58578D01*
X174724Y58700D01*
X173797Y58578D01*
X172933Y58220D01*
X172192Y57651D01*
X171622Y56909D01*
X171265Y56045D01*
X171143Y55118D01*
X171265Y54191D01*
X171622Y53327D01*
X172192Y52585D01*
X172933Y52016D01*
X173797Y51658D01*
X174724Y51536D01*
X175651Y51658D01*
X176515Y52016D01*
X177034Y52415D01*
X177365Y52038D01*
X175353Y50026D01*
X114096D01*
X112084Y52038D01*
X112414Y52415D01*
X112934Y52016D01*
X113797Y51658D01*
X114724Y51536D01*
X115651Y51658D01*
X116515Y52016D01*
X117257Y52585D01*
X117826Y53327D01*
X118184Y54191D01*
X118306Y55118D01*
X118184Y56045D01*
X117826Y56909D01*
X117257Y57651D01*
X116515Y58220D01*
X115651Y58578D01*
X114724Y58700D01*
X113797Y58578D01*
X112934Y58220D01*
X112192Y57651D01*
X111622Y56909D01*
X111265Y56045D01*
X111143Y55118D01*
X111265Y54191D01*
X111622Y53327D01*
X112021Y52808D01*
X111644Y52478D01*
X108275Y55846D01*
Y58669D01*
X103697D01*
X101707Y60658D01*
Y62439D01*
X102026Y62547D01*
X102208Y62573D01*
X102934Y62016D01*
X103797Y61658D01*
X104724Y61536D01*
X105651Y61658D01*
X106515Y62016D01*
X106614Y62092D01*
X112834D01*
X112934Y62016D01*
X113797Y61658D01*
X114724Y61536D01*
X115651Y61658D01*
X116515Y62016D01*
X117257Y62585D01*
X117826Y63327D01*
X118184Y64191D01*
X118306Y65118D01*
X118184Y66045D01*
X117826Y66909D01*
X117257Y67651D01*
X116515Y68220D01*
X115651Y68578D01*
X114724Y68700D01*
X113797Y68578D01*
X112934Y68220D01*
X112865Y68272D01*
X112816Y68931D01*
X164875Y120990D01*
X370366D01*
Y120366D01*
X373386D01*
X384974Y108778D01*
Y17253D01*
X378747Y11026D01*
X231253D01*
X222140Y20140D01*
X221513Y20620D01*
X220783Y20923D01*
X220000Y21026D01*
X156045D01*
X156005Y21031D01*
X155966Y21026D01*
X90000D01*
X89556Y20967D01*
X32784Y77739D01*
Y165588D01*
X33140Y165860D01*
X33621Y166487D01*
X33923Y167217D01*
X34026Y168000D01*
X33923Y168783D01*
X33621Y169513D01*
X33140Y170140D01*
X32513Y170621D01*
X31783Y170923D01*
X31000Y171026D01*
X30217Y170923D01*
X29487Y170621D01*
X28860Y170140D01*
X28379Y169513D01*
X28077Y168783D01*
X27974Y168000D01*
X28077Y167217D01*
X28379Y166487D01*
X28860Y165860D01*
X29216Y165588D01*
Y77000D01*
X29351Y76317D01*
X29738Y75738D01*
X87033Y18444D01*
X86974Y18000D01*
X87077Y17217D01*
X87379Y16487D01*
X87860Y15860D01*
X88487Y15380D01*
X89217Y15077D01*
X90000Y14974D01*
X218747D01*
X227860Y5860D01*
X227860Y5860D01*
X228487Y5379D01*
X229217Y5077D01*
X230000Y4974D01*
X230000Y4974D01*
X380000D01*
X380783Y5077D01*
X381513Y5379D01*
X382140Y5860D01*
X390140Y13860D01*
X390620Y14487D01*
X390923Y15217D01*
X391026Y16000D01*
Y110031D01*
X391026Y110031D01*
X390923Y110815D01*
X390620Y111544D01*
X390140Y112171D01*
X390140Y112171D01*
X377665Y124645D01*
Y127665D01*
X370366D01*
Y127042D01*
X163622D01*
X162839Y126938D01*
X162109Y126636D01*
X161482Y126155D01*
X103921Y68594D01*
X103797Y68578D01*
X102934Y68220D01*
X102208Y67663D01*
X102026Y67690D01*
X101707Y67798D01*
Y99077D01*
X101707Y99077D01*
X101572Y99760D01*
X101185Y100338D01*
X101185Y100338D01*
X82967Y118556D01*
X83026Y119000D01*
X82923Y119783D01*
X82621Y120513D01*
X82140Y121140D01*
X81784Y121412D01*
Y139588D01*
X82140Y139860D01*
X82621Y140487D01*
X82923Y141217D01*
X83026Y142000D01*
X82923Y142783D01*
X82621Y143513D01*
X82140Y144140D01*
X81784Y144412D01*
Y196552D01*
X82140Y196825D01*
X82621Y197452D01*
X82923Y198181D01*
X83026Y198965D01*
X82923Y199748D01*
X82621Y200478D01*
X82140Y201104D01*
X81784Y201377D01*
Y208198D01*
X311982D01*
X312665Y208334D01*
X313244Y208721D01*
X329262Y224738D01*
X329262Y224738D01*
X341262Y236738D01*
X341262Y236738D01*
X341649Y237317D01*
X341784Y238000D01*
Y250000D01*
X341649Y250683D01*
X341262Y251262D01*
X340683Y251648D01*
X340000Y251784D01*
D02*
G37*
G36*
X375016Y198418D02*
Y195882D01*
X377552D01*
X377204Y196722D01*
X376619Y197485D01*
X375856Y198070D01*
X375016Y198418D01*
D02*
G37*
G36*
X373016D02*
X372175Y198070D01*
X371413Y197485D01*
X370828Y196722D01*
X370480Y195882D01*
X373016D01*
Y198418D01*
D02*
G37*
G36*
X342520Y212901D02*
X340733Y212725D01*
X339014Y212203D01*
X337430Y211357D01*
X336042Y210218D01*
X334903Y208829D01*
X334056Y207246D01*
X333535Y205527D01*
X333359Y203740D01*
X333535Y201953D01*
X334056Y200235D01*
X334903Y198651D01*
X336042Y197263D01*
X337430Y196124D01*
X339014Y195277D01*
X340733Y194756D01*
X342520Y194580D01*
X344307Y194756D01*
X346025Y195277D01*
X347609Y196124D01*
X348997Y197263D01*
X350136Y198651D01*
X350983Y200235D01*
X351504Y201953D01*
X351680Y203740D01*
X351504Y205527D01*
X350983Y207246D01*
X350136Y208829D01*
X348997Y210218D01*
X347609Y211357D01*
X346025Y212203D01*
X344307Y212725D01*
X342520Y212901D01*
D02*
G37*
G36*
X377552Y193882D02*
X375016D01*
Y191346D01*
X375856Y191694D01*
X376619Y192279D01*
X377204Y193041D01*
X377552Y193882D01*
D02*
G37*
G36*
X373016D02*
X370480D01*
X370828Y193041D01*
X371413Y192279D01*
X372175Y191694D01*
X373016Y191346D01*
Y193882D01*
D02*
G37*
G36*
X291839Y191187D02*
X165878D01*
Y155996D01*
X291839D01*
Y191187D01*
D02*
G37*
G36*
X109505Y198496D02*
X108722Y198393D01*
X107992Y198090D01*
X107366Y197609D01*
X106885Y196983D01*
X106582Y196253D01*
X106479Y195470D01*
X106582Y194687D01*
X106885Y193957D01*
X107366Y193330D01*
X107721Y193058D01*
Y157958D01*
X107379Y157513D01*
X107077Y156783D01*
X106974Y156000D01*
X107077Y155217D01*
X107379Y154487D01*
X107860Y153860D01*
X108487Y153379D01*
X109217Y153077D01*
X110000Y152974D01*
X110783Y153077D01*
X111513Y153379D01*
X112140Y153860D01*
X112620Y154487D01*
X112923Y155217D01*
X113026Y156000D01*
X112923Y156783D01*
X112620Y157513D01*
X112140Y158140D01*
X111513Y158621D01*
X111290Y158713D01*
Y193058D01*
X111645Y193330D01*
X112126Y193957D01*
X112428Y194687D01*
X112531Y195470D01*
X112428Y196253D01*
X112126Y196983D01*
X111645Y197609D01*
X111018Y198090D01*
X110288Y198393D01*
X109505Y198496D01*
D02*
G37*
G36*
X130000Y153026D02*
X129217Y152923D01*
X128487Y152620D01*
X127860Y152140D01*
X127588Y151784D01*
X107412D01*
X107140Y152140D01*
X106513Y152620D01*
X105783Y152923D01*
X105000Y153026D01*
X104217Y152923D01*
X103487Y152620D01*
X102860Y152140D01*
X102380Y151513D01*
X102077Y150783D01*
X101974Y150000D01*
X102077Y149217D01*
X102380Y148487D01*
X102860Y147860D01*
X103487Y147380D01*
X104217Y147077D01*
X105000Y146974D01*
X105783Y147077D01*
X106513Y147380D01*
X107140Y147860D01*
X107412Y148216D01*
X127588D01*
X127860Y147860D01*
X128487Y147380D01*
X129217Y147077D01*
X130000Y146974D01*
X130783Y147077D01*
X131513Y147380D01*
X132140Y147860D01*
X132621Y148487D01*
X132923Y149217D01*
X133026Y150000D01*
X132923Y150783D01*
X132621Y151513D01*
X132140Y152140D01*
X131513Y152620D01*
X130783Y152923D01*
X130000Y153026D01*
D02*
G37*
G36*
X375016Y147237D02*
Y144701D01*
X377552D01*
X377204Y145541D01*
X376619Y146304D01*
X375856Y146889D01*
X375016Y147237D01*
D02*
G37*
G36*
X373016Y147237D02*
X372175Y146889D01*
X371413Y146304D01*
X370828Y145541D01*
X370480Y144701D01*
X373016D01*
Y147237D01*
D02*
G37*
G36*
X377552Y142701D02*
X375016D01*
Y140165D01*
X375856Y140513D01*
X376619Y141098D01*
X377204Y141860D01*
X377552Y142701D01*
D02*
G37*
G36*
X373016D02*
X370480D01*
X370828Y141860D01*
X371413Y141098D01*
X372175Y140513D01*
X373016Y140165D01*
Y142701D01*
D02*
G37*
G36*
X326772Y119397D02*
X324985Y119221D01*
X323266Y118699D01*
X321682Y117853D01*
X320294Y116714D01*
X319155Y115325D01*
X318308Y113742D01*
X317787Y112023D01*
X317611Y110236D01*
X317787Y108449D01*
X318308Y106731D01*
X319155Y105147D01*
X320294Y103759D01*
X321682Y102620D01*
X323266Y101773D01*
X324985Y101252D01*
X326772Y101076D01*
X328559Y101252D01*
X330277Y101773D01*
X331861Y102620D01*
X333249Y103759D01*
X334388Y105147D01*
X335235Y106731D01*
X335756Y108449D01*
X335932Y110236D01*
X335756Y112023D01*
X335235Y113742D01*
X334388Y115325D01*
X333249Y116714D01*
X331861Y117853D01*
X330277Y118699D01*
X328559Y119221D01*
X326772Y119397D01*
D02*
G37*
G36*
X11811D02*
X10024Y119221D01*
X8305Y118699D01*
X6722Y117853D01*
X5334Y116714D01*
X4194Y115325D01*
X3348Y113742D01*
X2827Y112023D01*
X2651Y110236D01*
X2827Y108449D01*
X3348Y106731D01*
X4194Y105147D01*
X5334Y103759D01*
X6722Y102620D01*
X8305Y101773D01*
X10024Y101252D01*
X11811Y101076D01*
X13598Y101252D01*
X15317Y101773D01*
X16900Y102620D01*
X18288Y103759D01*
X19428Y105147D01*
X20274Y106731D01*
X20796Y108449D01*
X20971Y110236D01*
X20796Y112023D01*
X20274Y113742D01*
X19428Y115325D01*
X18288Y116714D01*
X16900Y117853D01*
X15317Y118699D01*
X13598Y119221D01*
X11811Y119397D01*
D02*
G37*
G36*
X370000Y105026D02*
X369217Y104923D01*
X368487Y104621D01*
X367860Y104140D01*
X367588Y103784D01*
X337757D01*
X337074Y103648D01*
X336496Y103262D01*
X336496Y103262D01*
X305018Y71784D01*
X259606D01*
X259606Y71784D01*
X258924Y71649D01*
X258345Y71262D01*
X258345Y71262D01*
X255658Y68575D01*
X255651Y68578D01*
X254724Y68700D01*
X253797Y68578D01*
X252934Y68220D01*
X252192Y67651D01*
X251622Y66909D01*
X251265Y66045D01*
X251143Y65118D01*
X251265Y64191D01*
X251622Y63327D01*
X252192Y62585D01*
X252934Y62016D01*
X253797Y61658D01*
X254724Y61536D01*
X255651Y61658D01*
X256515Y62016D01*
X257257Y62585D01*
X257826Y63327D01*
X258184Y64191D01*
X258306Y65118D01*
X258184Y66045D01*
X258181Y66052D01*
X260345Y68216D01*
X262150D01*
X262311Y67742D01*
X262192Y67651D01*
X261622Y66909D01*
X261295Y66118D01*
X268154D01*
X267826Y66909D01*
X267257Y67651D01*
X267138Y67742D01*
X267299Y68216D01*
X272150D01*
X272311Y67742D01*
X272192Y67651D01*
X271622Y66909D01*
X271265Y66045D01*
X271143Y65118D01*
X271265Y64191D01*
X271622Y63327D01*
X272192Y62585D01*
X272584Y62284D01*
X272414Y61784D01*
X269606D01*
X269606Y61784D01*
X268923Y61648D01*
X268345Y61262D01*
X268345Y61262D01*
X265658Y58575D01*
X265651Y58578D01*
X264724Y58700D01*
X263797Y58578D01*
X262933Y58220D01*
X262192Y57651D01*
X261622Y56909D01*
X261265Y56045D01*
X261142Y55118D01*
X261265Y54191D01*
X261622Y53327D01*
X262192Y52585D01*
X262933Y52016D01*
X263797Y51658D01*
X264724Y51536D01*
X265651Y51658D01*
X266515Y52016D01*
X267257Y52585D01*
X267826Y53327D01*
X268184Y54191D01*
X268306Y55118D01*
X268184Y56045D01*
X268181Y56052D01*
X270345Y58216D01*
X272150D01*
X272311Y57742D01*
X272192Y57651D01*
X271622Y56909D01*
X271265Y56045D01*
X271143Y55118D01*
X271265Y54191D01*
X271622Y53327D01*
X272192Y52585D01*
X272934Y52016D01*
X273797Y51658D01*
X274724Y51536D01*
X275651Y51658D01*
X276515Y52016D01*
X277257Y52585D01*
X277826Y53327D01*
X278184Y54191D01*
X278306Y55118D01*
X278184Y56045D01*
X277826Y56909D01*
X277257Y57651D01*
X277138Y57742D01*
X277299Y58216D01*
X282150D01*
X282311Y57742D01*
X282192Y57651D01*
X281622Y56909D01*
X281265Y56045D01*
X281142Y55118D01*
X281265Y54191D01*
X281622Y53327D01*
X282192Y52585D01*
X282933Y52016D01*
X283797Y51658D01*
X284724Y51536D01*
X285651Y51658D01*
X286515Y52016D01*
X287257Y52585D01*
X287826Y53327D01*
X288184Y54191D01*
X288306Y55118D01*
X288184Y56045D01*
X287826Y56909D01*
X287257Y57651D01*
X287138Y57742D01*
X287299Y58216D01*
X292150D01*
X292311Y57742D01*
X292192Y57651D01*
X291622Y56909D01*
X291295Y56118D01*
X298154D01*
X297826Y56909D01*
X297257Y57651D01*
X297138Y57742D01*
X297299Y58216D01*
X301768D01*
X302451Y58351D01*
X303029Y58738D01*
X334440Y90149D01*
X334884Y90090D01*
X335667Y90193D01*
X336397Y90496D01*
X337023Y90977D01*
X337504Y91603D01*
X337807Y92333D01*
X337910Y93116D01*
X337807Y93899D01*
X337504Y94629D01*
X337023Y95256D01*
X336397Y95737D01*
X335667Y96039D01*
X335101Y96113D01*
X334907Y96627D01*
X338496Y100216D01*
X367588D01*
X367860Y99860D01*
X368487Y99379D01*
X369217Y99077D01*
X370000Y98974D01*
X370783Y99077D01*
X371513Y99379D01*
X372140Y99860D01*
X372621Y100487D01*
X372923Y101217D01*
X373026Y102000D01*
X372923Y102783D01*
X372621Y103513D01*
X372140Y104140D01*
X371513Y104621D01*
X370783Y104923D01*
X370000Y105026D01*
D02*
G37*
G36*
X41000Y220784D02*
X40317Y220649D01*
X39738Y220262D01*
X39351Y219683D01*
X39216Y219000D01*
X39351Y218317D01*
X39738Y217738D01*
X45216Y212261D01*
Y136000D01*
X45351Y135317D01*
X45738Y134738D01*
X79033Y101444D01*
X78974Y101000D01*
X79077Y100217D01*
X79379Y99487D01*
X79860Y98860D01*
X80487Y98379D01*
X81217Y98077D01*
X82000Y97974D01*
X82783Y98077D01*
X83513Y98379D01*
X84140Y98860D01*
X84620Y99487D01*
X84923Y100217D01*
X85026Y101000D01*
X84923Y101783D01*
X84620Y102513D01*
X84140Y103140D01*
X83513Y103621D01*
X82783Y103923D01*
X82000Y104026D01*
X81556Y103967D01*
X48784Y136739D01*
Y213000D01*
X48649Y213683D01*
X48262Y214262D01*
X42262Y220262D01*
X41683Y220649D01*
X41000Y220784D01*
D02*
G37*
G36*
Y205784D02*
X40317Y205648D01*
X39738Y205262D01*
X39351Y204683D01*
X39216Y204000D01*
Y105000D01*
X39351Y104317D01*
X39738Y103738D01*
X43033Y100444D01*
X42974Y100000D01*
X43077Y99217D01*
X43380Y98487D01*
X43860Y97860D01*
X44487Y97379D01*
X45217Y97077D01*
X46000Y96974D01*
X46783Y97077D01*
X47513Y97379D01*
X48140Y97860D01*
X48621Y98487D01*
X48923Y99217D01*
X49026Y100000D01*
X48923Y100783D01*
X48621Y101513D01*
X48140Y102140D01*
X47513Y102620D01*
X46783Y102923D01*
X46000Y103026D01*
X45556Y102967D01*
X42784Y105739D01*
Y204000D01*
X42649Y204683D01*
X42262Y205262D01*
X41683Y205648D01*
X41000Y205784D01*
D02*
G37*
G36*
X230000Y96026D02*
X229217Y95923D01*
X228487Y95621D01*
X227860Y95140D01*
X227588Y94784D01*
X162606D01*
X162606Y94784D01*
X161923Y94648D01*
X161345Y94262D01*
X161345Y94262D01*
X135658Y68575D01*
X135651Y68578D01*
X134724Y68700D01*
X133797Y68578D01*
X132933Y68220D01*
X132192Y67651D01*
X131622Y66909D01*
X131265Y66045D01*
X131143Y65118D01*
X131265Y64191D01*
X131622Y63327D01*
X132192Y62585D01*
X132933Y62016D01*
X133797Y61658D01*
X134724Y61536D01*
X135651Y61658D01*
X136515Y62016D01*
X137257Y62585D01*
X137826Y63327D01*
X138184Y64191D01*
X138306Y65118D01*
X138184Y66045D01*
X138181Y66052D01*
X163345Y91216D01*
X222618D01*
X222717Y90716D01*
X222487Y90620D01*
X221860Y90140D01*
X221588Y89784D01*
X167606D01*
X167606Y89784D01*
X166923Y89648D01*
X166345Y89262D01*
X145658Y68575D01*
X145651Y68578D01*
X144724Y68700D01*
X143797Y68578D01*
X142933Y68220D01*
X142192Y67651D01*
X141622Y66909D01*
X141265Y66045D01*
X141143Y65118D01*
X141265Y64191D01*
X141622Y63327D01*
X142192Y62585D01*
X142933Y62016D01*
X143797Y61658D01*
X144724Y61536D01*
X145651Y61658D01*
X146515Y62016D01*
X147257Y62585D01*
X147826Y63327D01*
X148184Y64191D01*
X148306Y65118D01*
X148184Y66045D01*
X148181Y66052D01*
X168345Y86216D01*
X221588D01*
X221860Y85860D01*
X222487Y85379D01*
X223217Y85077D01*
X224000Y84974D01*
X224783Y85077D01*
X225513Y85379D01*
X226140Y85860D01*
X226621Y86487D01*
X226923Y87217D01*
X227026Y88000D01*
X226923Y88783D01*
X226621Y89513D01*
X226140Y90140D01*
X225513Y90620D01*
X225283Y90716D01*
X225382Y91216D01*
X227588D01*
X227860Y90860D01*
X228487Y90380D01*
X229217Y90077D01*
X230000Y89974D01*
X230783Y90077D01*
X231513Y90380D01*
X232140Y90860D01*
X232621Y91487D01*
X232923Y92217D01*
X233026Y93000D01*
X232923Y93783D01*
X232621Y94513D01*
X232140Y95140D01*
X231513Y95621D01*
X230783Y95923D01*
X230000Y96026D01*
D02*
G37*
G36*
X23335Y88295D02*
X16035D01*
Y80996D01*
X23335D01*
Y88295D01*
D02*
G37*
G36*
X245724Y68548D02*
Y66118D01*
X248154D01*
X247826Y66909D01*
X247257Y67651D01*
X246515Y68220D01*
X245724Y68548D01*
D02*
G37*
G36*
X243724D02*
X242934Y68220D01*
X242192Y67651D01*
X241622Y66909D01*
X241295Y66118D01*
X243724D01*
Y68548D01*
D02*
G37*
G36*
X195724D02*
Y66118D01*
X198154D01*
X197826Y66909D01*
X197257Y67651D01*
X196515Y68220D01*
X195724Y68548D01*
D02*
G37*
G36*
X193724D02*
X192933Y68220D01*
X192192Y67651D01*
X191622Y66909D01*
X191295Y66118D01*
X193724D01*
Y68548D01*
D02*
G37*
G36*
X165724D02*
Y66118D01*
X168154D01*
X167826Y66909D01*
X167257Y67651D01*
X166515Y68220D01*
X165724Y68548D01*
D02*
G37*
G36*
X163724D02*
X162934Y68220D01*
X162192Y67651D01*
X161622Y66909D01*
X161295Y66118D01*
X163724D01*
Y68548D01*
D02*
G37*
G36*
X125724D02*
Y66118D01*
X128154D01*
X127826Y66909D01*
X127257Y67651D01*
X126515Y68220D01*
X125724Y68548D01*
D02*
G37*
G36*
X123724D02*
X122933Y68220D01*
X122192Y67651D01*
X121622Y66909D01*
X121295Y66118D01*
X123724D01*
Y68548D01*
D02*
G37*
G36*
X268154Y64118D02*
X265724D01*
Y61689D01*
X266515Y62016D01*
X267257Y62585D01*
X267826Y63327D01*
X268154Y64118D01*
D02*
G37*
G36*
X263724D02*
X261295D01*
X261622Y63327D01*
X262192Y62585D01*
X262933Y62016D01*
X263724Y61689D01*
Y64118D01*
D02*
G37*
G36*
X248154D02*
X245724D01*
Y61689D01*
X246515Y62016D01*
X247257Y62585D01*
X247826Y63327D01*
X248154Y64118D01*
D02*
G37*
G36*
X243724D02*
X241295D01*
X241622Y63327D01*
X242192Y62585D01*
X242934Y62016D01*
X243724Y61689D01*
Y64118D01*
D02*
G37*
G36*
X198154D02*
X195724D01*
Y61689D01*
X196515Y62016D01*
X197257Y62585D01*
X197826Y63327D01*
X198154Y64118D01*
D02*
G37*
G36*
X193724D02*
X191295D01*
X191622Y63327D01*
X192192Y62585D01*
X192933Y62016D01*
X193724Y61689D01*
Y64118D01*
D02*
G37*
G36*
X168154D02*
X165724D01*
Y61689D01*
X166515Y62016D01*
X167257Y62585D01*
X167826Y63327D01*
X168154Y64118D01*
D02*
G37*
G36*
X163724D02*
X161295D01*
X161622Y63327D01*
X162192Y62585D01*
X162934Y62016D01*
X163724Y61689D01*
Y64118D01*
D02*
G37*
G36*
X128154D02*
X125724D01*
Y61689D01*
X126515Y62016D01*
X127257Y62585D01*
X127826Y63327D01*
X128154Y64118D01*
D02*
G37*
G36*
X123724D02*
X121295D01*
X121622Y63327D01*
X122192Y62585D01*
X122933Y62016D01*
X123724Y61689D01*
Y64118D01*
D02*
G37*
G36*
X234724Y68700D02*
X233797Y68578D01*
X232933Y68220D01*
X232192Y67651D01*
X231622Y66909D01*
X231265Y66045D01*
X231142Y65118D01*
X231265Y64191D01*
X231622Y63327D01*
X232192Y62585D01*
X232933Y62016D01*
X233797Y61658D01*
X234724Y61536D01*
X235651Y61658D01*
X236515Y62016D01*
X237257Y62585D01*
X237826Y63327D01*
X238184Y64191D01*
X238306Y65118D01*
X238184Y66045D01*
X237826Y66909D01*
X237257Y67651D01*
X236515Y68220D01*
X235651Y68578D01*
X234724Y68700D01*
D02*
G37*
G36*
X224724D02*
X223797Y68578D01*
X222934Y68220D01*
X222192Y67651D01*
X221622Y66909D01*
X221265Y66045D01*
X221143Y65118D01*
X221265Y64191D01*
X221622Y63327D01*
X222192Y62585D01*
X222934Y62016D01*
X223797Y61658D01*
X224724Y61536D01*
X225651Y61658D01*
X226515Y62016D01*
X227257Y62585D01*
X227826Y63327D01*
X228184Y64191D01*
X228306Y65118D01*
X228184Y66045D01*
X227826Y66909D01*
X227257Y67651D01*
X226515Y68220D01*
X225651Y68578D01*
X224724Y68700D01*
D02*
G37*
G36*
X214724D02*
X213797Y68578D01*
X212933Y68220D01*
X212192Y67651D01*
X211622Y66909D01*
X211265Y66045D01*
X211142Y65118D01*
X211265Y64191D01*
X211622Y63327D01*
X212192Y62585D01*
X212933Y62016D01*
X213797Y61658D01*
X214724Y61536D01*
X215651Y61658D01*
X216515Y62016D01*
X217257Y62585D01*
X217826Y63327D01*
X218184Y64191D01*
X218306Y65118D01*
X218184Y66045D01*
X217826Y66909D01*
X217257Y67651D01*
X216515Y68220D01*
X215651Y68578D01*
X214724Y68700D01*
D02*
G37*
G36*
X204724D02*
X203797Y68578D01*
X202934Y68220D01*
X202192Y67651D01*
X201622Y66909D01*
X201265Y66045D01*
X201143Y65118D01*
X201265Y64191D01*
X201622Y63327D01*
X202192Y62585D01*
X202934Y62016D01*
X203797Y61658D01*
X204724Y61536D01*
X205651Y61658D01*
X206515Y62016D01*
X207257Y62585D01*
X207826Y63327D01*
X208184Y64191D01*
X208306Y65118D01*
X208184Y66045D01*
X207826Y66909D01*
X207257Y67651D01*
X206515Y68220D01*
X205651Y68578D01*
X204724Y68700D01*
D02*
G37*
G36*
X184724D02*
X183797Y68578D01*
X182933Y68220D01*
X182192Y67651D01*
X181622Y66909D01*
X181265Y66045D01*
X181143Y65118D01*
X181265Y64191D01*
X181622Y63327D01*
X182192Y62585D01*
X182933Y62016D01*
X183797Y61658D01*
X184724Y61536D01*
X185651Y61658D01*
X186515Y62016D01*
X187257Y62585D01*
X187826Y63327D01*
X188184Y64191D01*
X188306Y65118D01*
X188184Y66045D01*
X187826Y66909D01*
X187257Y67651D01*
X186515Y68220D01*
X185651Y68578D01*
X184724Y68700D01*
D02*
G37*
G36*
X174724D02*
X173797Y68578D01*
X172933Y68220D01*
X172192Y67651D01*
X171622Y66909D01*
X171265Y66045D01*
X171143Y65118D01*
X171265Y64191D01*
X171622Y63327D01*
X172192Y62585D01*
X172933Y62016D01*
X173797Y61658D01*
X174724Y61536D01*
X175651Y61658D01*
X176515Y62016D01*
X177257Y62585D01*
X177826Y63327D01*
X178184Y64191D01*
X178306Y65118D01*
X178184Y66045D01*
X177826Y66909D01*
X177257Y67651D01*
X176515Y68220D01*
X175651Y68578D01*
X174724Y68700D01*
D02*
G37*
G36*
X154724D02*
X153797Y68578D01*
X152934Y68220D01*
X152192Y67651D01*
X151622Y66909D01*
X151265Y66045D01*
X151143Y65118D01*
X151265Y64191D01*
X151622Y63327D01*
X152192Y62585D01*
X152934Y62016D01*
X153797Y61658D01*
X154724Y61536D01*
X155651Y61658D01*
X156515Y62016D01*
X157257Y62585D01*
X157826Y63327D01*
X158184Y64191D01*
X158306Y65118D01*
X158184Y66045D01*
X157826Y66909D01*
X157257Y67651D01*
X156515Y68220D01*
X155651Y68578D01*
X154724Y68700D01*
D02*
G37*
G36*
X19685Y68642D02*
X18732Y68516D01*
X17844Y68148D01*
X17082Y67563D01*
X16497Y66801D01*
X16129Y65913D01*
X16004Y64961D01*
X16129Y64008D01*
X16497Y63120D01*
X17082Y62358D01*
X17844Y61773D01*
X18732Y61405D01*
X19685Y61279D01*
X20638Y61405D01*
X21526Y61773D01*
X22288Y62358D01*
X22873Y63120D01*
X23241Y64008D01*
X23366Y64961D01*
X23241Y65913D01*
X22873Y66801D01*
X22288Y67563D01*
X21526Y68148D01*
X20638Y68516D01*
X19685Y68642D01*
D02*
G37*
G36*
X225724Y58548D02*
Y56118D01*
X228154D01*
X227826Y56909D01*
X227257Y57651D01*
X226515Y58220D01*
X225724Y58548D01*
D02*
G37*
G36*
X223724D02*
X222934Y58220D01*
X222192Y57651D01*
X221622Y56909D01*
X221295Y56118D01*
X223724D01*
Y58548D01*
D02*
G37*
G36*
X145724D02*
Y56118D01*
X148154D01*
X147826Y56909D01*
X147257Y57651D01*
X146515Y58220D01*
X145724Y58548D01*
D02*
G37*
G36*
X143724D02*
X142933Y58220D01*
X142192Y57651D01*
X141622Y56909D01*
X141295Y56118D01*
X143724D01*
Y58548D01*
D02*
G37*
G36*
X148154Y54118D02*
X145724D01*
Y51689D01*
X146515Y52016D01*
X147257Y52585D01*
X147826Y53327D01*
X148154Y54118D01*
D02*
G37*
G36*
X143724D02*
X141295D01*
X141622Y53327D01*
X142192Y52585D01*
X142933Y52016D01*
X143724Y51689D01*
Y54118D01*
D02*
G37*
G36*
X298154D02*
X295724D01*
Y51689D01*
X296515Y52016D01*
X297257Y52585D01*
X297826Y53327D01*
X298154Y54118D01*
D02*
G37*
G36*
X293724D02*
X291295D01*
X291622Y53327D01*
X292192Y52585D01*
X292934Y52016D01*
X293724Y51689D01*
Y54118D01*
D02*
G37*
G36*
X228154D02*
X225724D01*
Y51689D01*
X226515Y52016D01*
X227257Y52585D01*
X227826Y53327D01*
X228154Y54118D01*
D02*
G37*
G36*
X223724D02*
X221295D01*
X221622Y53327D01*
X222192Y52585D01*
X222934Y52016D01*
X223724Y51689D01*
Y54118D01*
D02*
G37*
G36*
X254724Y58700D02*
X253797Y58578D01*
X252934Y58220D01*
X252192Y57651D01*
X251622Y56909D01*
X251265Y56045D01*
X251143Y55118D01*
X251265Y54191D01*
X251622Y53327D01*
X252192Y52585D01*
X252934Y52016D01*
X253797Y51658D01*
X254724Y51536D01*
X255651Y51658D01*
X256515Y52016D01*
X257257Y52585D01*
X257826Y53327D01*
X258184Y54191D01*
X258306Y55118D01*
X258184Y56045D01*
X257826Y56909D01*
X257257Y57651D01*
X256515Y58220D01*
X255651Y58578D01*
X254724Y58700D01*
D02*
G37*
G36*
X244724D02*
X243797Y58578D01*
X242934Y58220D01*
X242192Y57651D01*
X241622Y56909D01*
X241265Y56045D01*
X241143Y55118D01*
X241265Y54191D01*
X241622Y53327D01*
X242192Y52585D01*
X242934Y52016D01*
X243797Y51658D01*
X244724Y51536D01*
X245651Y51658D01*
X246515Y52016D01*
X247257Y52585D01*
X247826Y53327D01*
X248184Y54191D01*
X248306Y55118D01*
X248184Y56045D01*
X247826Y56909D01*
X247257Y57651D01*
X246515Y58220D01*
X245651Y58578D01*
X244724Y58700D01*
D02*
G37*
G36*
X234724D02*
X233797Y58578D01*
X232933Y58220D01*
X232192Y57651D01*
X231622Y56909D01*
X231265Y56045D01*
X231142Y55118D01*
X231265Y54191D01*
X231622Y53327D01*
X232192Y52585D01*
X232933Y52016D01*
X233797Y51658D01*
X234724Y51536D01*
X235651Y51658D01*
X236515Y52016D01*
X237257Y52585D01*
X237826Y53327D01*
X238184Y54191D01*
X238306Y55118D01*
X238184Y56045D01*
X237826Y56909D01*
X237257Y57651D01*
X236515Y58220D01*
X235651Y58578D01*
X234724Y58700D01*
D02*
G37*
G36*
X214724D02*
X213797Y58578D01*
X212933Y58220D01*
X212192Y57651D01*
X211622Y56909D01*
X211265Y56045D01*
X211142Y55118D01*
X211265Y54191D01*
X211622Y53327D01*
X212192Y52585D01*
X212933Y52016D01*
X213797Y51658D01*
X214724Y51536D01*
X215651Y51658D01*
X216515Y52016D01*
X217257Y52585D01*
X217826Y53327D01*
X218184Y54191D01*
X218306Y55118D01*
X218184Y56045D01*
X217826Y56909D01*
X217257Y57651D01*
X216515Y58220D01*
X215651Y58578D01*
X214724Y58700D01*
D02*
G37*
G36*
X204724D02*
X203797Y58578D01*
X202934Y58220D01*
X202192Y57651D01*
X201622Y56909D01*
X201265Y56045D01*
X201143Y55118D01*
X201265Y54191D01*
X201622Y53327D01*
X202192Y52585D01*
X202934Y52016D01*
X203797Y51658D01*
X204724Y51536D01*
X205651Y51658D01*
X206515Y52016D01*
X207257Y52585D01*
X207826Y53327D01*
X208184Y54191D01*
X208306Y55118D01*
X208184Y56045D01*
X207826Y56909D01*
X207257Y57651D01*
X206515Y58220D01*
X205651Y58578D01*
X204724Y58700D01*
D02*
G37*
G36*
X164724D02*
X163797Y58578D01*
X162934Y58220D01*
X162192Y57651D01*
X161622Y56909D01*
X161265Y56045D01*
X161143Y55118D01*
X161265Y54191D01*
X161622Y53327D01*
X162192Y52585D01*
X162934Y52016D01*
X163797Y51658D01*
X164724Y51536D01*
X165651Y51658D01*
X166515Y52016D01*
X167257Y52585D01*
X167826Y53327D01*
X168184Y54191D01*
X168306Y55118D01*
X168184Y56045D01*
X167826Y56909D01*
X167257Y57651D01*
X166515Y58220D01*
X165651Y58578D01*
X164724Y58700D01*
D02*
G37*
G36*
X154724D02*
X153797Y58578D01*
X152934Y58220D01*
X152192Y57651D01*
X151622Y56909D01*
X151265Y56045D01*
X151143Y55118D01*
X151265Y54191D01*
X151622Y53327D01*
X152192Y52585D01*
X152934Y52016D01*
X153797Y51658D01*
X154724Y51536D01*
X155651Y51658D01*
X156515Y52016D01*
X157257Y52585D01*
X157826Y53327D01*
X158184Y54191D01*
X158306Y55118D01*
X158184Y56045D01*
X157826Y56909D01*
X157257Y57651D01*
X156515Y58220D01*
X155651Y58578D01*
X154724Y58700D01*
D02*
G37*
G36*
X134724D02*
X133797Y58578D01*
X132933Y58220D01*
X132192Y57651D01*
X131622Y56909D01*
X131265Y56045D01*
X131143Y55118D01*
X131265Y54191D01*
X131622Y53327D01*
X132192Y52585D01*
X132933Y52016D01*
X133797Y51658D01*
X134724Y51536D01*
X135651Y51658D01*
X136515Y52016D01*
X137257Y52585D01*
X137826Y53327D01*
X138184Y54191D01*
X138306Y55118D01*
X138184Y56045D01*
X137826Y56909D01*
X137257Y57651D01*
X136515Y58220D01*
X135651Y58578D01*
X134724Y58700D01*
D02*
G37*
G36*
X124724D02*
X123797Y58578D01*
X122933Y58220D01*
X122192Y57651D01*
X121622Y56909D01*
X121265Y56045D01*
X121143Y55118D01*
X121265Y54191D01*
X121622Y53327D01*
X122192Y52585D01*
X122933Y52016D01*
X123797Y51658D01*
X124724Y51536D01*
X125651Y51658D01*
X126515Y52016D01*
X127257Y52585D01*
X127826Y53327D01*
X128184Y54191D01*
X128306Y55118D01*
X128184Y56045D01*
X127826Y56909D01*
X127257Y57651D01*
X126515Y58220D01*
X125651Y58578D01*
X124724Y58700D01*
D02*
G37*
G36*
X52000Y80026D02*
X51217Y79923D01*
X50487Y79620D01*
X49860Y79140D01*
X49380Y78513D01*
X49077Y77783D01*
X48974Y77000D01*
X49077Y76217D01*
X49380Y75487D01*
X49860Y74860D01*
X50487Y74379D01*
X51217Y74077D01*
X52000Y73974D01*
X52444Y74033D01*
X87738Y38738D01*
X88317Y38352D01*
X89000Y38216D01*
X182000D01*
X182683Y38352D01*
X183262Y38738D01*
X195297Y50773D01*
X195297Y50773D01*
X195684Y51352D01*
X195753Y51700D01*
X196515Y52016D01*
X197257Y52585D01*
X197826Y53327D01*
X198184Y54191D01*
X198306Y55118D01*
X198184Y56045D01*
X197826Y56909D01*
X197257Y57651D01*
X196515Y58220D01*
X195651Y58578D01*
X194724Y58700D01*
X193797Y58578D01*
X192933Y58220D01*
X192192Y57651D01*
X191622Y56909D01*
X191265Y56045D01*
X191143Y55118D01*
X191265Y54191D01*
X191622Y53327D01*
X192135Y52659D01*
X181261Y41784D01*
X89739D01*
X54967Y76556D01*
X55026Y77000D01*
X54923Y77783D01*
X54620Y78513D01*
X54140Y79140D01*
X53513Y79620D01*
X52783Y79923D01*
X52000Y80026D01*
D02*
G37*
G36*
X50213Y23221D02*
Y20685D01*
X52749D01*
X52400Y21526D01*
X51815Y22288D01*
X51053Y22873D01*
X50213Y23221D01*
D02*
G37*
G36*
X48213D02*
X47372Y22873D01*
X46610Y22288D01*
X46025Y21526D01*
X45676Y20685D01*
X48213D01*
Y23221D01*
D02*
G37*
G36*
X52749Y18685D02*
X50213D01*
Y16149D01*
X51053Y16497D01*
X51815Y17082D01*
X52400Y17844D01*
X52749Y18685D01*
D02*
G37*
G36*
X48213D02*
X45676D01*
X46025Y17844D01*
X46610Y17082D01*
X47372Y16497D01*
X48213Y16149D01*
Y18685D01*
D02*
G37*
G36*
X359949Y23335D02*
X352650D01*
Y16035D01*
X359949D01*
Y23335D01*
D02*
G37*
G36*
X320579D02*
X313280D01*
Y16035D01*
X320579D01*
Y23335D01*
D02*
G37*
G36*
X281209D02*
X273909D01*
Y16035D01*
X281209D01*
Y23335D01*
D02*
G37*
G36*
X33177D02*
X25878D01*
Y16035D01*
X33177D01*
Y23335D01*
D02*
G37*
G36*
X375984Y23366D02*
X375031Y23241D01*
X374144Y22873D01*
X373381Y22288D01*
X372796Y21526D01*
X372429Y20638D01*
X372303Y19685D01*
X372429Y18732D01*
X372796Y17844D01*
X373381Y17082D01*
X374144Y16497D01*
X375031Y16129D01*
X375984Y16004D01*
X376937Y16129D01*
X377825Y16497D01*
X378587Y17082D01*
X379172Y17844D01*
X379540Y18732D01*
X379665Y19685D01*
X379540Y20638D01*
X379172Y21526D01*
X378587Y22288D01*
X377825Y22873D01*
X376937Y23241D01*
X375984Y23366D01*
D02*
G37*
G36*
X336614D02*
X335661Y23241D01*
X334774Y22873D01*
X334011Y22288D01*
X333426Y21526D01*
X333059Y20638D01*
X332933Y19685D01*
X333059Y18732D01*
X333426Y17844D01*
X334011Y17082D01*
X334774Y16497D01*
X335661Y16129D01*
X336614Y16004D01*
X337567Y16129D01*
X338455Y16497D01*
X339217Y17082D01*
X339802Y17844D01*
X340170Y18732D01*
X340295Y19685D01*
X340170Y20638D01*
X339802Y21526D01*
X339217Y22288D01*
X338455Y22873D01*
X337567Y23241D01*
X336614Y23366D01*
D02*
G37*
G36*
X297244D02*
X296291Y23241D01*
X295404Y22873D01*
X294641Y22288D01*
X294056Y21526D01*
X293688Y20638D01*
X293563Y19685D01*
X293688Y18732D01*
X294056Y17844D01*
X294641Y17082D01*
X295404Y16497D01*
X296291Y16129D01*
X297244Y16004D01*
X298197Y16129D01*
X299085Y16497D01*
X299847Y17082D01*
X300432Y17844D01*
X300800Y18732D01*
X300925Y19685D01*
X300800Y20638D01*
X300432Y21526D01*
X299847Y22288D01*
X299085Y22873D01*
X298197Y23241D01*
X297244Y23366D01*
D02*
G37*
%LPD*%
D55*
X337757Y102000D02*
X370000D01*
X301768Y60000D02*
X334884Y93116D01*
X269606Y60000D02*
X301768D01*
X305757Y70000D02*
X337757Y102000D01*
X80000Y209982D02*
Y218965D01*
Y201000D02*
Y209982D01*
X311982D02*
X328000Y226000D01*
X80000Y209982D02*
X311982D01*
X340000Y238000D02*
Y250000D01*
X328000Y226000D02*
X340000Y238000D01*
X144724Y65118D02*
X167606Y88000D01*
X224000D01*
X162606Y93000D02*
X230000D01*
X134724Y65118D02*
X162606Y93000D01*
X348000Y274676D02*
Y342000D01*
X346000Y272000D02*
Y272676D01*
X348000Y274676D01*
X259606Y70000D02*
X305757D01*
X264724Y55118D02*
X269606Y60000D01*
X254724Y65118D02*
X259606Y70000D01*
X156005Y18000D02*
Y18005D01*
X31000Y77000D02*
X90000Y18000D01*
X31000Y77000D02*
Y168000D01*
X47000Y136000D02*
Y213000D01*
X41000Y219000D02*
X47000Y213000D01*
Y136000D02*
X82000Y101000D01*
X41000Y105000D02*
Y204000D01*
Y105000D02*
X46000Y100000D01*
X26000Y240000D02*
X58965D01*
X80000Y218965D01*
Y198965D02*
Y201000D01*
Y142000D02*
Y198965D01*
X109505Y156495D02*
Y195470D01*
Y156495D02*
X110000Y156000D01*
X89000Y40000D02*
X182000D01*
X52000Y77000D02*
X89000Y40000D01*
X194035Y54429D02*
X194724Y55118D01*
X194035Y52035D02*
Y54429D01*
X182000Y40000D02*
X194035Y52035D01*
X99923Y59919D02*
Y99077D01*
X80000Y119000D02*
X99923Y99077D01*
X105000Y150000D02*
X130000D01*
X99923Y59919D02*
X104724Y55118D01*
X80000Y119000D02*
Y142000D01*
X124000Y284000D02*
X141998Y266002D01*
X124000Y284000D02*
Y342000D01*
X60000Y266000D02*
Y266000D01*
X32894Y293106D02*
Y342894D01*
Y293106D02*
X60000Y266000D01*
D56*
X163622Y124016D02*
X374016D01*
Y175197D02*
X384000Y185181D01*
Y264000D01*
X374016Y124016D02*
X388000Y110031D01*
Y16000D02*
Y110031D01*
X384000Y264000D02*
Y276000D01*
X298000Y220000D02*
X342000Y264000D01*
X384000D01*
X267000Y220000D02*
X298000D01*
X256000Y254000D02*
X264000Y262000D01*
X256000Y231000D02*
X267000Y220000D01*
X256000Y231000D02*
Y254000D01*
X264000Y262000D02*
Y298000D01*
X384000Y276000D02*
Y334000D01*
X156005Y18000D02*
X220000D01*
X90000D02*
X156005D01*
X220000D02*
X230000Y8000D01*
X380000D01*
X388000Y16000D01*
X176606Y47000D02*
X184724Y55118D01*
X112843Y47000D02*
X176606D01*
X104724Y55118D02*
X112843Y47000D01*
X104724Y65118D02*
X114724D01*
X104724D02*
X163622Y124016D01*
X70000Y275000D02*
X73000Y272000D01*
X62000Y283000D02*
X70000Y275000D01*
X152000Y272000D02*
Y342000D01*
Y240000D02*
Y272000D01*
X120000D02*
X152000Y240000D01*
X172000Y220000D01*
X267000D01*
X73000Y272000D02*
X120000D01*
X62000Y283000D02*
Y342905D01*
X376000Y342000D02*
X384000Y334000D01*
X257079Y304921D02*
X264000Y298000D01*
X241197Y304921D02*
X257079D01*
D57*
X286340Y187688D02*
X287340Y188688D01*
X289339D01*
X290339Y187688D01*
Y186688D01*
X289339Y185688D01*
X287340D01*
X286340Y184689D01*
Y183689D01*
X287340Y182689D01*
X289339D01*
X290339Y183689D01*
X284341Y182689D02*
X282341D01*
X283341D01*
Y186688D01*
X284341D01*
X276343Y182689D02*
X278343D01*
X279342Y183689D01*
Y185688D01*
X278343Y186688D01*
X276343D01*
X275343Y185688D01*
Y184689D01*
X279342D01*
X271345Y180690D02*
X270345D01*
X269345Y181690D01*
Y186688D01*
X272344D01*
X273344Y185688D01*
Y183689D01*
X272344Y182689D01*
X269345D01*
X266346D02*
Y187688D01*
Y185688D01*
X267346D01*
X265347D01*
X266346D01*
Y187688D01*
X265347Y188688D01*
X262348Y186688D02*
Y182689D01*
Y184689D01*
X261348Y185688D01*
X260348Y186688D01*
X259349D01*
X256350Y182689D02*
X254350D01*
X255350D01*
Y186688D01*
X256350D01*
X248352Y182689D02*
X250352D01*
X251351Y183689D01*
Y185688D01*
X250352Y186688D01*
X248352D01*
X247353Y185688D01*
Y184689D01*
X251351D01*
X241354Y188688D02*
Y182689D01*
X244354D01*
X245353Y183689D01*
Y185688D01*
X244354Y186688D01*
X241354D01*
X238355Y189687D02*
Y187688D01*
X239355Y186688D01*
X235356Y182689D02*
X232357D01*
X231358Y183689D01*
X232357Y184689D01*
X234357D01*
X235356Y185688D01*
X234357Y186688D01*
X231358D01*
X223360Y188688D02*
Y182689D01*
X220361D01*
X219361Y183689D01*
Y184689D01*
X220361Y185688D01*
X223360D01*
X220361D01*
X219361Y186688D01*
Y187688D01*
X220361Y188688D01*
X223360D01*
X217362Y186688D02*
Y182689D01*
Y184689D01*
X216363Y185688D01*
X215363Y186688D01*
X214363D01*
X210364D02*
X208365D01*
X207365Y185688D01*
Y182689D01*
X210364D01*
X211364Y183689D01*
X210364Y184689D01*
X207365D01*
X205366Y182689D02*
X203367D01*
X204366D01*
Y186688D01*
X205366D01*
X200368Y182689D02*
Y186688D01*
X197369D01*
X196369Y185688D01*
Y182689D01*
X188372Y186688D02*
X186372Y182689D01*
X184373Y186688D01*
X182373Y187688D02*
X181374Y188688D01*
X179375D01*
X178375Y187688D01*
Y183689D01*
X179375Y182689D01*
X181374D01*
X182373Y183689D01*
Y187688D01*
X176375Y182689D02*
Y183689D01*
X175376D01*
Y182689D01*
X176375D01*
X171377D02*
X169378D01*
X170377D01*
Y188688D01*
X171377Y187688D01*
X286340Y177091D02*
X290339D01*
Y171092D01*
X286340D01*
X290339Y174091D02*
X288339D01*
X284341Y171092D02*
Y175091D01*
X281342D01*
X280342Y174091D01*
Y171092D01*
X278343Y175091D02*
Y171092D01*
Y173092D01*
X277343Y174091D01*
X276343Y175091D01*
X275343D01*
X272344Y171092D02*
X270345D01*
X271345D01*
Y175091D01*
X272344D01*
X263347D02*
X266346D01*
X267346Y174091D01*
Y172092D01*
X266346Y171092D01*
X263347D01*
X260348D02*
X258349D01*
X257349Y172092D01*
Y174091D01*
X258349Y175091D01*
X260348D01*
X261348Y174091D01*
Y172092D01*
X260348Y171092D01*
X245353Y176091D02*
X246353Y177091D01*
X248352D01*
X249352Y176091D01*
Y172092D01*
X248352Y171092D01*
X246353D01*
X245353Y172092D01*
X243354Y171092D02*
X241354D01*
X242354D01*
Y175091D01*
X243354D01*
X238355D02*
Y171092D01*
Y173092D01*
X237356Y174091D01*
X236356Y175091D01*
X235356D01*
X232357Y171092D02*
X230358D01*
X231358D01*
Y175091D01*
X232357D01*
X225360Y169093D02*
X224360D01*
X223360Y170093D01*
Y175091D01*
X226359D01*
X227359Y174091D01*
Y172092D01*
X226359Y171092D01*
X223360D01*
X221361D02*
Y175091D01*
X218362D01*
X217362Y174091D01*
Y171092D01*
X214363Y175091D02*
X212364D01*
X211364Y174091D01*
Y171092D01*
X214363D01*
X215363Y172092D01*
X214363Y173092D01*
X211364D01*
X205366Y175091D02*
X208365D01*
X209365Y174091D01*
Y172092D01*
X208365Y171092D01*
X205366D01*
X202367D02*
X200368D01*
X199368Y172092D01*
Y174091D01*
X200368Y175091D01*
X202367D01*
X203367Y174091D01*
Y172092D01*
X202367Y171092D01*
X286340Y165494D02*
X290339D01*
Y162494D01*
X288339D01*
X290339D01*
Y159495D01*
X281342D02*
X283341D01*
X284341Y160495D01*
Y162494D01*
X283341Y163494D01*
X281342D01*
X280342Y162494D01*
Y161495D01*
X284341D01*
X278343Y165494D02*
Y159495D01*
X275343D01*
X274344Y160495D01*
Y161495D01*
Y162494D01*
X275343Y163494D01*
X278343D01*
X272344D02*
Y159495D01*
Y161495D01*
X271345Y162494D01*
X270345Y163494D01*
X269345D01*
X266346D02*
Y160495D01*
X265347Y159495D01*
X262348D01*
Y163494D01*
X259349D02*
X257349D01*
X256350Y162494D01*
Y159495D01*
X259349D01*
X260348Y160495D01*
X259349Y161495D01*
X256350D01*
X254350Y163494D02*
Y159495D01*
Y161495D01*
X253350Y162494D01*
X252351Y163494D01*
X251351D01*
X248352D02*
Y160495D01*
X247353Y159495D01*
X244354D01*
Y158496D01*
X245353Y157496D01*
X246353D01*
X244354Y159495D02*
Y163494D01*
X232357Y159495D02*
X236356D01*
X232357Y163494D01*
Y164494D01*
X233357Y165494D01*
X235356D01*
X236356Y164494D01*
X230358D02*
X229358Y165494D01*
X227359D01*
X226359Y164494D01*
Y160495D01*
X227359Y159495D01*
X229358D01*
X230358Y160495D01*
Y164494D01*
X220361Y159495D02*
X224360D01*
X220361Y163494D01*
Y164494D01*
X221361Y165494D01*
X223360D01*
X224360Y164494D01*
X214363Y159495D02*
X218362D01*
X214363Y163494D01*
Y164494D01*
X215363Y165494D01*
X217362D01*
X218362Y164494D01*
D58*
X276433Y271654D02*
D03*
X205961D02*
D03*
X241197Y238386D02*
D03*
X237457Y271654D02*
D03*
X241197Y304921D02*
D03*
D59*
X215606Y297244D02*
D03*
X270724Y246063D02*
D03*
D60*
X336614Y19685D02*
D03*
X375984D02*
D03*
X297244D02*
D03*
X374016Y143701D02*
D03*
X151575Y374016D02*
D03*
X112205D02*
D03*
X53150D02*
D03*
X13780D02*
D03*
X356299D02*
D03*
X316929D02*
D03*
X19685Y64961D02*
D03*
X49213Y19685D02*
D03*
X374016Y194882D02*
D03*
D61*
X316929Y19685D02*
D03*
X356299D02*
D03*
X277559D02*
D03*
X171260Y374016D02*
D03*
X131890D02*
D03*
X72835D02*
D03*
X33465D02*
D03*
X375984D02*
D03*
X336614D02*
D03*
X29528Y19685D02*
D03*
D62*
X374016Y124016D02*
D03*
X19685Y84646D02*
D03*
X374016Y175197D02*
D03*
D63*
X224410Y374016D02*
D03*
X244094D02*
D03*
D64*
X263779D02*
D03*
D65*
X294724Y55118D02*
D03*
X284724D02*
D03*
X274724D02*
D03*
X264724D02*
D03*
X254724D02*
D03*
X244724D02*
D03*
X234724D02*
D03*
X224724D02*
D03*
X214724D02*
D03*
X204724D02*
D03*
X194724D02*
D03*
X184724D02*
D03*
X174724D02*
D03*
X164724D02*
D03*
X154724D02*
D03*
X144724D02*
D03*
X134724D02*
D03*
X124724D02*
D03*
X114724D02*
D03*
X294724Y65118D02*
D03*
X284724D02*
D03*
X274724D02*
D03*
X264724D02*
D03*
X254724D02*
D03*
X244724D02*
D03*
X234724D02*
D03*
X224724D02*
D03*
X214724D02*
D03*
X204724D02*
D03*
X194724D02*
D03*
X184724D02*
D03*
X174724D02*
D03*
X164724D02*
D03*
X154724D02*
D03*
X144724D02*
D03*
X134724D02*
D03*
X124724D02*
D03*
X114724D02*
D03*
X104724D02*
D03*
D66*
Y55118D02*
D03*
D67*
X334884Y93116D02*
D03*
X224000Y88000D02*
D03*
X230000Y93000D02*
D03*
X346000Y272000D02*
D03*
X370000Y102000D02*
D03*
X220000Y18000D02*
D03*
X156005Y18005D02*
D03*
X90000Y18000D02*
D03*
X26000Y240000D02*
D03*
X109505Y195470D02*
D03*
X80000Y198965D02*
D03*
X46000Y100000D02*
D03*
X31000Y168000D02*
D03*
X80000Y218965D02*
D03*
X110000Y156000D02*
D03*
X105000Y150000D02*
D03*
X130000D02*
D03*
X52000Y77000D02*
D03*
X80000Y119000D02*
D03*
X82000Y101000D02*
D03*
X80000Y142000D02*
D03*
X70000Y275000D02*
D03*
X152000Y272000D02*
D03*
X384000Y276000D02*
D03*
X348000Y342000D02*
D03*
X376000D02*
D03*
X124000D02*
D03*
X152000D02*
D03*
X32894Y342894D02*
D03*
X62000Y342905D02*
D03*
D68*
X328000Y226000D02*
D03*
X340000Y250000D02*
D03*
X41000Y219000D02*
D03*
Y204000D02*
D03*
X142000Y266000D02*
D03*
X60000D02*
D03*
M02*
