M48
;Layer_Color=9474304
;FILE_FORMAT=2:5
INCH,LZ
;TYPE=PLATED
T1F00S00C0.01181
T2F00S00C0.02362
T3F00S00C0.04016
T4F00S00C0.04331
T5F00S00C0.09200
T6F00S00C0.09843
;TYPE=NON_PLATED
T7F00S00C0.08268
%
T01
X0328Y0226
X034Y025
X0142Y0266
X006
X0041Y0219
Y0204
T02
X009Y0018
X0156005Y0018005
X0082Y0101
X008Y0119
Y0142
X0105Y015
X011Y0156
X013Y015
X0046Y01
X0052Y0077
X0224Y0088
X023Y0093
X022Y0018
X0334884Y0093116
X037Y0102
X0384Y0276
X0346Y0272
X0152
X007Y0275
X008Y0218965
Y0198965
X0109505Y019547
X0031Y0168
X0026Y024
X0032894Y0342894
X0062Y0342905
X0124Y0342
X0152
X0348
X0376
T03
X0104724Y0055118
X0114724
X0124724
X0134724
X0144724
X0154724
Y0065118
X0144724
X0134724
X0124724
X0114724
X0104724
X0164724
Y0055118
X0174724
X0184724
X0194724
X0204724
X0214724
X0224724
X0234724
X0244724
X0254724
X0264724
X0274724
X0284724
X0294724
Y0065118
X0284724
X0274724
X0264724
X0254724
X0244724
X0234724
X0224724
X0214724
X0204724
X0194724
X0184724
X0174724
T04
X0029528Y0019685
X0049213
X0019685Y0064961
Y0084646
X0277559Y0019685
X0297244
X0316929
X0336614
X0356299
X0375984
X0374016Y0124016
Y0143701
Y0175197
Y0194882
X0151575Y0374016
X013189
X0112205
X0072835
X005315
X0033465
X001378
X017126
X022441
X0244094
X0263779
X0316929
X0336614
X0356299
X0375984
T05
X0205961Y0271654
X0237457
X0241197Y0238386
Y0304921
X0276433Y0271654
T06
X0011811Y0110236
X0326772
X034252Y020374
X0011811Y0259842
X0198819Y0374016
X029
T07
X0215606Y0297244
X0270724Y0246063
M30
