M48
;Layer_Color=9474304
;FILE_FORMAT=2:5
INCH,LZ
;TYPE=PLATED
T01F00S00C0.01181
T02F00S00C0.02362
T03F00S00C0.03000
T04F00S00C0.04016
T05F00S00C0.04331
T06F00S00C0.09843
%
T01
X0415354Y0049213
X0452756
X0494095
X0533465
X0377953
X0326772Y0051181
X0307087
X0287402
X0267717
X0246063
X0226378
X0206693
X0188976
X0169291
X0149606
X0066929Y0122047
X0051181
X0021654Y0114173
X0043307Y0151575
X0033465Y021063
X0064961Y0200891
X0074852Y0205469
X0094488Y0226378
X0112205Y0208661
X0122047
X0155512
X0165354
X0198819
X0208661
X0242126
X0251969
X0226378Y0226378
X0183071
X0139764
X022441Y0116142
X0263779Y0127953
X0271654Y0226378
X0283465Y0246063
X038189Y020763
X0387795Y021063
X057874Y0295276
X0586614Y0307087
X0566929
X0547244Y0291339
X0525591
Y0311024
X0277559Y0259842
T02
X0389764Y0033465
X0301181Y021063
X0316929Y0226378
X0456693Y0163508
X0488189Y0159449
X0519685
X0551181
X0576772Y0218504
X0452756Y0291339
X0391732
X0334646
T03
X0344142Y0127134
Y0183827
X0308315
T04
X0034016Y0163228
Y0173228
X0044016
X0054016
Y0163228
X0044016
X0064016
X0074016
Y0173228
X0084016
X0094016
Y0163228
X0084016
X0064016Y0173228
X0104016
Y0163228
X0114016
X0124016
X0134016
X0144016
Y0173228
X0134016
X0124016
X0114016
X0154016
Y0163228
X0164016
X0174016
Y0173228
X0184016
Y0163228
X0194016
Y0173228
X0204016
X0214016
Y0163228
X0204016
X0224016
Y0173228
X0164016
T05
X0423228Y0017717
X0442913
X0462598
X0482283Y0017717
X0501968
X0521654
X0541339
X0403543Y0017717
X0383858
X0364173
X0330709
X0311024
X0291339
X0271654
X0251969
X0232283
X0212598
X0192913
X0173228
X0153543
X0120079Y0017717
X0100394
X0080709
X0061024
X0308315Y0127134
X0321772Y021063
X0331772
X0251969Y0305118
X0232283
X0212598
X0192913
X0173228
X0153543
X0133858Y0305118
X0114173
X007874Y0305118
X0059055
T06
X0574803Y0061024
X0031496
X0574803Y0261811
X0031496
M30
