G04*
G04 #@! TF.GenerationSoftware,Altium Limited,Altium Designer,24.2.2 (26)*
G04*
G04 Layer_Physical_Order=1*
G04 Layer_Color=255*
%FSLAX25Y25*%
%MOIN*%
G70*
G04*
G04 #@! TF.SameCoordinates,93052230-0714-41EE-B623-C252674C3430*
G04*
G04*
G04 #@! TF.FilePolarity,Positive*
G04*
G01*
G75*
%ADD16R,0.19685X0.19685*%
%ADD17R,0.03583X0.04803*%
%ADD18R,0.04921X0.06102*%
%ADD19R,0.03959X0.01545*%
G04:AMPARAMS|DCode=20|XSize=39.59mil|YSize=15.45mil|CornerRadius=7.73mil|HoleSize=0mil|Usage=FLASHONLY|Rotation=0.000|XOffset=0mil|YOffset=0mil|HoleType=Round|Shape=RoundedRectangle|*
%AMROUNDEDRECTD20*
21,1,0.03959,0.00000,0,0,0.0*
21,1,0.02414,0.01545,0,0,0.0*
1,1,0.01545,0.01207,0.00000*
1,1,0.01545,-0.01207,0.00000*
1,1,0.01545,-0.01207,0.00000*
1,1,0.01545,0.01207,0.00000*
%
%ADD20ROUNDEDRECTD20*%
%ADD21R,0.03150X0.03150*%
%ADD22R,0.06102X0.04921*%
%ADD23R,0.05906X0.05118*%
%ADD24R,0.21850X0.25591*%
%ADD25R,0.04921X0.11221*%
%ADD26R,0.01575X0.05315*%
%ADD27R,0.02362X0.05315*%
%ADD28O,0.07480X0.02362*%
%ADD29R,0.05906X0.06102*%
%ADD30R,0.03937X0.13780*%
%ADD31R,0.05906X0.13386*%
%ADD51C,0.02500*%
%ADD52C,0.01500*%
%ADD53C,0.06000*%
%ADD54C,0.06000*%
%ADD55R,0.06496X0.06496*%
%ADD56C,0.06102*%
%ADD57R,0.06299X0.06299*%
%ADD58C,0.06299*%
%ADD59R,0.06102X0.06102*%
%ADD60C,0.02362*%
%ADD61C,0.05000*%
G36*
X605280Y182122D02*
X586614D01*
X586224Y182044D01*
X585893Y181823D01*
X585672Y181492D01*
X585595Y181102D01*
Y141732D01*
X585672Y141342D01*
X585893Y141011D01*
X586224Y140790D01*
X586614Y140713D01*
X605280D01*
Y1020D01*
X1020D01*
Y140713D01*
X19685D01*
X20075Y140790D01*
X20406Y141011D01*
X20627Y141342D01*
X20705Y141732D01*
Y181102D01*
X20627Y181492D01*
X20406Y181823D01*
X20075Y182044D01*
X19685Y182122D01*
X1020D01*
Y321815D01*
X284103D01*
X284539Y321661D01*
X284539Y321315D01*
Y307276D01*
X291445D01*
Y321315D01*
X291445Y321661D01*
X291881Y321815D01*
X318355D01*
X318791Y321661D01*
X318791Y321315D01*
Y307276D01*
X325697D01*
Y321315D01*
X325697Y321661D01*
X326133Y321815D01*
X347095D01*
X347532Y321661D01*
X347532Y321315D01*
Y307276D01*
X354437D01*
Y321315D01*
X354437Y321661D01*
X354873Y321815D01*
X381347D01*
X381783Y321661D01*
X381784Y321315D01*
Y307276D01*
X388689D01*
Y321315D01*
X388689Y321661D01*
X389125Y321815D01*
X410087D01*
X410524Y321661D01*
X410524Y321315D01*
Y307276D01*
X417429D01*
Y321315D01*
X417429Y321661D01*
X417866Y321815D01*
X444339D01*
X444776Y321661D01*
X444776Y321315D01*
Y307276D01*
X451681D01*
Y321315D01*
X451681Y321661D01*
X452117Y321815D01*
X473079D01*
X473516Y321661D01*
X473516Y321315D01*
Y307276D01*
X480421D01*
Y321315D01*
X480421Y321661D01*
X480858Y321815D01*
X515205D01*
X515642Y321661D01*
X515642Y321315D01*
Y307276D01*
X522547D01*
Y321315D01*
X522547Y321661D01*
X522984Y321815D01*
X605280D01*
Y182122D01*
D02*
G37*
%LPC*%
G36*
X213079Y308768D02*
X212118D01*
X211190Y308519D01*
X210357Y308038D01*
X209678Y307359D01*
X209198Y306527D01*
X208949Y305599D01*
Y304638D01*
X209101Y304071D01*
X206494Y301465D01*
X206107Y300886D01*
X205972Y300203D01*
Y270776D01*
X204303D01*
Y264657D01*
X211209D01*
Y270776D01*
X209540D01*
Y299464D01*
X211666Y301590D01*
X212118Y301468D01*
X213079D01*
X214007Y301717D01*
X214839Y302198D01*
X215519Y302877D01*
X215999Y303709D01*
X216248Y304638D01*
Y305599D01*
X215999Y306527D01*
X215519Y307359D01*
X214839Y308038D01*
X214007Y308519D01*
X213079Y308768D01*
D02*
G37*
G36*
X173709D02*
X172748D01*
X171820Y308519D01*
X170987Y308038D01*
X170308Y307359D01*
X169827Y306527D01*
X169579Y305599D01*
Y304638D01*
X169715Y304128D01*
X163187Y297600D01*
X162800Y297021D01*
X162664Y296339D01*
Y270776D01*
X160996D01*
Y264657D01*
X167902D01*
Y270776D01*
X166233D01*
Y295600D01*
X172239Y301605D01*
X172748Y301468D01*
X173709D01*
X174637Y301717D01*
X175469Y302198D01*
X176149Y302877D01*
X176629Y303709D01*
X176878Y304638D01*
Y305599D01*
X176629Y306527D01*
X176149Y307359D01*
X175469Y308038D01*
X174637Y308519D01*
X173709Y308768D01*
D02*
G37*
G36*
X134339Y308768D02*
X133378D01*
X132450Y308519D01*
X131617Y308038D01*
X130938Y307359D01*
X130457Y306527D01*
X130209Y305599D01*
Y304638D01*
X130345Y304128D01*
X119880Y293663D01*
X119493Y293084D01*
X119357Y292402D01*
Y270776D01*
X117689D01*
Y264657D01*
X124594D01*
Y270776D01*
X122926D01*
Y291663D01*
X132869Y301605D01*
X133378Y301468D01*
X134339D01*
X135267Y301717D01*
X136099Y302198D01*
X136779Y302877D01*
X137259Y303709D01*
X137508Y304638D01*
Y305599D01*
X137259Y306527D01*
X136779Y307359D01*
X136099Y308038D01*
X135267Y308519D01*
X134339Y308768D01*
D02*
G37*
G36*
X299713Y299220D02*
X298244D01*
Y292831D01*
X299713D01*
Y299220D01*
D02*
G37*
G36*
X362705D02*
X361236D01*
Y292831D01*
X362705D01*
Y299220D01*
D02*
G37*
G36*
X425697D02*
X424228D01*
Y292831D01*
X425697D01*
Y299220D01*
D02*
G37*
G36*
X359236D02*
X357768D01*
Y292831D01*
X359236D01*
Y299220D01*
D02*
G37*
G36*
X422228D02*
X420760D01*
Y292831D01*
X422228D01*
Y299220D01*
D02*
G37*
G36*
X296244D02*
X294776D01*
Y292831D01*
X296244D01*
Y299220D01*
D02*
G37*
G36*
X441445D02*
X436508D01*
Y294348D01*
X436480Y294327D01*
X435919Y293596D01*
X435567Y292744D01*
X435446Y291831D01*
X435567Y290917D01*
X435919Y290066D01*
X436480Y289335D01*
X436508Y289313D01*
Y284441D01*
X441445D01*
Y288300D01*
X450966D01*
X450991Y288281D01*
X451842Y287929D01*
X452756Y287808D01*
X453670Y287929D01*
X454521Y288281D01*
X455252Y288842D01*
X455813Y289574D01*
X456166Y290425D01*
X456286Y291339D01*
X456166Y292252D01*
X455813Y293104D01*
X455252Y293835D01*
X454760Y294327D01*
X454029Y294888D01*
X453177Y295241D01*
X452264Y295361D01*
X441445D01*
Y299220D01*
D02*
G37*
G36*
X433571D02*
X428634D01*
Y286964D01*
X426645Y284975D01*
X425697D01*
Y290831D01*
X423228D01*
X420760D01*
Y284975D01*
X378453D01*
Y288300D01*
X389942D01*
X389967Y288281D01*
X390819Y287929D01*
X391732Y287808D01*
X392646Y287929D01*
X393497Y288281D01*
X394229Y288842D01*
X394790Y289574D01*
X395142Y290425D01*
X395263Y291339D01*
X395142Y292252D01*
X394790Y293104D01*
X394229Y293835D01*
X393736Y294327D01*
X393005Y294888D01*
X392154Y295241D01*
X391240Y295361D01*
X378453D01*
Y299220D01*
X373516D01*
Y294348D01*
X373488Y294327D01*
X372927Y293596D01*
X372574Y292744D01*
X372454Y291831D01*
X372574Y290917D01*
X372927Y290066D01*
X373488Y289335D01*
X373516Y289313D01*
Y284975D01*
X372568D01*
X370579Y286964D01*
Y299220D01*
X365642D01*
Y286964D01*
X363653Y284975D01*
X362705D01*
Y290831D01*
X360236D01*
X357768D01*
Y284975D01*
X315461D01*
Y287808D01*
X334646D01*
X335559Y287929D01*
X336411Y288281D01*
X337142Y288842D01*
X337703Y289574D01*
X338056Y290425D01*
X338176Y291339D01*
X338056Y292252D01*
X337703Y293104D01*
X337142Y293835D01*
X336411Y294396D01*
X335559Y294748D01*
X334646Y294869D01*
X315461D01*
Y299220D01*
X310524D01*
Y294348D01*
X310496Y294327D01*
X309935Y293596D01*
X309582Y292744D01*
X309462Y291831D01*
X309582Y290917D01*
X309935Y290066D01*
X310496Y289335D01*
X310524Y289307D01*
Y284975D01*
X309576D01*
X307587Y286964D01*
Y299220D01*
X302650D01*
Y287725D01*
X302242Y287453D01*
X302242Y287453D01*
X300174Y285385D01*
X299713Y285576D01*
Y290831D01*
X298244D01*
Y284441D01*
X298577D01*
X298769Y283979D01*
X282203Y267413D01*
X281816Y266834D01*
X281680Y266152D01*
Y262902D01*
X279913D01*
Y261725D01*
X277658D01*
X277658Y261725D01*
X276975Y261589D01*
X276396Y261203D01*
X276396Y261203D01*
X276297Y261104D01*
X275911Y260525D01*
X275775Y259842D01*
X275911Y259160D01*
X276297Y258581D01*
X276876Y258194D01*
X277559Y258058D01*
X278054Y258157D01*
X279913D01*
Y256980D01*
X287016D01*
Y262902D01*
X285249D01*
Y265412D01*
X304243Y284407D01*
X304400D01*
X304572Y284441D01*
X305063D01*
X307575Y281929D01*
X307575Y281929D01*
X308154Y281542D01*
X308837Y281407D01*
X308837Y281407D01*
X364392D01*
X365074Y281542D01*
X365653Y281929D01*
X368110Y284386D01*
X370567Y281929D01*
X370567Y281929D01*
X371146Y281542D01*
X371829Y281407D01*
X371829Y281407D01*
X427384D01*
X428067Y281542D01*
X428646Y281929D01*
X431157Y284441D01*
X433571D01*
Y299220D01*
D02*
G37*
G36*
X296244Y290831D02*
X294776D01*
Y284441D01*
X296244D01*
Y290831D01*
D02*
G37*
G36*
X252449Y308768D02*
X251488D01*
X250560Y308519D01*
X249728Y308038D01*
X249048Y307359D01*
X248568Y306527D01*
X248319Y305599D01*
Y304638D01*
X248568Y303709D01*
X249048Y302877D01*
X249728Y302198D01*
X249731Y302196D01*
Y270776D01*
X247610D01*
Y264657D01*
X254516D01*
Y270776D01*
X253300D01*
Y301696D01*
X253377Y301717D01*
X254209Y302198D01*
X254889Y302877D01*
X255369Y303709D01*
X255618Y304638D01*
Y305599D01*
X255369Y306527D01*
X254889Y307359D01*
X254209Y308038D01*
X253377Y308519D01*
X252449Y308768D01*
D02*
G37*
G36*
X235933D02*
X228634D01*
Y301468D01*
X229889D01*
Y270776D01*
X227610D01*
Y264657D01*
X234516D01*
Y270776D01*
X233457D01*
Y301468D01*
X235933D01*
Y308768D01*
D02*
G37*
G36*
X79221D02*
X78260D01*
X77332Y308519D01*
X76499Y308038D01*
X75820Y307359D01*
X75339Y306527D01*
X75091Y305599D01*
Y304638D01*
X75339Y303709D01*
X75820Y302877D01*
X76499Y302198D01*
X77332Y301717D01*
X78260Y301468D01*
X79221D01*
X79730Y301605D01*
X82113Y299221D01*
Y260933D01*
X80445D01*
Y254815D01*
X87350D01*
Y260933D01*
X85682D01*
Y299961D01*
X85682Y299961D01*
X85546Y300643D01*
X85159Y301222D01*
X82253Y304128D01*
X82390Y304638D01*
Y305599D01*
X82141Y306527D01*
X81661Y307359D01*
X80981Y308038D01*
X80149Y308519D01*
X79221Y308768D01*
D02*
G37*
G36*
X62705D02*
X55405D01*
Y301468D01*
X60181D01*
X62113Y299536D01*
Y260933D01*
X60445D01*
Y254815D01*
X67350D01*
Y260933D01*
X65682D01*
Y300275D01*
X65682Y300276D01*
X65546Y300958D01*
X65159Y301537D01*
X65159Y301537D01*
X62705Y303992D01*
Y308768D01*
D02*
G37*
G36*
X574803Y270971D02*
X573016Y270795D01*
X571298Y270274D01*
X569714Y269428D01*
X568326Y268288D01*
X567186Y266900D01*
X566340Y265317D01*
X565819Y263598D01*
X565643Y261811D01*
X565819Y260024D01*
X566340Y258306D01*
X567186Y256722D01*
X568326Y255334D01*
X569714Y254194D01*
X571298Y253348D01*
X573016Y252827D01*
X574803Y252651D01*
X576590Y252827D01*
X578309Y253348D01*
X579892Y254194D01*
X581281Y255334D01*
X582420Y256722D01*
X583266Y258306D01*
X583788Y260024D01*
X583964Y261811D01*
X583788Y263598D01*
X583266Y265317D01*
X582420Y266900D01*
X581281Y268288D01*
X579892Y269428D01*
X578309Y270274D01*
X576590Y270795D01*
X574803Y270971D01*
D02*
G37*
G36*
X31496D02*
X29709Y270795D01*
X27990Y270274D01*
X26407Y269428D01*
X25019Y268288D01*
X23879Y266900D01*
X23033Y265317D01*
X22512Y263598D01*
X22336Y261811D01*
X22512Y260024D01*
X23033Y258306D01*
X23879Y256722D01*
X25019Y255334D01*
X26407Y254194D01*
X27990Y253348D01*
X29709Y252827D01*
X31496Y252651D01*
X33283Y252827D01*
X35002Y253348D01*
X36585Y254194D01*
X37973Y255334D01*
X39113Y256722D01*
X39959Y258306D01*
X40481Y260024D01*
X40657Y261811D01*
X40481Y263598D01*
X39959Y265317D01*
X39113Y266900D01*
X37973Y268288D01*
X36585Y269428D01*
X35002Y270274D01*
X33283Y270795D01*
X31496Y270971D01*
D02*
G37*
G36*
X562402Y318713D02*
X561719Y318578D01*
X561140Y318191D01*
X561140Y318191D01*
X553587Y310638D01*
X550189D01*
Y304450D01*
X549727Y304258D01*
X549574Y304411D01*
X548995Y304798D01*
X548313Y304934D01*
X492618D01*
X492618Y304934D01*
X491935Y304798D01*
X491356Y304411D01*
X486166Y299220D01*
X483752D01*
Y284441D01*
X488689D01*
Y296697D01*
X491126Y299134D01*
X491626Y298927D01*
X491626Y298861D01*
X491626Y298861D01*
X491626Y298842D01*
Y284441D01*
X494040D01*
X506120Y272360D01*
X506120Y272360D01*
X506699Y271974D01*
X507382Y271838D01*
X507382Y271838D01*
X576772D01*
X577455Y271974D01*
X578033Y272360D01*
X582069Y276396D01*
X582069Y276396D01*
X582456Y276975D01*
X582591Y277658D01*
Y279913D01*
X583768D01*
Y287016D01*
X582444D01*
Y288476D01*
X582587D01*
Y292626D01*
X578437D01*
Y288476D01*
X578875D01*
Y287016D01*
X577846D01*
Y279913D01*
X579023D01*
Y278397D01*
X576033Y275406D01*
X559158D01*
X559108Y275906D01*
X559130Y275911D01*
X559709Y276297D01*
X561173Y277762D01*
X561173Y277762D01*
X561560Y278341D01*
X561696Y279024D01*
Y279913D01*
X564083D01*
Y287016D01*
X562759D01*
Y288476D01*
X562902D01*
Y290924D01*
X563364Y291116D01*
X569741Y284738D01*
Y284675D01*
X569776Y284503D01*
Y279913D01*
X575697D01*
Y287016D01*
X572510D01*
X571511Y288014D01*
X571703Y288476D01*
X575106D01*
Y290103D01*
X578495Y293491D01*
X578740D01*
X579423Y293627D01*
X580002Y294014D01*
X580389Y294593D01*
X580524Y295276D01*
X580389Y295958D01*
X580002Y296537D01*
X579423Y296924D01*
X578740Y297060D01*
X577756D01*
X577073Y296924D01*
X576494Y296537D01*
X576494Y296537D01*
X572583Y292626D01*
X570957D01*
Y289222D01*
X570495Y289031D01*
X564388Y295138D01*
X563809Y295524D01*
X563126Y295660D01*
X558325D01*
X556522Y297463D01*
X556714Y297925D01*
X559161D01*
Y302075D01*
X557535D01*
X556421Y303189D01*
X556110Y303535D01*
X556110D01*
X556110Y303536D01*
Y308114D01*
X557798Y309802D01*
X558260Y309611D01*
Y303535D01*
X564181D01*
Y305302D01*
X566929D01*
X566929Y305302D01*
X567612Y305438D01*
X568191Y305825D01*
X568578Y306404D01*
X568713Y307087D01*
X568578Y307769D01*
X568191Y308348D01*
X567612Y308735D01*
X566929Y308871D01*
X564181D01*
Y310638D01*
X559287D01*
X559095Y311100D01*
X563141Y315145D01*
X577027D01*
X577219Y314683D01*
X573174Y310638D01*
X569776D01*
Y303535D01*
X572163D01*
Y302825D01*
X572298Y302142D01*
X572685Y301563D01*
X574697Y299552D01*
Y297925D01*
X578847D01*
Y302075D01*
X577220D01*
X575731Y303564D01*
Y305876D01*
X575731Y305876D01*
X575697Y306048D01*
Y308114D01*
X577385Y309802D01*
X577846Y309611D01*
Y303535D01*
X583768D01*
Y305302D01*
X586614D01*
X586614Y305302D01*
X587297Y305438D01*
X587876Y305825D01*
X588263Y306404D01*
X588398Y307087D01*
X588263Y307769D01*
X587876Y308348D01*
X587297Y308735D01*
X586614Y308871D01*
X583768D01*
Y310638D01*
X578873D01*
X578682Y311100D01*
X579727Y312145D01*
X586601D01*
X589704Y309042D01*
Y257887D01*
X580695Y248879D01*
X570574D01*
X555876Y263577D01*
X555297Y263964D01*
X554614Y264099D01*
X393701D01*
X393701Y264099D01*
X393018Y263964D01*
X392439Y263577D01*
X380628Y251766D01*
X380241Y251187D01*
X380105Y250504D01*
Y207630D01*
X380241Y206947D01*
X380628Y206368D01*
X381207Y205981D01*
X381890Y205846D01*
X382573Y205981D01*
X383151Y206368D01*
X383538Y206947D01*
X383674Y207630D01*
Y249765D01*
X394440Y260531D01*
X395677D01*
X395868Y260069D01*
X386534Y250734D01*
X386147Y250155D01*
X386011Y249472D01*
Y210630D01*
X386147Y209947D01*
X386534Y209368D01*
X387112Y208981D01*
X387795Y208846D01*
X388478Y208981D01*
X389057Y209368D01*
X389444Y209947D01*
X389580Y210630D01*
Y248733D01*
X398377Y257531D01*
X552632D01*
X567330Y242833D01*
X567330Y242833D01*
X567909Y242446D01*
X568592Y242310D01*
X568592Y242310D01*
X582677D01*
X583360Y242446D01*
X583939Y242833D01*
X595750Y254644D01*
X595750Y254644D01*
X596137Y255223D01*
X596273Y255906D01*
Y311024D01*
X596137Y311706D01*
X595750Y312285D01*
X595750Y312285D01*
X589844Y318191D01*
X589265Y318578D01*
X588583Y318713D01*
X562402D01*
X562402Y318713D01*
D02*
G37*
G36*
X287016Y254831D02*
X279913D01*
Y248909D01*
X281680D01*
Y246063D01*
X281816Y245380D01*
X282203Y244801D01*
X282782Y244414D01*
X283465Y244279D01*
X284147Y244414D01*
X284726Y244801D01*
X285113Y245380D01*
X285249Y246063D01*
Y248909D01*
X287016D01*
Y254831D01*
D02*
G37*
G36*
X559909Y241090D02*
X558618D01*
Y239189D01*
X559909D01*
Y241090D01*
D02*
G37*
G36*
X556618D02*
X555327D01*
Y239189D01*
X556618D01*
Y241090D01*
D02*
G37*
G36*
X559909Y237189D02*
X558618D01*
Y235287D01*
X559909D01*
Y237189D01*
D02*
G37*
G36*
X556618D02*
X555327D01*
Y235287D01*
X556618D01*
Y237189D01*
D02*
G37*
G36*
X528413D02*
X527122D01*
Y235287D01*
X528413D01*
Y237189D01*
D02*
G37*
G36*
X525122D02*
X523831D01*
Y235287D01*
X525122D01*
Y237189D01*
D02*
G37*
G36*
X496917D02*
X495626D01*
Y235287D01*
X496917D01*
Y237189D01*
D02*
G37*
G36*
X493626D02*
X492335D01*
Y235287D01*
X493626D01*
Y237189D01*
D02*
G37*
G36*
X465421Y235221D02*
X464130D01*
Y233319D01*
X465421D01*
Y235221D01*
D02*
G37*
G36*
X462130D02*
X460839D01*
Y233319D01*
X462130D01*
Y235221D01*
D02*
G37*
G36*
X254516Y235343D02*
X252063D01*
Y233283D01*
X254516D01*
Y235343D01*
D02*
G37*
G36*
X211209D02*
X208756D01*
Y233283D01*
X211209D01*
Y235343D01*
D02*
G37*
G36*
X124594D02*
X122142D01*
Y233283D01*
X124594D01*
Y235343D01*
D02*
G37*
G36*
X250063D02*
X247610D01*
Y233283D01*
X250063D01*
Y235343D01*
D02*
G37*
G36*
X230063D02*
X227610D01*
Y233283D01*
X230063D01*
Y235343D01*
D02*
G37*
G36*
X206756D02*
X204303D01*
Y233283D01*
X206756D01*
Y235343D01*
D02*
G37*
G36*
X186756D02*
X184303D01*
Y233283D01*
X186756D01*
Y235343D01*
D02*
G37*
G36*
X120142D02*
X117689D01*
Y233283D01*
X120142D01*
Y235343D01*
D02*
G37*
G36*
X100142D02*
X97689D01*
Y233283D01*
X100142D01*
Y235343D01*
D02*
G37*
G36*
X167902D02*
X165449D01*
Y233283D01*
X167902D01*
Y235343D01*
D02*
G37*
G36*
X163449D02*
X160996D01*
Y233283D01*
X163449D01*
Y235343D01*
D02*
G37*
G36*
X143449D02*
X140996D01*
Y233283D01*
X143449D01*
Y235343D01*
D02*
G37*
G36*
X254516Y231283D02*
X252063D01*
Y229224D01*
X254516D01*
Y231283D01*
D02*
G37*
G36*
X250063D02*
X247610D01*
Y229224D01*
X250063D01*
Y231283D01*
D02*
G37*
G36*
X211209D02*
X208756D01*
Y229224D01*
X211209D01*
Y231283D01*
D02*
G37*
G36*
X206756D02*
X204303D01*
Y229224D01*
X206756D01*
Y231283D01*
D02*
G37*
G36*
X186756D02*
X184303D01*
Y229224D01*
X186756D01*
Y231283D01*
D02*
G37*
G36*
X167902Y231283D02*
X165449D01*
Y229224D01*
X167902D01*
Y231283D01*
D02*
G37*
G36*
X163449D02*
X160996D01*
Y229224D01*
X163449D01*
Y231283D01*
D02*
G37*
G36*
X143449D02*
X140996D01*
Y229224D01*
X143449D01*
Y231283D01*
D02*
G37*
G36*
X124594Y231283D02*
X122142D01*
Y229224D01*
X124594D01*
Y231283D01*
D02*
G37*
G36*
X120142D02*
X117689D01*
Y229224D01*
X120142D01*
Y231283D01*
D02*
G37*
G36*
X100142D02*
X97689D01*
Y229224D01*
X100142D01*
Y231283D01*
D02*
G37*
G36*
X230063D02*
X227610D01*
Y229224D01*
X230063D01*
Y231283D01*
D02*
G37*
G36*
X77350Y225500D02*
X74898D01*
Y223441D01*
X77350D01*
Y225500D01*
D02*
G37*
G36*
X57350D02*
X54898D01*
Y223441D01*
X57350D01*
Y225500D01*
D02*
G37*
G36*
X72898D02*
X70445D01*
Y223441D01*
X72898D01*
Y225500D01*
D02*
G37*
G36*
X196563Y308768D02*
X189264D01*
Y303992D01*
X186494Y301222D01*
X186107Y300643D01*
X185972Y299961D01*
Y270776D01*
X184303D01*
Y264657D01*
X190714D01*
X190845Y264657D01*
X191223Y264616D01*
X191259Y264581D01*
X191362Y264340D01*
X191401Y264138D01*
X191405Y264090D01*
X191376Y263946D01*
X191269Y263407D01*
Y235818D01*
X191209Y235343D01*
X188756D01*
Y232283D01*
Y229224D01*
X189507D01*
X189698Y228763D01*
X189516Y228580D01*
X189129Y228001D01*
X188993Y227318D01*
Y225402D01*
X185425D01*
Y221033D01*
X184925Y220766D01*
X184855Y220812D01*
Y226378D01*
X184719Y227061D01*
X184333Y227640D01*
X183754Y228026D01*
X183071Y228162D01*
X182388Y228026D01*
X181809Y227640D01*
X181422Y227061D01*
X181287Y226378D01*
Y222491D01*
X179210Y220414D01*
X178748Y220606D01*
Y223578D01*
X178782Y223750D01*
X178782Y223750D01*
Y226107D01*
X180413Y227738D01*
X180800Y228317D01*
X180936Y228999D01*
X180936Y229000D01*
Y245352D01*
X180936Y245352D01*
X180800Y246035D01*
X180413Y246614D01*
X180413Y246614D01*
X176233Y250794D01*
Y264657D01*
X177902D01*
Y270776D01*
X170996D01*
Y264657D01*
X172664D01*
Y250055D01*
X172800Y249372D01*
X173187Y248793D01*
X177367Y244613D01*
Y235343D01*
X170996D01*
Y231147D01*
X170962Y230974D01*
Y230080D01*
X166382Y225500D01*
X161803D01*
Y222102D01*
X159563Y219862D01*
X159063Y220069D01*
Y225500D01*
X156765D01*
Y229224D01*
X157902D01*
Y235343D01*
X151530D01*
Y262668D01*
X153519Y264657D01*
X157902D01*
Y270776D01*
X150996D01*
Y267181D01*
X148484Y264669D01*
X148385Y264656D01*
X147902Y265082D01*
X147902Y265147D01*
Y270776D01*
X146233D01*
Y295285D01*
X152417Y301468D01*
X157193D01*
Y308768D01*
X149894D01*
Y303992D01*
X143187Y297285D01*
X142800Y296706D01*
X142665Y296024D01*
Y270776D01*
X140996D01*
Y264657D01*
X147407D01*
X147538Y264657D01*
X147916Y264616D01*
X147951Y264581D01*
X148055Y264340D01*
X148094Y264138D01*
X148098Y264090D01*
X148069Y263946D01*
X147962Y263407D01*
Y235818D01*
X147902Y235343D01*
X145449D01*
Y232283D01*
Y229224D01*
X146200D01*
X146391Y228763D01*
X146209Y228580D01*
X145822Y228001D01*
X145686Y227318D01*
Y225500D01*
X142118D01*
Y221131D01*
X141618Y220864D01*
X141548Y220911D01*
Y226378D01*
X141412Y227061D01*
X141025Y227640D01*
X140447Y228026D01*
X139764Y228162D01*
X139081Y228026D01*
X138502Y227640D01*
X138115Y227061D01*
X137979Y226378D01*
Y222491D01*
X135903Y220414D01*
X135441Y220606D01*
Y223578D01*
X135475Y223750D01*
X135475Y223750D01*
Y226107D01*
X137106Y227738D01*
X137493Y228317D01*
X137629Y228999D01*
X137629Y229000D01*
Y245352D01*
X137629Y245352D01*
X137493Y246035D01*
X137106Y246614D01*
X137106Y246614D01*
X132926Y250794D01*
Y264657D01*
X134595D01*
Y270776D01*
X127689D01*
Y264657D01*
X129357D01*
Y250055D01*
X129493Y249372D01*
X129880Y248793D01*
X134060Y244613D01*
Y235343D01*
X127689D01*
Y231147D01*
X127655Y230974D01*
Y230080D01*
X123075Y225500D01*
X118496D01*
Y222102D01*
X116256Y219862D01*
X115756Y220069D01*
Y225500D01*
X113458D01*
Y229224D01*
X114594D01*
Y235343D01*
X108223D01*
Y262668D01*
X110212Y264657D01*
X114594D01*
Y270776D01*
X107689D01*
Y267181D01*
X105177Y264669D01*
X105078Y264656D01*
X104595Y265082D01*
X104595Y265147D01*
Y270776D01*
X102926D01*
Y291348D01*
X113047Y301468D01*
X117823D01*
Y308768D01*
X110524D01*
Y303992D01*
X99880Y293348D01*
X99493Y292769D01*
X99357Y292087D01*
Y270776D01*
X97689D01*
Y264657D01*
X104100D01*
X104231Y264657D01*
X104609Y264616D01*
X104644Y264581D01*
X104748Y264340D01*
X104787Y264138D01*
X104790Y264090D01*
X104762Y263946D01*
X104655Y263407D01*
Y235818D01*
X104595Y235343D01*
X102142D01*
Y232283D01*
Y229224D01*
X102893D01*
X103084Y228763D01*
X102902Y228580D01*
X102515Y228001D01*
X102379Y227318D01*
Y225500D01*
X98811D01*
Y220606D01*
X98349Y220414D01*
X96272Y222491D01*
Y226378D01*
X96137Y227061D01*
X95750Y227640D01*
X95171Y228026D01*
X94488Y228162D01*
X93805Y228026D01*
X93226Y227640D01*
X92840Y227061D01*
X92704Y226378D01*
Y221752D01*
X92840Y221069D01*
X93226Y220490D01*
X98811Y214906D01*
Y211508D01*
X105619D01*
Y179841D01*
X105755Y179158D01*
X106142Y178579D01*
X110583Y174138D01*
X110465Y173696D01*
Y172761D01*
X110707Y171858D01*
X111174Y171048D01*
X111835Y170387D01*
X112645Y169919D01*
X113548Y169677D01*
X114483D01*
X115386Y169919D01*
X116196Y170387D01*
X116857Y171048D01*
X117325Y171858D01*
X117567Y172761D01*
Y173696D01*
X117325Y174599D01*
X116857Y175409D01*
X116196Y176070D01*
X115386Y176538D01*
X114483Y176779D01*
X113548D01*
X113106Y176661D01*
X109188Y180580D01*
Y211508D01*
X110420D01*
Y208661D01*
X110556Y207979D01*
X110943Y207400D01*
X111522Y207013D01*
X112205Y206877D01*
X112888Y207013D01*
X113466Y207400D01*
X113853Y207979D01*
X113989Y208661D01*
Y211508D01*
X115462D01*
Y189998D01*
X115598Y189315D01*
X115984Y188736D01*
X130583Y174138D01*
X130465Y173696D01*
Y172761D01*
X130707Y171858D01*
X131174Y171048D01*
X131835Y170387D01*
X132645Y169919D01*
X133548Y169677D01*
X134483D01*
X135386Y169919D01*
X136196Y170387D01*
X136857Y171048D01*
X137325Y171858D01*
X137567Y172761D01*
Y173696D01*
X137325Y174599D01*
X136857Y175409D01*
X136196Y176070D01*
X135386Y176538D01*
X134483Y176779D01*
X133548D01*
X133106Y176661D01*
X119030Y190737D01*
Y211508D01*
X120263D01*
Y208661D01*
X120399Y207979D01*
X120786Y207400D01*
X121364Y207013D01*
X122047Y206877D01*
X122730Y207013D01*
X123309Y207400D01*
X123696Y207979D01*
X123831Y208661D01*
Y211508D01*
X125598D01*
Y217429D01*
X119577D01*
X119370Y217929D01*
X121019Y219579D01*
X125598D01*
Y222977D01*
X127839Y225217D01*
X128339Y225010D01*
Y219579D01*
X134414D01*
X134605Y219117D01*
X132918Y217429D01*
X128339D01*
Y211508D01*
X135441D01*
Y214906D01*
X138779Y218244D01*
X142118Y214906D01*
Y211508D01*
X148926D01*
Y180662D01*
X144925Y176661D01*
X144483Y176779D01*
X143548D01*
X142645Y176538D01*
X141835Y176070D01*
X141174Y175409D01*
X140707Y174599D01*
X140465Y173696D01*
Y172761D01*
X140707Y171858D01*
X141174Y171048D01*
X141835Y170387D01*
X142645Y169919D01*
X143548Y169677D01*
X144483D01*
X145386Y169919D01*
X146196Y170387D01*
X146857Y171048D01*
X147325Y171858D01*
X147567Y172761D01*
Y173696D01*
X147449Y174138D01*
X151972Y178662D01*
X152359Y179240D01*
X152495Y179923D01*
Y211508D01*
X153727D01*
Y208661D01*
X153863Y207979D01*
X154250Y207400D01*
X154829Y207013D01*
X155512Y206877D01*
X156195Y207013D01*
X156773Y207400D01*
X157160Y207979D01*
X157296Y208661D01*
Y211508D01*
X158769D01*
Y180505D01*
X154925Y176661D01*
X154483Y176779D01*
X153548D01*
X152645Y176538D01*
X151835Y176070D01*
X151174Y175409D01*
X150707Y174599D01*
X150465Y173696D01*
Y172761D01*
X150707Y171858D01*
X151174Y171048D01*
X151835Y170387D01*
X152645Y169919D01*
X153548Y169677D01*
X154483D01*
X155386Y169919D01*
X156196Y170387D01*
X156857Y171048D01*
X157325Y171858D01*
X157567Y172761D01*
Y173696D01*
X157448Y174138D01*
X161815Y178504D01*
X162202Y179083D01*
X162337Y179766D01*
X162337Y179766D01*
Y211508D01*
X163570D01*
Y208661D01*
X163706Y207979D01*
X164093Y207400D01*
X164672Y207013D01*
X165354Y206877D01*
X166037Y207013D01*
X166616Y207400D01*
X167003Y207979D01*
X167139Y208661D01*
Y211508D01*
X168905D01*
Y217429D01*
X162884D01*
X162677Y217929D01*
X164327Y219579D01*
X168905D01*
Y222977D01*
X171146Y225217D01*
X171646Y225010D01*
Y219579D01*
X177721D01*
X177912Y219117D01*
X176225Y217429D01*
X171646D01*
Y211508D01*
X178748D01*
Y214906D01*
X182037Y218195D01*
X185425Y214807D01*
Y211409D01*
X192233D01*
Y184914D01*
X184099Y176779D01*
X183548D01*
X182645Y176538D01*
X181835Y176070D01*
X181174Y175409D01*
X180707Y174599D01*
X180465Y173696D01*
Y172761D01*
X180707Y171858D01*
X181174Y171048D01*
X181835Y170387D01*
X182645Y169919D01*
X183548Y169677D01*
X184483D01*
X185386Y169919D01*
X186196Y170387D01*
X186857Y171048D01*
X187325Y171858D01*
X187567Y172761D01*
Y173696D01*
X187325Y174599D01*
X187193Y174827D01*
X195279Y182913D01*
X195666Y183492D01*
X195802Y184175D01*
Y211508D01*
X197035D01*
Y208661D01*
X197170Y207979D01*
X197557Y207400D01*
X198136Y207013D01*
X198819Y206877D01*
X199502Y207013D01*
X200081Y207400D01*
X200467Y207979D01*
X200603Y208661D01*
Y211508D01*
X202076D01*
Y195746D01*
X202212Y195063D01*
X202232Y195034D01*
Y176299D01*
X201835Y176070D01*
X201174Y175409D01*
X200707Y174599D01*
X200465Y173696D01*
Y172761D01*
X200707Y171858D01*
X201174Y171048D01*
X201835Y170387D01*
X202645Y169919D01*
X203548Y169677D01*
X204483D01*
X205386Y169919D01*
X206196Y170387D01*
X206857Y171048D01*
X207325Y171858D01*
X207567Y172761D01*
Y173696D01*
X207325Y174599D01*
X206857Y175409D01*
X206196Y176070D01*
X205800Y176299D01*
Y195591D01*
X205664Y196273D01*
X205644Y196303D01*
Y211508D01*
X206877D01*
Y208661D01*
X207013Y207979D01*
X207400Y207400D01*
X207979Y207013D01*
X208661Y206877D01*
X209344Y207013D01*
X209923Y207400D01*
X210310Y207979D01*
X210446Y208661D01*
Y211508D01*
X212213D01*
Y217429D01*
X206191D01*
X205984Y217929D01*
X207634Y219579D01*
X212213D01*
Y222977D01*
X214453Y225217D01*
X214953Y225010D01*
Y219579D01*
X221028D01*
X221219Y219117D01*
X219532Y217429D01*
X214953D01*
Y211508D01*
X222055D01*
Y214906D01*
X225394Y218244D01*
X228732Y214906D01*
Y211508D01*
X235300D01*
Y202391D01*
X212386Y179476D01*
X211999Y178898D01*
X211863Y178215D01*
Y176086D01*
X211835Y176070D01*
X211174Y175409D01*
X210707Y174599D01*
X210465Y173696D01*
Y172761D01*
X210707Y171858D01*
X211174Y171048D01*
X211835Y170387D01*
X212645Y169919D01*
X213548Y169677D01*
X214483D01*
X215387Y169919D01*
X216196Y170387D01*
X216857Y171048D01*
X217325Y171858D01*
X217567Y172761D01*
Y173696D01*
X217325Y174599D01*
X216857Y175409D01*
X216196Y176070D01*
X215432Y176511D01*
Y177476D01*
X238346Y200390D01*
X238733Y200969D01*
X238869Y201652D01*
Y211508D01*
X240342D01*
Y208661D01*
X240477Y207979D01*
X240864Y207400D01*
X241443Y207013D01*
X242126Y206877D01*
X242809Y207013D01*
X243388Y207400D01*
X243774Y207979D01*
X243910Y208661D01*
Y211508D01*
X245143D01*
Y200422D01*
X223292Y178571D01*
X222905Y177992D01*
X222769Y177309D01*
Y176571D01*
X222645Y176538D01*
X221835Y176070D01*
X221174Y175409D01*
X220707Y174599D01*
X220465Y173696D01*
Y172761D01*
X220707Y171858D01*
X221174Y171048D01*
X221835Y170387D01*
X221961Y170314D01*
X221828Y169814D01*
X218817D01*
X218134Y169678D01*
X217555Y169291D01*
X217555Y169291D01*
X214925Y166661D01*
X214483Y166779D01*
X213548D01*
X212645Y166537D01*
X211835Y166070D01*
X211174Y165409D01*
X210707Y164599D01*
X210465Y163696D01*
Y162761D01*
X210707Y161858D01*
X211174Y161048D01*
X211835Y160387D01*
X212645Y159919D01*
X213222Y159765D01*
X213156Y159265D01*
X210519D01*
X207452Y162331D01*
X207567Y162761D01*
Y163696D01*
X207325Y164599D01*
X206857Y165409D01*
X206196Y166070D01*
X205386Y166537D01*
X204483Y166779D01*
X203548D01*
X202645Y166537D01*
X201835Y166070D01*
X201174Y165409D01*
X200707Y164599D01*
X200465Y163696D01*
Y163220D01*
X199965Y163013D01*
X199177Y163801D01*
X198598Y164188D01*
X197915Y164323D01*
X197399D01*
X197325Y164599D01*
X196857Y165409D01*
X196196Y166070D01*
X195386Y166537D01*
X194483Y166779D01*
X193548D01*
X192645Y166537D01*
X191835Y166070D01*
X191174Y165409D01*
X190707Y164599D01*
X190465Y163696D01*
Y163220D01*
X189965Y163013D01*
X189177Y163801D01*
X188598Y164188D01*
X187915Y164323D01*
X187399D01*
X187325Y164599D01*
X186857Y165409D01*
X186196Y166070D01*
X185386Y166537D01*
X184483Y166779D01*
X183548D01*
X182645Y166537D01*
X181835Y166070D01*
X181174Y165409D01*
X180707Y164599D01*
X180465Y163696D01*
Y162761D01*
X180707Y161858D01*
X181174Y161048D01*
X181835Y160387D01*
X182645Y159919D01*
X183548Y159677D01*
X184483D01*
X185386Y159919D01*
X186196Y160387D01*
X186564Y160755D01*
X187176D01*
X197204Y150726D01*
X197013Y150265D01*
X189503D01*
X177448Y162319D01*
X177567Y162761D01*
Y163696D01*
X177325Y164599D01*
X176857Y165409D01*
X176196Y166070D01*
X175386Y166537D01*
X174483Y166779D01*
X173548D01*
X172645Y166537D01*
X171835Y166070D01*
X171174Y165409D01*
X170707Y164599D01*
X170465Y163696D01*
Y162761D01*
X170707Y161858D01*
X171174Y161048D01*
X171835Y160387D01*
X172645Y159919D01*
X173548Y159677D01*
X174483D01*
X174925Y159796D01*
X186994Y147727D01*
X186803Y147265D01*
X162503D01*
X147449Y162319D01*
X147567Y162761D01*
Y163696D01*
X147325Y164599D01*
X146857Y165409D01*
X146196Y166070D01*
X145386Y166537D01*
X144483Y166779D01*
X143548D01*
X142645Y166537D01*
X141835Y166070D01*
X141174Y165409D01*
X140707Y164599D01*
X140465Y163696D01*
Y162761D01*
X140707Y161858D01*
X141174Y161048D01*
X141835Y160387D01*
X142645Y159919D01*
X143548Y159677D01*
X144483D01*
X144925Y159796D01*
X159994Y144727D01*
X159803Y144265D01*
X155503D01*
X137449Y162319D01*
X137567Y162761D01*
Y163696D01*
X137325Y164599D01*
X136857Y165409D01*
X136196Y166070D01*
X135386Y166537D01*
X134483Y166779D01*
X133548D01*
X132645Y166537D01*
X131835Y166070D01*
X131174Y165409D01*
X130707Y164599D01*
X130465Y163696D01*
Y162761D01*
X130707Y161858D01*
X131174Y161048D01*
X131835Y160387D01*
X132645Y159919D01*
X133548Y159677D01*
X134483D01*
X134925Y159796D01*
X152994Y141727D01*
X152803Y141265D01*
X148503D01*
X127448Y162319D01*
X127567Y162761D01*
Y163696D01*
X127325Y164599D01*
X126857Y165409D01*
X126196Y166070D01*
X125386Y166537D01*
X124483Y166779D01*
X123548D01*
X122645Y166537D01*
X121835Y166070D01*
X121174Y165409D01*
X120707Y164599D01*
X120465Y163696D01*
Y162761D01*
X120707Y161858D01*
X121174Y161048D01*
X121835Y160387D01*
X122645Y159919D01*
X123548Y159677D01*
X124483D01*
X124925Y159796D01*
X145994Y138726D01*
X145803Y138265D01*
X131503D01*
X107448Y162319D01*
X107567Y162761D01*
Y163696D01*
X107325Y164599D01*
X106857Y165409D01*
X106196Y166070D01*
X105386Y166537D01*
X104483Y166779D01*
X103548D01*
X102645Y166537D01*
X101835Y166070D01*
X101174Y165409D01*
X100707Y164599D01*
X100465Y163696D01*
Y162761D01*
X100707Y161858D01*
X101174Y161048D01*
X101835Y160387D01*
X102645Y159919D01*
X103548Y159677D01*
X104483D01*
X104925Y159796D01*
X128994Y135726D01*
X128803Y135265D01*
X127331D01*
X111983Y150613D01*
X111404Y151000D01*
X110721Y151135D01*
X108632D01*
X97448Y162319D01*
X97567Y162761D01*
Y163696D01*
X97325Y164599D01*
X96857Y165409D01*
X96196Y166070D01*
X95386Y166537D01*
X94483Y166779D01*
X93548D01*
X92645Y166537D01*
X91835Y166070D01*
X91174Y165409D01*
X90707Y164599D01*
X90465Y163696D01*
Y162761D01*
X90707Y161858D01*
X91174Y161048D01*
X91835Y160387D01*
X92645Y159919D01*
X93548Y159677D01*
X94483D01*
X94925Y159796D01*
X106133Y148588D01*
X105942Y148126D01*
X100921D01*
X87275Y161771D01*
X87325Y161858D01*
X87567Y162761D01*
Y163696D01*
X87325Y164599D01*
X86857Y165409D01*
X86196Y166070D01*
X85387Y166537D01*
X84483Y166779D01*
X83548D01*
X82645Y166537D01*
X81835Y166070D01*
X81174Y165409D01*
X80707Y164599D01*
X80465Y163696D01*
Y162761D01*
X80707Y161858D01*
X81174Y161048D01*
X81835Y160387D01*
X82645Y159919D01*
X83548Y159677D01*
X84483D01*
X85387Y159919D01*
X85473Y159969D01*
X98854Y146588D01*
X98663Y146126D01*
X72921D01*
X57275Y161771D01*
X57325Y161858D01*
X57567Y162761D01*
Y163696D01*
X57325Y164599D01*
X56857Y165409D01*
X56196Y166070D01*
X55387Y166537D01*
X54483Y166779D01*
X53548D01*
X52645Y166537D01*
X51835Y166070D01*
X51174Y165409D01*
X50707Y164599D01*
X50465Y163696D01*
Y162761D01*
X50707Y161858D01*
X51174Y161048D01*
X51835Y160387D01*
X52645Y159919D01*
X53548Y159677D01*
X54483D01*
X55387Y159919D01*
X55473Y159969D01*
X71492Y143950D01*
X71905Y143674D01*
X72393Y143577D01*
X108255D01*
X108469Y143308D01*
X108256Y142825D01*
X66221D01*
X60737Y148310D01*
X60605Y148970D01*
X60218Y149549D01*
X60218Y149549D01*
X47449Y162319D01*
X47567Y162761D01*
Y163696D01*
X47325Y164599D01*
X46857Y165409D01*
X46196Y166070D01*
X45386Y166537D01*
X44483Y166779D01*
X43548D01*
X42645Y166537D01*
X41835Y166070D01*
X41174Y165409D01*
X40707Y164599D01*
X40465Y163696D01*
Y162761D01*
X40707Y161858D01*
X41174Y161048D01*
X41835Y160387D01*
X42645Y159919D01*
X43548Y159677D01*
X44483D01*
X44925Y159796D01*
X57172Y147548D01*
Y117724D01*
X55996D01*
Y113145D01*
X55234Y112384D01*
X54848Y111805D01*
X54712Y111122D01*
Y109919D01*
X54240Y109850D01*
X54212Y109850D01*
X52572D01*
Y112591D01*
X54240D01*
Y119693D01*
X52572D01*
Y120978D01*
X52830Y121364D01*
X52965Y122047D01*
X52830Y122730D01*
X52443Y123309D01*
X51864Y123696D01*
X51181Y123831D01*
X50498Y123696D01*
X49919Y123309D01*
X49526Y122915D01*
X49139Y122336D01*
X49003Y121653D01*
Y120046D01*
X48649Y119693D01*
X47335Y119693D01*
X46835Y119693D01*
X44701D01*
Y116142D01*
X43701D01*
Y115142D01*
X40248D01*
Y112591D01*
X41916D01*
Y104331D01*
X42052Y103648D01*
X42439Y103069D01*
X43017Y102683D01*
Y97319D01*
X40023Y94326D01*
X37992D01*
X37504Y94229D01*
X37091Y93952D01*
X36815Y93539D01*
X36718Y93051D01*
X36815Y92563D01*
X37091Y92150D01*
X37504Y91874D01*
X37992Y91777D01*
X40551D01*
X41039Y91874D01*
X41452Y92150D01*
X45193Y95890D01*
X45469Y96304D01*
X45566Y96791D01*
Y103740D01*
X45469Y104228D01*
X45466Y104233D01*
X45485Y104331D01*
Y112237D01*
X45839Y112591D01*
X47153Y112591D01*
X47653Y112591D01*
X49003D01*
Y109850D01*
X47335D01*
Y102748D01*
X49513D01*
Y96201D01*
X49610Y95713D01*
X49886Y95300D01*
X52245Y92941D01*
X52353Y92395D01*
X52725Y91839D01*
X53281Y91468D01*
X53937Y91337D01*
X59055D01*
X59711Y91468D01*
X60267Y91839D01*
X60639Y92395D01*
X60769Y93051D01*
X60639Y93707D01*
X60267Y94263D01*
X59711Y94635D01*
X59055Y94765D01*
X54025D01*
X52307Y96483D01*
X52324Y96552D01*
X52407Y96611D01*
X52885Y96732D01*
X53281Y96468D01*
X53937Y96337D01*
X56143D01*
X56496Y96267D01*
X56849Y96337D01*
X59055D01*
X59711Y96468D01*
X60267Y96839D01*
X60639Y97395D01*
X60769Y98051D01*
X60639Y98707D01*
X60267Y99263D01*
X59711Y99635D01*
X59055Y99765D01*
X58280D01*
Y110383D01*
X58519Y110622D01*
X61917D01*
Y117724D01*
X60741D01*
Y144047D01*
X61203Y144239D01*
X64792Y140650D01*
X65206Y140373D01*
X65693Y140276D01*
X108801D01*
X123904Y125174D01*
X124318Y124897D01*
X124805Y124800D01*
X226139D01*
X230714Y120226D01*
Y119004D01*
X227354D01*
Y117631D01*
X225331D01*
X225092Y117790D01*
X224410Y117926D01*
X223727Y117790D01*
X223148Y117403D01*
X222761Y116824D01*
X222625Y116142D01*
X222761Y115459D01*
X223148Y114880D01*
X223443Y114585D01*
X224022Y114198D01*
X224705Y114062D01*
X227354D01*
Y112689D01*
X236106D01*
Y115847D01*
X238106D01*
Y112689D01*
X238665D01*
Y115847D01*
X240665D01*
Y112689D01*
X264772D01*
Y114572D01*
X271421D01*
X312447Y73546D01*
X312689Y73384D01*
Y71547D01*
X316839D01*
Y75697D01*
X314062D01*
X313939Y75721D01*
X313876D01*
X312887Y76710D01*
X313079Y77172D01*
X329293D01*
X332571Y73894D01*
Y71547D01*
X336720D01*
Y75697D01*
X334373D01*
X330722Y79348D01*
X330309Y79624D01*
X329821Y79721D01*
X312705D01*
X269478Y122948D01*
X269064Y123225D01*
X268577Y123322D01*
X263779D01*
X263292Y123225D01*
X262878Y122948D01*
X260775Y120845D01*
X260490Y120655D01*
X259274Y119439D01*
X258998Y119025D01*
X258994Y119004D01*
X243461D01*
Y121088D01*
X246775Y124402D01*
X250894D01*
Y131504D01*
X244972D01*
Y126204D01*
X241286Y122517D01*
X241058Y122176D01*
X240710Y122067D01*
X240487Y122040D01*
X231293Y131234D01*
X231484Y131696D01*
X237811D01*
X238494Y131832D01*
X239073Y132219D01*
X252708Y145853D01*
X384972D01*
Y144736D01*
X387032D01*
X387881Y143887D01*
Y141347D01*
X386705D01*
Y134244D01*
X392626D01*
Y141347D01*
X391450D01*
Y144626D01*
X391450Y144626D01*
X391314Y145309D01*
X390927Y145888D01*
X390927Y145888D01*
X389555Y147260D01*
Y150539D01*
X384972D01*
Y149422D01*
X295553D01*
X295362Y149884D01*
X298269Y152790D01*
X413052D01*
X418315Y147528D01*
X418315Y147528D01*
X418437Y147446D01*
Y144736D01*
X420496D01*
X421346Y143887D01*
Y141347D01*
X420169D01*
Y134244D01*
X426090D01*
Y141347D01*
X424914D01*
Y144626D01*
X424914Y144626D01*
X424778Y145309D01*
X424392Y145888D01*
X424392Y145888D01*
X423020Y147260D01*
Y150539D01*
X420359D01*
X420348Y150542D01*
X415561Y155329D01*
X415752Y155790D01*
X429594D01*
X434383Y151001D01*
X434192Y150539D01*
X431311D01*
Y148638D01*
X433602D01*
X435894D01*
Y148838D01*
X436356Y149029D01*
X439008Y146376D01*
X439009Y146376D01*
X439587Y145989D01*
X440270Y145853D01*
X447965D01*
Y144736D01*
X450024D01*
X450873Y143887D01*
Y141347D01*
X449697D01*
Y134244D01*
X455618D01*
Y141347D01*
X454442D01*
Y144626D01*
X454442Y144626D01*
X454306Y145309D01*
X453919Y145888D01*
X453919Y145888D01*
X452547Y147260D01*
Y150525D01*
X460839D01*
Y148638D01*
X463130D01*
X465421D01*
Y148838D01*
X465883Y149029D01*
X468536Y146376D01*
X469115Y145989D01*
X469798Y145853D01*
X469798Y145853D01*
X479461D01*
Y144736D01*
X481520D01*
X482369Y143887D01*
Y141347D01*
X481193D01*
Y134244D01*
X487114D01*
Y141347D01*
X485938D01*
Y144626D01*
X485938Y144626D01*
X485802Y145309D01*
X485415Y145888D01*
X485415Y145888D01*
X484043Y147260D01*
Y149656D01*
X484359Y149915D01*
X491399D01*
X491854Y150005D01*
X492335D01*
Y148638D01*
X494626D01*
X496917D01*
Y148838D01*
X497379Y149029D01*
X500032Y146376D01*
X500611Y145989D01*
X501294Y145853D01*
X501294Y145853D01*
X510957D01*
Y144736D01*
X513016D01*
X513865Y143887D01*
Y141347D01*
X512689D01*
Y134244D01*
X518610D01*
Y141347D01*
X517434D01*
Y144626D01*
X517434Y144626D01*
X517298Y145309D01*
X516911Y145888D01*
X516911Y145888D01*
X515539Y147260D01*
Y150539D01*
X510957D01*
Y149422D01*
X502033D01*
X498912Y152543D01*
X499103Y153005D01*
X517262D01*
X517718Y152915D01*
X517718Y152915D01*
X536944D01*
X542331Y147528D01*
X542331Y147528D01*
X542453Y147446D01*
Y144736D01*
X544512D01*
X545361Y143887D01*
Y141347D01*
X544185D01*
Y134244D01*
X550106D01*
Y141347D01*
X548930D01*
Y144626D01*
X548930Y144626D01*
X548794Y145309D01*
X548407Y145888D01*
X548407Y145888D01*
X547035Y147260D01*
Y150539D01*
X544375D01*
X544364Y150542D01*
X538945Y155961D01*
X538366Y156347D01*
X537683Y156483D01*
X522341D01*
X522240Y156778D01*
X522205Y156983D01*
X522742Y157684D01*
X523095Y158535D01*
X523215Y159449D01*
Y167955D01*
X531110D01*
Y194545D01*
X508260D01*
Y167955D01*
X516155D01*
Y159449D01*
X516275Y158535D01*
X516628Y157684D01*
X517096Y157074D01*
X516956Y156672D01*
X516874Y156574D01*
X491000D01*
X490919Y156672D01*
X490778Y157074D01*
X491246Y157684D01*
X491599Y158535D01*
X491719Y159449D01*
Y167955D01*
X499614D01*
Y194545D01*
X476764D01*
Y167955D01*
X484659D01*
Y159449D01*
X484746Y158784D01*
X484273Y158551D01*
X483253Y159571D01*
X482674Y159958D01*
X481991Y160093D01*
X458814D01*
X458644Y160593D01*
X459189Y161011D01*
X459750Y161742D01*
X460103Y162594D01*
X460223Y163508D01*
Y167955D01*
X468118D01*
Y194545D01*
X445268D01*
Y167955D01*
X453163D01*
Y163508D01*
X453283Y162594D01*
X453636Y161742D01*
X454197Y161011D01*
X454741Y160593D01*
X454572Y160093D01*
X443066D01*
X435323Y167836D01*
X434744Y168223D01*
X434061Y168359D01*
X292559D01*
X291876Y168223D01*
X291297Y167836D01*
X291297Y167836D01*
X287883Y164422D01*
X246474D01*
X246282Y164884D01*
X273370Y191972D01*
X397429D01*
X398112Y192107D01*
X398690Y192494D01*
X440632Y234436D01*
X447965D01*
Y233319D01*
X449663D01*
Y229557D01*
X449697Y229385D01*
Y224795D01*
X455618D01*
Y231898D01*
X453231D01*
Y234419D01*
X453231Y234419D01*
X453095Y235102D01*
X452708Y235681D01*
X452708Y235681D01*
X452547Y235842D01*
Y238588D01*
X460839D01*
Y237221D01*
X463130D01*
X465421D01*
Y237420D01*
X465883Y237612D01*
X466568Y236927D01*
X467146Y236541D01*
X467829Y236405D01*
X479461D01*
Y235287D01*
X481520D01*
X482369Y234438D01*
Y231898D01*
X481193D01*
Y224795D01*
X487114D01*
Y231898D01*
X485938D01*
Y235177D01*
X485938Y235177D01*
X485802Y235860D01*
X485415Y236439D01*
X485415Y236439D01*
X484043Y237811D01*
Y241090D01*
X484043D01*
X484050Y241588D01*
X492328D01*
X492335Y241090D01*
X492335D01*
Y239189D01*
X494626D01*
X496917D01*
Y239389D01*
X497379Y239580D01*
X500032Y236927D01*
X500611Y236541D01*
X501294Y236405D01*
X510957D01*
Y235287D01*
X513016D01*
X513865Y234438D01*
Y231898D01*
X512689D01*
Y224795D01*
X518610D01*
Y231898D01*
X517434D01*
Y235177D01*
X517434Y235177D01*
X517298Y235860D01*
X516911Y236439D01*
X516911Y236439D01*
X515539Y237811D01*
Y241090D01*
X510957D01*
Y239973D01*
X502033D01*
X497880Y244126D01*
X498072Y244588D01*
X523868D01*
X526903Y241552D01*
X526712Y241090D01*
X523831D01*
Y239189D01*
X526122D01*
X528413D01*
Y239389D01*
X528875Y239580D01*
X531528Y236927D01*
X531528Y236927D01*
X532107Y236541D01*
X532790Y236405D01*
X542453D01*
Y235287D01*
X544512D01*
X545361Y234438D01*
Y231898D01*
X544185D01*
Y224795D01*
X550106D01*
Y231898D01*
X548930D01*
Y235177D01*
X548930Y235177D01*
X548794Y235860D01*
X548407Y236439D01*
X548407Y236439D01*
X547035Y237811D01*
Y241090D01*
X542453D01*
Y239973D01*
X533529D01*
X525868Y247634D01*
X525290Y248021D01*
X524607Y248156D01*
X437317D01*
X437317Y248156D01*
X436634Y248021D01*
X436055Y247634D01*
X436055Y247634D01*
X392962Y204540D01*
X268903D01*
X268220Y204404D01*
X267641Y204018D01*
X267641Y204018D01*
X232731Y169107D01*
X227450D01*
X227266Y169291D01*
X226687Y169678D01*
X226153Y169784D01*
X226039Y170246D01*
X226043Y170298D01*
X226196Y170387D01*
X226857Y171048D01*
X227325Y171858D01*
X227567Y172761D01*
Y173696D01*
X227325Y174599D01*
X226857Y175409D01*
X226338Y175929D01*
Y176570D01*
X248189Y198421D01*
X248189Y198421D01*
X248576Y199000D01*
X248711Y199683D01*
X248711Y199683D01*
Y211508D01*
X250184D01*
Y208661D01*
X250320Y207979D01*
X250707Y207400D01*
X251286Y207013D01*
X251969Y206877D01*
X252651Y207013D01*
X253230Y207400D01*
X253617Y207979D01*
X253753Y208661D01*
Y211508D01*
X255520D01*
Y217429D01*
X249444D01*
X249253Y217891D01*
X250941Y219579D01*
X255520D01*
Y222977D01*
X257760Y225217D01*
X258260Y225010D01*
Y219579D01*
X264335D01*
X264527Y219117D01*
X262839Y217429D01*
X258260D01*
Y211508D01*
X265362D01*
Y214906D01*
X272915Y222459D01*
X273302Y223038D01*
X273438Y223721D01*
Y226378D01*
X273302Y227061D01*
X272915Y227640D01*
X272336Y228026D01*
X271654Y228162D01*
X270971Y228026D01*
X270392Y227640D01*
X270005Y227061D01*
X269869Y226378D01*
Y224460D01*
X265824Y220414D01*
X265362Y220606D01*
Y223578D01*
X265396Y223750D01*
X265396Y223750D01*
Y226107D01*
X267027Y227738D01*
X267414Y228317D01*
X267550Y228999D01*
X267550Y229000D01*
Y245352D01*
X267550Y245352D01*
X267414Y246035D01*
X267027Y246614D01*
X267027Y246614D01*
X262847Y250794D01*
Y264657D01*
X264516D01*
Y270776D01*
X257610D01*
Y264657D01*
X259279D01*
Y250055D01*
X259415Y249372D01*
X259801Y248793D01*
X263982Y244613D01*
Y235343D01*
X257610D01*
Y231147D01*
X257576Y230974D01*
Y230080D01*
X252996Y225500D01*
X248417D01*
Y222102D01*
X246177Y219862D01*
X245677Y220069D01*
Y225500D01*
X243379D01*
Y229224D01*
X244516D01*
Y235343D01*
X239312D01*
X239121Y235804D01*
X242325Y239008D01*
X242325Y239008D01*
X242711Y239587D01*
X242847Y240270D01*
X242847Y240270D01*
Y264657D01*
X244516D01*
Y270776D01*
X237610D01*
Y264657D01*
X239279D01*
Y241009D01*
X235099Y236829D01*
X234712Y236250D01*
X234622Y235799D01*
X234567Y235563D01*
X234150Y235343D01*
X232063D01*
Y232283D01*
Y229224D01*
X234516Y229224D01*
X234576Y228749D01*
Y227355D01*
X232823Y225602D01*
X232755Y225500D01*
X228732D01*
Y221131D01*
X228232Y220864D01*
X228162Y220911D01*
Y221752D01*
X228162Y221752D01*
X228162Y221752D01*
Y226378D01*
X228026Y227061D01*
X227640Y227640D01*
X227061Y228026D01*
X226378Y228162D01*
X225695Y228026D01*
X225116Y227640D01*
X224729Y227061D01*
X224594Y226378D01*
Y222491D01*
X222517Y220414D01*
X222055Y220606D01*
Y223578D01*
X222089Y223750D01*
X222089Y223750D01*
Y226107D01*
X223720Y227738D01*
X224107Y228317D01*
X224243Y228999D01*
X224243Y229000D01*
Y263407D01*
X224107Y264090D01*
X223720Y264669D01*
X221209Y267181D01*
Y270776D01*
X214303D01*
Y264657D01*
X218685D01*
X220674Y262668D01*
Y235343D01*
X214303D01*
Y231147D01*
X214269Y230974D01*
Y230080D01*
X209689Y225500D01*
X205110D01*
Y222102D01*
X202870Y219862D01*
X202370Y220069D01*
Y225500D01*
X200072D01*
Y229224D01*
X201209D01*
Y235343D01*
X194837D01*
Y262668D01*
X196827Y264657D01*
X201209D01*
Y270776D01*
X194303D01*
Y267181D01*
X191791Y264669D01*
X191692Y264656D01*
X191209Y265082D01*
X191209Y265147D01*
Y270776D01*
X189540D01*
Y299221D01*
X191787Y301468D01*
X196563D01*
Y308768D01*
D02*
G37*
G36*
X550106Y222055D02*
X548146D01*
Y219504D01*
X550106D01*
Y222055D01*
D02*
G37*
G36*
X546146D02*
X544185D01*
Y219504D01*
X546146D01*
Y222055D01*
D02*
G37*
G36*
X487114D02*
X485153D01*
Y219504D01*
X487114D01*
Y222055D01*
D02*
G37*
G36*
X483153D02*
X481193D01*
Y219504D01*
X483153D01*
Y222055D01*
D02*
G37*
G36*
X518610D02*
X516650D01*
Y219504D01*
X518610D01*
Y222055D01*
D02*
G37*
G36*
X455618D02*
X453657D01*
Y219504D01*
X455618D01*
Y222055D01*
D02*
G37*
G36*
X514650D02*
X512689D01*
Y219504D01*
X514650D01*
Y222055D01*
D02*
G37*
G36*
X451657D02*
X449697D01*
Y219504D01*
X451657D01*
Y222055D01*
D02*
G37*
G36*
X77350Y221441D02*
X74898D01*
Y219382D01*
X77350D01*
Y221441D01*
D02*
G37*
G36*
X72898D02*
X70445D01*
Y219382D01*
X72898D01*
Y221441D01*
D02*
G37*
G36*
X57350D02*
X54898D01*
Y219382D01*
X57350D01*
Y221441D01*
D02*
G37*
G36*
X577167Y221504D02*
X576377D01*
X575614Y221300D01*
X574930Y220904D01*
X574371Y220346D01*
X573976Y219662D01*
X573772Y218899D01*
Y218109D01*
X573976Y217346D01*
X574371Y216662D01*
X574930Y216103D01*
X575614Y215708D01*
X576377Y215504D01*
X577167D01*
X577930Y215708D01*
X578614Y216103D01*
X579172Y216662D01*
X579567Y217346D01*
X579772Y218109D01*
Y218899D01*
X579567Y219662D01*
X579172Y220346D01*
X578614Y220904D01*
X577930Y221300D01*
X577167Y221504D01*
D02*
G37*
G36*
X550106Y217504D02*
X548146D01*
Y214953D01*
X550106D01*
Y217504D01*
D02*
G37*
G36*
X546146D02*
X544185D01*
Y214953D01*
X546146D01*
Y217504D01*
D02*
G37*
G36*
X518610Y217504D02*
X516650D01*
Y214953D01*
X518610D01*
Y217504D01*
D02*
G37*
G36*
X514650D02*
X512689D01*
Y214953D01*
X514650D01*
Y217504D01*
D02*
G37*
G36*
X487114Y217504D02*
X485153D01*
Y214953D01*
X487114D01*
Y217504D01*
D02*
G37*
G36*
X483153D02*
X481193D01*
Y214953D01*
X483153D01*
Y217504D01*
D02*
G37*
G36*
X455618Y217504D02*
X453657D01*
Y214953D01*
X455618D01*
Y217504D01*
D02*
G37*
G36*
X451657D02*
X449697D01*
Y214953D01*
X451657D01*
Y217504D01*
D02*
G37*
G36*
X77350Y260933D02*
X70445D01*
Y254815D01*
X72113D01*
Y245212D01*
X72249Y244530D01*
X72636Y243951D01*
X86816Y229770D01*
Y225500D01*
X80445D01*
Y221304D01*
X80411Y221132D01*
Y220237D01*
X75831Y215657D01*
X71252D01*
Y212260D01*
X69012Y210019D01*
X68512Y210226D01*
Y215657D01*
X66213D01*
Y219382D01*
X67350D01*
Y225500D01*
X60445D01*
Y219382D01*
X62645D01*
Y215657D01*
X61409D01*
Y212260D01*
X59169Y210019D01*
X58669Y210226D01*
Y215657D01*
X54090D01*
X50979Y218769D01*
Y219382D01*
X52898D01*
Y222441D01*
Y225500D01*
X50979D01*
Y252826D01*
X52968Y254815D01*
X57350D01*
Y260933D01*
X50445D01*
Y257338D01*
X47933Y254827D01*
X47546Y254248D01*
X47411Y253565D01*
Y218029D01*
X47546Y217347D01*
X47933Y216768D01*
X51567Y213134D01*
Y209736D01*
X58289D01*
X58556Y209236D01*
X58511Y209169D01*
X58375Y208486D01*
Y207587D01*
X56118D01*
Y204626D01*
Y201665D01*
X58375D01*
Y197085D01*
X58511Y196402D01*
X58898Y195823D01*
X80583Y174138D01*
X80465Y173696D01*
Y172761D01*
X80707Y171858D01*
X81174Y171048D01*
X81835Y170387D01*
X82645Y169919D01*
X83548Y169677D01*
X84483D01*
X85387Y169919D01*
X86196Y170387D01*
X86857Y171048D01*
X87325Y171858D01*
X87567Y172761D01*
Y173696D01*
X87325Y174599D01*
X86857Y175409D01*
X86196Y176070D01*
X85387Y176538D01*
X84483Y176779D01*
X83548D01*
X83106Y176661D01*
X61944Y197824D01*
Y201665D01*
X63176D01*
Y200891D01*
X63312Y200208D01*
X63699Y199629D01*
X64278Y199242D01*
X64961Y199107D01*
X65643Y199242D01*
X66222Y199629D01*
X66609Y200208D01*
X66745Y200891D01*
Y201665D01*
X68218D01*
Y199683D01*
X68353Y199000D01*
X68740Y198421D01*
X81415Y185746D01*
X81994Y185359D01*
X82677Y185224D01*
X82677Y185224D01*
X89497D01*
X100583Y174138D01*
X100465Y173696D01*
Y172761D01*
X100707Y171858D01*
X101174Y171048D01*
X101835Y170387D01*
X102645Y169919D01*
X103548Y169677D01*
X104483D01*
X105386Y169919D01*
X106196Y170387D01*
X106857Y171048D01*
X107325Y171858D01*
X107567Y172761D01*
Y173696D01*
X107325Y174599D01*
X106857Y175409D01*
X106196Y176070D01*
X105386Y176538D01*
X104483Y176779D01*
X103548D01*
X103106Y176661D01*
X91498Y188270D01*
X90919Y188656D01*
X90236Y188792D01*
X83416D01*
X71786Y200422D01*
Y201665D01*
X78354D01*
Y207587D01*
X72333D01*
X72126Y208087D01*
X73775Y209736D01*
X78354D01*
Y213134D01*
X80594Y215374D01*
X81094Y215167D01*
Y209736D01*
X88197D01*
Y213735D01*
X88231Y213908D01*
X88231Y213908D01*
Y216264D01*
X89862Y217895D01*
X90249Y218474D01*
X90385Y219157D01*
X90385Y219157D01*
Y230510D01*
X90249Y231192D01*
X89862Y231771D01*
X89862Y231771D01*
X75682Y245952D01*
Y254815D01*
X77350D01*
Y260933D01*
D02*
G37*
G36*
X482173Y212557D02*
X480213D01*
Y207447D01*
X482173D01*
Y212557D01*
D02*
G37*
G36*
X450677D02*
X448716D01*
Y207447D01*
X450677D01*
Y212557D01*
D02*
G37*
G36*
X513669D02*
X511709D01*
Y207447D01*
X513669D01*
Y212557D01*
D02*
G37*
G36*
X446716D02*
X444756D01*
Y207447D01*
X446716D01*
Y212557D01*
D02*
G37*
G36*
X509709D02*
X507748D01*
Y207447D01*
X509709D01*
Y212557D01*
D02*
G37*
G36*
X478213D02*
X476252D01*
Y207447D01*
X478213D01*
Y212557D01*
D02*
G37*
G36*
X545165Y212409D02*
X543205D01*
Y207299D01*
X545165D01*
Y212409D01*
D02*
G37*
G36*
X541205D02*
X539244D01*
Y207299D01*
X541205D01*
Y212409D01*
D02*
G37*
G36*
X316929Y229908D02*
X316016Y229788D01*
X315164Y229435D01*
X314433Y228874D01*
X298685Y213126D01*
X298124Y212395D01*
X297771Y211544D01*
X297651Y210630D01*
X297771Y209716D01*
X298124Y208865D01*
X298685Y208134D01*
X299416Y207573D01*
X300267Y207220D01*
X301181Y207100D01*
X302095Y207220D01*
X302946Y207573D01*
X303677Y208134D01*
X319425Y223882D01*
X319986Y224613D01*
X320339Y225464D01*
X320459Y226378D01*
X320339Y227292D01*
X319986Y228143D01*
X319425Y228874D01*
X318694Y229435D01*
X317843Y229788D01*
X316929Y229908D01*
D02*
G37*
G36*
X332252Y214280D02*
X331291D01*
X330363Y214031D01*
X329531Y213550D01*
X328851Y212871D01*
X328371Y212039D01*
X328122Y211110D01*
Y210149D01*
X328371Y209221D01*
X328851Y208389D01*
X329531Y207710D01*
X330363Y207229D01*
X331291Y206980D01*
X332252D01*
X333180Y207229D01*
X334013Y207710D01*
X334692Y208389D01*
X335173Y209221D01*
X335421Y210149D01*
Y211110D01*
X335173Y212039D01*
X334692Y212871D01*
X334013Y213550D01*
X333180Y214031D01*
X332252Y214280D01*
D02*
G37*
G36*
X325421D02*
X318122D01*
Y206980D01*
X325421D01*
Y214280D01*
D02*
G37*
G36*
X88197Y207587D02*
X85646D01*
Y205626D01*
X88197D01*
Y207587D01*
D02*
G37*
G36*
X83646D02*
X81094D01*
Y205626D01*
X83646D01*
Y207587D01*
D02*
G37*
G36*
X54118D02*
X51567D01*
Y205626D01*
X54118D01*
Y207587D01*
D02*
G37*
G36*
X88197Y203626D02*
X85646D01*
Y201665D01*
X88197D01*
Y203626D01*
D02*
G37*
G36*
X83646D02*
X81094D01*
Y201665D01*
X83646D01*
Y203626D01*
D02*
G37*
G36*
X54118D02*
X51567D01*
Y201665D01*
X54118D01*
Y203626D01*
D02*
G37*
G36*
X526681Y231898D02*
X520760D01*
Y224795D01*
X521936D01*
Y222055D01*
X520760D01*
Y214953D01*
X523147D01*
Y213327D01*
X523283Y212644D01*
X523669Y212065D01*
X525701Y210034D01*
Y200337D01*
X531622D01*
Y212557D01*
X528224D01*
X526715Y214066D01*
Y217293D01*
X526715Y217293D01*
X526681Y217466D01*
Y222055D01*
X525505D01*
Y224795D01*
X526681D01*
Y231898D01*
D02*
G37*
G36*
X513669Y205447D02*
X511709D01*
Y200337D01*
X513669D01*
Y205447D01*
D02*
G37*
G36*
X509709D02*
X507748D01*
Y200337D01*
X509709D01*
Y205447D01*
D02*
G37*
G36*
X495185Y231898D02*
X489264D01*
Y224795D01*
X490440D01*
Y222055D01*
X489264D01*
Y214953D01*
X491651D01*
Y213327D01*
X491787Y212644D01*
X492173Y212065D01*
X494205Y210034D01*
Y200337D01*
X500126D01*
Y212557D01*
X496728D01*
X495219Y214066D01*
Y217293D01*
X495219Y217293D01*
X495185Y217466D01*
Y222055D01*
X494009D01*
Y224795D01*
X495185D01*
Y231898D01*
D02*
G37*
G36*
X482173Y205447D02*
X480213D01*
Y200337D01*
X482173D01*
Y205447D01*
D02*
G37*
G36*
X478213D02*
X476252D01*
Y200337D01*
X478213D01*
Y205447D01*
D02*
G37*
G36*
X463689Y231898D02*
X457768D01*
Y224795D01*
X458944D01*
Y222055D01*
X457768D01*
Y214953D01*
X460155D01*
Y213327D01*
X460290Y212644D01*
X460677Y212065D01*
X462709Y210034D01*
Y200337D01*
X468630D01*
Y212557D01*
X465232D01*
X463723Y214066D01*
Y217293D01*
X463723Y217293D01*
X463689Y217466D01*
Y222055D01*
X462513D01*
Y224795D01*
X463689D01*
Y231898D01*
D02*
G37*
G36*
X450677Y205447D02*
X448716D01*
Y200337D01*
X450677D01*
Y205447D01*
D02*
G37*
G36*
X446716D02*
X444756D01*
Y200337D01*
X446716D01*
Y205447D01*
D02*
G37*
G36*
X558177Y231898D02*
X552256D01*
Y224795D01*
X553432D01*
Y222055D01*
X552256D01*
Y214953D01*
X554643D01*
Y213179D01*
X554779Y212496D01*
X555165Y211917D01*
X557197Y209886D01*
Y200189D01*
X563118D01*
Y212409D01*
X559720D01*
X558211Y213918D01*
Y217293D01*
X558212Y217293D01*
X558177Y217466D01*
Y222055D01*
X557001D01*
Y224795D01*
X558177D01*
Y231898D01*
D02*
G37*
G36*
X545165Y205299D02*
X543205D01*
Y200189D01*
X545165D01*
Y205299D01*
D02*
G37*
G36*
X541205D02*
X539244D01*
Y200189D01*
X541205D01*
Y205299D01*
D02*
G37*
G36*
X319398Y191445D02*
X310055D01*
Y182102D01*
X319398D01*
Y191445D01*
D02*
G37*
G36*
X308055D02*
X298713D01*
Y182102D01*
X308055D01*
Y191445D01*
D02*
G37*
G36*
X33465Y212414D02*
X32782Y212278D01*
X32203Y211892D01*
X31816Y211313D01*
X31680Y210630D01*
Y206693D01*
X31816Y206010D01*
X32203Y205431D01*
X57033Y180602D01*
Y175941D01*
X56533Y175734D01*
X56196Y176070D01*
X55387Y176538D01*
X55016Y176637D01*
Y173228D01*
Y169820D01*
X55387Y169919D01*
X56196Y170387D01*
X56533Y170723D01*
X57033Y170516D01*
Y168427D01*
X57169Y167744D01*
X57555Y167166D01*
X60583Y164138D01*
X60465Y163696D01*
Y162761D01*
X60707Y161858D01*
X61174Y161048D01*
X61835Y160387D01*
X62645Y159919D01*
X63548Y159677D01*
X64483D01*
X65386Y159919D01*
X66196Y160387D01*
X66857Y161048D01*
X67325Y161858D01*
X67567Y162761D01*
Y163696D01*
X67325Y164599D01*
X66857Y165409D01*
X66196Y166070D01*
X65386Y166537D01*
X64483Y166779D01*
X63548D01*
X63106Y166661D01*
X60601Y169166D01*
Y171040D01*
X61101Y171174D01*
X61174Y171048D01*
X61835Y170387D01*
X62645Y169919D01*
X63548Y169677D01*
X64483D01*
X65386Y169919D01*
X66196Y170387D01*
X66857Y171048D01*
X67325Y171858D01*
X67567Y172761D01*
Y173696D01*
X67325Y174599D01*
X66857Y175409D01*
X66196Y176070D01*
X65386Y176538D01*
X64483Y176779D01*
X63548D01*
X62645Y176538D01*
X61835Y176070D01*
X61174Y175409D01*
X61101Y175283D01*
X60601Y175417D01*
Y181341D01*
X60465Y182023D01*
X60079Y182602D01*
X35249Y207432D01*
Y210630D01*
X35113Y211313D01*
X34726Y211892D01*
X34147Y212278D01*
X33465Y212414D01*
D02*
G37*
G36*
X195016Y176637D02*
Y174228D01*
X197424D01*
X197325Y174599D01*
X196857Y175409D01*
X196196Y176070D01*
X195386Y176538D01*
X195016Y176637D01*
D02*
G37*
G36*
X193016D02*
X192645Y176538D01*
X191835Y176070D01*
X191174Y175409D01*
X190707Y174599D01*
X190607Y174228D01*
X193016D01*
Y176637D01*
D02*
G37*
G36*
X175016D02*
Y174228D01*
X177424D01*
X177325Y174599D01*
X176857Y175409D01*
X176196Y176070D01*
X175386Y176538D01*
X175016Y176637D01*
D02*
G37*
G36*
X173016D02*
X172645Y176538D01*
X171835Y176070D01*
X171174Y175409D01*
X170707Y174599D01*
X170607Y174228D01*
X173016D01*
Y176637D01*
D02*
G37*
G36*
X125016D02*
Y174228D01*
X127424D01*
X127325Y174599D01*
X126857Y175409D01*
X126196Y176070D01*
X125386Y176538D01*
X125016Y176637D01*
D02*
G37*
G36*
X123016D02*
X122645Y176538D01*
X121835Y176070D01*
X121174Y175409D01*
X120707Y174599D01*
X120607Y174228D01*
X123016D01*
Y176637D01*
D02*
G37*
G36*
X95016D02*
Y174228D01*
X97424D01*
X97325Y174599D01*
X96857Y175409D01*
X96196Y176070D01*
X95386Y176538D01*
X95016Y176637D01*
D02*
G37*
G36*
X93016D02*
X92645Y176538D01*
X91835Y176070D01*
X91174Y175409D01*
X90707Y174599D01*
X90607Y174228D01*
X93016D01*
Y176637D01*
D02*
G37*
G36*
X53016D02*
X52645Y176538D01*
X51835Y176070D01*
X51174Y175409D01*
X50707Y174599D01*
X50607Y174228D01*
X53016D01*
Y176637D01*
D02*
G37*
G36*
X353398Y191445D02*
X332713D01*
Y170760D01*
X353398D01*
Y191445D01*
D02*
G37*
G36*
X319398Y180102D02*
X310055D01*
Y170760D01*
X319398D01*
Y180102D01*
D02*
G37*
G36*
X308055D02*
X298713D01*
Y170760D01*
X308055D01*
Y180102D01*
D02*
G37*
G36*
X197424Y172228D02*
X195016D01*
Y169820D01*
X195386Y169919D01*
X196196Y170387D01*
X196857Y171048D01*
X197325Y171858D01*
X197424Y172228D01*
D02*
G37*
G36*
X193016D02*
X190607D01*
X190707Y171858D01*
X191174Y171048D01*
X191835Y170387D01*
X192645Y169919D01*
X193016Y169820D01*
Y172228D01*
D02*
G37*
G36*
X177424D02*
X175016D01*
Y169820D01*
X175386Y169919D01*
X176196Y170387D01*
X176857Y171048D01*
X177325Y171858D01*
X177424Y172228D01*
D02*
G37*
G36*
X173016D02*
X170607D01*
X170707Y171858D01*
X171174Y171048D01*
X171835Y170387D01*
X172645Y169919D01*
X173016Y169820D01*
Y172228D01*
D02*
G37*
G36*
X127424D02*
X125016D01*
Y169820D01*
X125386Y169919D01*
X126196Y170387D01*
X126857Y171048D01*
X127325Y171858D01*
X127424Y172228D01*
D02*
G37*
G36*
X123016D02*
X120607D01*
X120707Y171858D01*
X121174Y171048D01*
X121835Y170387D01*
X122645Y169919D01*
X123016Y169820D01*
Y172228D01*
D02*
G37*
G36*
X97424D02*
X95016D01*
Y169820D01*
X95386Y169919D01*
X96196Y170387D01*
X96857Y171048D01*
X97325Y171858D01*
X97424Y172228D01*
D02*
G37*
G36*
X93016D02*
X90607D01*
X90707Y171858D01*
X91174Y171048D01*
X91835Y170387D01*
X92645Y169919D01*
X93016Y169820D01*
Y172228D01*
D02*
G37*
G36*
X53016D02*
X50607D01*
X50707Y171858D01*
X51174Y171048D01*
X51835Y170387D01*
X52645Y169919D01*
X53016Y169820D01*
Y172228D01*
D02*
G37*
G36*
X164483Y176779D02*
X163548D01*
X162645Y176538D01*
X161835Y176070D01*
X161174Y175409D01*
X160707Y174599D01*
X160465Y173696D01*
Y172761D01*
X160707Y171858D01*
X161174Y171048D01*
X161835Y170387D01*
X162645Y169919D01*
X163548Y169677D01*
X164483D01*
X165386Y169919D01*
X166196Y170387D01*
X166857Y171048D01*
X167325Y171858D01*
X167567Y172761D01*
Y173696D01*
X167325Y174599D01*
X166857Y175409D01*
X166196Y176070D01*
X165386Y176538D01*
X164483Y176779D01*
D02*
G37*
G36*
X74483D02*
X73548D01*
X72645Y176538D01*
X71835Y176070D01*
X71174Y175409D01*
X70707Y174599D01*
X70465Y173696D01*
Y172761D01*
X70707Y171858D01*
X71174Y171048D01*
X71835Y170387D01*
X72645Y169919D01*
X73548Y169677D01*
X74483D01*
X75387Y169919D01*
X76196Y170387D01*
X76857Y171048D01*
X77325Y171858D01*
X77567Y172761D01*
Y173696D01*
X77325Y174599D01*
X76857Y175409D01*
X76196Y176070D01*
X75387Y176538D01*
X74483Y176779D01*
D02*
G37*
G36*
X44483D02*
X43548D01*
X42645Y176538D01*
X41835Y176070D01*
X41174Y175409D01*
X40707Y174599D01*
X40465Y173696D01*
Y172761D01*
X40707Y171858D01*
X41174Y171048D01*
X41835Y170387D01*
X42645Y169919D01*
X43548Y169677D01*
X44483D01*
X45386Y169919D01*
X46196Y170387D01*
X46857Y171048D01*
X47325Y171858D01*
X47567Y172761D01*
Y173696D01*
X47325Y174599D01*
X46857Y175409D01*
X46196Y176070D01*
X45386Y176538D01*
X44483Y176779D01*
D02*
G37*
G36*
X34483D02*
X33548D01*
X32645Y176538D01*
X31835Y176070D01*
X31174Y175409D01*
X30707Y174599D01*
X30465Y173696D01*
Y172761D01*
X30707Y171858D01*
X31174Y171048D01*
X31835Y170387D01*
X32645Y169919D01*
X33548Y169677D01*
X34483D01*
X35386Y169919D01*
X36196Y170387D01*
X36857Y171048D01*
X37325Y171858D01*
X37567Y172761D01*
Y173696D01*
X37325Y174599D01*
X36857Y175409D01*
X36196Y176070D01*
X35386Y176538D01*
X34483Y176779D01*
D02*
G37*
G36*
X155016Y166637D02*
Y164228D01*
X157424D01*
X157325Y164599D01*
X156857Y165409D01*
X156196Y166070D01*
X155386Y166537D01*
X155016Y166637D01*
D02*
G37*
G36*
X153016D02*
X152645Y166537D01*
X151835Y166070D01*
X151174Y165409D01*
X150707Y164599D01*
X150607Y164228D01*
X153016D01*
Y166637D01*
D02*
G37*
G36*
X75016D02*
Y164228D01*
X77424D01*
X77325Y164599D01*
X76857Y165409D01*
X76196Y166070D01*
X75387Y166537D01*
X75016Y166637D01*
D02*
G37*
G36*
X73016D02*
X72645Y166537D01*
X71835Y166070D01*
X71174Y165409D01*
X70707Y164599D01*
X70607Y164228D01*
X73016D01*
Y166637D01*
D02*
G37*
G36*
X157424Y162228D02*
X155016D01*
Y159820D01*
X155386Y159919D01*
X156196Y160387D01*
X156857Y161048D01*
X157325Y161858D01*
X157424Y162228D01*
D02*
G37*
G36*
X153016D02*
X150607D01*
X150707Y161858D01*
X151174Y161048D01*
X151835Y160387D01*
X152645Y159919D01*
X153016Y159820D01*
Y162228D01*
D02*
G37*
G36*
X77424D02*
X75016D01*
Y159820D01*
X75387Y159919D01*
X76196Y160387D01*
X76857Y161048D01*
X77325Y161858D01*
X77424Y162228D01*
D02*
G37*
G36*
X73016D02*
X70607D01*
X70707Y161858D01*
X71174Y161048D01*
X71835Y160387D01*
X72645Y159919D01*
X73016Y159820D01*
Y162228D01*
D02*
G37*
G36*
X164483Y166779D02*
X163548D01*
X162645Y166537D01*
X161835Y166070D01*
X161174Y165409D01*
X160707Y164599D01*
X160465Y163696D01*
Y162761D01*
X160707Y161858D01*
X161174Y161048D01*
X161835Y160387D01*
X162645Y159919D01*
X163548Y159677D01*
X164483D01*
X165386Y159919D01*
X166196Y160387D01*
X166857Y161048D01*
X167325Y161858D01*
X167567Y162761D01*
Y163696D01*
X167325Y164599D01*
X166857Y165409D01*
X166196Y166070D01*
X165386Y166537D01*
X164483Y166779D01*
D02*
G37*
G36*
X114483D02*
X113548D01*
X112645Y166537D01*
X111835Y166070D01*
X111174Y165409D01*
X110707Y164599D01*
X110465Y163696D01*
Y162761D01*
X110707Y161858D01*
X111174Y161048D01*
X111835Y160387D01*
X112645Y159919D01*
X113548Y159677D01*
X114483D01*
X115386Y159919D01*
X116196Y160387D01*
X116857Y161048D01*
X117325Y161858D01*
X117567Y162761D01*
Y163696D01*
X117325Y164599D01*
X116857Y165409D01*
X116196Y166070D01*
X115386Y166537D01*
X114483Y166779D01*
D02*
G37*
G36*
X37567D02*
X30465D01*
Y159677D01*
X37567D01*
Y166779D01*
D02*
G37*
G36*
X562606Y194398D02*
X539756D01*
Y167807D01*
X547651D01*
Y159449D01*
X547771Y158535D01*
X548124Y157684D01*
X548685Y156953D01*
X549416Y156392D01*
X550267Y156039D01*
X551181Y155919D01*
X552095Y156039D01*
X552946Y156392D01*
X553677Y156953D01*
X554238Y157684D01*
X554591Y158535D01*
X554711Y159449D01*
Y167807D01*
X562606D01*
Y194398D01*
D02*
G37*
G36*
X402429Y150539D02*
X401138D01*
Y148638D01*
X402429D01*
Y150539D01*
D02*
G37*
G36*
X559909D02*
X558618D01*
Y148638D01*
X559909D01*
Y150539D01*
D02*
G37*
G36*
X528413D02*
X527122D01*
Y148638D01*
X528413D01*
Y150539D01*
D02*
G37*
G36*
X525122D02*
X523831D01*
Y148638D01*
X525122D01*
Y150539D01*
D02*
G37*
G36*
X399138D02*
X397847D01*
Y148638D01*
X399138D01*
Y150539D01*
D02*
G37*
G36*
X556618D02*
X555327D01*
Y148638D01*
X556618D01*
Y150539D01*
D02*
G37*
G36*
X559909Y146638D02*
X558618D01*
Y144736D01*
X559909D01*
Y146638D01*
D02*
G37*
G36*
X556618D02*
X555327D01*
Y144736D01*
X556618D01*
Y146638D01*
D02*
G37*
G36*
X528413D02*
X527122D01*
Y144736D01*
X528413D01*
Y146638D01*
D02*
G37*
G36*
X525122D02*
X523831D01*
Y144736D01*
X525122D01*
Y146638D01*
D02*
G37*
G36*
X496917D02*
X495626D01*
Y144736D01*
X496917D01*
Y146638D01*
D02*
G37*
G36*
X493626D02*
X492335D01*
Y144736D01*
X493626D01*
Y146638D01*
D02*
G37*
G36*
X465421D02*
X464130D01*
Y144736D01*
X465421D01*
Y146638D01*
D02*
G37*
G36*
X462130D02*
X460839D01*
Y144736D01*
X462130D01*
Y146638D01*
D02*
G37*
G36*
X435894D02*
X434602D01*
Y144736D01*
X435894D01*
Y146638D01*
D02*
G37*
G36*
X432602D02*
X431311D01*
Y144736D01*
X432602D01*
Y146638D01*
D02*
G37*
G36*
X402429D02*
X401138D01*
Y144736D01*
X402429D01*
Y146638D01*
D02*
G37*
G36*
X399138D02*
X397847D01*
Y144736D01*
X399138D01*
Y146638D01*
D02*
G37*
G36*
X319398Y139445D02*
X310055D01*
Y130102D01*
X319398D01*
Y139445D01*
D02*
G37*
G36*
X308055D02*
X298713D01*
Y130102D01*
X308055D01*
Y139445D01*
D02*
G37*
G36*
X550106Y131504D02*
X548146D01*
Y128953D01*
X550106D01*
Y131504D01*
D02*
G37*
G36*
X392626D02*
X390665D01*
Y128953D01*
X392626D01*
Y131504D01*
D02*
G37*
G36*
X546146D02*
X544185D01*
Y128953D01*
X546146D01*
Y131504D01*
D02*
G37*
G36*
X388665D02*
X386705D01*
Y128953D01*
X388665D01*
Y131504D01*
D02*
G37*
G36*
X487114D02*
X485153D01*
Y128953D01*
X487114D01*
Y131504D01*
D02*
G37*
G36*
X483153D02*
X481193D01*
Y128953D01*
X483153D01*
Y131504D01*
D02*
G37*
G36*
X518610D02*
X516650D01*
Y128953D01*
X518610D01*
Y131504D01*
D02*
G37*
G36*
X455618D02*
X453657D01*
Y128953D01*
X455618D01*
Y131504D01*
D02*
G37*
G36*
X426090D02*
X424130D01*
Y128953D01*
X426090D01*
Y131504D01*
D02*
G37*
G36*
X514650D02*
X512689D01*
Y128953D01*
X514650D01*
Y131504D01*
D02*
G37*
G36*
X451657D02*
X449697D01*
Y128953D01*
X451657D01*
Y131504D01*
D02*
G37*
G36*
X422130D02*
X420169D01*
Y128953D01*
X422130D01*
Y131504D01*
D02*
G37*
G36*
X258965Y131504D02*
X253043D01*
Y124402D01*
X258965D01*
Y126678D01*
X262677D01*
X262827Y126528D01*
X263445Y126272D01*
X264114D01*
X264732Y126528D01*
X265205Y127000D01*
X265461Y127618D01*
Y128287D01*
X265205Y128905D01*
X264732Y129378D01*
X264114Y129634D01*
X263445D01*
X262827Y129378D01*
X262677Y129227D01*
X258965D01*
Y131504D01*
D02*
G37*
G36*
X550106Y126953D02*
X548146D01*
Y124402D01*
X550106D01*
Y126953D01*
D02*
G37*
G36*
X546146D02*
X544185D01*
Y124402D01*
X546146D01*
Y126953D01*
D02*
G37*
G36*
X518610Y126953D02*
X516650D01*
Y124402D01*
X518610D01*
Y126953D01*
D02*
G37*
G36*
X514650D02*
X512689D01*
Y124402D01*
X514650D01*
Y126953D01*
D02*
G37*
G36*
X487114Y126953D02*
X485153D01*
Y124402D01*
X487114D01*
Y126953D01*
D02*
G37*
G36*
X483153D02*
X481193D01*
Y124402D01*
X483153D01*
Y126953D01*
D02*
G37*
G36*
X455618Y126953D02*
X453657D01*
Y124402D01*
X455618D01*
Y126953D01*
D02*
G37*
G36*
X451657D02*
X449697D01*
Y124402D01*
X451657D01*
Y126953D01*
D02*
G37*
G36*
X426090D02*
X424130D01*
Y124402D01*
X426090D01*
Y126953D01*
D02*
G37*
G36*
X422130D02*
X420169D01*
Y124402D01*
X422130D01*
Y126953D01*
D02*
G37*
G36*
X392626Y126953D02*
X390665D01*
Y124402D01*
X392626D01*
Y126953D01*
D02*
G37*
G36*
X388665D02*
X386705D01*
Y124402D01*
X388665D01*
Y126953D01*
D02*
G37*
G36*
X353398Y139445D02*
X332713D01*
Y118760D01*
X353398D01*
Y139445D01*
D02*
G37*
G36*
X319398Y128102D02*
X310055D01*
Y118760D01*
X319398D01*
Y128102D01*
D02*
G37*
G36*
X308055D02*
X298713D01*
Y118760D01*
X308055D01*
Y128102D01*
D02*
G37*
G36*
X42701Y119693D02*
X40248D01*
Y117142D01*
X42701D01*
Y119693D01*
D02*
G37*
G36*
X482173Y122006D02*
X480213D01*
Y116896D01*
X482173D01*
Y122006D01*
D02*
G37*
G36*
X387685D02*
X385724D01*
Y116896D01*
X387685D01*
Y122006D01*
D02*
G37*
G36*
X513669D02*
X511709D01*
Y116896D01*
X513669D01*
Y122006D01*
D02*
G37*
G36*
X450677D02*
X448716D01*
Y116896D01*
X450677D01*
Y122006D01*
D02*
G37*
G36*
X419181D02*
X417220D01*
Y116896D01*
X419181D01*
Y122006D01*
D02*
G37*
G36*
X415220D02*
X413260D01*
Y116896D01*
X415220D01*
Y122006D01*
D02*
G37*
G36*
X509709D02*
X507748D01*
Y116896D01*
X509709D01*
Y122006D01*
D02*
G37*
G36*
X446716D02*
X444756D01*
Y116896D01*
X446716D01*
Y122006D01*
D02*
G37*
G36*
X383724D02*
X381764D01*
Y116896D01*
X383724D01*
Y122006D01*
D02*
G37*
G36*
X478213D02*
X476252D01*
Y116896D01*
X478213D01*
Y122006D01*
D02*
G37*
G36*
X545165Y121858D02*
X543205D01*
Y116748D01*
X545165D01*
Y121858D01*
D02*
G37*
G36*
X541205D02*
X539244D01*
Y116748D01*
X541205D01*
Y121858D01*
D02*
G37*
G36*
X30676Y117350D02*
X24755D01*
Y115584D01*
X22693D01*
X22336Y115822D01*
X21654Y115957D01*
X20971Y115822D01*
X20392Y115435D01*
X20005Y114856D01*
X19869Y114173D01*
X20005Y113490D01*
X20392Y112912D01*
X20766Y112538D01*
X21345Y112151D01*
X22027Y112015D01*
X24755D01*
Y110248D01*
X30676D01*
Y117350D01*
D02*
G37*
G36*
X66929Y123831D02*
X66246Y123696D01*
X65667Y123309D01*
X65281Y122730D01*
X65145Y122047D01*
X65243Y121552D01*
Y117724D01*
X64067D01*
Y110622D01*
X69988D01*
Y117724D01*
X68812D01*
Y121949D01*
X68812Y121949D01*
X68676Y122632D01*
X68289Y123211D01*
X68289Y123211D01*
X68191Y123309D01*
X67612Y123696D01*
X66929Y123831D01*
D02*
G37*
G36*
X526681Y141347D02*
X520760D01*
Y134244D01*
X521936D01*
Y131504D01*
X520760D01*
Y124402D01*
X523147D01*
Y122776D01*
X523283Y122093D01*
X523669Y121514D01*
X525701Y119483D01*
Y109785D01*
X531622D01*
Y122006D01*
X528224D01*
X526715Y123515D01*
Y126742D01*
X526715Y126742D01*
X526681Y126915D01*
Y131504D01*
X525505D01*
Y134244D01*
X526681D01*
Y141347D01*
D02*
G37*
G36*
X513669Y114896D02*
X511709D01*
Y109785D01*
X513669D01*
Y114896D01*
D02*
G37*
G36*
X509709D02*
X507748D01*
Y109785D01*
X509709D01*
Y114896D01*
D02*
G37*
G36*
X495185Y141347D02*
X489264D01*
Y134244D01*
X490440D01*
Y131504D01*
X489264D01*
Y124402D01*
X491651D01*
Y122776D01*
X491787Y122093D01*
X492173Y121514D01*
X494205Y119483D01*
Y109785D01*
X500126D01*
Y122006D01*
X496728D01*
X495219Y123515D01*
Y126742D01*
X495219Y126742D01*
X495185Y126915D01*
Y131504D01*
X494009D01*
Y134244D01*
X495185D01*
Y141347D01*
D02*
G37*
G36*
X482173Y114896D02*
X480213D01*
Y109785D01*
X482173D01*
Y114896D01*
D02*
G37*
G36*
X478213D02*
X476252D01*
Y109785D01*
X478213D01*
Y114896D01*
D02*
G37*
G36*
X463689Y141347D02*
X457768D01*
Y134244D01*
X458944D01*
Y131504D01*
X457768D01*
Y124402D01*
X460155D01*
Y122776D01*
X460290Y122093D01*
X460677Y121514D01*
X462709Y119483D01*
Y109785D01*
X468630D01*
Y122006D01*
X465232D01*
X463723Y123515D01*
Y126742D01*
X463723Y126742D01*
X463689Y126915D01*
Y131504D01*
X462513D01*
Y134244D01*
X463689D01*
Y141347D01*
D02*
G37*
G36*
X450677Y114896D02*
X448716D01*
Y109785D01*
X450677D01*
Y114896D01*
D02*
G37*
G36*
X446716D02*
X444756D01*
Y109785D01*
X446716D01*
Y114896D01*
D02*
G37*
G36*
X434161Y141347D02*
X428240D01*
Y134244D01*
X429417D01*
Y131504D01*
X428240D01*
Y124402D01*
X431935D01*
X432389Y123948D01*
Y122006D01*
X431213D01*
Y109785D01*
X437134D01*
Y122006D01*
X435957D01*
Y124687D01*
X435822Y125370D01*
X435435Y125949D01*
X435435Y125949D01*
X434161Y127222D01*
Y131504D01*
X432985D01*
Y134244D01*
X434161D01*
Y141347D01*
D02*
G37*
G36*
X419181Y114896D02*
X417220D01*
Y109785D01*
X419181D01*
Y114896D01*
D02*
G37*
G36*
X415220D02*
X413260D01*
Y109785D01*
X415220D01*
Y114896D01*
D02*
G37*
G36*
X400697Y141347D02*
X394776D01*
Y134244D01*
X395952D01*
Y131504D01*
X394776D01*
Y124402D01*
X397163D01*
Y122776D01*
X397298Y122093D01*
X397685Y121514D01*
X399716Y119483D01*
Y109785D01*
X405638D01*
Y122006D01*
X402240D01*
X400731Y123515D01*
Y126742D01*
X400731Y126742D01*
X400697Y126915D01*
Y131504D01*
X399520D01*
Y134244D01*
X400697D01*
Y141347D01*
D02*
G37*
G36*
X387685Y114896D02*
X385724D01*
Y109785D01*
X387685D01*
Y114896D01*
D02*
G37*
G36*
X383724D02*
X381764D01*
Y109785D01*
X383724D01*
Y114896D01*
D02*
G37*
G36*
X558177Y141347D02*
X552256D01*
Y134244D01*
X553432D01*
Y131504D01*
X552256D01*
Y124402D01*
X554643D01*
Y122628D01*
X554779Y121945D01*
X555165Y121366D01*
X557197Y119335D01*
Y109638D01*
X563118D01*
Y121858D01*
X559720D01*
X558211Y123367D01*
Y126742D01*
X558212Y126742D01*
X558177Y126915D01*
Y131504D01*
X557001D01*
Y134244D01*
X558177D01*
Y141347D01*
D02*
G37*
G36*
X545165Y114748D02*
X543205D01*
Y109638D01*
X545165D01*
Y114748D01*
D02*
G37*
G36*
X541205D02*
X539244D01*
Y109638D01*
X541205D01*
Y114748D01*
D02*
G37*
G36*
X16831Y107232D02*
X15539D01*
Y105331D01*
X16831D01*
Y107232D01*
D02*
G37*
G36*
X13539D02*
X12248D01*
Y105331D01*
X13539D01*
Y107232D01*
D02*
G37*
G36*
X81563D02*
X80272D01*
Y105331D01*
X81563D01*
Y107232D01*
D02*
G37*
G36*
X78272D02*
X76980D01*
Y105331D01*
X78272D01*
Y107232D01*
D02*
G37*
G36*
X81563Y103331D02*
X80272D01*
Y101429D01*
X81563D01*
Y103331D01*
D02*
G37*
G36*
X78272D02*
X76980D01*
Y101429D01*
X78272D01*
Y103331D01*
D02*
G37*
G36*
X16831Y103331D02*
X15539D01*
Y101429D01*
X16831D01*
Y103331D01*
D02*
G37*
G36*
X13539D02*
X12248D01*
Y101429D01*
X13539D01*
Y103331D01*
D02*
G37*
G36*
X43307Y153359D02*
X42624Y153223D01*
X42045Y152837D01*
X34524Y145315D01*
X34137Y144737D01*
X34002Y144054D01*
Y117350D01*
X32825D01*
Y110248D01*
X34002D01*
Y98935D01*
X33849Y98707D01*
X33719Y98051D01*
X33849Y97395D01*
X34221Y96839D01*
X34777Y96468D01*
X35433Y96337D01*
X35502D01*
X35855Y96267D01*
X35855Y96267D01*
X37992D01*
X38345Y96337D01*
X40551D01*
X41207Y96468D01*
X41763Y96839D01*
X42135Y97395D01*
X42265Y98051D01*
X42135Y98707D01*
X41763Y99263D01*
X41207Y99635D01*
X40551Y99765D01*
X38345D01*
X37992Y99835D01*
X37570D01*
Y110248D01*
X38747D01*
Y117350D01*
X37570D01*
Y143315D01*
X44569Y150313D01*
X44956Y150892D01*
X45091Y151575D01*
X44956Y152258D01*
X44569Y152837D01*
X43990Y153223D01*
X43307Y153359D01*
D02*
G37*
G36*
X264772Y95973D02*
X264091D01*
Y93815D01*
X264772D01*
Y95973D01*
D02*
G37*
G36*
X228035D02*
X227354D01*
Y93815D01*
X228035D01*
Y95973D01*
D02*
G37*
G36*
X262091D02*
X240665D01*
Y92815D01*
X238665D01*
Y95973D01*
X238106D01*
Y92815D01*
Y89657D01*
X239265D01*
X239456Y89196D01*
X236212Y85952D01*
X186179D01*
X185692Y85855D01*
X185278Y85578D01*
X177746Y78046D01*
X161417D01*
X160930Y77949D01*
X160516Y77673D01*
X158565Y75721D01*
X158108D01*
X157985Y75697D01*
X155209D01*
Y71547D01*
X159358D01*
Y73225D01*
X159580Y73269D01*
X159994Y73546D01*
X161945Y75497D01*
X167413D01*
Y74622D01*
X169488D01*
X171563D01*
Y75497D01*
X174894D01*
Y71547D01*
X179043D01*
Y73225D01*
X179265Y73269D01*
X179679Y73546D01*
X187536Y81403D01*
X202963D01*
X203154Y80941D01*
X197935Y75721D01*
X197478D01*
X197355Y75697D01*
X194579D01*
Y71547D01*
X198728D01*
Y73225D01*
X198950Y73269D01*
X199364Y73546D01*
X205221Y79403D01*
X220648D01*
X220839Y78941D01*
X217620Y75721D01*
X217163D01*
X217040Y75697D01*
X214264D01*
Y71547D01*
X218413D01*
Y73225D01*
X218635Y73269D01*
X219049Y73546D01*
X222906Y77403D01*
X238333D01*
X238524Y76941D01*
X237364Y75781D01*
X236169D01*
X236149Y75776D01*
X233290D01*
Y71627D01*
X237440D01*
Y73232D01*
X237892D01*
X238380Y73329D01*
X238793Y73605D01*
X253260Y88072D01*
X253660Y87957D01*
X253760Y87884D01*
Y75776D01*
X252975D01*
Y71627D01*
X257125D01*
Y75776D01*
X256309D01*
Y84826D01*
X256440Y84918D01*
X256809Y85017D01*
X262442Y79384D01*
X262855Y79108D01*
X263343Y79011D01*
X268399D01*
X273516Y73894D01*
Y71547D01*
X277665D01*
Y75697D01*
X275318D01*
X270466Y80549D01*
X270657Y81011D01*
X286084D01*
X293201Y73894D01*
Y71547D01*
X297350D01*
Y75697D01*
X295003D01*
X287513Y83187D01*
X287100Y83463D01*
X286612Y83560D01*
X264699D01*
X261450Y86809D01*
Y89657D01*
X262091D01*
Y92815D01*
Y95973D01*
D02*
G37*
G36*
X264772Y91815D02*
X264091D01*
Y89657D01*
X264772D01*
Y91815D01*
D02*
G37*
G36*
X236106Y95973D02*
X235547D01*
Y92815D01*
Y89657D01*
X236106D01*
Y92815D01*
Y95973D01*
D02*
G37*
G36*
X233547D02*
X232988D01*
Y92815D01*
Y89657D01*
X233547D01*
Y92815D01*
Y95973D01*
D02*
G37*
G36*
X230988D02*
X230035D01*
Y92815D01*
Y89657D01*
X230988D01*
Y92815D01*
Y95973D01*
D02*
G37*
G36*
X228035Y91815D02*
X227354D01*
Y89657D01*
X228035D01*
Y91815D01*
D02*
G37*
G36*
X59055Y89765D02*
X57496D01*
Y89051D01*
X60409D01*
X60267Y89263D01*
X59711Y89635D01*
X59055Y89765D01*
D02*
G37*
G36*
X55496D02*
X53937D01*
X53281Y89635D01*
X52725Y89263D01*
X52583Y89051D01*
X55496D01*
Y89765D01*
D02*
G37*
G36*
X66398Y107861D02*
X65484Y107741D01*
X64632Y107388D01*
X64430Y107232D01*
X64106D01*
Y106984D01*
X63901Y106827D01*
X63340Y106096D01*
X62988Y105244D01*
X62867Y104331D01*
X62988Y103417D01*
X63340Y102566D01*
X63901Y101834D01*
X64106Y101630D01*
Y101429D01*
X64307D01*
X64730Y101006D01*
Y94539D01*
X64850Y93626D01*
X65171Y92852D01*
Y86430D01*
X60549D01*
X60423Y86579D01*
X60416Y86590D01*
X60307Y86899D01*
X60409Y87051D01*
X57496D01*
Y86337D01*
X58993D01*
X59146Y86132D01*
X59199Y85856D01*
X58178Y84835D01*
X56496D01*
X56143Y84765D01*
X53937D01*
X53281Y84635D01*
X52725Y84263D01*
X52353Y83707D01*
X52223Y83051D01*
X52353Y82395D01*
X52725Y81839D01*
X53281Y81468D01*
X53937Y81337D01*
X56143D01*
X56496Y81267D01*
X58917D01*
X59600Y81403D01*
X59691Y81464D01*
X59711Y81468D01*
X60267Y81839D01*
X60344Y81955D01*
X61251Y82861D01*
X65658D01*
X65740Y82755D01*
Y81094D01*
X71661D01*
Y82755D01*
X71758Y82881D01*
X72111Y83732D01*
X72231Y84646D01*
Y93741D01*
X72329Y94488D01*
X72209Y95402D01*
X71856Y96253D01*
X71790Y96340D01*
Y102469D01*
X71670Y103382D01*
X71317Y104234D01*
X70756Y104965D01*
X68894Y106827D01*
X68689Y106984D01*
Y107232D01*
X68366D01*
X68163Y107388D01*
X67311Y107741D01*
X66398Y107861D01*
D02*
G37*
G36*
X55496Y87051D02*
X52583D01*
X52725Y86839D01*
X53281Y86468D01*
X53937Y86337D01*
X55496D01*
Y87051D01*
D02*
G37*
G36*
X19902Y88197D02*
X17941D01*
Y85646D01*
X19902D01*
Y88197D01*
D02*
G37*
G36*
X75772Y88197D02*
X73811D01*
Y85646D01*
X75772D01*
Y88197D01*
D02*
G37*
G36*
X40551Y84765D02*
X38992D01*
Y84051D01*
X41905D01*
X41763Y84263D01*
X41207Y84635D01*
X40551Y84765D01*
D02*
G37*
G36*
X36992D02*
X35433D01*
X34777Y84635D01*
X34221Y84263D01*
X34079Y84051D01*
X36992D01*
Y84765D01*
D02*
G37*
G36*
X41905Y82051D02*
X38992D01*
Y81337D01*
X40551D01*
X41207Y81468D01*
X41763Y81839D01*
X41905Y82051D01*
D02*
G37*
G36*
X36992D02*
X34079D01*
X34221Y81839D01*
X34777Y81468D01*
X35433Y81337D01*
X36992D01*
Y82051D01*
D02*
G37*
G36*
X27413Y107861D02*
X26500Y107741D01*
X25648Y107388D01*
X25445Y107232D01*
X25122D01*
Y106984D01*
X24917Y106827D01*
X23055Y104965D01*
X22494Y104234D01*
X22141Y103382D01*
X22021Y102469D01*
Y96340D01*
X21955Y96253D01*
X21602Y95402D01*
X21482Y94488D01*
Y85236D01*
X21602Y84323D01*
X21955Y83471D01*
X22051Y83345D01*
Y81094D01*
X27972D01*
Y83345D01*
X28069Y83471D01*
X28422Y84323D01*
X28542Y85236D01*
Y86243D01*
X28566Y86267D01*
X37992D01*
X38345Y86337D01*
X40551D01*
X41207Y86468D01*
X41763Y86839D01*
X42135Y87395D01*
X42265Y88051D01*
X42135Y88707D01*
X41763Y89263D01*
X41207Y89635D01*
X40551Y89765D01*
X38345D01*
X37992Y89836D01*
X28542D01*
Y92688D01*
X28608Y92774D01*
X28961Y93626D01*
X29081Y94539D01*
Y101006D01*
X29504Y101429D01*
X29705D01*
Y101630D01*
X29910Y101834D01*
X30471Y102566D01*
X30823Y103417D01*
X30944Y104331D01*
X30823Y105244D01*
X30471Y106096D01*
X29910Y106827D01*
X29705Y106984D01*
Y107232D01*
X29381D01*
X29179Y107388D01*
X28327Y107741D01*
X27413Y107861D01*
D02*
G37*
G36*
X19902Y83646D02*
X17941D01*
Y81094D01*
X19902D01*
Y83646D01*
D02*
G37*
G36*
X79732Y83646D02*
X77772D01*
Y81094D01*
X79732D01*
Y83646D01*
D02*
G37*
G36*
X75772D02*
X73811D01*
Y81094D01*
X75772D01*
Y83646D01*
D02*
G37*
G36*
X249644Y75776D02*
X248570D01*
Y74702D01*
X249644D01*
Y75776D01*
D02*
G37*
G36*
X246570D02*
X245495D01*
Y74702D01*
X246570D01*
Y75776D01*
D02*
G37*
G36*
X229959D02*
X228885D01*
Y74702D01*
X229959D01*
Y75776D01*
D02*
G37*
G36*
X226885D02*
X225810D01*
Y74702D01*
X226885D01*
Y75776D01*
D02*
G37*
G36*
X191248Y75697D02*
X190173D01*
Y74622D01*
X191248D01*
Y75697D01*
D02*
G37*
G36*
X188173D02*
X187098D01*
Y74622D01*
X188173D01*
Y75697D01*
D02*
G37*
G36*
X151878D02*
X150803D01*
Y74622D01*
X151878D01*
Y75697D01*
D02*
G37*
G36*
X148803D02*
X147728D01*
Y74622D01*
X148803D01*
Y75697D01*
D02*
G37*
G36*
X210933D02*
X209858D01*
Y74622D01*
X210933D01*
Y75697D01*
D02*
G37*
G36*
X207858D02*
X206784D01*
Y74622D01*
X207858D01*
Y75697D01*
D02*
G37*
G36*
X309358Y75697D02*
X308283D01*
Y74622D01*
X309358D01*
Y75697D01*
D02*
G37*
G36*
X306283D02*
X305209D01*
Y74622D01*
X306283D01*
Y75697D01*
D02*
G37*
G36*
X329240D02*
X328165D01*
Y74622D01*
X329240D01*
Y75697D01*
D02*
G37*
G36*
X289870D02*
X288795D01*
Y74622D01*
X289870D01*
Y75697D01*
D02*
G37*
G36*
X326165D02*
X325091D01*
Y74622D01*
X326165D01*
Y75697D01*
D02*
G37*
G36*
X286795D02*
X285720D01*
Y74622D01*
X286795D01*
Y75697D01*
D02*
G37*
G36*
X270185D02*
X269110D01*
Y74622D01*
X270185D01*
Y75697D01*
D02*
G37*
G36*
X267110D02*
X266035D01*
Y74622D01*
X267110D01*
Y75697D01*
D02*
G37*
G36*
X249644Y72702D02*
X248570D01*
Y71627D01*
X249644D01*
Y72702D01*
D02*
G37*
G36*
X246570D02*
X245495D01*
Y71627D01*
X246570D01*
Y72702D01*
D02*
G37*
G36*
X229959Y72702D02*
X228885D01*
Y71627D01*
X229959D01*
Y72702D01*
D02*
G37*
G36*
X226885D02*
X225810D01*
Y71627D01*
X226885D01*
Y72702D01*
D02*
G37*
G36*
X210933Y72622D02*
X209858D01*
Y71547D01*
X210933D01*
Y72622D01*
D02*
G37*
G36*
X207858D02*
X206784D01*
Y71547D01*
X207858D01*
Y72622D01*
D02*
G37*
G36*
X191248Y72622D02*
X190173D01*
Y71547D01*
X191248D01*
Y72622D01*
D02*
G37*
G36*
X188173D02*
X187098D01*
Y71547D01*
X188173D01*
Y72622D01*
D02*
G37*
G36*
X171563Y72622D02*
X170488D01*
Y71547D01*
X171563D01*
Y72622D01*
D02*
G37*
G36*
X168488D02*
X167413D01*
Y71547D01*
X168488D01*
Y72622D01*
D02*
G37*
G36*
X151878D02*
X150803D01*
Y71547D01*
X151878D01*
Y72622D01*
D02*
G37*
G36*
X148803D02*
X147728D01*
Y71547D01*
X148803D01*
Y72622D01*
D02*
G37*
G36*
X329240Y72622D02*
X328165D01*
Y71547D01*
X329240D01*
Y72622D01*
D02*
G37*
G36*
X326165D02*
X325091D01*
Y71547D01*
X326165D01*
Y72622D01*
D02*
G37*
G36*
X309358Y72622D02*
X308283D01*
Y71547D01*
X309358D01*
Y72622D01*
D02*
G37*
G36*
X306283D02*
X305209D01*
Y71547D01*
X306283D01*
Y72622D01*
D02*
G37*
G36*
X289870Y72622D02*
X288795D01*
Y71547D01*
X289870D01*
Y72622D01*
D02*
G37*
G36*
X286795D02*
X285720D01*
Y71547D01*
X286795D01*
Y72622D01*
D02*
G37*
G36*
X270185Y72622D02*
X269110D01*
Y71547D01*
X270185D01*
Y72622D01*
D02*
G37*
G36*
X267110D02*
X266035D01*
Y71547D01*
X267110D01*
Y72622D01*
D02*
G37*
G36*
X405126Y103994D02*
X382276D01*
Y82396D01*
X369428Y69548D01*
X369214Y69270D01*
X368936Y69056D01*
X361677Y61797D01*
X361116Y61066D01*
X360763Y60215D01*
X360643Y59301D01*
Y18643D01*
X360524Y18197D01*
Y17236D01*
X360772Y16308D01*
X361253Y15476D01*
X361932Y14796D01*
X362765Y14316D01*
X363693Y14067D01*
X364654D01*
X365582Y14316D01*
X366414Y14796D01*
X367094Y15476D01*
X367574Y16308D01*
X367823Y17236D01*
Y18197D01*
X367703Y18643D01*
Y57839D01*
X371736Y61871D01*
X372138Y61705D01*
Y61705D01*
X376287D01*
Y65854D01*
X376287D01*
X376121Y66256D01*
X387268Y77403D01*
X405126D01*
Y103994D01*
D02*
G37*
G36*
X499614D02*
X476764D01*
Y82396D01*
X460102Y65734D01*
X459971Y65564D01*
X458571D01*
Y65854D01*
X454421D01*
Y61705D01*
X458571D01*
Y61705D01*
X459068Y61698D01*
Y21366D01*
X458949D01*
Y14067D01*
X466248D01*
Y21366D01*
X466129D01*
Y61776D01*
X481756Y77403D01*
X499614D01*
Y103994D01*
D02*
G37*
G36*
X531110D02*
X508260D01*
Y77403D01*
X518123D01*
Y64961D01*
Y18643D01*
X518004Y18197D01*
Y17236D01*
X518253Y16308D01*
X518733Y15476D01*
X519413Y14796D01*
X520245Y14316D01*
X521173Y14067D01*
X522134D01*
X523062Y14316D01*
X523895Y14796D01*
X524574Y15476D01*
X525054Y16308D01*
X525303Y17236D01*
Y18197D01*
X525184Y18643D01*
Y61995D01*
X527650D01*
Y61705D01*
X531799D01*
Y65854D01*
X527650D01*
Y65564D01*
X525184D01*
Y77403D01*
X531110D01*
Y103994D01*
D02*
G37*
G36*
X251310Y67783D02*
X250396Y67663D01*
X249545Y67310D01*
X248814Y66749D01*
X248253Y66018D01*
X247900Y65167D01*
X247780Y64253D01*
Y61104D01*
X247900Y60191D01*
X248253Y59339D01*
X248340Y59225D01*
X248108Y58891D01*
X248019Y58822D01*
X247372Y58951D01*
X246689Y58815D01*
X246126Y58439D01*
X244892D01*
Y55894D01*
X245587D01*
Y53229D01*
X244801Y52443D01*
X244414Y51864D01*
X244279Y51181D01*
X244414Y50498D01*
X244801Y49919D01*
X245380Y49533D01*
X246063Y49397D01*
X246746Y49533D01*
X247325Y49919D01*
X248633Y51228D01*
X249020Y51807D01*
X249156Y52490D01*
Y55894D01*
X249851D01*
Y56917D01*
X250313Y57108D01*
X251718Y55704D01*
Y40543D01*
X249472Y38298D01*
X248911Y37567D01*
X248559Y36715D01*
X248438Y35802D01*
Y21366D01*
X248319D01*
Y14067D01*
X255618D01*
Y21366D01*
X255499D01*
Y34339D01*
X257744Y36585D01*
X258305Y37316D01*
X258658Y38167D01*
X258778Y39081D01*
Y57166D01*
X258658Y58080D01*
X258305Y58931D01*
X257744Y59662D01*
X254840Y62567D01*
Y64253D01*
X254720Y65167D01*
X254367Y66018D01*
X253806Y66749D01*
X253075Y67310D01*
X252223Y67663D01*
X251310Y67783D01*
D02*
G37*
G36*
X231625D02*
X230711Y67663D01*
X229860Y67310D01*
X229129Y66749D01*
X228568Y66018D01*
X228215Y65167D01*
X228095Y64253D01*
Y61104D01*
X228215Y60191D01*
X228568Y59339D01*
X228655Y59225D01*
X228423Y58891D01*
X228334Y58822D01*
X227687Y58951D01*
X227004Y58815D01*
X226441Y58439D01*
X225207D01*
Y55894D01*
X225902D01*
Y53229D01*
X225116Y52443D01*
X224729Y51864D01*
X224594Y51181D01*
X224729Y50498D01*
X225116Y49919D01*
X225695Y49533D01*
X226378Y49397D01*
X227061Y49533D01*
X227640Y49919D01*
X228948Y51228D01*
X228948Y51228D01*
X229335Y51807D01*
X229471Y52490D01*
X229471Y52490D01*
Y55894D01*
X230166D01*
Y56917D01*
X230628Y57108D01*
X232033Y55704D01*
Y40584D01*
X229787Y38339D01*
X229226Y37607D01*
X228873Y36756D01*
X228753Y35842D01*
Y18643D01*
X228634Y18197D01*
Y17236D01*
X228883Y16308D01*
X229363Y15476D01*
X230043Y14796D01*
X230875Y14316D01*
X231803Y14067D01*
X232764D01*
X233692Y14316D01*
X234524Y14796D01*
X235204Y15476D01*
X235684Y16308D01*
X235933Y17236D01*
Y18197D01*
X235814Y18643D01*
Y34380D01*
X238059Y36625D01*
X238620Y37356D01*
X238973Y38208D01*
X239093Y39122D01*
X239093Y39122D01*
Y57166D01*
X238973Y58080D01*
X238620Y58931D01*
X238059Y59662D01*
X235155Y62567D01*
Y64253D01*
X235035Y65167D01*
X234682Y66018D01*
X234121Y66749D01*
X233390Y67310D01*
X232538Y67663D01*
X231625Y67783D01*
D02*
G37*
G36*
X212598Y67703D02*
X211685Y67583D01*
X210833Y67230D01*
X210102Y66669D01*
X209541Y65938D01*
X209189Y65087D01*
X209068Y64173D01*
Y61025D01*
X209189Y60111D01*
X209541Y59260D01*
X209629Y59146D01*
X209396Y58812D01*
X209308Y58742D01*
X208660Y58871D01*
X208408D01*
X208408Y58871D01*
X207725Y58735D01*
X207163Y58359D01*
X206181D01*
Y56782D01*
X206146Y56609D01*
Y53158D01*
X205431Y52443D01*
X205045Y51864D01*
X204909Y51181D01*
X205045Y50498D01*
X205431Y49919D01*
X206010Y49533D01*
X206693Y49397D01*
X207376Y49533D01*
X207955Y49919D01*
X209192Y51157D01*
X209192Y51157D01*
X209579Y51736D01*
X209715Y52419D01*
Y55687D01*
X209906Y55814D01*
X211140D01*
Y56837D01*
X211602Y57029D01*
X213006Y55624D01*
Y40833D01*
X210102Y37929D01*
X209541Y37198D01*
X209189Y36346D01*
X209068Y35432D01*
Y21366D01*
X208949D01*
Y14067D01*
X216248D01*
Y21366D01*
X216129D01*
Y33970D01*
X219033Y36874D01*
X219594Y37606D01*
X219947Y38457D01*
X220067Y39371D01*
Y57087D01*
X219947Y58000D01*
X219594Y58852D01*
X219033Y59583D01*
X216129Y62487D01*
Y64173D01*
X216008Y65087D01*
X215656Y65938D01*
X215095Y66669D01*
X214364Y67230D01*
X213512Y67583D01*
X212598Y67703D01*
D02*
G37*
G36*
X173228D02*
X172315Y67583D01*
X171463Y67230D01*
X170732Y66669D01*
X170171Y65938D01*
X169818Y65087D01*
X169698Y64173D01*
Y61025D01*
X169818Y60111D01*
X170171Y59260D01*
X170259Y59146D01*
X170026Y58812D01*
X169938Y58742D01*
X169290Y58871D01*
X168607Y58735D01*
X168045Y58359D01*
X166811D01*
Y55814D01*
X167506D01*
Y51182D01*
X167642Y50499D01*
X168029Y49920D01*
X168030Y49919D01*
X168608Y49533D01*
X169291Y49397D01*
X169974Y49533D01*
X170553Y49919D01*
X170940Y50498D01*
X171076Y51181D01*
X171074Y51187D01*
Y55814D01*
X171770D01*
Y56837D01*
X172232Y57029D01*
X173636Y55624D01*
Y40833D01*
X170732Y37929D01*
X170171Y37198D01*
X169818Y36346D01*
X169698Y35432D01*
Y21366D01*
X169579D01*
Y14067D01*
X176878D01*
Y21366D01*
X176759D01*
Y33970D01*
X179663Y36874D01*
X180224Y37606D01*
X180576Y38457D01*
X180697Y39371D01*
Y57087D01*
X180576Y58000D01*
X180224Y58852D01*
X179663Y59583D01*
X176759Y62487D01*
Y64173D01*
X176638Y65087D01*
X176286Y65938D01*
X175725Y66669D01*
X174994Y67230D01*
X174142Y67583D01*
X173228Y67703D01*
D02*
G37*
G36*
X153543D02*
X152630Y67583D01*
X151778Y67230D01*
X151047Y66669D01*
X150486Y65938D01*
X150133Y65087D01*
X150013Y64173D01*
Y61025D01*
X150133Y60111D01*
X150486Y59260D01*
X150574Y59146D01*
X150341Y58812D01*
X150253Y58742D01*
X149605Y58871D01*
X148922Y58735D01*
X148360Y58359D01*
X147126D01*
Y55814D01*
X147821D01*
Y51182D01*
X147957Y50499D01*
X148344Y49920D01*
X148345Y49919D01*
X148924Y49533D01*
X149606Y49397D01*
X150289Y49533D01*
X150868Y49919D01*
X151255Y50498D01*
X151391Y51181D01*
X151390Y51187D01*
Y55814D01*
X152085D01*
Y56837D01*
X152547Y57029D01*
X153951Y55624D01*
Y40873D01*
X151047Y37969D01*
X150486Y37238D01*
X150133Y36387D01*
X150013Y35473D01*
Y18643D01*
X149894Y18197D01*
Y17236D01*
X150142Y16308D01*
X150623Y15476D01*
X151302Y14796D01*
X152135Y14316D01*
X153063Y14067D01*
X154024D01*
X154952Y14316D01*
X155784Y14796D01*
X156464Y15476D01*
X156944Y16308D01*
X157193Y17236D01*
Y18197D01*
X157073Y18643D01*
Y34011D01*
X159978Y36915D01*
X160539Y37646D01*
X160891Y38497D01*
X161012Y39411D01*
Y57087D01*
X160891Y58000D01*
X160539Y58852D01*
X159978Y59583D01*
X157073Y62487D01*
Y64173D01*
X156953Y65087D01*
X156600Y65938D01*
X156040Y66669D01*
X155308Y67230D01*
X154457Y67583D01*
X153543Y67703D01*
D02*
G37*
G36*
X192913D02*
X192000Y67583D01*
X191148Y67230D01*
X190417Y66669D01*
X189856Y65938D01*
X189504Y65087D01*
X189383Y64173D01*
Y61025D01*
X189504Y60111D01*
X189856Y59260D01*
X189944Y59146D01*
X189711Y58812D01*
X189623Y58742D01*
X188975Y58871D01*
X188293Y58735D01*
X187730Y58359D01*
X186496D01*
Y55814D01*
X187191D01*
Y51182D01*
X187327Y50499D01*
X187714Y49920D01*
X187715Y49919D01*
X188294Y49533D01*
X188976Y49397D01*
X189659Y49533D01*
X190238Y49919D01*
X190625Y50498D01*
X190761Y51181D01*
X190760Y51187D01*
Y55814D01*
X191455D01*
Y56837D01*
X191917Y57029D01*
X193321Y55624D01*
Y40873D01*
X190417Y37969D01*
X189856Y37238D01*
X189504Y36387D01*
X189383Y35473D01*
Y18643D01*
X189264Y18197D01*
Y17236D01*
X189513Y16308D01*
X189993Y15476D01*
X190673Y14796D01*
X191505Y14316D01*
X192433Y14067D01*
X193394D01*
X194322Y14316D01*
X195154Y14796D01*
X195834Y15476D01*
X196314Y16308D01*
X196563Y17236D01*
Y18197D01*
X196444Y18643D01*
Y34011D01*
X199348Y36915D01*
X199909Y37646D01*
X200261Y38497D01*
X200382Y39411D01*
Y57087D01*
X200261Y58000D01*
X199909Y58852D01*
X199348Y59583D01*
X196444Y62487D01*
Y64173D01*
X196323Y65087D01*
X195971Y65938D01*
X195410Y66669D01*
X194678Y67230D01*
X193827Y67583D01*
X192913Y67703D01*
D02*
G37*
G36*
X311024Y67703D02*
X310110Y67583D01*
X309259Y67230D01*
X308527Y66669D01*
X307966Y65938D01*
X307614Y65087D01*
X307493Y64173D01*
Y61025D01*
X307614Y60111D01*
X307966Y59260D01*
X308054Y59146D01*
X307822Y58812D01*
X307733Y58742D01*
X307085Y58871D01*
X306403Y58735D01*
X305840Y58359D01*
X304606D01*
Y55814D01*
X305301D01*
Y51182D01*
X305437Y50499D01*
X305824Y49920D01*
X305825Y49919D01*
X306404Y49533D01*
X307087Y49397D01*
X307769Y49533D01*
X308348Y49919D01*
X308735Y50498D01*
X308871Y51181D01*
X308870Y51187D01*
Y55814D01*
X309565D01*
Y56837D01*
X310027Y57029D01*
X311432Y55624D01*
Y40873D01*
X308527Y37969D01*
X307966Y37238D01*
X307614Y36387D01*
X307493Y35473D01*
Y18643D01*
X307374Y18197D01*
Y17236D01*
X307623Y16308D01*
X308103Y15476D01*
X308783Y14796D01*
X309615Y14316D01*
X310543Y14067D01*
X311504D01*
X312432Y14316D01*
X313264Y14796D01*
X313944Y15476D01*
X314424Y16308D01*
X314673Y17236D01*
Y18197D01*
X314554Y18643D01*
Y34011D01*
X317458Y36915D01*
X318019Y37646D01*
X318372Y38497D01*
X318492Y39411D01*
Y57087D01*
X318372Y58000D01*
X318019Y58852D01*
X317458Y59583D01*
X314554Y62487D01*
Y64173D01*
X314434Y65087D01*
X314081Y65938D01*
X313520Y66669D01*
X312789Y67230D01*
X311937Y67583D01*
X311024Y67703D01*
D02*
G37*
G36*
X291535D02*
X290622Y67583D01*
X289770Y67230D01*
X289039Y66669D01*
X288478Y65938D01*
X288125Y65087D01*
X288005Y64173D01*
Y60828D01*
X288125Y59914D01*
X288478Y59063D01*
X288116Y58713D01*
X288083Y58735D01*
X287401Y58871D01*
X286718Y58735D01*
X286155Y58359D01*
X284921D01*
Y55814D01*
X285616D01*
Y51182D01*
X285752Y50499D01*
X286139Y49920D01*
X286140Y49919D01*
X286719Y49533D01*
X287402Y49397D01*
X288084Y49533D01*
X288663Y49919D01*
X289050Y50498D01*
X289186Y51181D01*
X289185Y51187D01*
Y55814D01*
X289880D01*
Y56837D01*
X290342Y57029D01*
X291746Y55624D01*
Y40833D01*
X288842Y37929D01*
X288281Y37198D01*
X287929Y36346D01*
X287808Y35432D01*
Y21366D01*
X287689D01*
Y14067D01*
X294988D01*
Y21366D01*
X294869D01*
Y33970D01*
X297773Y36874D01*
X298334Y37606D01*
X298687Y38457D01*
X298807Y39371D01*
Y57087D01*
X298687Y58000D01*
X298334Y58852D01*
X297773Y59583D01*
X297773Y59583D01*
X295066Y62290D01*
Y64173D01*
X294945Y65087D01*
X294593Y65938D01*
X294032Y66669D01*
X293301Y67230D01*
X292449Y67583D01*
X291535Y67703D01*
D02*
G37*
G36*
X330906D02*
X329992Y67583D01*
X329140Y67230D01*
X328409Y66669D01*
X327848Y65938D01*
X327496Y65087D01*
X327375Y64173D01*
Y60827D01*
X327496Y59913D01*
X327848Y59062D01*
X327486Y58713D01*
X327452Y58735D01*
X326769Y58871D01*
X326087Y58735D01*
X325524Y58359D01*
X324290D01*
Y55814D01*
X324985D01*
Y51183D01*
X325121Y50501D01*
X325508Y49922D01*
X325510Y49919D01*
X326089Y49533D01*
X326772Y49397D01*
X327454Y49533D01*
X328033Y49919D01*
X328420Y50498D01*
X328556Y51181D01*
X328554Y51192D01*
Y55814D01*
X329249D01*
Y56837D01*
X329711Y57029D01*
X331116Y55624D01*
Y40832D01*
X328212Y37929D01*
X327651Y37198D01*
X327299Y36347D01*
X327179Y35433D01*
Y21366D01*
X327059D01*
Y14067D01*
X334358D01*
Y21366D01*
X334239D01*
Y33971D01*
X337142Y36874D01*
X337703Y37605D01*
X338056Y38456D01*
X338176Y39370D01*
Y57087D01*
X338056Y58000D01*
X337703Y58852D01*
X337142Y59583D01*
X337142Y59583D01*
X334436Y62289D01*
Y64173D01*
X334315Y65087D01*
X333963Y65938D01*
X333402Y66669D01*
X332671Y67230D01*
X331819Y67583D01*
X330906Y67703D01*
D02*
G37*
G36*
X436622Y103994D02*
X413772D01*
Y82396D01*
X389686Y58310D01*
X383768Y64228D01*
Y65854D01*
X379618D01*
Y61705D01*
X381244D01*
X387162Y55787D01*
X381362Y49986D01*
X380801Y49255D01*
X380448Y48404D01*
X380328Y47490D01*
Y36668D01*
X380234Y35950D01*
Y30979D01*
X380328Y30262D01*
Y21366D01*
X380209D01*
Y14067D01*
X387508D01*
Y21366D01*
X387388D01*
Y30885D01*
X387388Y30891D01*
X387861Y31124D01*
X387922Y31064D01*
X388606Y30669D01*
X389369Y30465D01*
X390159D01*
X390922Y30669D01*
X391606Y31064D01*
X392164Y31622D01*
X392559Y32307D01*
X392764Y33070D01*
Y33860D01*
X392559Y34622D01*
X392164Y35307D01*
X391606Y35865D01*
X390922Y36260D01*
X390159Y36465D01*
X389369D01*
X388606Y36260D01*
X387922Y35865D01*
X387861Y35805D01*
X387388Y36038D01*
X387388Y36044D01*
Y46028D01*
X394106Y52745D01*
X418764Y77403D01*
X436622D01*
Y103994D01*
D02*
G37*
G36*
X499909Y65854D02*
X495760D01*
Y61705D01*
X496050D01*
Y56406D01*
X492139D01*
Y61705D01*
X492429D01*
Y65854D01*
X488279D01*
Y61705D01*
X488570D01*
Y26526D01*
X483273Y21230D01*
X482764Y21366D01*
X481803D01*
X480875Y21117D01*
X480043Y20637D01*
X479363Y19957D01*
X478883Y19125D01*
X478634Y18197D01*
Y17236D01*
X478883Y16308D01*
X479363Y15476D01*
X480043Y14796D01*
X480875Y14316D01*
X481803Y14067D01*
X482764D01*
X483692Y14316D01*
X484524Y14796D01*
X485204Y15476D01*
X485684Y16308D01*
X485933Y17236D01*
Y18197D01*
X485797Y18706D01*
X491616Y24526D01*
X492003Y25105D01*
X492139Y25787D01*
X492139Y25787D01*
Y48090D01*
X492639Y48242D01*
X492833Y47951D01*
X493412Y47564D01*
X494095Y47428D01*
X494777Y47564D01*
X495356Y47951D01*
X495550Y48242D01*
X496050Y48090D01*
Y21850D01*
X496186Y21168D01*
X496573Y20589D01*
X498319Y18843D01*
Y14067D01*
X505618D01*
Y21366D01*
X500842D01*
X499619Y22590D01*
Y61705D01*
X499909D01*
Y65854D01*
D02*
G37*
G36*
X420972D02*
X416823D01*
Y61705D01*
X417113D01*
Y56406D01*
X413202D01*
Y61705D01*
X413492D01*
Y65854D01*
X409342D01*
Y61705D01*
X409633D01*
Y26330D01*
X404533Y21230D01*
X404024Y21366D01*
X403063D01*
X402135Y21117D01*
X401302Y20637D01*
X400623Y19958D01*
X400142Y19125D01*
X399894Y18197D01*
Y17236D01*
X400142Y16308D01*
X400623Y15476D01*
X401302Y14796D01*
X402135Y14316D01*
X403063Y14067D01*
X404024D01*
X404952Y14316D01*
X405784Y14796D01*
X406464Y15476D01*
X406944Y16308D01*
X407193Y17236D01*
Y18197D01*
X407056Y18706D01*
X412679Y24329D01*
X413066Y24908D01*
X413202Y25591D01*
Y48287D01*
X413702Y48438D01*
X413896Y48148D01*
X414093Y47951D01*
X414672Y47564D01*
X415354Y47428D01*
X416037Y47564D01*
X416616Y47951D01*
X417113Y47795D01*
Y22047D01*
X417249Y21364D01*
X417636Y20786D01*
X419579Y18843D01*
Y14067D01*
X426878D01*
Y21366D01*
X422102D01*
X420682Y22786D01*
Y61705D01*
X420972D01*
Y65854D01*
D02*
G37*
G36*
X574803Y70184D02*
X573016Y70008D01*
X571298Y69487D01*
X569714Y68640D01*
X568326Y67501D01*
X567186Y66113D01*
X566340Y64529D01*
X565819Y62811D01*
X565643Y61024D01*
X565819Y59237D01*
X566340Y57518D01*
X567186Y55934D01*
X568326Y54546D01*
X569714Y53407D01*
X571298Y52561D01*
X573016Y52039D01*
X574803Y51863D01*
X576590Y52039D01*
X578309Y52561D01*
X579892Y53407D01*
X581281Y54546D01*
X582420Y55934D01*
X583266Y57518D01*
X583788Y59237D01*
X583964Y61024D01*
X583788Y62811D01*
X583266Y64529D01*
X582420Y66113D01*
X581281Y67501D01*
X579892Y68640D01*
X578309Y69487D01*
X576590Y70008D01*
X574803Y70184D01*
D02*
G37*
G36*
X13980Y98039D02*
X13780Y98018D01*
X13507Y97983D01*
X12866Y97898D01*
X12014Y97545D01*
X11283Y96984D01*
X8484Y94185D01*
X7923Y93454D01*
X7570Y92603D01*
X7450Y91689D01*
Y64404D01*
X7570Y63491D01*
X7923Y62639D01*
X8484Y61908D01*
X35953Y34439D01*
X36684Y33878D01*
X37535Y33526D01*
X38449Y33405D01*
X60027D01*
X77059Y16374D01*
Y14067D01*
X84358D01*
Y21366D01*
X82051D01*
X63986Y39432D01*
X63255Y39993D01*
X62403Y40345D01*
X61490Y40466D01*
X39911D01*
X28491Y51886D01*
X28756Y52328D01*
X29709Y52039D01*
X31496Y51863D01*
X33283Y52039D01*
X35002Y52561D01*
X36585Y53407D01*
X37973Y54546D01*
X39113Y55934D01*
X39959Y57518D01*
X40481Y59237D01*
X40657Y61024D01*
X40481Y62811D01*
X39959Y64529D01*
X39113Y66113D01*
X37973Y67501D01*
X36585Y68640D01*
X35002Y69487D01*
X33283Y70008D01*
X31496Y70184D01*
X29709Y70008D01*
X27990Y69487D01*
X26407Y68640D01*
X25019Y67501D01*
X23879Y66113D01*
X23033Y64529D01*
X22512Y62811D01*
X22336Y61024D01*
X22512Y59237D01*
X22801Y58283D01*
X22359Y58018D01*
X14511Y65867D01*
Y81094D01*
X15941D01*
Y84646D01*
Y88197D01*
X14511D01*
Y90227D01*
X15221Y90937D01*
X19902D01*
Y98039D01*
X13980D01*
X13980Y98039D01*
D02*
G37*
G36*
X267715Y58871D02*
X267033Y58735D01*
X266470Y58359D01*
X265236D01*
Y55814D01*
X265931D01*
Y51182D01*
X266067Y50499D01*
X266454Y49920D01*
X266455Y49919D01*
X267034Y49533D01*
X267717Y49397D01*
X268399Y49533D01*
X268978Y49919D01*
X269365Y50498D01*
X269501Y51181D01*
X269500Y51187D01*
Y55814D01*
X270195D01*
Y58359D01*
X268961D01*
X268398Y58735D01*
X267715Y58871D01*
D02*
G37*
G36*
X535539Y56406D02*
X531390D01*
Y52256D01*
X531680D01*
Y49213D01*
X531816Y48530D01*
X532203Y47951D01*
X532782Y47564D01*
X533465Y47428D01*
X534147Y47564D01*
X534726Y47951D01*
X535113Y48530D01*
X535249Y49213D01*
Y52256D01*
X535539D01*
Y56406D01*
D02*
G37*
G36*
X454831D02*
X450681D01*
Y52256D01*
X450972D01*
Y49213D01*
X451107Y48530D01*
X451494Y47951D01*
X452073Y47564D01*
X452756Y47428D01*
X453439Y47564D01*
X454018Y47951D01*
X454404Y48530D01*
X454540Y49213D01*
Y52256D01*
X454831D01*
Y56406D01*
D02*
G37*
G36*
X380028D02*
X375878D01*
Y52256D01*
X376168D01*
Y49213D01*
X376304Y48530D01*
X376691Y47951D01*
X377270Y47564D01*
X377953Y47428D01*
X378636Y47564D01*
X379214Y47951D01*
X379601Y48530D01*
X379737Y49213D01*
Y52256D01*
X380028D01*
Y56406D01*
D02*
G37*
G36*
X62024Y21227D02*
Y18717D01*
X64534D01*
X64425Y19125D01*
X63944Y19957D01*
X63265Y20637D01*
X62432Y21117D01*
X62024Y21227D01*
D02*
G37*
G36*
X123728Y21366D02*
X121079D01*
Y18717D01*
X123728D01*
Y21366D01*
D02*
G37*
G36*
X60024Y21227D02*
X59615Y21117D01*
X58783Y20637D01*
X58103Y19957D01*
X57623Y19125D01*
X57513Y18717D01*
X60024D01*
Y21227D01*
D02*
G37*
G36*
X119079Y21366D02*
X116429D01*
Y18717D01*
X119079D01*
Y21366D01*
D02*
G37*
G36*
X64534Y16717D02*
X62024D01*
Y14206D01*
X62432Y14316D01*
X63265Y14796D01*
X63944Y15476D01*
X64425Y16308D01*
X64534Y16717D01*
D02*
G37*
G36*
X60024D02*
X57513D01*
X57623Y16308D01*
X58103Y15476D01*
X58783Y14796D01*
X59615Y14316D01*
X60024Y14206D01*
Y16717D01*
D02*
G37*
G36*
X468118Y103994D02*
X445268D01*
Y82396D01*
X440417Y77545D01*
X439856Y76814D01*
X439503Y75963D01*
X439383Y75049D01*
Y64961D01*
Y18643D01*
X439264Y18197D01*
Y17236D01*
X439512Y16308D01*
X439993Y15476D01*
X440672Y14796D01*
X441505Y14316D01*
X442433Y14067D01*
X443394D01*
X444322Y14316D01*
X445154Y14796D01*
X445834Y15476D01*
X446314Y16308D01*
X446563Y17236D01*
Y18197D01*
X446444Y18643D01*
Y61698D01*
X446941Y61705D01*
Y61705D01*
X451090D01*
Y65854D01*
X446941D01*
Y65854D01*
X446444Y65861D01*
Y73587D01*
X450260Y77403D01*
X468118D01*
Y103994D01*
D02*
G37*
G36*
X271850Y67703D02*
X270937Y67583D01*
X270085Y67230D01*
X269354Y66669D01*
X268793Y65938D01*
X268441Y65087D01*
X268320Y64173D01*
X268441Y63260D01*
X268793Y62408D01*
X269354Y61677D01*
X272061Y58970D01*
Y57087D01*
Y40873D01*
X269157Y37969D01*
X268596Y37238D01*
X268244Y36387D01*
X268123Y35473D01*
Y18643D01*
X268004Y18197D01*
Y17236D01*
X268253Y16308D01*
X268733Y15476D01*
X269413Y14796D01*
X270245Y14316D01*
X271173Y14067D01*
X272134D01*
X273062Y14316D01*
X273895Y14796D01*
X274574Y15476D01*
X275054Y16308D01*
X275303Y17236D01*
Y18197D01*
X275184Y18643D01*
Y34011D01*
X278088Y36915D01*
X278649Y37646D01*
X279002Y38497D01*
X279122Y39411D01*
Y57087D01*
Y60432D01*
X279002Y61346D01*
X278649Y62197D01*
X278088Y62928D01*
X278088Y62928D01*
X274347Y66669D01*
X273616Y67230D01*
X272764Y67583D01*
X271850Y67703D01*
D02*
G37*
G36*
X562606Y103847D02*
X539756D01*
Y82248D01*
X538842Y81335D01*
X538281Y80604D01*
X537929Y79752D01*
X537808Y78839D01*
Y65854D01*
X535130D01*
Y61705D01*
X537357D01*
X537530Y61670D01*
X537808D01*
Y21366D01*
X537689D01*
Y14067D01*
X544988D01*
Y21366D01*
X544869D01*
Y62992D01*
X544817Y63386D01*
X544869Y63779D01*
Y77256D01*
X562606D01*
Y103847D01*
D02*
G37*
G36*
X123728Y16717D02*
X121079D01*
Y14067D01*
X123728D01*
Y16717D01*
D02*
G37*
G36*
X119079D02*
X116429D01*
Y14067D01*
X119079D01*
Y16717D01*
D02*
G37*
G36*
X79831Y98039D02*
X73909D01*
Y96379D01*
X73813Y96253D01*
X73460Y95402D01*
X73340Y94488D01*
X73460Y93575D01*
X73813Y92723D01*
X73909Y92597D01*
Y90937D01*
X75949D01*
X78228Y88659D01*
X78036Y88197D01*
X77772D01*
Y85646D01*
X79732D01*
Y86501D01*
X80194Y86692D01*
X87147Y79739D01*
Y27433D01*
X87267Y26519D01*
X87620Y25668D01*
X88181Y24937D01*
X97243Y15875D01*
X97473Y15476D01*
X98153Y14796D01*
X98985Y14316D01*
X99913Y14067D01*
X100874D01*
X101802Y14316D01*
X102635Y14796D01*
X103314Y15476D01*
X103795Y16308D01*
X104043Y17236D01*
Y18197D01*
X103795Y19125D01*
X103314Y19957D01*
X102635Y20637D01*
X102235Y20868D01*
X94208Y28895D01*
Y81202D01*
X94087Y82115D01*
X93735Y82967D01*
X93173Y83698D01*
X79938Y96933D01*
X79831Y97016D01*
Y98039D01*
D02*
G37*
%LPD*%
G36*
X555718Y293221D02*
Y293003D01*
X555421Y292626D01*
X551272D01*
Y292336D01*
X548771D01*
X548506Y292600D01*
X547927Y292987D01*
X547244Y293123D01*
X546561Y292987D01*
X545982Y292600D01*
X545596Y292021D01*
X545460Y291339D01*
X545596Y290656D01*
X545982Y290077D01*
X546770Y289289D01*
X547349Y288903D01*
X548032Y288767D01*
X551272D01*
Y288476D01*
X554296D01*
X554487Y288014D01*
X553488Y287016D01*
X550091D01*
Y279913D01*
X556012D01*
Y284492D01*
X557699Y286180D01*
X558161Y285989D01*
Y282426D01*
X558127Y282254D01*
Y279763D01*
X557708Y279343D01*
X512058D01*
X507460Y283941D01*
X507667Y284441D01*
X507734Y284441D01*
Y284441D01*
X507753Y284441D01*
X508843D01*
Y290831D01*
X507374D01*
X507374Y284819D01*
Y284801D01*
Y284801D01*
X507374Y284734D01*
X507261Y284687D01*
X506874Y284527D01*
X504437Y286964D01*
Y299220D01*
X499500D01*
Y284734D01*
X499000Y284527D01*
X496563Y286964D01*
Y299220D01*
X492004Y299220D01*
X491986D01*
D01*
X491919Y299220D01*
X491873Y299334D01*
X491712Y299721D01*
X493357Y301365D01*
X547573D01*
X555718Y293221D01*
D02*
G37*
%LPC*%
G36*
X508843Y299220D02*
X507374D01*
Y292831D01*
X508843D01*
Y299220D01*
D02*
G37*
G36*
X512311D02*
X510843D01*
Y291831D01*
Y284441D01*
X512311D01*
Y290046D01*
X524374D01*
X524908Y289690D01*
X525591Y289554D01*
X526273Y289690D01*
X526852Y290077D01*
X527239Y290656D01*
X527375Y291339D01*
X527239Y292021D01*
X526852Y292600D01*
X526360Y293092D01*
X525781Y293479D01*
X525098Y293615D01*
X512311D01*
Y299220D01*
D02*
G37*
%LPD*%
G36*
X221511Y165745D02*
X221174Y165409D01*
X220707Y164599D01*
X220607Y164228D01*
X224016D01*
Y162228D01*
X220607D01*
X220707Y161858D01*
X221174Y161048D01*
X221835Y160387D01*
X222645Y159919D01*
X223222Y159765D01*
X223156Y159265D01*
X214875D01*
X214809Y159765D01*
X215387Y159919D01*
X216196Y160387D01*
X216857Y161048D01*
X217325Y161858D01*
X217567Y162761D01*
Y163696D01*
X217448Y164138D01*
X219556Y166245D01*
X221303D01*
X221511Y165745D01*
D02*
G37*
D16*
X343055Y181102D02*
D03*
X309055D02*
D03*
Y129102D02*
D03*
X343055D02*
D03*
D17*
X420728Y147638D02*
D03*
X387264D02*
D03*
X481752D02*
D03*
X450256D02*
D03*
X544744D02*
D03*
X513248D02*
D03*
X494626D02*
D03*
Y238189D02*
D03*
X481752D02*
D03*
X463130Y236221D02*
D03*
X450256D02*
D03*
X463130Y147638D02*
D03*
X400138D02*
D03*
X433602D02*
D03*
X557618Y238189D02*
D03*
X544744D02*
D03*
X526122D02*
D03*
X513248D02*
D03*
X526122Y147638D02*
D03*
X557618D02*
D03*
X79272Y104331D02*
D03*
X66398D02*
D03*
X14539D02*
D03*
X27413D02*
D03*
D18*
X423130Y137795D02*
D03*
X389665D02*
D03*
X484154D02*
D03*
X452658D02*
D03*
X547146D02*
D03*
X515650D02*
D03*
X561122Y283465D02*
D03*
X553051D02*
D03*
X553150Y307087D02*
D03*
X561221D02*
D03*
X431201Y137795D02*
D03*
X397736D02*
D03*
X492224Y228346D02*
D03*
X484154D02*
D03*
X492224Y137795D02*
D03*
Y218504D02*
D03*
X484154D02*
D03*
X460728Y137795D02*
D03*
X397736Y127953D02*
D03*
X389665D02*
D03*
X431201D02*
D03*
X423130D02*
D03*
X460728Y228346D02*
D03*
X452658D02*
D03*
X492224Y127953D02*
D03*
X484154D02*
D03*
X460728D02*
D03*
X452658D02*
D03*
X460728Y218504D02*
D03*
X452658D02*
D03*
X555217Y228346D02*
D03*
X547146D02*
D03*
X523721D02*
D03*
X515650D02*
D03*
X523721Y137795D02*
D03*
Y127953D02*
D03*
X515650D02*
D03*
X555217Y137795D02*
D03*
Y127953D02*
D03*
X547146D02*
D03*
X555217Y218504D02*
D03*
X547146D02*
D03*
X523721D02*
D03*
X515650D02*
D03*
X256004Y127953D02*
D03*
X247933D02*
D03*
X68799Y94488D02*
D03*
X76870D02*
D03*
X67028Y114173D02*
D03*
X58957D02*
D03*
X27715Y113799D02*
D03*
X35786D02*
D03*
X68701Y84646D02*
D03*
X76772D02*
D03*
X25012Y94488D02*
D03*
X16941D02*
D03*
X25012Y84646D02*
D03*
X16941D02*
D03*
X572736Y307087D02*
D03*
X580807D02*
D03*
X580807Y283465D02*
D03*
X572736D02*
D03*
D19*
X149605Y57087D02*
D03*
X169290D02*
D03*
X188975D02*
D03*
X227687Y57166D02*
D03*
X247372D02*
D03*
X326769Y57087D02*
D03*
X307085D02*
D03*
X267715D02*
D03*
X287401D02*
D03*
X208660Y57087D02*
D03*
D20*
X157481D02*
D03*
X177166D02*
D03*
X196852D02*
D03*
X235563Y57166D02*
D03*
X255248D02*
D03*
X334646Y57087D02*
D03*
X314962D02*
D03*
X275592D02*
D03*
X295277D02*
D03*
X216536Y57087D02*
D03*
D21*
X153543Y64173D02*
D03*
X149803Y73622D02*
D03*
X157283D02*
D03*
X192913Y64173D02*
D03*
X189173Y73622D02*
D03*
X196654D02*
D03*
X173228Y64173D02*
D03*
X169488Y73622D02*
D03*
X176969D02*
D03*
X235365Y73702D02*
D03*
X227885D02*
D03*
X231625Y64253D02*
D03*
X334646Y73622D02*
D03*
X327165D02*
D03*
X330906Y64173D02*
D03*
X255050Y73702D02*
D03*
X247570D02*
D03*
X251310Y64253D02*
D03*
X314764Y73622D02*
D03*
X307283D02*
D03*
X311024Y64173D02*
D03*
X275590Y73622D02*
D03*
X268110D02*
D03*
X271850Y64173D02*
D03*
X295276Y73622D02*
D03*
X287795D02*
D03*
X291535Y64173D02*
D03*
X216339Y73622D02*
D03*
X208858D02*
D03*
X212598Y64173D02*
D03*
X557087Y300000D02*
D03*
X560827Y290551D02*
D03*
X553346D02*
D03*
X533465Y54331D02*
D03*
X529724Y63779D02*
D03*
X537205D02*
D03*
X377953Y54331D02*
D03*
X374213Y63779D02*
D03*
X381693D02*
D03*
X415158Y54331D02*
D03*
X411417Y63779D02*
D03*
X418898D02*
D03*
X494095Y54331D02*
D03*
X490354Y63779D02*
D03*
X497835D02*
D03*
X452756Y54331D02*
D03*
X449016Y63779D02*
D03*
X456496D02*
D03*
X576772Y300000D02*
D03*
X580512Y290551D02*
D03*
X573032D02*
D03*
D22*
X74803Y212697D02*
D03*
Y204626D02*
D03*
X84646Y204626D02*
D03*
Y212697D02*
D03*
X55118Y204626D02*
D03*
Y212697D02*
D03*
X64961Y212697D02*
D03*
Y204626D02*
D03*
X283465Y251870D02*
D03*
Y259941D02*
D03*
X175197Y222539D02*
D03*
Y214469D02*
D03*
X145669Y222539D02*
D03*
Y214469D02*
D03*
X165354Y222539D02*
D03*
Y214469D02*
D03*
X155512Y222539D02*
D03*
Y214469D02*
D03*
X122047Y222539D02*
D03*
Y214469D02*
D03*
X131890Y222539D02*
D03*
Y214469D02*
D03*
X102362Y222539D02*
D03*
Y214469D02*
D03*
X112205Y222539D02*
D03*
Y214469D02*
D03*
X251969Y222539D02*
D03*
Y214469D02*
D03*
X261811Y222539D02*
D03*
Y214469D02*
D03*
X232283Y222539D02*
D03*
Y214469D02*
D03*
X242126Y222539D02*
D03*
Y214469D02*
D03*
X208661Y222539D02*
D03*
Y214469D02*
D03*
X218504Y222539D02*
D03*
Y214469D02*
D03*
X188976Y222441D02*
D03*
Y214370D02*
D03*
X198819Y222539D02*
D03*
Y214469D02*
D03*
D23*
X83898Y222441D02*
D03*
X73898D02*
D03*
X63898D02*
D03*
X53898D02*
D03*
Y257874D02*
D03*
X63898D02*
D03*
X73898D02*
D03*
X83898D02*
D03*
X164449Y267717D02*
D03*
X144449D02*
D03*
X174449Y232283D02*
D03*
X164449D02*
D03*
X154449D02*
D03*
X144449D02*
D03*
X154449Y267717D02*
D03*
X174449D02*
D03*
X131142Y232283D02*
D03*
X121142D02*
D03*
X111142D02*
D03*
X101142D02*
D03*
Y267717D02*
D03*
X111142D02*
D03*
X121142D02*
D03*
X131142D02*
D03*
X261063Y232283D02*
D03*
X251063D02*
D03*
X241063D02*
D03*
X231063D02*
D03*
Y267717D02*
D03*
X241063D02*
D03*
X251063D02*
D03*
X261063D02*
D03*
X217756Y232283D02*
D03*
X207756D02*
D03*
X197756D02*
D03*
X187756D02*
D03*
Y267717D02*
D03*
X197756D02*
D03*
X207756D02*
D03*
X217756D02*
D03*
D24*
X519685Y181250D02*
D03*
X488189D02*
D03*
X456693D02*
D03*
X551181Y181102D02*
D03*
Y90551D02*
D03*
X519685Y90699D02*
D03*
X425197D02*
D03*
X393701D02*
D03*
X488189D02*
D03*
X456693D02*
D03*
D25*
X510709Y206447D02*
D03*
X528661D02*
D03*
X479213D02*
D03*
X497165D02*
D03*
X447717D02*
D03*
X465669D02*
D03*
X542205Y206299D02*
D03*
X560157D02*
D03*
X542205Y115748D02*
D03*
X560157D02*
D03*
X510709Y115896D02*
D03*
X528661D02*
D03*
X416221D02*
D03*
X434173D02*
D03*
X384724D02*
D03*
X402677D02*
D03*
X479213D02*
D03*
X497165D02*
D03*
X447717D02*
D03*
X465669D02*
D03*
D26*
X237106Y115847D02*
D03*
X234547D02*
D03*
X231988D02*
D03*
X239665D02*
D03*
X242224D02*
D03*
Y92815D02*
D03*
X239665D02*
D03*
X231988D02*
D03*
X234547D02*
D03*
X237106D02*
D03*
X244783D02*
D03*
X247342D02*
D03*
X249902D02*
D03*
X252461D02*
D03*
X260138D02*
D03*
X257579D02*
D03*
X255020D02*
D03*
Y115847D02*
D03*
X257579D02*
D03*
X260138D02*
D03*
X252461D02*
D03*
X249902D02*
D03*
X247342D02*
D03*
X244783D02*
D03*
D27*
X229035Y92815D02*
D03*
X263091D02*
D03*
Y115847D02*
D03*
X229035D02*
D03*
D28*
X37992Y98051D02*
D03*
Y93051D02*
D03*
Y88051D02*
D03*
Y83051D02*
D03*
X56496Y98051D02*
D03*
Y93051D02*
D03*
Y88051D02*
D03*
Y83051D02*
D03*
D29*
X50787Y116142D02*
D03*
X43701D02*
D03*
X50787Y106299D02*
D03*
X43701D02*
D03*
D30*
X297244Y291831D02*
D03*
X305118D02*
D03*
X312992D02*
D03*
X360236D02*
D03*
X368110D02*
D03*
X375984D02*
D03*
X509842D02*
D03*
X501968D02*
D03*
X494095D02*
D03*
X486221Y291831D02*
D03*
X423228Y291831D02*
D03*
X431102D02*
D03*
X438976D02*
D03*
D31*
X322244Y314469D02*
D03*
X287992D02*
D03*
X385236D02*
D03*
X350984D02*
D03*
X476968D02*
D03*
X519095D02*
D03*
X448228D02*
D03*
X413976D02*
D03*
D51*
X50787Y114173D02*
Y121653D01*
X51181Y122047D01*
X50787Y104331D02*
Y114173D01*
X43701Y104331D02*
Y114173D01*
X509842Y291831D02*
X525098D01*
X525591Y291339D01*
X229113Y154480D02*
X271388Y196756D01*
X397429Y193756D02*
X439893Y236221D01*
X394943Y199756D02*
X438560Y243372D01*
X271388Y196756D02*
X396186D01*
X439802Y240372D01*
X272631Y193756D02*
X397429D01*
X270146Y199756D02*
X394943D01*
X268903Y202756D02*
X393701D01*
X233470Y167323D02*
X268903Y202756D01*
X227870Y157480D02*
X270146Y199756D01*
X230355Y151480D02*
X272631Y193756D01*
X393701Y202756D02*
X437317Y246372D01*
X381890Y207630D02*
Y250504D01*
X548313Y303150D02*
X557586Y293876D01*
X486221Y296752D02*
X492618Y303150D01*
X548313D01*
X58817Y168427D02*
Y181341D01*
X33465Y206693D02*
Y210630D01*
Y206693D02*
X58817Y181341D01*
Y168427D02*
X64016Y163228D01*
X277658Y259941D02*
X283465D01*
X277559Y259842D02*
X277658Y259941D01*
X35786Y144054D02*
X43307Y151575D01*
X387795Y249472D02*
X397638Y259315D01*
X387795Y210630D02*
Y249472D01*
X393701Y262315D02*
X554614D01*
X381890Y250504D02*
X393701Y262315D01*
X397638Y259315D02*
X553371D01*
X427384Y283191D02*
X431102Y286909D01*
X371829Y283191D02*
X427384D01*
X431102Y286909D02*
Y291831D01*
X496111Y243372D02*
X501294Y238189D01*
X439893Y236221D02*
X450256D01*
X437317Y246372D02*
X524607D01*
X439802Y240372D02*
X465646D01*
X438560Y243372D02*
X496111D01*
X465646Y240372D02*
X467829Y238189D01*
X224705Y115847D02*
X229035D01*
X224410Y116142D02*
X224705Y115847D01*
X94016Y163228D02*
X107893Y149351D01*
X110721D02*
X126592Y133480D01*
X237811D01*
X107893Y149351D02*
X110721D01*
X104016Y163228D02*
X130764Y136480D01*
X236568D01*
X237811Y133480D02*
X251969Y147638D01*
X232840Y145480D02*
X246998Y159638D01*
X289865D01*
X234083Y142480D02*
X248241Y156638D01*
X154764Y142480D02*
X234083D01*
X235326Y139480D02*
X249483Y153638D01*
X292350D01*
X188764Y148480D02*
X231598D01*
X245755Y162638D01*
X209780Y157480D02*
X227870D01*
X288622Y162638D02*
X292559Y166575D01*
X198974Y151480D02*
X230355D01*
X147764Y139480D02*
X235326D01*
X205974Y154480D02*
X229113D01*
X161764Y145480D02*
X232840D01*
X236568Y136480D02*
X250726Y150638D01*
X134016Y163228D02*
X154764Y142480D01*
X245755Y162638D02*
X288622D01*
X124016Y163228D02*
X147764Y139480D01*
X251969Y147638D02*
X386722D01*
X226711Y167323D02*
X233470D01*
X291107Y156638D02*
X295044Y160575D01*
X248241Y156638D02*
X291107D01*
X250726Y150638D02*
X293593D01*
X292350Y153638D02*
X296287Y157575D01*
X289865Y159638D02*
X293802Y163575D01*
X293593Y150638D02*
X297530Y154575D01*
X296287Y157575D02*
X430333D01*
X297530Y154575D02*
X413791D01*
X293802Y163575D02*
X432818D01*
X292559Y166575D02*
X434061D01*
X295044Y160575D02*
X431576D01*
X174016Y163228D02*
X188764Y148480D01*
X144016Y163228D02*
X161764Y145480D01*
X187915Y162539D02*
X198974Y151480D01*
X197915Y162539D02*
X205974Y154480D01*
X204032Y163228D02*
X209780Y157480D01*
X204016Y163228D02*
X204032D01*
X226005Y168029D02*
X226711Y167323D01*
X214016Y163228D02*
X218817Y168029D01*
X226005D01*
X387264Y147028D02*
Y147097D01*
X386722Y147638D02*
X387264Y147097D01*
X432818Y163575D02*
X441084Y155309D01*
X431576Y160575D02*
X439842Y152309D01*
X413791Y154575D02*
X419577Y148789D01*
X430333Y157575D02*
X440270Y147638D01*
X434061Y166575D02*
X442327Y158309D01*
X419577Y148789D02*
X420187D01*
X420728Y147638D02*
Y148248D01*
X420187Y148789D02*
X420728Y148248D01*
X481991Y158309D02*
X485601Y154699D01*
X442327Y158309D02*
X481991D01*
X480749Y155309D02*
X484359Y151699D01*
X441084Y155309D02*
X480749D01*
X517718Y154699D02*
X537683D01*
X517627Y154789D02*
X517718Y154699D01*
X537683D02*
X543593Y148789D01*
X490247Y154789D02*
X517627D01*
X184705Y162539D02*
X187915D01*
X184016Y163228D02*
X184705Y162539D01*
X194705D02*
X197915D01*
X194016Y163228D02*
X194705Y162539D01*
X423130Y137795D02*
Y144626D01*
X420728Y147028D02*
X423130Y144626D01*
X420728Y147028D02*
Y147638D01*
X389665Y137795D02*
Y144626D01*
X387264Y147028D02*
X389665Y144626D01*
X481752Y147028D02*
Y147638D01*
X469798D02*
X481752D01*
X484154Y137795D02*
Y144626D01*
X481752Y147028D02*
X484154Y144626D01*
X465127Y152309D02*
X469798Y147638D01*
X439842Y152309D02*
X465127D01*
X452658Y137795D02*
Y144626D01*
X450256Y147028D02*
X452658Y144626D01*
X450256Y147028D02*
Y147638D01*
X440270D02*
X450256D01*
X543593Y148789D02*
X544203D01*
X547146Y137795D02*
Y144626D01*
X544744Y147028D02*
X547146Y144626D01*
X544744Y147028D02*
Y147638D01*
Y148248D01*
X544203Y148789D02*
X544744Y148248D01*
X485601Y154699D02*
X490157D01*
X490247Y154789D01*
X515650Y137795D02*
Y144626D01*
X513248Y147028D02*
X515650Y144626D01*
X513248Y147028D02*
Y147638D01*
X501294D02*
X513248D01*
X497142Y151789D02*
X501294Y147638D01*
X491490Y151789D02*
X497142D01*
X484359Y151699D02*
X491399D01*
X491490Y151789D01*
X82677Y187008D02*
X90236D01*
X104016Y173228D01*
X70002Y199683D02*
X82677Y187008D01*
X117246Y189998D02*
Y218329D01*
Y189998D02*
X134016Y173228D01*
X107404Y179841D02*
X114016Y173228D01*
X107404Y179841D02*
Y218329D01*
X144016Y173228D02*
X150711Y179923D01*
Y218329D01*
X160553Y179766D02*
Y218329D01*
X154016Y173228D02*
X160553Y179766D01*
X184016Y174173D02*
X194018Y184175D01*
X184016Y173228D02*
Y174173D01*
X194018Y184175D02*
Y218329D01*
X224016Y173228D02*
X224553Y173766D01*
Y177309D02*
X246927Y199683D01*
X224553Y173766D02*
Y177309D01*
X213648Y178215D02*
X237085Y201652D01*
X213648Y173596D02*
Y178215D01*
Y173596D02*
X214016Y173228D01*
X271654Y223721D02*
Y226378D01*
X261811Y214469D02*
X262402D01*
X271654Y223721D01*
X231693Y214469D02*
X232283D01*
X226378Y219783D02*
X231693Y214469D01*
X226378Y219783D02*
Y221752D01*
Y226378D01*
X219094Y214469D02*
X226378Y221752D01*
X218504Y214469D02*
X219094D01*
X183071Y219685D02*
X188386Y214370D01*
X188976D01*
X183071Y219685D02*
Y221752D01*
X175197Y214469D02*
X175787D01*
X183071Y221752D01*
Y226378D01*
X145079Y214469D02*
X145669D01*
X139764Y219783D02*
X145079Y214469D01*
X139764Y219783D02*
Y221752D01*
X132480Y214469D02*
X139764Y221752D01*
Y226378D01*
X131890Y214469D02*
X132480D01*
X94488Y221752D02*
X101772Y214469D01*
X94488Y221752D02*
Y226378D01*
X101772Y214469D02*
X102362D01*
X203860Y195746D02*
X204016Y195591D01*
Y173228D02*
Y195591D01*
X60159Y208486D02*
X64370Y212697D01*
X60159Y197085D02*
Y208486D01*
Y197085D02*
X84016Y173228D01*
X64370Y212697D02*
X64961D01*
X63898Y222441D02*
X64429Y221909D01*
Y213228D02*
Y221909D01*
X66929Y122047D02*
X67028Y121949D01*
Y114173D02*
Y121949D01*
X22027Y113799D02*
X27715D01*
X21654Y114173D02*
X22027Y113799D01*
X58957Y114173D02*
Y148287D01*
X44016Y163228D02*
X58957Y148287D01*
X56496Y111122D02*
X58957Y113583D01*
Y114173D01*
X56496Y98051D02*
Y111122D01*
X548032Y290551D02*
X553346D01*
X547244Y291339D02*
X548032Y290551D01*
X74803Y204626D02*
Y205420D01*
X74852Y205469D01*
X64961Y200891D02*
Y204626D01*
X112205Y208661D02*
Y214469D01*
X122047Y208661D02*
Y214469D01*
X586614Y307087D02*
X586614Y307087D01*
X580807Y307087D02*
X586614D01*
X149605Y51182D02*
Y57087D01*
Y51182D02*
X149606Y51181D01*
X169290Y51182D02*
X169291Y51181D01*
X169290Y51182D02*
Y57087D01*
X188975Y51182D02*
Y57087D01*
Y51182D02*
X188976Y51181D01*
X207931Y56609D02*
X208408Y57087D01*
X207931Y52419D02*
Y56609D01*
X206693Y51181D02*
X207931Y52419D01*
X208408Y57087D02*
X208660D01*
X226378Y51181D02*
X227687Y52490D01*
Y57166D01*
X247372Y52490D02*
Y57166D01*
X246063Y51181D02*
X247372Y52490D01*
X267715Y51182D02*
X267717Y51181D01*
X267715Y51182D02*
Y57087D01*
X287401Y51182D02*
X287402Y51181D01*
X287401Y51182D02*
Y57087D01*
X307085Y51182D02*
X307087Y51181D01*
X307085Y51182D02*
Y57087D01*
X326769Y51183D02*
X326772Y51181D01*
X326769Y51183D02*
Y57087D01*
X377953Y49213D02*
Y54331D01*
X415158Y49409D02*
X415354Y49213D01*
X415158Y49409D02*
Y54331D01*
X411417Y25591D02*
Y63779D01*
X452756Y49213D02*
Y54331D01*
X494095Y49213D02*
Y54331D01*
X533465Y49213D02*
Y54331D01*
X283465Y246063D02*
Y251870D01*
X251969Y208661D02*
Y214469D01*
X242126Y208661D02*
Y214469D01*
X208661Y208661D02*
Y214469D01*
X198819Y208661D02*
Y214469D01*
X165354Y208661D02*
Y214469D01*
X155512Y208661D02*
Y214469D01*
X70002Y199683D02*
Y208486D01*
X577756Y295276D02*
X578740D01*
X573032Y290551D02*
X577756Y295276D01*
X591488Y257148D02*
Y309781D01*
X582677Y244094D02*
X594488Y255906D01*
X587340Y313929D02*
X591488Y309781D01*
X594488Y255906D02*
Y311024D01*
X588583Y316929D02*
X594488Y311024D01*
X581434Y247094D02*
X591488Y257148D01*
X566929Y307087D02*
X566929Y307087D01*
X561221Y307087D02*
X566929D01*
X35786Y113799D02*
Y144054D01*
X35855Y98051D02*
X37992D01*
X35786Y98120D02*
Y113799D01*
Y98120D02*
X35855Y98051D01*
X25012Y85236D02*
X27827Y88051D01*
X25012Y84646D02*
Y85236D01*
X27827Y88051D02*
X37992D01*
X58917Y83051D02*
X60512Y84646D01*
X56496Y83051D02*
X58917D01*
X60512Y84646D02*
X68701D01*
X237085Y218089D02*
X241535Y222539D01*
X237085Y201652D02*
Y218089D01*
X241535Y222539D02*
X242126D01*
X194018Y218329D02*
X198228Y222539D01*
X198819D01*
X150711Y218329D02*
X154921Y222539D01*
X155512D01*
X107404Y218329D02*
X111614Y222539D01*
X112205D01*
X203860Y218329D02*
X208071Y222539D01*
X203860Y195746D02*
Y218329D01*
X208071Y222539D02*
X208661D01*
X246927Y199683D02*
Y218089D01*
X251378Y222539D01*
X251969D01*
X208661D02*
X209252D01*
X160553Y218329D02*
X164764Y222539D01*
X165354D01*
X117246Y218329D02*
X121457Y222539D01*
X122047D01*
X74213Y212697D02*
X74803D01*
X70002Y208486D02*
X74213Y212697D01*
X59055Y305118D02*
X63898Y300276D01*
Y257874D02*
Y300276D01*
X78740Y305118D02*
X83898Y299961D01*
Y257874D02*
Y299961D01*
X101142Y292087D02*
X114173Y305118D01*
X101142Y267717D02*
Y292087D01*
X121142Y267717D02*
Y292402D01*
X133858Y305118D01*
X144449Y267717D02*
Y296024D01*
X153543Y305118D01*
X164449Y267717D02*
Y296339D01*
X173228Y305118D01*
X187756Y299961D02*
X192913Y305118D01*
X187756Y267717D02*
Y299961D01*
X207756Y300203D02*
X212598Y305046D01*
Y305118D01*
X207756Y267717D02*
Y300203D01*
X231063Y267717D02*
X231673Y268327D01*
Y304508D01*
X232283Y305118D01*
X251516Y268169D02*
Y304665D01*
X251969Y305118D01*
X251063Y267717D02*
X251516Y268169D01*
X219094Y222539D02*
X220305Y223750D01*
Y226846D02*
X222459Y228999D01*
Y263407D01*
X218504Y222539D02*
X219094D01*
X220305Y223750D02*
Y226846D01*
X218150Y267717D02*
X222459Y263407D01*
X217756Y267717D02*
X218150D01*
X234085Y223750D02*
Y224341D01*
X236360Y226616D01*
Y235567D01*
X241063Y240270D02*
Y267717D01*
X232283Y222539D02*
X232874D01*
X234085Y223750D01*
X236360Y235567D02*
X241063Y240270D01*
X49195Y218029D02*
Y253565D01*
X53504Y257874D01*
X53898D01*
X54528Y212697D02*
X55118D01*
X49195Y218029D02*
X54528Y212697D01*
X75394Y212697D02*
X82195Y219498D01*
X83504Y222441D02*
X83898D01*
X74803Y212697D02*
X75394D01*
X82195Y219498D02*
Y221132D01*
X83504Y222441D01*
X86447Y213908D02*
Y217003D01*
X84646Y212697D02*
X85236D01*
X86447Y213908D01*
Y217003D02*
X88600Y219157D01*
Y230510D01*
X73898Y245212D02*
X88600Y230510D01*
X73898Y245212D02*
Y257874D01*
X104163Y227318D02*
X106439Y229594D01*
Y263407D01*
X110748Y267717D01*
X111142D01*
X102362Y222539D02*
X102953D01*
X104163Y223750D01*
Y227318D01*
X111673Y223071D02*
Y231752D01*
X111142Y232283D02*
X111673Y231752D01*
X122638Y222539D02*
X129439Y229341D01*
Y230974D01*
X130748Y232283D01*
X122047Y222539D02*
X122638D01*
X130748Y232283D02*
X131142D01*
X133691Y223750D02*
Y226846D01*
X131142Y250055D02*
X135845Y245352D01*
X131142Y250055D02*
Y267717D01*
X131890Y222539D02*
X132480D01*
X133691Y223750D01*
Y226846D02*
X135845Y228999D01*
Y245352D01*
X154055Y267717D02*
X154449D01*
X145669Y222539D02*
X146260D01*
X147470Y223750D01*
Y227318D01*
X149746Y229594D01*
Y263407D01*
X154055Y267717D01*
X154449Y232283D02*
X154980Y231752D01*
Y223071D02*
Y231752D01*
X165945Y222539D02*
X172746Y229341D01*
Y230974D02*
X174055Y232283D01*
X174449D01*
X165354Y222539D02*
X165945D01*
X172746Y229341D02*
Y230974D01*
X176998Y223750D02*
Y226846D01*
X179152Y228999D01*
X174449Y250055D02*
Y267717D01*
X175197Y222539D02*
X175787D01*
X176998Y223750D01*
X179152Y228999D02*
Y245352D01*
X174449Y250055D02*
X179152Y245352D01*
X193053Y229594D02*
Y263407D01*
X197362Y267717D01*
X188976Y222441D02*
X189567D01*
X190778Y223652D01*
Y227318D01*
X193053Y229594D01*
X197362Y267717D02*
X197756D01*
X198287Y223071D02*
Y231752D01*
X197756Y232283D02*
X198287Y231752D01*
X209252Y222539D02*
X216053Y229341D01*
Y230974D01*
X217362Y232283D02*
X217756D01*
X216053Y230974D02*
X217362Y232283D01*
X262402Y222539D02*
X263612Y223750D01*
Y226846D01*
X265766Y228999D01*
Y245352D01*
X261063Y250055D02*
X265766Y245352D01*
X261063Y250055D02*
Y267717D01*
X261811Y222539D02*
X262402D01*
X259360Y230974D02*
X260669Y232283D01*
X261063D01*
X251969Y222539D02*
X252559D01*
X259360Y229341D01*
Y230974D01*
X241063Y232283D02*
X241595Y231752D01*
Y223071D02*
Y231752D01*
X368110Y286909D02*
X371829Y283191D01*
X368110Y286909D02*
Y291831D01*
X364392Y283191D02*
X368110Y286909D01*
X308837Y283191D02*
X364392D01*
X305118Y286909D02*
X308837Y283191D01*
X305118Y286909D02*
Y291831D01*
X283465Y266152D02*
X303504Y286191D01*
X283465Y259941D02*
Y266152D01*
X303504Y286191D02*
X304400D01*
X305118Y286909D01*
X562402Y316929D02*
X588583D01*
X553150Y307677D02*
X562402Y316929D01*
X578988Y313929D02*
X587340D01*
X572736Y307677D02*
X578988Y313929D01*
X569835Y247094D02*
X581434D01*
X568592Y244094D02*
X582677D01*
X554614Y262315D02*
X569835Y247094D01*
X553371Y259315D02*
X568592Y244094D01*
X553150Y307087D02*
Y307677D01*
X501968Y286909D02*
X511319Y277559D01*
X501968Y286909D02*
Y291831D01*
X507382Y273622D02*
X576772D01*
X511319Y277559D02*
X558447D01*
X494095Y286909D02*
X507382Y273622D01*
X486221Y291831D02*
Y296752D01*
X494095Y286909D02*
Y291831D01*
X572736Y307087D02*
Y307677D01*
X557502Y288506D02*
Y293792D01*
X553051Y283465D02*
Y284055D01*
X557502Y288506D01*
Y293792D02*
X557586Y293876D01*
X559911Y279024D02*
Y282254D01*
X558447Y277559D02*
X559911Y279024D01*
Y282254D02*
X561122Y283465D01*
X560974Y283612D02*
Y290404D01*
Y283612D02*
X561122Y283465D01*
X560827Y290551D02*
X560974Y290404D01*
X580659Y283612D02*
Y290404D01*
X580512Y290551D02*
X580659Y290404D01*
Y283612D02*
X580807Y283465D01*
X573947Y302825D02*
Y305876D01*
X572736Y307087D02*
X573947Y305876D01*
Y302825D02*
X576772Y300000D01*
X554116Y302970D02*
Y306120D01*
X553150Y307087D02*
X554116Y306120D01*
Y302970D02*
X557087Y300000D01*
X571526Y284675D02*
X572736Y283465D01*
X571526Y284675D02*
Y285477D01*
X563126Y293876D02*
X571526Y285477D01*
X557586Y293876D02*
X563126D01*
X576772Y273622D02*
X580807Y277658D01*
Y283465D01*
X524607Y246372D02*
X532790Y238189D01*
X544744D01*
X501294D02*
X513248D01*
X467829D02*
X481752D01*
X537530Y63455D02*
X540876D01*
X541339Y62992D01*
X537205Y63779D02*
X537530Y63455D01*
X522835Y63779D02*
X529724D01*
X521654Y64961D02*
X522835Y63779D01*
X497835Y21850D02*
X501968Y17717D01*
X497835Y21850D02*
Y63779D01*
X490354Y25787D02*
Y63779D01*
X482283Y17717D02*
X490354Y25787D01*
X442913Y64961D02*
X444095Y63779D01*
X449016D01*
X462057D02*
X462598Y63238D01*
X456496Y63779D02*
X462057D01*
X418898Y22047D02*
Y63779D01*
Y22047D02*
X423228Y17717D01*
X403543D02*
X411417Y25591D01*
X371924Y66068D02*
X374213Y63779D01*
X371924Y66068D02*
Y67052D01*
X381693Y63779D02*
X390231Y55241D01*
X391609D01*
X513248Y237579D02*
Y238189D01*
X523721Y218504D02*
X524931Y217293D01*
X523721Y218504D02*
Y228346D01*
X513248Y237579D02*
X515650Y235177D01*
X524931Y213327D02*
Y217293D01*
X515650Y228346D02*
Y235177D01*
X523721Y127953D02*
X524931Y126742D01*
X528661Y115896D02*
Y119045D01*
X524931Y122776D02*
Y126742D01*
Y122776D02*
X528661Y119045D01*
X523721Y127953D02*
Y137795D01*
X555217Y218504D02*
Y228346D01*
X544744Y237579D02*
X547146Y235177D01*
Y228346D02*
Y235177D01*
X544744Y237579D02*
Y238189D01*
X555217Y127953D02*
Y137795D01*
X560157Y115748D02*
Y118898D01*
X556427Y122628D02*
Y126742D01*
X555217Y127953D02*
X556427Y126742D01*
Y122628D02*
X560157Y118898D01*
X556427Y213179D02*
Y217293D01*
X560157Y206299D02*
Y209449D01*
X555217Y218504D02*
X556427Y217293D01*
Y213179D02*
X560157Y209449D01*
X524931Y213327D02*
X528661Y209596D01*
Y206447D02*
Y209596D01*
X481752Y237579D02*
Y238189D01*
X492224Y218504D02*
X493435Y217293D01*
X492224Y218504D02*
Y228346D01*
X481752Y237579D02*
X484154Y235177D01*
Y228346D02*
Y235177D01*
X460728Y218504D02*
Y228346D01*
X450256Y235610D02*
Y236221D01*
Y235610D02*
X451447Y234419D01*
Y229557D02*
X452658Y228346D01*
X451447Y229557D02*
Y234419D01*
X434173Y115896D02*
Y124687D01*
X432411Y126152D02*
X432709D01*
X431201Y127362D02*
Y127953D01*
Y127362D02*
X432411Y126152D01*
X432709D02*
X434173Y124687D01*
X461939Y122776D02*
Y126742D01*
X465669Y115896D02*
Y119045D01*
X460728Y127953D02*
X461939Y126742D01*
Y122776D02*
X465669Y119045D01*
X460728Y127953D02*
Y137795D01*
X431201Y127953D02*
Y137795D01*
X460728Y218504D02*
X461939Y217293D01*
X465669Y206447D02*
Y209596D01*
X461939Y213327D02*
Y217293D01*
Y213327D02*
X465669Y209596D01*
X497165Y206447D02*
Y209596D01*
X493435Y213327D02*
Y217293D01*
Y213327D02*
X497165Y209596D01*
X493435Y122776D02*
Y126742D01*
Y122776D02*
X497165Y119045D01*
Y115896D02*
Y119045D01*
X492224Y127953D02*
X493435Y126742D01*
X492224Y127953D02*
Y137795D01*
X398947Y122776D02*
Y126742D01*
X402677Y115896D02*
Y119045D01*
X397736Y127953D02*
X398947Y126742D01*
Y122776D02*
X402677Y119045D01*
X397736Y127953D02*
Y137795D01*
D52*
X50787Y96201D02*
Y104331D01*
Y96201D02*
X53937Y93051D01*
X56496D01*
X44291Y96791D02*
Y103740D01*
X43701Y104331D02*
X44291Y103740D01*
X37992Y93051D02*
X40551D01*
X44291Y96791D01*
X256004Y127953D02*
X263779D01*
X247933Y127362D02*
Y127953D01*
X242187Y121616D02*
X247933Y127362D01*
X242187Y118537D02*
Y121616D01*
X229744Y130980D02*
X242187Y118537D01*
X125557Y130980D02*
X229744D01*
X84016Y163228D02*
X100393Y146851D01*
X109686D02*
X125557Y130980D01*
X100393Y146851D02*
X109686D01*
X72393Y144851D02*
X108857D01*
X125634Y128075D01*
X228679D01*
X234547Y122207D01*
X109329Y141551D02*
X124805Y126075D01*
X65693Y141551D02*
X109329D01*
X226667Y126075D02*
X231988Y120754D01*
X124805Y126075D02*
X226667D01*
X234547Y115847D02*
Y122207D01*
X54016Y163228D02*
X72393Y144851D01*
X58957Y148287D02*
X65693Y141551D01*
X231988Y115847D02*
Y120754D01*
X268577Y122047D02*
X312177Y78447D01*
X263091Y115847D02*
X271949D01*
X313348Y74447D01*
X313939D02*
X314764Y73622D01*
X313348Y74447D02*
X313939D01*
X263779Y122047D02*
X268577D01*
X261486Y119754D02*
X263779Y122047D01*
X312177Y78447D02*
X329821D01*
X334646Y73622D01*
X261392Y119754D02*
X261486D01*
X260175Y115884D02*
Y118537D01*
X260138Y115847D02*
X260175Y115884D01*
Y118537D02*
X261392Y119754D01*
X264171Y82285D02*
X286612D01*
X295276Y73622D01*
X158108Y74447D02*
X159092D01*
X161417Y76772D01*
X178274D01*
X157283Y73622D02*
X158108Y74447D01*
X178274Y76772D02*
X186179Y84677D01*
X242187Y92778D02*
X242224Y92815D01*
X242187Y90124D02*
Y92778D01*
X186179Y84677D02*
X236740D01*
X242187Y90124D01*
X187008Y82677D02*
X237578D01*
X178778Y74447D02*
X187008Y82677D01*
X177793Y74447D02*
X178778D01*
X176969Y73622D02*
X177793Y74447D01*
X197478D02*
X198463D01*
X204693Y80677D02*
X238406D01*
X196654Y73622D02*
X197478Y74447D01*
X198463D02*
X204693Y80677D01*
X216339Y73622D02*
X217163Y74447D01*
X218148D02*
X222378Y78677D01*
X239235D01*
X217163Y74447D02*
X218148D01*
X237578Y82677D02*
X244746Y89846D01*
X239235Y78677D02*
X249864Y89307D01*
X238406Y80677D02*
X247305Y89576D01*
X235365Y73702D02*
X236169Y74506D01*
X237892D01*
X252461Y89075D01*
Y92815D01*
X244746Y89846D02*
Y92778D01*
X244783Y92815D01*
X249864Y92778D02*
X249902Y92815D01*
X249864Y89307D02*
Y92778D01*
X247305Y89576D02*
Y92778D01*
X247342Y92815D01*
X257616Y86012D02*
X263343Y80285D01*
X260175Y86282D02*
X264171Y82285D01*
X260175Y86282D02*
Y92778D01*
X257616Y86012D02*
Y92778D01*
X263343Y80285D02*
X268927D01*
X257579Y92815D02*
X257616Y92778D01*
X268927Y80285D02*
X275590Y73622D01*
X255035Y73717D02*
Y92800D01*
Y73717D02*
X255050Y73702D01*
X255020Y92815D02*
X255035Y92800D01*
X260138Y92815D02*
X260175Y92778D01*
D53*
X301181Y210630D02*
X316929Y226378D01*
X452264Y291831D02*
X452756Y291339D01*
X438976Y291831D02*
X452264D01*
X375984D02*
X391240D01*
X391732Y291339D01*
X313484D02*
X334646D01*
X312992Y291831D02*
X313484Y291339D01*
X383764Y30979D02*
X383858Y30885D01*
X383764Y35950D02*
X383858Y36044D01*
Y47490D01*
Y17717D02*
Y30885D01*
X383764Y30979D02*
Y35950D01*
X291339Y35432D02*
X295277Y39371D01*
Y57087D01*
X291339Y17717D02*
Y35432D01*
X291535Y60828D02*
Y64173D01*
Y60828D02*
X295277Y57087D01*
X330709Y35433D02*
X334646Y39370D01*
X330709Y17717D02*
Y35433D01*
X334646Y39370D02*
Y57087D01*
X330906Y60827D02*
X334646Y57087D01*
X330906Y60827D02*
Y64173D01*
X311024Y17717D02*
Y35473D01*
X314962Y39411D02*
Y57087D01*
X311024Y35473D02*
X314962Y39411D01*
X311024Y61025D02*
Y64173D01*
Y61025D02*
X314962Y57087D01*
X275592Y39411D02*
Y57087D01*
X271654Y35473D02*
X275592Y39411D01*
X271654Y17717D02*
Y35473D01*
X275592Y57087D02*
Y60432D01*
X271850Y64173D02*
X275592Y60432D01*
X157481Y39411D02*
Y57087D01*
X153543Y35473D02*
X157481Y39411D01*
X153543Y17717D02*
Y35473D01*
Y61025D02*
X157481Y57087D01*
X153543Y61025D02*
Y64173D01*
X173228Y35432D02*
X177166Y39371D01*
Y57087D01*
X173228Y17717D02*
Y35432D01*
Y61025D02*
Y64173D01*
Y61025D02*
X177166Y57087D01*
X192913Y17717D02*
Y35473D01*
X196852Y39411D02*
Y57087D01*
X192913Y35473D02*
X196852Y39411D01*
X192913Y61025D02*
X196852Y57087D01*
X192913Y61025D02*
Y64173D01*
X216536Y39371D02*
Y57087D01*
X212598Y35432D02*
X216536Y39371D01*
X212598Y17717D02*
Y35432D01*
X212598Y61025D02*
Y64173D01*
Y61025D02*
X216536Y57087D01*
X232283Y35842D02*
X235563Y39122D01*
Y57166D01*
X232283Y17717D02*
Y35842D01*
X231625Y61104D02*
X235563Y57166D01*
X231625Y61104D02*
Y64253D01*
X251969Y17717D02*
Y35802D01*
X255248Y39081D02*
Y57166D01*
X251969Y35802D02*
X255248Y39081D01*
X251310Y61104D02*
X255248Y57166D01*
X251310Y61104D02*
Y64253D01*
X90677Y27433D02*
Y81202D01*
X77442Y94437D02*
X90677Y81202D01*
X76921Y94437D02*
X77442D01*
X76870Y94488D02*
X76921Y94437D01*
X90677Y27433D02*
X100394Y17717D01*
X10980Y64404D02*
Y91689D01*
X13780Y94488D01*
X10980Y64404D02*
X38449Y36935D01*
X61490D01*
X80709Y17717D01*
X25012Y85236D02*
Y94488D01*
X25500D02*
X25551Y94539D01*
Y102469D02*
X27413Y104331D01*
X25012Y94488D02*
X25500D01*
X25551Y94539D02*
Y102469D01*
X68311Y94488D02*
X68752D01*
X68799D01*
X68260Y94539D02*
Y102469D01*
X66398Y104331D02*
X68260Y102469D01*
Y94539D02*
X68311Y94488D01*
X68701Y84646D02*
Y94437D01*
X68752Y94488D01*
X456693Y163508D02*
Y181250D01*
X488189Y159449D02*
Y181250D01*
X541339Y63779D02*
Y78839D01*
Y17717D02*
Y62992D01*
X521654Y64961D02*
Y88730D01*
Y17717D02*
Y64961D01*
X442913D02*
Y75049D01*
Y17717D02*
Y64961D01*
X371924Y67052D02*
X393701Y88829D01*
X364173Y59301D02*
X371432Y66560D01*
X391609Y55241D02*
X425197Y88829D01*
X383858Y47490D02*
X391609Y55241D01*
X393701Y88829D02*
Y90699D01*
X364173Y17717D02*
Y59301D01*
X425197Y88829D02*
Y90699D01*
X488189Y181250D02*
X488189Y181250D01*
X456693Y88829D02*
Y90699D01*
X442913Y75049D02*
X456693Y88829D01*
X462598Y63238D02*
X488189Y88829D01*
Y90699D01*
X462598Y17717D02*
Y63238D01*
X519685Y159449D02*
Y181250D01*
X519685Y181250D02*
X519685Y181250D01*
X551181Y159449D02*
Y181102D01*
X519685Y90699D02*
X521654Y88730D01*
X551181Y88681D02*
Y90551D01*
X541339Y78839D02*
X551181Y88681D01*
D54*
X344142Y127134D02*
D03*
Y183827D02*
D03*
X308315D02*
D03*
D55*
Y127134D02*
D03*
D56*
X94016Y163228D02*
D03*
X104016D02*
D03*
X124016D02*
D03*
X134016D02*
D03*
X144016D02*
D03*
X54016Y173228D02*
D03*
Y163228D02*
D03*
X94016Y173228D02*
D03*
X134016D02*
D03*
X174016D02*
D03*
Y163228D02*
D03*
X214016Y173228D02*
D03*
Y163228D02*
D03*
X44016Y173228D02*
D03*
X34016D02*
D03*
X44016Y163228D02*
D03*
X84016Y173228D02*
D03*
X74016D02*
D03*
X84016Y163228D02*
D03*
X74016D02*
D03*
X114016Y173228D02*
D03*
X104016D02*
D03*
X114016Y163228D02*
D03*
X154016Y173228D02*
D03*
X144016D02*
D03*
X154016Y163228D02*
D03*
X184016Y173228D02*
D03*
X164016D02*
D03*
X184016Y163228D02*
D03*
X164016D02*
D03*
X204016Y173228D02*
D03*
X194016D02*
D03*
X204016Y163228D02*
D03*
X194016D02*
D03*
X124016Y173228D02*
D03*
X64016D02*
D03*
Y163228D02*
D03*
X224016Y173228D02*
D03*
Y163228D02*
D03*
D57*
X321772Y210630D02*
D03*
X291339Y17717D02*
D03*
X251969D02*
D03*
X173228D02*
D03*
X212598D02*
D03*
X232283Y305118D02*
D03*
X423228Y17717D02*
D03*
X383858D02*
D03*
X462598D02*
D03*
X501968Y17717D02*
D03*
X541339D02*
D03*
X330709Y17717D02*
D03*
X80709Y17717D02*
D03*
X192913Y305118D02*
D03*
X153543D02*
D03*
X114173Y305118D02*
D03*
X59055Y305118D02*
D03*
X120079Y17717D02*
D03*
D58*
X331772Y210630D02*
D03*
X271654Y17717D02*
D03*
X232283D02*
D03*
X153543D02*
D03*
X192913D02*
D03*
X251969Y305118D02*
D03*
X403543Y17717D02*
D03*
X364173D02*
D03*
X442913D02*
D03*
X482283Y17717D02*
D03*
X521654D02*
D03*
X311024Y17717D02*
D03*
X61024Y17717D02*
D03*
X212598Y305118D02*
D03*
X173228D02*
D03*
X133858Y305118D02*
D03*
X78740Y305118D02*
D03*
X100394Y17717D02*
D03*
D59*
X34016Y163228D02*
D03*
D60*
X525591Y311024D02*
D03*
Y291339D02*
D03*
X381890Y207630D02*
D03*
X33465Y210630D02*
D03*
X277559Y259842D02*
D03*
X43307Y151575D02*
D03*
X387795Y210630D02*
D03*
X224410Y116142D02*
D03*
X263779Y127953D02*
D03*
X271654Y226378D02*
D03*
X226378D02*
D03*
X183071D02*
D03*
X139764D02*
D03*
X94488D02*
D03*
X51181Y122047D02*
D03*
X66929D02*
D03*
X21654Y114173D02*
D03*
X547244Y291339D02*
D03*
X74852Y205469D02*
D03*
X64961Y200891D02*
D03*
X112205Y208661D02*
D03*
X122047D02*
D03*
X149606Y51181D02*
D03*
X169291D02*
D03*
X188976D02*
D03*
X206693D02*
D03*
X226378D02*
D03*
X246063D02*
D03*
X267717D02*
D03*
X287402D02*
D03*
X307087D02*
D03*
X326772D02*
D03*
X377953Y49213D02*
D03*
X415354D02*
D03*
X452756D02*
D03*
X494095D02*
D03*
X533465D02*
D03*
X283465Y246063D02*
D03*
X251969Y208661D02*
D03*
X242126D02*
D03*
X208661D02*
D03*
X198819D02*
D03*
X165354D02*
D03*
X155512D02*
D03*
X578740Y295276D02*
D03*
X566929Y307087D02*
D03*
X586614D02*
D03*
D61*
X301181Y210630D02*
D03*
X452756Y291339D02*
D03*
X391732D02*
D03*
X334646D02*
D03*
X316929Y226378D02*
D03*
X389764Y33465D02*
D03*
X576772Y218504D02*
D03*
X456693Y163508D02*
D03*
X488189Y159449D02*
D03*
X519685D02*
D03*
X551181D02*
D03*
M02*
